<?xml version="1.0" encoding="UTF-8"?>
<svg version="1.1" xmlns="http://www.w3.org/2000/svg" width="291" height="173">
<path d="M0 0 C96.03 0 192.06 0 291 0 C291 57.09 291 114.18 291 173 C194.97 173 98.94 173 0 173 C0 115.91 0 58.82 0 0 Z " fill="#FEFEFE" transform="translate(0,0)"/>
<path d="M0 0 C1.69140625 1.23046875 1.69140625 1.23046875 3 3 C3.44140625 5.8125 3.44140625 5.8125 3.5625 9 C3.72458072 13.80459005 3.72458072 13.80459005 6 18 C6 18.99 6 19.98 6 21 C5.01 21 4.02 21 3 21 C2.67 24.3 2.34 27.6 2 31 C-0.64 31.33 -3.28 31.66 -6 32 C-6.16802051 33.45817797 -6.33437143 34.9165484 -6.5 36.375 C-6.5928125 37.18710938 -6.685625 37.99921875 -6.78125 38.8359375 C-7.03352351 40.96912825 -7.03352351 40.96912825 -7 43 C-5.515 43.495 -5.515 43.495 -4 44 C-2.0625 46.29296875 -2.0625 46.29296875 0 49.1875 C0.680625 50.12980469 1.36125 51.07210937 2.0625 52.04296875 C5.53615482 57.34449435 7.38390943 60.96318404 7.125 67.375 C6.99496633 72.72334143 7.14791827 77.92543283 7.5625 83.25 C8.00890853 89.27398285 7.93379879 95.02368772 7 101 C8.10859375 100.97035156 9.2171875 100.94070312 10.359375 100.91015625 C15.40789756 100.91126826 20.2737184 101.64380523 25.25 102.4375 C26.13429687 102.57220703 27.01859375 102.70691406 27.9296875 102.84570312 C34.42468808 103.85134899 34.42468808 103.85134899 37.07495117 104.53613281 C40.04312595 105.25135565 43.01659119 105.20225511 46.0625 105.3125 C51.94107757 105.60770314 56.71241051 106.79112444 62.140625 109.0234375 C66.69774816 110.57983202 71.3447411 110.96089865 76.11328125 111.49609375 C79.9623834 111.99512307 83.65380444 112.76778762 87.4375 113.625 C92.84453394 114.72917325 98.05854814 115.37142381 103.5625 115.5 C104.84253906 115.5309375 106.12257812 115.561875 107.44140625 115.59375 C112.82915751 114.69480577 115.39728704 111.92325555 118.875 107.75 C120.47989843 103.82691495 120.24606172 100.18304922 120 96 C123.3125 96.0625 123.3125 96.0625 127 97 C129.87888945 101.40829948 130.45163814 104.5706691 129.52734375 109.8671875 C128.58938289 113.66071807 127.34897185 117.33486893 126 121 C127.11375 120.814375 128.2275 120.62875 129.375 120.4375 C134.99223555 120.39759069 137.91259706 123.93809511 141.7265625 127.67578125 C142.85191406 128.82626953 142.85191406 128.82626953 144 130 C144.56460937 130.52980469 145.12921875 131.05960938 145.7109375 131.60546875 C147.97636614 133.73340028 148.99642024 134.98926073 150 138 C124.86193488 138.02376065 99.72387154 138.04118435 74.58579731 138.05181217 C62.90379259 138.0568863 51.22179507 138.06377789 39.53979492 138.07543945 C-16.98204205 138.13076622 -73.48546265 137.96100895 -130 137 C-127.01221284 133.96588577 -124.22275533 131.28593841 -120.625 129 C-117.48353284 127.01327543 -117.48353284 127.01327543 -114.52915096 124.76751423 C-109.82510406 120.95764826 -106.35894817 120.29325219 -100.40258789 120.43237305 C-99.57251221 120.43164291 -98.74243652 120.43091278 -97.88720703 120.43016052 C-95.16500696 120.43362214 -92.44455443 120.4724137 -89.72265625 120.51171875 C-87.82694941 120.52105199 -85.93123045 120.52816569 -84.0355072 120.53315735 C-79.06218782 120.5521869 -74.08960633 120.60125271 -69.11657715 120.65667725 C-64.03550191 120.70795713 -58.95430667 120.73069003 -53.87304688 120.75585938 C-43.91504157 120.80937548 -33.95758231 120.89463912 -24 121 C-24.10338684 119.98823196 -24.10338684 119.98823196 -24.2088623 118.95602417 C-24.83436748 112.52631383 -25.1802681 106.15283541 -25.28125 99.6953125 C-25.31900277 97.79427068 -25.35676341 95.89322902 -25.39453125 93.9921875 C-25.44830553 91.04298882 -25.5005475 88.09376701 -25.55224609 85.14453125 C-25.6040641 82.26554167 -25.66122212 79.38669276 -25.71875 76.5078125 C-25.73232544 75.62755402 -25.74590088 74.74729553 -25.7598877 73.84036255 C-25.84257206 69.75988913 -26.07135339 65.9916235 -27 62 C-27.14136098 59.52346434 -27.22002555 57.04288572 -27.25 54.5625 C-27.27578125 53.28503906 -27.3015625 52.00757813 -27.328125 50.69140625 C-26.97566361 46.72621559 -25.97211198 44.41962275 -24 41 C-22.17745571 37.00442214 -20.65948121 33.35257596 -20 29 C-20.94875 28.855625 -21.8975 28.71125 -22.875 28.5625 C-26 28 -26 28 -28 27 C-28.5067972 17.35677558 -28.73807786 7.43931338 -22.046875 -0.2421875 C-15.75133603 -5.64866181 -6.77672321 -3.15468149 0 0 Z " fill="#B39274" transform="translate(136,29)"/>
<path d="M0 0 C5.10678721 4.17828044 5.30768975 10.48562422 5.94921875 16.6328125 C5.99931906 18.96825767 5.68127524 20.77689133 5 23 C5.99 23 6.98 23 8 23 C7.34 26.96 6.68 30.92 6 35 C6.66 35 7.32 35 8 35 C8 37 8 37 6.5 38.625 C6.005 39.07875 5.51 39.5325 5 40 C5.99 40.33 6.98 40.66 8 41 C8 41.99 8 42.98 8 44 C9.43666016 43.94779297 9.43666016 43.94779297 10.90234375 43.89453125 C19.08715218 43.69388753 26.66900685 44.25812744 34.69750977 45.86474609 C39.46592676 46.79861355 44.01739012 47.24063638 48.875 47.4375 C54.57174636 47.72533561 58.88846622 48.86101956 64.125 51.01953125 C68.75050706 52.59697999 73.47833835 53.00788014 78.31640625 53.5625 C83.25657525 54.1492433 88.11949183 55.04622086 93 56 C93.33 56.99 93.66 57.98 94 59 C94.66 59 95.32 59 96 59 C96 62.96 96 66.92 96 71 C98.6915625 70.01 98.6915625 70.01 101.4375 69 C106.92775482 67.15037679 111.24674207 66.61644947 117 67 C116.34 67.99 115.68 68.98 115 70 C118.96 70.33 122.92 70.66 127 71 C127 71.33 127 71.66 127 72 C120.07 72 113.14 72 106 72 C106 72.33 106 72.66 106 73 C97.09648204 73.78250757 88.24412716 74.19012818 79.30859375 74.31640625 C78.04265884 74.33718735 76.77672394 74.35796844 75.47242737 74.37937927 C72.80934545 74.42233435 70.14629408 74.46385017 67.4831543 74.50268555 C63.47240417 74.56123135 59.46180301 74.62715135 55.45117188 74.69335938 C49.10530876 74.79595384 42.7593951 74.8804093 36.41314697 74.95513916 C33.27556542 74.99637809 30.13871034 75.05370452 27.00146484 75.11474609 C18.5729243 75.24632128 10.81916175 75.28506516 2.75 72.5 C1.98171875 72.26152344 1.2134375 72.02304688 0.421875 71.77734375 C-1.39346906 71.21004873 -3.19830891 70.60926752 -5 70 C-6.95031159 61.20689404 -7.46316561 52.54567551 -7.6875 43.5625 C-7.71744049 42.51458282 -7.71744049 42.51458282 -7.74798584 41.44549561 C-8.6261762 10.2523524 -8.6261762 10.2523524 -6 5 C-4.33333333 4 -2.66666667 3 -1 2 C-0.67 1.34 -0.34 0.68 0 0 Z " fill="#070911" transform="translate(134,87)"/>
<path d="M0 0 C0.83007568 -0.00073013 1.66015137 -0.00146027 2.51538086 -0.00221252 C5.23758093 0.00124909 7.95803346 0.04004066 10.67993164 0.0793457 C12.57563848 0.08867895 14.47135744 0.09579264 16.36708069 0.1007843 C21.34040007 0.11981386 26.31298156 0.16887966 31.28601074 0.2243042 C36.36708598 0.27558409 41.44828122 0.29831698 46.52954102 0.32348633 C56.48754632 0.37700244 66.44500558 0.46226608 76.40258789 0.56762695 C78.16721472 3.65572391 78.40258789 4.80074831 78.40258789 8.56762695 C77.74258789 8.56762695 77.08258789 8.56762695 76.40258789 8.56762695 C76.89758789 12.52762695 76.89758789 12.52762695 77.40258789 16.56762695 C78.39000977 16.47223633 79.37743164 16.3768457 80.39477539 16.27856445 C81.67610352 16.16770508 82.95743164 16.0568457 84.27758789 15.94262695 C85.55375977 15.82661133 86.82993164 15.7105957 88.14477539 15.59106445 C89.21985352 15.58333008 90.29493164 15.5755957 91.40258789 15.56762695 C92.39258789 16.55762695 92.39258789 16.55762695 93.40258789 17.56762695 C64.27283027 17.72167742 35.1541933 17.46291405 6.02758789 17.06762695 C5.14621281 17.05566914 4.26483772 17.04371132 3.3567543 17.03139114 C-7.6280412 16.88188794 -18.61275806 16.72717987 -29.59741211 16.56762695 C-26.60962495 13.53351272 -23.82016744 10.85356536 -20.22241211 8.56762695 C-17.08094495 6.58090238 -17.08094495 6.58090238 -14.12656307 4.33514118 C-9.42251617 0.52527521 -5.95636028 -0.13912086 0 0 Z " fill="#C0BE91" transform="translate(35.597412109375,149.432373046875)"/>
<path d="M0 0 C1.69140625 1.23046875 1.69140625 1.23046875 3 3 C3.44140625 5.8125 3.44140625 5.8125 3.5625 9 C3.72458072 13.80459005 3.72458072 13.80459005 6 18 C6 18.99 6 19.98 6 21 C5.01 21 4.02 21 3 21 C2.67 24.3 2.34 27.6 2 31 C-0.64 31.33 -3.28 31.66 -6 32 C-6.16802051 33.45817797 -6.33437143 34.9165484 -6.5 36.375 C-6.63921875 37.59316406 -6.63921875 37.59316406 -6.78125 38.8359375 C-7.03352351 40.96912825 -7.03352351 40.96912825 -7 43 C-5.515 43.495 -5.515 43.495 -4 44 C-2.0625 46.29296875 -2.0625 46.29296875 0 49.1875 C0.680625 50.12980469 1.36125 51.07210937 2.0625 52.04296875 C5.53615482 57.34449435 7.38390943 60.96318404 7.125 67.375 C6.99496633 72.72334143 7.14791827 77.92543283 7.5625 83.25 C8.00890853 89.27398285 7.93379879 95.02368772 7 101 C9.64 101 12.28 101 15 101 C15 101.33 15 101.66 15 102 C12.03 102 9.06 102 6 102 C5.67 101.01 5.34 100.02 5 99 C4.01 98.505 4.01 98.505 3 98 C3.495 96.515 3.495 96.515 4 95 C4.66 95 5.32 95 6 95 C6 94.34 6 93.68 6 93 C5.34 93 4.68 93 4 93 C4.14095064 91.3745692 4.28792087 89.74965949 4.4375 88.125 C4.51871094 87.22007813 4.59992188 86.31515625 4.68359375 85.3828125 C5 83 5 83 6 81 C5.01 81 4.02 81 3 81 C2.97421875 80.09378906 2.9484375 79.18757813 2.921875 78.25390625 C2.60658155 71.48226273 2.10297279 65.92899548 -1.0390625 59.87890625 C-2 58 -2 58 -2.8125 54.9375 C-5.0937698 49.2943589 -9.83843809 44.22350418 -15 41 C-17.73713695 40.62539184 -20.22025584 40.86101279 -23 41 C-22.01 37.04 -21.02 33.08 -20 29 C-21.98 28.67 -23.96 28.34 -26 28 C-26.66 27.67 -27.32 27.34 -28 27 C-28.5067972 17.35677558 -28.73807786 7.43931338 -22.046875 -0.2421875 C-15.75133603 -5.64866181 -6.77672321 -3.15468149 0 0 Z " fill="#AC9275" transform="translate(136,29)"/>
<path d="M0 0 C3.3125 0.0625 3.3125 0.0625 7 1 C9.87888945 5.40829948 10.45163814 8.5706691 9.52734375 13.8671875 C8.58938289 17.66071807 7.34897185 21.33486893 6 25 C7.11375 24.814375 8.2275 24.62875 9.375 24.4375 C14.99223555 24.39759069 17.91259706 27.93809511 21.7265625 31.67578125 C22.47679687 32.44277344 23.22703125 33.20976562 24 34 C24.56460938 34.52980469 25.12921875 35.05960938 25.7109375 35.60546875 C27.97636614 37.73340028 28.99642024 38.98926073 30 42 C-21.48 42 -72.96 42 -126 42 C-126 41.67 -126 41.34 -126 41 C-125.13874512 40.99191315 -124.27749023 40.98382629 -123.39013672 40.97549438 C-115.1564602 40.89660051 -106.92292664 40.80905152 -98.68943787 40.71247292 C-94.4594938 40.66314248 -90.22956747 40.61682434 -85.99951172 40.578125 C-56.2198765 41.28049966 -56.2198765 41.28049966 -26.93719482 37.48075867 C-23.92064998 36.7321349 -20.92917772 36.77255838 -17.828125 36.68359375 C-17.1457074 36.66281265 -16.46328979 36.64203156 -15.76019287 36.62062073 C-13.59022644 36.55547948 -11.42014376 36.49640596 -9.25 36.4375 C-7.77472779 36.39428103 -6.29946713 36.35066568 -4.82421875 36.30664062 C-1.21626834 36.19983482 2.39181133 36.09846847 6 36 C6 35.01 6 34.02 6 33 C3.03 32.01 3.03 32.01 0 31 C0 30.01 0 29.02 0 28 C-3.60447434 28.1387881 -7.20848712 28.28723935 -10.8125 28.4375 C-11.83666016 28.47681641 -12.86082031 28.51613281 -13.91601562 28.55664062 C-14.89892578 28.59853516 -15.88183594 28.64042969 -16.89453125 28.68359375 C-17.80050049 28.72025146 -18.70646973 28.75690918 -19.63989258 28.79467773 C-22.15048782 28.9208205 -22.15048782 28.9208205 -25 30 C-25.495 25.545 -25.495 25.545 -26 21 C-26.66 21 -27.32 21 -28 21 C-28 20.34 -28 19.68 -28 19 C-26.04707031 19.08701172 -26.04707031 19.08701172 -24.0546875 19.17578125 C-22.32816099 19.22269773 -20.60159552 19.26819586 -18.875 19.3125 C-17.59109375 19.3753418 -17.59109375 19.3753418 -16.28125 19.43945312 C-11.91524412 19.52341478 -8.95883084 19.46306304 -5.5 16.62109375 C-1.53608031 12.4651717 0.16038022 9.96401322 0.1875 4.1875 C0.13966204 2.79108728 0.08204828 1.39482079 0 0 Z " fill="#BBB583" transform="translate(256,125)"/>
<path d="M0 0 C2.66796875 1.828125 2.66796875 1.828125 5.1875 4.25 C6.44626953 5.43335937 6.44626953 5.43335937 7.73046875 6.640625 C12.95352215 12.07044299 12.95352215 12.07044299 13.1875 16.75 C13.0946875 18.35875 13.0946875 18.35875 13 20 C12.01 20 11.02 20 10 20 C9.505 17.525 9.505 17.525 9 15 C8.7525 15.639375 8.505 16.27875 8.25 16.9375 C7 19 7 19 4.875 19.75 C3.946875 19.87375 3.946875 19.87375 3 20 C3 21.98 3 23.96 3 26 C3.33 26 3.66 26 4 26 C4.02689216 27.47906892 4.04634621 28.95827483 4.0625 30.4375 C4.07410156 31.26121094 4.08570312 32.08492187 4.09765625 32.93359375 C4 35 4 35 3 36 C2.84417697 37.34015221 2.74955858 38.68758903 2.68359375 40.03515625 C2.64169922 40.84404297 2.59980469 41.65292969 2.55664062 42.48632812 C2.51732422 43.33646484 2.47800781 44.18660156 2.4375 45.0625 C2.39431641 45.91650391 2.35113281 46.77050781 2.30664062 47.65039062 C2.20023298 49.76672037 2.09958269 51.88333813 2 54 C0.68 53.67 -0.64 53.34 -2 53 C-2 52.34 -2 51.68 -2 51 C-2.99 50.67 -3.98 50.34 -5 50 C-5.66 50.99 -6.32 51.98 -7 53 C-7.99 52.67 -8.98 52.34 -10 52 C-10.02505615 51.26885986 -10.0501123 50.53771973 -10.07592773 49.78442383 C-10.19222641 46.46028583 -10.31479928 43.13640759 -10.4375 39.8125 C-10.47681641 38.66201172 -10.51613281 37.51152344 -10.55664062 36.32617188 C-10.59853516 35.21435547 -10.64042969 34.10253906 -10.68359375 32.95703125 C-10.72025146 31.93585205 -10.75690918 30.91467285 -10.79467773 29.86254883 C-10.98870807 27.1574291 -11.44421232 24.6498327 -12 22 C-12.14136098 19.52346434 -12.22002555 17.04288572 -12.25 14.5625 C-12.27578125 13.28503906 -12.3015625 12.00757812 -12.328125 10.69140625 C-11.97532013 6.72235143 -11.15307392 4.33525236 -9 1 C-5.65591011 -0.11469663 -3.50644485 -0.3668012 0 0 Z " fill="#C39E7C" transform="translate(121,69)"/>
<path d="M0 0 C2 1 2 1 2.78125 3.07421875 C3.0184375 3.93660156 3.255625 4.79898438 3.5 5.6875 C3.88865234 7.03908203 3.88865234 7.03908203 4.28515625 8.41796875 C4.84569228 10.44263713 5.39393972 12.47070828 5.9375 14.5 C6.75541233 17.07652456 6.75541233 17.07652456 8.76147461 18.13037109 C11.25099533 19.0975074 13.21404123 19.31435058 15.87890625 19.4140625 C16.79994141 19.45273438 17.72097656 19.49140625 18.66992188 19.53125 C19.62447266 19.5621875 20.57902344 19.593125 21.5625 19.625 C22.52091797 19.66367188 23.47933594 19.70234375 24.46679688 19.7421875 C27.98039732 19.88007231 31.4834787 20 35 20 C35 19.34 35 18.68 35 18 C51.06779655 16.67336028 67.18333867 16.67927604 83.29492188 16.47393799 C87.9518942 16.41427957 92.60875329 16.34839276 97.265625 16.28125 C99.06607269 16.26088684 99.06607269 16.26088684 100.90289307 16.2401123 C108.3075438 16.13234881 115.62932435 15.7186498 123 15 C123 14.67 123 14.34 123 14 C126.3 14 129.6 14 133 14 C133 13.01 133 12.02 133 11 C126.32508169 10.54489193 120.40625443 12.2327574 114 14 C114 10.7 114 7.4 114 4 C114.33 4 114.66 4 115 4 C115 6.31 115 8.62 115 11 C115.99 10.34 116.98 9.68 118 9 C120.36010742 8.77294922 120.36010742 8.77294922 123.10546875 8.8046875 C124.08837891 8.81113281 125.07128906 8.81757813 126.08398438 8.82421875 C127.10814453 8.84097656 128.13230469 8.85773438 129.1875 8.875 C130.22326172 8.88402344 131.25902344 8.89304688 132.32617188 8.90234375 C134.88434685 8.9259214 137.44205748 8.9588297 140 9 C140 9.99 140 10.98 140 12 C140.969375 12.12375 141.93875 12.2475 142.9375 12.375 C144.4534375 12.684375 144.4534375 12.684375 146 13 C146.33 13.66 146.66 14.32 147 15 C146.67 15.66 146.34 16.32 146 17 C142.72933832 18.09022056 140.16555609 18.18910605 136.72265625 18.28125 C135.48708984 18.31863281 134.25152344 18.35601562 132.97851562 18.39453125 C131.68623047 18.42933594 130.39394531 18.46414062 129.0625 18.5 C126.51160733 18.56890856 123.96081474 18.64165871 121.41015625 18.71875 C120.27715088 18.74904297 119.14414551 18.77933594 117.97680664 18.81054688 C115.15348006 18.90022923 115.15348006 18.90022923 113.08244324 19.47990417 C93.640856 24.33549312 71.23389148 22.45163646 51.28161621 22.65917969 C47.86438668 22.69740705 44.44733435 22.74599829 41.03023911 22.7946043 C37.7223563 22.84069602 34.41442553 22.88150484 31.10645294 22.92057228 C29.5355686 22.93954311 27.9647002 22.9598885 26.39385223 22.98166466 C24.21799195 23.01081852 22.04216903 23.03311696 19.86621094 23.0534668 C18.63288025 23.06741989 17.39954956 23.08137299 16.12884521 23.0957489 C13.50663085 23.01550391 11.49228418 22.71221398 9 22 C6.91765408 21.93256652 4.83331443 21.91485528 2.75 21.9375 C1.67234375 21.94652344 0.5946875 21.95554688 -0.515625 21.96484375 C-1.74539062 21.98224609 -1.74539062 21.98224609 -3 22 C-3.73080266 20.02253397 -4.39421747 18.01927511 -5 16 C-4.67 15.34 -4.34 14.68 -4 14 C-3.34 14 -2.68 14 -2 14 C-2.08378906 13.39671875 -2.16757813 12.7934375 -2.25390625 12.171875 C-2.35574219 11.37265625 -2.45757812 10.5734375 -2.5625 9.75 C-2.66691406 8.96109375 -2.77132812 8.1721875 -2.87890625 7.359375 C-3.00211719 4.95874887 -2.83159765 3.25079123 -2 1 C-1.34 0.67 -0.68 0.34 0 0 Z " fill="#9A9754" transform="translate(116,144)"/>
<path d="M0 0 C0.33 0.66 0.66 1.32 1 2 C-0.32 2 -1.64 2 -3 2 C-3.0928125 3.36125 -3.0928125 3.36125 -3.1875 4.75 C-4 8 -4 8 -6.1875 10.4375 C-9.67812389 12.37673549 -11.19582249 11.80503341 -15 11 C-14.79503906 11.76183594 -14.59007813 12.52367187 -14.37890625 13.30859375 C-12.74722695 19.56206324 -11.53672183 25.55933806 -11 32 C-16.92863717 30.83348574 -22.38798394 29.24480642 -28 27 C-28.5067972 17.35677558 -28.73807786 7.43931338 -22.046875 -0.2421875 C-15.75084889 -5.64908015 -6.7816964 -3.14864476 0 0 Z " fill="#100F11" transform="translate(136,29)"/>
<path d="M0 0 C5.10678721 4.17828044 5.30768975 10.48562422 5.94921875 16.6328125 C5.99931906 18.96825767 5.68127524 20.77689133 5 23 C5.99 23 6.98 23 8 23 C7.34 26.96 6.68 30.92 6 35 C6.66 35 7.32 35 8 35 C8 37 8 37 6.5 38.625 C6.005 39.07875 5.51 39.5325 5 40 C5.99 40.33 6.98 40.66 8 41 C8 41.99 8 42.98 8 44 C8.66 44.33 9.32 44.66 10 45 C3.375 48.125 3.375 48.125 0 47 C0 46.01 0 45.02 0 44 C0.99 43.34 1.98 42.68 3 42 C0.03 42 -2.94 42 -6 42 C-6 40.35 -6 38.7 -6 37 C-4.68 36.34 -3.36 35.68 -2 35 C-2.99 34.34 -3.98 33.68 -5 33 C-5.05645393 30.07628052 -4.95609093 27.39507742 -4.6875 24.5 C-4.62626953 23.71496094 -4.56503906 22.92992188 -4.50195312 22.12109375 C-4.34266355 20.08008672 -4.17207058 18.03996926 -4 16 C-3.89962288 13.90275966 -3.89962288 13.90275966 -4.75 11.625 C-4.8325 10.75875 -4.915 9.8925 -5 9 C-3.71034824 7.62437146 -2.37310707 6.29233607 -1 5 C-0.20318682 2.35815459 -0.20318682 2.35815459 0 0 Z " fill="#2A3035" transform="translate(134,87)"/>
<path d="M0 0 C2.41706304 0.30964862 4.83361887 0.62261115 7.25 0.9375 C7.93191406 1.02451172 8.61382812 1.11152344 9.31640625 1.20117188 C14.60553589 1.89440731 14.60553589 1.89440731 17.04296875 2.546875 C20.02601046 3.23755931 23.00701191 3.20190839 26.0625 3.3125 C31.93485952 3.60739089 36.70374238 4.78487595 42.125 7.01953125 C46.75050706 8.59697999 51.47833835 9.00788014 56.31640625 9.5625 C61.25657525 10.1492433 66.11949183 11.04622086 71 12 C71.495 13.485 71.495 13.485 72 15 C72.99 15.495 72.99 15.495 74 16 C73.34 16 72.68 16 72 16 C71.67 16.66 71.34 17.32 71 18 C71 17.34 71 16.68 71 16 C70.32420898 15.98018066 69.64841797 15.96036133 68.95214844 15.93994141 C65.88437956 15.84456762 62.81728002 15.73493835 59.75 15.625 C58.68652344 15.5940625 57.62304688 15.563125 56.52734375 15.53125 C55.50253906 15.49257812 54.47773438 15.45390625 53.421875 15.4140625 C52.47924805 15.3826416 51.53662109 15.3512207 50.56542969 15.31884766 C47.9252824 14.99071363 46.32514544 14.23081598 44 13 C40.72057242 12.75856334 40.72057242 12.75856334 37.25 12.875 C36.07953125 12.89304688 34.9090625 12.91109375 33.703125 12.9296875 C32.81109375 12.95289063 31.9190625 12.97609375 31 13 C31 12.01 31 11.02 31 10 C28.64236858 8.82118429 26.87235028 8.71969245 24.24609375 8.5 C23.30958984 8.4175 22.37308594 8.335 21.40820312 8.25 C19.42385557 8.08300691 17.43948041 7.91634151 15.45507812 7.75 C14.51986328 7.6675 13.58464844 7.585 12.62109375 7.5 C11.7592749 7.4278125 10.89745605 7.355625 10.00952148 7.28125 C8 7 8 7 7 6 C5.53624517 5.86750736 4.06676971 5.79678005 2.59765625 5.75390625 C1.26250977 5.70459961 1.26250977 5.70459961 -0.09960938 5.65429688 C-1.98751184 5.59322914 -3.87553977 5.53592113 -5.76367188 5.48242188 C-6.65505859 5.44826172 -7.54644531 5.41410156 -8.46484375 5.37890625 C-9.285896 5.3538501 -10.10694824 5.32879395 -10.95288086 5.30297852 C-13 5 -13 5 -15 3 C-10.05 2.67 -5.1 2.34 0 2 C0 1.34 0 0.68 0 0 Z " fill="#191F2C" transform="translate(156,131)"/>
<path d="M0 0 C2 1 2 1 2.78125 3.07421875 C3.0184375 3.93660156 3.255625 4.79898438 3.5 5.6875 C3.88865234 7.03908203 3.88865234 7.03908203 4.28515625 8.41796875 C4.84569228 10.44263713 5.39393972 12.47070828 5.9375 14.5 C6.75541233 17.07652456 6.75541233 17.07652456 8.76147461 18.13037109 C11.25099533 19.0975074 13.21404123 19.31435058 15.87890625 19.4140625 C16.79994141 19.45273438 17.72097656 19.49140625 18.66992188 19.53125 C19.62447266 19.5621875 20.57902344 19.593125 21.5625 19.625 C22.52091797 19.66367188 23.47933594 19.70234375 24.46679688 19.7421875 C27.98039732 19.88007231 31.4834787 20 35 20 C35 19.34 35 18.68 35 18 C49.81952175 16.71531316 64.63718074 16.88681608 79.5 16.9375 C82.07682205 16.94252589 84.65364504 16.94708687 87.23046875 16.95117188 C93.48700022 16.96208921 99.74349556 16.97874069 106 17 C106 17.33 106 17.66 106 18 C104.83952148 18.02505615 103.67904297 18.0501123 102.48339844 18.07592773 C98.17453118 18.17015772 93.86581927 18.27034035 89.55712891 18.37231445 C87.69290808 18.41560433 85.82864912 18.45728361 83.96435547 18.49731445 C81.2834118 18.55516113 78.602659 18.61881405 75.921875 18.68359375 C75.08944275 18.70030624 74.2570105 18.71701874 73.39935303 18.73423767 C72.61884583 18.75418289 71.83833862 18.77412811 71.03417969 18.79467773 C70.35023132 18.81022202 69.66628296 18.8257663 68.96160889 18.84178162 C66.88230407 19.00949305 65.01222978 19.46208604 63 20 C59.46904926 20.44242498 55.92131698 20.70862662 52.375 21 C50.80733887 21.12918823 50.80733887 21.12918823 49.20800781 21.26098633 C41.06168606 21.90039892 32.91422625 22.35177911 24.75 22.6875 C23.63802246 22.73583984 22.52604492 22.78417969 21.38037109 22.83398438 C20.34219238 22.87201172 19.30401367 22.91003906 18.234375 22.94921875 C17.31881836 22.98362061 16.40326172 23.01802246 15.45996094 23.0534668 C13.11765789 23.00255727 11.24664587 22.614704 9 22 C6.91765408 21.93256652 4.83331443 21.91485528 2.75 21.9375 C1.67234375 21.94652344 0.5946875 21.95554688 -0.515625 21.96484375 C-1.74539062 21.98224609 -1.74539062 21.98224609 -3 22 C-3.73080266 20.02253397 -4.39421747 18.01927511 -5 16 C-4.67 15.34 -4.34 14.68 -4 14 C-3.34 14 -2.68 14 -2 14 C-2.08378906 13.39671875 -2.16757813 12.7934375 -2.25390625 12.171875 C-2.35574219 11.37265625 -2.45757812 10.5734375 -2.5625 9.75 C-2.66691406 8.96109375 -2.77132812 8.1721875 -2.87890625 7.359375 C-3.00211719 4.95874887 -2.83159765 3.25079123 -2 1 C-1.34 0.67 -0.68 0.34 0 0 Z " fill="#7D7842" transform="translate(116,144)"/>
<path d="M0 0 C3.3125 0.0625 3.3125 0.0625 7 1 C9.94241789 5.5055774 10.38047576 8.82503818 9.4609375 14.06640625 C8.81415572 16.77960102 7.97887643 19.38966286 7 22 C6.360625 21.46375 5.72125 20.9275 5.0625 20.375 C0.66648617 18.4012795 -2.52474471 19.6447484 -7 21 C-7 21.66 -7 22.32 -7 23 C-5.35 23 -3.7 23 -2 23 C-2 24.32 -2 25.64 -2 27 C-9.33333333 27 -16.66666667 27 -24 27 C-24.33 27.66 -24.66 28.32 -25 29 C-25.33 26.36 -25.66 23.72 -26 21 C-26.66 21 -27.32 21 -28 21 C-28 20.34 -28 19.68 -28 19 C-26.04707031 19.08701172 -26.04707031 19.08701172 -24.0546875 19.17578125 C-22.32816099 19.22269773 -20.60159552 19.26819586 -18.875 19.3125 C-18.0190625 19.35439453 -17.163125 19.39628906 -16.28125 19.43945312 C-11.91524412 19.52341478 -8.95883084 19.46306304 -5.5 16.62109375 C-1.53608031 12.4651717 0.16038022 9.96401322 0.1875 4.1875 C0.13966204 2.79108728 0.08204828 1.39482079 0 0 Z " fill="#C5A78A" transform="translate(256,125)"/>
<path d="M0 0 C0.33 0 0.66 0 1 0 C1.33 5.28 1.66 10.56 2 16 C2.66 14.68 3.32 13.36 4 12 C5.5 13.375 5.5 13.375 7 15 C7 15.66 7 16.32 7 17 C7.99 16.67 8.98 16.34 10 16 C10 16.66 10 17.32 10 18 C10.66 18.33 11.32 18.66 12 19 C11.835 19.825 11.67 20.65 11.5 21.5 C10.5305128 28.28641043 11.07571836 34.75524209 12 41.5 C12.14308594 42.59054688 12.14308594 42.59054688 12.2890625 43.703125 C12.52146167 45.46935867 12.76006638 47.23477406 13 49 C12.34 49 11.68 49 11 49 C10.34 46.03 9.68 43.06 9 40 C8.34 40 7.68 40 7 40 C5.875 34.375 5.875 34.375 7 31 C6.34 31 5.68 31 5 31 C5 33.64 5 36.28 5 39 C3.515 39.495 3.515 39.495 2 40 C2.33 41.32 2.66 42.64 3 44 C2.34 44 1.68 44 1 44 C0.67 44.99 0.34 45.98 0 47 C-1.55396203 31.29388377 -1.19905195 15.71614519 0 0 Z " fill="#BE9776" transform="translate(112,105)"/>
<path d="M0 0 C5.96370715 -0.11043902 8.71661622 1.19252739 13.1875 5.1875 C16.73629536 8.6112995 19.94508804 12.13643487 23 16 C23.721875 16.70125 24.44375 17.4025 25.1875 18.125 C27.90178458 20.9328806 28.9415408 22.94488265 29.16015625 26.890625 C29.12792969 27.99921875 29.09570312 29.1078125 29.0625 30.25 C28.97281051 35.6313697 29.15013012 40.891737 29.5625 46.25 C30.0083011 52.27410443 29.93382064 58.02354793 29 64 C31.64 64 34.28 64 37 64 C37 64.33 37 64.66 37 65 C34.03 65 31.06 65 28 65 C27.505 63.515 27.505 63.515 27 62 C26.34 61.67 25.68 61.34 25 61 C25.33 60.01 25.66 59.02 26 58 C26.66 58 27.32 58 28 58 C28 57.34 28 56.68 28 56 C27.34 56 26.68 56 26 56 C26.14095064 54.3745692 26.28792087 52.74965949 26.4375 51.125 C26.51871094 50.22007813 26.59992188 49.31515625 26.68359375 48.3828125 C27 46 27 46 28 44 C27.01 44 26.02 44 25 44 C24.97421875 43.09378906 24.9484375 42.18757813 24.921875 41.25390625 C24.60658155 34.48226273 24.10297279 28.92899548 20.9609375 22.87890625 C20 21 20 21 19.1875 17.9375 C16.9062302 12.2943589 12.16156191 7.22350418 7 4 C4.26286305 3.62539184 1.77974416 3.86101279 -1 4 C-0.67 2.68 -0.34 1.36 0 0 Z " fill="#878077" transform="translate(114,66)"/>
<path d="M0 0 C-1.09818901 3.29456702 -1.91003854 4.45501927 -5 6 C-3.60240095 9.54518884 -3.60240095 9.54518884 -2 13 C-2.66 13 -3.32 13 -4 13 C-4.08071788 15.79224073 -4.14035408 18.58216566 -4.1875 21.375 C-4.21263672 22.1690625 -4.23777344 22.963125 -4.26367188 23.78125 C-4.29004405 25.85586148 -4.15486462 27.93100865 -4 30 C-3.01 30.66 -2.02 31.32 -1 32 C-1.9590625 32.3403125 -1.9590625 32.3403125 -2.9375 32.6875 C-3.618125 33.120625 -4.29875 33.55375 -5 34 C-5.495 36.475 -5.495 36.475 -6 39 C-0.06 38.505 -0.06 38.505 6 38 C6.33 38.99 6.66 39.98 7 41 C5 42 3 43 1 44 C1.33 44.66 1.66 45.32 2 46 C-3.75 51 -3.75 51 -6 51 C-6 52.65 -6 54.3 -6 56 C-6.33 56 -6.66 56 -7 56 C-8.28913045 24.62823587 -8.28913045 24.62823587 -7.625 12.125 C-7.58189697 11.31321289 -7.53879395 10.50142578 -7.49438477 9.66503906 C-7.1490657 4.29813139 -7.1490657 4.29813139 -6 2 C-3.85118612 0.75230162 -2.50320403 0 0 0 Z " fill="#1C1510" transform="translate(134,90)"/>
<path d="M0 0 C1.32 0 2.64 0 4 0 C4.04898438 0.83144531 4.09796875 1.66289063 4.1484375 2.51953125 C4.22320312 3.60621094 4.29796875 4.69289063 4.375 5.8125 C4.44460937 6.89144531 4.51421875 7.97039063 4.5859375 9.08203125 C4.81195733 12.18626186 4.81195733 12.18626186 7 15 C7 15.99 7 16.98 7 18 C6.01 18 5.02 18 4 18 C3.67 21.3 3.34 24.6 3 28 C1.35 28 -0.3 28 -2 28 C-2 27.34 -2 26.68 -2 26 C-2.66 26 -3.32 26 -4 26 C-6.125 19.375 -6.125 19.375 -5 16 C-4.34 16 -3.68 16 -3 16 C-3 15.34 -3 14.68 -3 14 C-3.66 13.67 -4.32 13.34 -5 13 C-4.54554036 11.58208592 -4.08625056 10.16571954 -3.625 8.75 C-3.24214844 7.56664062 -3.24214844 7.56664062 -2.8515625 6.359375 C-2.04826333 4.13372042 -1.10288338 2.09068328 0 0 Z " fill="#C1AA96" transform="translate(135,32)"/>
<path d="M0 0 C0.495 1.485 0.495 1.485 1 3 C2.32 2.01 3.64 1.02 5 0 C5 1.32 5 2.64 5 4 C4.34 4 3.68 4 3 4 C3.495 7.96 3.495 7.96 4 12 C4.98742187 11.90460938 5.97484375 11.80921875 6.9921875 11.7109375 C8.27351563 11.60007813 9.55484375 11.48921875 10.875 11.375 C12.15117188 11.25898438 13.42734375 11.14296875 14.7421875 11.0234375 C15.81726563 11.01570312 16.89234375 11.00796875 18 11 C18.99 11.99 18.99 11.99 20 13 C-8.79666222 13.15069504 -37.58161246 12.90166721 -66.375 12.5 C-67.23245945 12.48804218 -68.0899189 12.47608437 -68.97336197 12.46376419 C-79.64898564 12.31440321 -90.32452609 12.1597014 -101 12 C-98.33788628 10.62420173 -95.93703384 9.62936439 -93 9 C-93 9.66 -93 10.32 -93 11 C-62.97 11 -32.94 11 -2 11 C-1.67 8.69 -1.34 6.38 -1 4 C-0.69096017 2.66082739 -0.37057089 1.32346746 0 0 Z " fill="#ACAB88" transform="translate(109,154)"/>
<path d="M0 0 C0.82992966 -0.00058411 1.65985931 -0.00116821 2.51493835 -0.00177002 C5.24232658 0.00100385 7.96860486 0.03206205 10.69580078 0.06347656 C12.5929403 0.07094145 14.49008755 0.07663321 16.38723755 0.08062744 C21.36866731 0.09586425 26.34962694 0.13512926 31.33087158 0.17944336 C36.4185958 0.22043821 41.50639634 0.23864745 46.59423828 0.25878906 C56.56840261 0.30162538 66.54221878 0.36985307 76.51611328 0.45410156 C77.01111328 2.92910156 77.01111328 2.92910156 77.51611328 5.45410156 C77.02111328 4.46410156 77.02111328 4.46410156 76.51611328 3.45410156 C72.4359117 2.26341077 68.36781318 2.28803513 64.14111328 2.26660156 C62.87525391 2.25242188 61.60939453 2.23824219 60.30517578 2.22363281 C56.42834617 2.45943997 53.21754131 3.32335505 49.51611328 4.45410156 C44.04934058 5.03006512 38.06211417 4.55150305 32.82080078 2.92944336 C29.36320768 2.21631478 25.9066264 2.29131953 22.39111328 2.28613281 C21.60720215 2.28280441 20.82329102 2.27947601 20.015625 2.27604675 C18.36149684 2.27099389 16.70735853 2.26863792 15.05322266 2.26879883 C12.5250574 2.26660931 9.99732658 2.24842826 7.46923828 2.22949219 C5.85986477 2.22655852 4.25048919 2.22457354 2.64111328 2.22363281 C1.88685059 2.2164473 1.13258789 2.20926178 0.35546875 2.20185852 C-3.41233566 2.21824238 -6.28800456 2.34320885 -9.48388672 4.45410156 C-9.48388672 5.11410156 -9.48388672 5.77410156 -9.48388672 6.45410156 C-11.46388672 7.44410156 -11.46388672 7.44410156 -13.48388672 8.45410156 C-13.15388672 9.11410156 -12.82388672 9.77410156 -12.48388672 10.45410156 C-14.79388672 10.12410156 -17.10388672 9.79410156 -19.48388672 9.45410156 C-13.41571437 3.0289779 -8.97471808 -0.16691605 0 0 Z " fill="#C8C8A7" transform="translate(35.48388671875,149.5458984375)"/>
<path d="M0 0 C0.66 0 1.32 0 2 0 C2 2.97 2 5.94 2 9 C2.66 9 3.32 9 4 9 C4.08636719 9.62648437 4.17273438 10.25296875 4.26171875 10.8984375 C4.68626709 13.36782875 5.14272416 15.64356842 6 18 C8.47014472 19.67613187 8.47014472 19.67613187 11 20 C11 20.66 11 21.32 11 22 C11.98097656 21.95875 12.96195313 21.9175 13.97265625 21.875 C18.32795825 21.875 22.25490965 22.86729484 26.4375 24 C27.16904297 24.19078125 27.90058594 24.3815625 28.65429688 24.578125 C30.43819666 25.04450403 32.21939845 25.52118278 34 26 C34 26.66 34 27.32 34 28 C28.70674361 28.90781442 23.73543611 29.12123911 18.375 28.875 C17.63765625 28.8646875 16.9003125 28.854375 16.140625 28.84375 C12.08065953 28.65457598 10.40003218 28.31666959 7.11328125 25.71484375 C2.18394446 19.38233161 -1.49222258 10.59407741 -0.625 2.5 C-0.41875 1.675 -0.2125 0.85 0 0 Z " fill="#B99F85" transform="translate(117,136)"/>
<path d="M0 0 C5.43708299 1.91322849 5.43708299 1.91322849 6.67578125 4.390625 C5.35578125 4.390625 4.03578125 4.390625 2.67578125 4.390625 C2.58296875 5.751875 2.58296875 5.751875 2.48828125 7.140625 C1.67578125 10.390625 1.67578125 10.390625 -0.51171875 12.828125 C-3.96991052 14.74934265 -5.58552244 14.43398211 -9.32421875 13.390625 C-10.44921875 9.640625 -10.44921875 9.640625 -9.32421875 7.390625 C-10.31421875 7.390625 -11.30421875 7.390625 -12.32421875 7.390625 C-12.32421875 6.400625 -12.32421875 5.410625 -12.32421875 4.390625 C-13.64421875 3.730625 -14.96421875 3.070625 -16.32421875 2.390625 C-11.26235103 -1.52824033 -6.02124111 -1.57867834 0 0 Z " fill="#221F21" transform="translate(130.32421875,26.609375)"/>
<path d="M0 0 C-2.98007651 2.98007651 -6.28035706 2.35805013 -10.28515625 2.4140625 C-11.61680565 2.4431797 -11.61680565 2.4431797 -12.97535706 2.47288513 C-16.00430387 2.53468002 -19.03325439 2.58037061 -22.0625 2.625 C-23.11080994 2.64368134 -24.15911987 2.66236267 -25.23919678 2.68161011 C-61.15237185 3.32085219 -97.08285404 3.08825294 -133 3 C-133 2.67 -133 2.34 -133 2 C-131.654823 1.9845388 -131.654823 1.9845388 -130.2824707 1.96876526 C-121.80840259 1.87056408 -113.33440037 1.76801865 -104.86044312 1.66066074 C-100.5044799 1.60562579 -96.14850977 1.55223823 -91.79248047 1.50268555 C-87.58436622 1.45475371 -83.37632751 1.40240305 -79.16830444 1.34705925 C-77.56726985 1.32676548 -75.96621465 1.30803214 -74.36514282 1.29092598 C-72.11314497 1.26659185 -69.86128599 1.23658092 -67.609375 1.20532227 C-66.33030273 1.18977798 -65.05123047 1.1742337 -63.73339844 1.15821838 C-61.04645921 1.04434809 -58.50770748 0.84663793 -55.8526001 0.50099182 C-52.77887224 0.10128449 -49.84077113 -0.15145587 -46.74902344 -0.22119141 C-45.80154236 -0.24436432 -44.85406128 -0.26753723 -43.87786865 -0.29141235 C-42.88176575 -0.3112619 -41.88566284 -0.33111145 -40.859375 -0.3515625 C-39.29246918 -0.38629166 -39.29246918 -0.38629166 -37.69390869 -0.42172241 C-35.49878269 -0.46910883 -33.30360991 -0.51437133 -31.10839844 -0.55761719 C-27.74655142 -0.62506919 -24.38504325 -0.70277657 -21.0234375 -0.78125 C-18.88542957 -0.82613956 -16.74740898 -0.87043126 -14.609375 -0.9140625 C-13.60517517 -0.93796051 -12.60097534 -0.96185852 -11.56634521 -0.98648071 C-10.16403656 -1.0117836 -10.16403656 -1.0117836 -8.73339844 -1.03759766 C-7.5038443 -1.06305161 -7.5038443 -1.06305161 -6.24945068 -1.08901978 C-4.02688631 -1.001064 -2.1296072 -0.62188863 0 0 Z " fill="#B8B48D" transform="translate(263,164)"/>
<path d="M0 0 C2.41706304 0.30964862 4.83361887 0.62261115 7.25 0.9375 C7.93191406 1.02451172 8.61382812 1.11152344 9.31640625 1.20117188 C14.59949267 1.89361524 14.59949267 1.89361524 17 2.53125 C20.20584255 3.28261935 23.47249671 3.37353242 26.75 3.5625 C27.44738281 3.60568359 28.14476562 3.64886719 28.86328125 3.69335938 C30.57531922 3.79889596 32.28763561 3.8998991 34 4 C34 4.33 34 4.66 34 5 C29.545 5.495 29.545 5.495 25 6 C27.97 6.33 30.94 6.66 34 7 C34 7.33 34 7.66 34 8 C25.32399634 8.11550892 16.61155926 8.22160473 8 7 C7.67 6.67 7.34 6.34 7 6 C5.53624517 5.86750736 4.06676971 5.79678005 2.59765625 5.75390625 C1.26250977 5.70459961 1.26250977 5.70459961 -0.09960938 5.65429688 C-1.98751184 5.59322914 -3.87553977 5.53592113 -5.76367188 5.48242188 C-6.65505859 5.44826172 -7.54644531 5.41410156 -8.46484375 5.37890625 C-9.285896 5.3538501 -10.10694824 5.32879395 -10.95288086 5.30297852 C-13 5 -13 5 -15 3 C-10.05 2.67 -5.1 2.34 0 2 C0 1.34 0 0.68 0 0 Z " fill="#101520" transform="translate(156,131)"/>
<path d="M0 0 C0.33 0 0.66 0 1 0 C1 2.31 1 4.62 1 7 C1.99 6.34 2.98 5.68 4 5 C6.36010742 4.77294922 6.36010742 4.77294922 9.10546875 4.8046875 C10.08837891 4.81113281 11.07128906 4.81757813 12.08398438 4.82421875 C13.62022461 4.84935547 13.62022461 4.84935547 15.1875 4.875 C16.22326172 4.88402344 17.25902344 4.89304688 18.32617188 4.90234375 C20.88434685 4.9259214 23.44205748 4.9588297 26 5 C26 5.99 26 6.98 26 8 C28.97 8.495 28.97 8.495 32 9 C32 9.99 32 10.98 32 12 C20.31514456 12.71125207 8.70795574 13.14534014 -3 13 C-3 12.67 -3 12.34 -3 12 C2.94 11.505 2.94 11.505 9 11 C9 10.67 9 10.34 9 10 C12.3 10 15.6 10 19 10 C19 9.01 19 8.02 19 7 C12.32508169 6.54489193 6.40625443 8.2327574 0 10 C0 6.7 0 3.4 0 0 Z " fill="#725832" transform="translate(230,148)"/>
<path d="M0 0 C3 4 3 4 4 7 C4.804375 7.144375 5.60875 7.28875 6.4375 7.4375 C9 8 9 8 10 9 C10.04063832 10.66617115 10.042721 12.33388095 10 14 C10.99 14 11.98 14 13 14 C13.33 11.03 13.66 8.06 14 5 C14.33 5 14.66 5 15 5 C16.33583899 9.84241633 17.25328119 13.93437617 17 19 C11.07136283 17.83348574 5.61201606 16.24480642 0 14 C0 9.38 0 4.76 0 0 Z " fill="#1B191A" transform="translate(108,42)"/>
<path d="M0 0 C1.65 0 3.3 0 5 0 C4.67 0.66 4.34 1.32 4 2 C3.34 1.67 2.68 1.34 2 1 C1.86851562 1.56589844 1.73703125 2.13179687 1.6015625 2.71484375 C0.77773407 5.84432187 -0.36057645 8.84321941 -1.4765625 11.87890625 C-2.24141995 14.16626023 -2.24141995 14.16626023 -1 17 C-1.66 17 -2.32 17 -3 17 C-3 19.31 -3 21.62 -3 24 C-3.66 24.33 -4.32 24.66 -5 25 C-5.37125 23.329375 -5.37125 23.329375 -5.75 21.625 C-6.60293384 17.96392876 -6.60293384 17.96392876 -9.0625 16.625 C-10.0215625 16.315625 -10.0215625 16.315625 -11 16 C-12 15 -12 15 -12.0625 11.9375 C-12.041875 10.968125 -12.02125 9.99875 -12 9 C-11.0925 9.061875 -10.185 9.12375 -9.25 9.1875 C-5.60329325 8.97711307 -4.46611255 8.64226344 -2 6 C-0.71991738 2.91222828 -0.71991738 2.91222828 0 0 Z " fill="#C29C7B" transform="translate(133,31)"/>
<path d="M0 0 C2.7734375 1.86328125 2.7734375 1.86328125 5.375 4.3125 C6.68597656 5.51326172 6.68597656 5.51326172 8.0234375 6.73828125 C10 9 10 9 10 12 C9.01 11.505 8.02 11.01 7 10.5 C4.08815048 9.22495387 1.8605423 8.83888625 -1.3125 8.9375 C-2.529375 8.958125 -3.74625 8.97875 -5 9 C-5.66 8.34 -6.32 7.68 -7 7 C-7.99 7.33 -8.98 7.66 -10 8 C-11 5 -11 5 -10.25 2.875 C-7.84750502 -0.72874247 -3.95766497 -0.41737162 0 0 Z " fill="#CEAF90" transform="translate(121,69)"/>
<path d="M0 0 C4.52031905 -0.75338651 6.76715922 -0.87287365 10.58203125 1.828125 C13.14114959 4.14552751 15.58813085 6.53021289 18 9 C18.86431641 9.82951172 18.86431641 9.82951172 19.74609375 10.67578125 C20.86446354 11.74979643 21.93950311 12.86880332 23 14 C23 14.33 23 14.66 23 15 C19.7 15 16.4 15 13 15 C13 12.36 13 9.72 13 7 C8.95858806 6.36605303 5.0934693 5.87595548 1 6 C0.67 4.02 0.34 2.04 0 0 Z " fill="#BDBC94" transform="translate(262,150)"/>
<path d="M0 0 C6.75274694 0.54457637 13.35203573 1.72011155 20 3 C20.33 3.99 20.66 4.98 21 6 C21.66 6.33 22.32 6.66 23 7 C22.34 7 21.68 7 21 7 C20.67 7.66 20.34 8.32 20 9 C20 8.34 20 7.68 20 7 C8.615 6.505 8.615 6.505 -3 6 C-3.33 5.34 -3.66 4.68 -4 4 C-2.68 4 -1.36 4 0 4 C-0.33 3.01 -0.66 2.02 -1 1 C-0.67 0.67 -0.34 0.34 0 0 Z " fill="#181C27" transform="translate(207,140)"/>
<path d="M0 0 C0.495 0.99 0.495 0.99 1 2 C8.26 2 15.52 2 23 2 C23 2.66 23 3.32 23 4 C-1.75 4 -26.5 4 -52 4 C-52 3.67 -52 3.34 -52 3 C-51.37803741 2.99191315 -50.75607483 2.98382629 -50.11526489 2.97549438 C-43.65914984 2.88963493 -37.20334846 2.79014024 -30.74755859 2.68261719 C-28.33615372 2.64426353 -25.92469038 2.6094221 -23.51318359 2.578125 C-20.05284687 2.53261297 -16.59291492 2.47459596 -13.1328125 2.4140625 C-12.04944611 2.40251129 -10.96607971 2.39096008 -9.84988403 2.37905884 C-8.8489975 2.35918915 -7.84811096 2.33931946 -6.81689453 2.31884766 C-5.93309113 2.30552399 -5.04928772 2.29220032 -4.13870239 2.2784729 C-1.7867175 2.19330996 -1.7867175 2.19330996 0 0 Z " fill="#A8A587" transform="translate(263,163)"/>
<path d="M0 0 C2 1 2 1 2.74609375 3.07421875 C2.97425781 3.93660156 3.20242187 4.79898438 3.4375 5.6875 C4.33284512 8.89696788 5.24716519 11.49433038 6.75 14.5 C7.1625 15.325 7.575 16.15 8 17 C7.67 17.66 7.34 18.32 7 19 C0.54414894 16.80744681 0.54414894 16.80744681 -1.9375 13.125 C-3.39175572 8.84777729 -3.52881549 5.28068337 -2 1 C-1.34 0.67 -0.68 0.34 0 0 Z " fill="#1D1918" transform="translate(116,144)"/>
<path d="M0 0 C1.6874269 0.00015917 3.37485866 0.00585622 5.06225586 0.01586914 C6.39189613 0.01799156 6.39189613 0.01799156 7.74839783 0.02015686 C10.59133215 0.02577324 13.43418892 0.03832848 16.27709961 0.05102539 C18.19962452 0.05603828 20.12215065 0.06060155 22.04467773 0.06469727 C26.7680151 0.07574798 31.49129419 0.09302356 36.21459961 0.11352539 C36.21459961 0.44352539 36.21459961 0.77352539 36.21459961 1.11352539 C19.50688531 3.15862266 3.0312612 3.34270728 -13.78540039 3.11352539 C-13.78540039 2.78352539 -13.78540039 2.45352539 -13.78540039 2.11352539 C-12.82827148 2.02264648 -12.82827148 2.02264648 -11.85180664 1.92993164 C-10.61237305 1.80424805 -10.61237305 1.80424805 -9.34790039 1.67602539 C-8.52418945 1.59481445 -7.70047852 1.51360352 -6.85180664 1.42993164 C-3.47545348 0.91294751 -4.13057274 0.12387722 0 0 Z " fill="#A0A261" transform="translate(187.785400390625,162.886474609375)"/>
<path d="M0 0 C0.33 0.99 0.66 1.98 1 3 C-1 4 -3 5 -5 6 C-4.67 6.66 -4.34 7.32 -4 8 C-9.75 13 -9.75 13 -12 13 C-12 14.65 -12 16.3 -12 18 C-12.33 18 -12.66 18 -13 18 C-13.02699725 15.72923158 -13.04639453 13.45837179 -13.0625 11.1875 C-13.07990234 9.29064453 -13.07990234 9.29064453 -13.09765625 7.35546875 C-13 4 -13 4 -12 1 C-7.93631321 0.22596442 -4.13574827 -0.0984702 0 0 Z " fill="#1C2024" transform="translate(140,128)"/>
<path d="M0 0 C1.32 0 2.64 0 4 0 C3.67 1.65 3.34 3.3 3 5 C-1.68512141 6.8322058 -5.56952702 7.23544378 -10.5859375 7.1953125 C-11.28772125 7.1924826 -11.989505 7.18965271 -12.71255493 7.18673706 C-14.93355028 7.17562512 -17.15412845 7.15053834 -19.375 7.125 C-20.88931705 7.11495854 -22.40364049 7.10583473 -23.91796875 7.09765625 C-27.61211258 7.07571554 -31.30601551 7.04124875 -35 7 C-31.33473146 4.69911556 -28.09570961 4.69087811 -23.828125 4.5859375 C-22.8044986 4.55688828 -22.8044986 4.55688828 -21.76019287 4.5272522 C-19.59025392 4.46768902 -17.42026123 4.42116554 -15.25 4.375 C-13.77471703 4.33679869 -12.29945585 4.2977457 -10.82421875 4.2578125 C-7.21634582 4.16200765 -3.60830917 4.07789084 0 4 C0 2.68 0 1.36 0 0 Z " fill="#AEA86A" transform="translate(262,157)"/>
<path d="M0 0 C0.33 0 0.66 0 1 0 C1 1.98 1 3.96 1 6 C1.66 6 2.32 6 3 6 C3 8 3 8 1.5 9.625 C1.005 10.07875 0.51 10.5325 0 11 C0.99 11.33 1.98 11.66 3 12 C3 12.99 3 13.98 3 15 C3.66 15.33 4.32 15.66 5 16 C-1.625 19.125 -1.625 19.125 -5 18 C-5 17.01 -5 16.02 -5 15 C-4.01 14.34 -3.02 13.68 -2 13 C-4.97 13 -7.94 13 -11 13 C-8 11 -8 11 -6 11 C-6 10.34 -6 9.68 -6 9 C-4.125 6.875 -4.125 6.875 -2 5 C-1.34 5 -0.68 5 0 5 C0 3.35 0 1.7 0 0 Z " fill="#33383A" transform="translate(139,116)"/>
<path d="M0 0 C-0.99 1.485 -0.99 1.485 -2 3 C1.96 3.33 5.92 3.66 10 4 C10 4.33 10 4.66 10 5 C3.07 5 -3.86 5 -11 5 C-11 5.33 -11 5.66 -11 6 C-12.258125 6.020625 -13.51625 6.04125 -14.8125 6.0625 C-15.52019531 6.07410156 -16.22789062 6.08570313 -16.95703125 6.09765625 C-19 6 -19 6 -22 5 C-21.67 4.01 -21.34 3.02 -21 2 C-21 2.66 -21 3.32 -21 4 C-20.23816406 3.71125 -19.47632813 3.4225 -18.69140625 3.125 C-12.14858899 0.77252638 -6.94583434 -0.46305562 0 0 Z " fill="#3A2B0A" transform="translate(251,154)"/>
<path d="M0 0 C0.04254356 1.99954746 0.04080783 4.00041636 0 6 C-0.33 6.33 -0.66 6.66 -1 7 C-0.34 7.33 0.32 7.66 1 8 C1 8.66 1 9.32 1 10 C1.99 10 2.98 10 4 10 C4 10.66 4 11.32 4 12 C1.03 11.505 1.03 11.505 -2 11 C-2 10.01 -2 9.02 -2 8 C-2.65073486 8.03029297 -3.30146973 8.06058594 -3.97192383 8.09179688 C-6.91874998 8.22857717 -9.86562388 8.36430066 -12.8125 8.5 C-13.83666016 8.54769531 -14.86082031 8.59539062 -15.91601562 8.64453125 C-16.89892578 8.68964844 -17.88183594 8.73476562 -18.89453125 8.78125 C-19.80050049 8.82314453 -20.70646973 8.86503906 -21.63989258 8.90820312 C-23.42550689 8.97765497 -25.21303553 9 -27 9 C-26.67 8.34 -26.34 7.68 -26 7 C-19.95292221 5.79686169 -14.02303412 5.79539318 -8 7 C-7.67 6.34 -7.34 5.68 -7 5 C-6.01 5.33 -5.02 5.66 -4 6 C-4 5.34 -4 4.68 -4 4 C-6.475 3.505 -6.475 3.505 -9 3 C-9 2.34 -9 1.68 -9 1 C-6.04335481 -0.4783226 -3.25770263 -0.06032783 0 0 Z " fill="#AC8960" transform="translate(258,145)"/>
<path d="M0 0 C2.33089156 0.19790589 4.66482711 0.36147279 7 0.5 C14.47887324 0.94366197 14.47887324 0.94366197 18 2 C18 2.66 18 3.32 18 4 C12.54724114 4.97758625 7.57483237 4.97344509 2.0625 4.5625 C0.89364258 4.48418945 0.89364258 4.48418945 -0.29882812 4.40429688 C-2.19966772 4.27601936 -4.09990904 4.13892679 -6 4 C-6 2.68 -6 1.36 -6 0 C-3.41986256 -1.29006872 -2.76205521 -0.70917634 0 0 Z " fill="#C0A387" transform="translate(133,160)"/>
<path d="M0 0 C5.43708299 1.91322849 5.43708299 1.91322849 6.67578125 4.390625 C5.35578125 4.390625 4.03578125 4.390625 2.67578125 4.390625 C2.34578125 5.380625 2.01578125 6.370625 1.67578125 7.390625 C1.34578125 6.400625 1.01578125 5.410625 0.67578125 4.390625 C-2.95421875 3.730625 -6.58421875 3.070625 -10.32421875 2.390625 C-10.65421875 3.050625 -10.98421875 3.710625 -11.32421875 4.390625 C-10.33421875 4.720625 -9.34421875 5.050625 -8.32421875 5.390625 C-9.31421875 5.720625 -10.30421875 6.050625 -11.32421875 6.390625 C-14.01171875 4.453125 -14.01171875 4.453125 -16.32421875 2.390625 C-11.26235103 -1.52824033 -6.02124111 -1.57867834 0 0 Z " fill="#3C3B3E" transform="translate(130.32421875,26.609375)"/>
<path d="M0 0 C0.33 0 0.66 0 1 0 C1.99250545 5.70690634 2.10477512 11.21408489 2 17 C0.35 17.33 -1.3 17.66 -3 18 C-3 16.02 -3 14.04 -3 12 C-3.66 11.67 -4.32 11.34 -5 11 C-4.24623113 6.47738679 -3.27680666 3.27680666 0 0 Z " fill="#150B14" transform="translate(120,39)"/>
<path d="M0 0 C2.39763185 2.39763185 2.34280586 3.33273498 2.625 6.625 C2.69976562 7.44226563 2.77453125 8.25953125 2.8515625 9.1015625 C2.90054688 9.72804687 2.94953125 10.35453125 3 11 C5.64 11.33 8.28 11.66 11 12 C11.33 13.32 11.66 14.64 12 16 C7.70700357 17.26264601 5.12168689 16.62950412 1 15 C-0.32286246 10.03926578 -0.08893197 5.08888488 0 0 Z " fill="#0D0506" transform="translate(128,142)"/>
<path d="M0 0 C0.33 0 0.66 0 1 0 C1.99 5.94 2.98 11.88 4 18 C3.01 18.33 2.02 18.66 1 19 C1.33 20.32 1.66 21.64 2 23 C1.34 23 0.68 23 0 23 C-0.33 23.99 -0.66 24.98 -1 26 C-1.02892857 22.04168191 -1.04677427 18.08339083 -1.0625 14.125 C-1.07087891 12.99707031 -1.07925781 11.86914062 -1.08789062 10.70703125 C-1.09111328 9.63066406 -1.09433594 8.55429688 -1.09765625 7.4453125 C-1.10289307 6.45031738 -1.10812988 5.45532227 -1.11352539 4.43017578 C-1 2 -1 2 0 0 Z " fill="#5D5650" transform="translate(113,126)"/>
<path d="M0 0 C2.64 0.33 5.28 0.66 8 1 C8 2.32 8 3.64 8 5 C0.66666667 5 -6.66666667 5 -14 5 C-14.33 5.66 -14.66 6.32 -15 7 C-14.67 5.68 -14.34 4.36 -14 3 C-9.71 3 -5.42 3 -1 3 C-0.67 2.01 -0.34 1.02 0 0 Z " fill="#BD9B73" transform="translate(246,147)"/>
<path d="M0 0 C0.33 0 0.66 0 1 0 C1.02505615 0.6391333 1.0501123 1.2782666 1.07592773 1.93676758 C1.19357147 4.89546745 1.31551778 7.85397594 1.4375 10.8125 C1.47681641 11.81732422 1.51613281 12.82214844 1.55664062 13.85742188 C1.77060027 18.97599491 2.03404071 24.08983375 2.41015625 29.19921875 C2.47468994 30.09858154 2.53922363 30.99794434 2.60571289 31.92456055 C2.73582764 32.60945557 2.86594238 33.29435059 3 34 C3.66 34.33 4.32 34.66 5 35 C4.01 35 3.02 35 2 35 C-1.37723467 28.02038169 -1.08880925 20.33713234 -1.125 12.75 C-1.13200928 11.72169067 -1.13200928 11.72169067 -1.13916016 10.67260742 C-1.12747489 6.98950167 -0.87440569 3.5808995 0 0 Z " fill="#896C55" transform="translate(126,123)"/>
<path d="M0 0 C0.66 0 1.32 0 2 0 C3.28365387 2.56730774 3.13275635 4.44652997 3.125 7.3125 C3.12757813 8.25738281 3.13015625 9.20226562 3.1328125 10.17578125 C3.005363 12.88595736 2.60596226 15.35973585 2 18 C4.64 18 7.28 18 10 18 C10 18.33 10 18.66 10 19 C7.03 19 4.06 19 1 19 C0.67 18.01 0.34 17.02 0 16 C-0.66 15.67 -1.32 15.34 -2 15 C-1.67 14.01 -1.34 13.02 -1 12 C-0.34 12 0.32 12 1 12 C1 11.34 1 10.68 1 10 C0.34 10 -0.32 10 -1 10 C-0.67 6.7 -0.34 3.4 0 0 Z " fill="#595C5D" transform="translate(141,112)"/>
<path d="M0 0 C-1.09818901 3.29456702 -1.91003854 4.45501927 -5 6 C-3.60240095 9.54518884 -3.60240095 9.54518884 -2 13 C-2.66 13 -3.32 13 -4 13 C-4 16.3 -4 19.6 -4 23 C-4.66 23.33 -5.32 23.66 -6 24 C-6.1964031 20.70880065 -6.38060745 17.41703066 -6.5625 14.125 C-6.61857422 13.18785156 -6.67464844 12.25070313 -6.73242188 11.28515625 C-6.78076172 10.38925781 -6.82910156 9.49335937 -6.87890625 8.5703125 C-6.9260376 7.74289551 -6.97316895 6.91547852 -7.02172852 6.06298828 C-7 4 -7 4 -6 2 C-3.85118612 0.75230162 -2.50320403 0 0 0 Z " fill="#232120" transform="translate(134,90)"/>
<path d="M0 0 C6.79839071 -0.31620422 13.30983984 0.87323618 20 2 C20 1.34 20 0.68 20 0 C23.63 0 27.26 0 31 0 C31 0.33 31 0.66 31 1 C26.545 1.495 26.545 1.495 22 2 C24.97 2.33 27.94 2.66 31 3 C31 3.33 31 3.66 31 4 C7.44875725 4.31355205 7.44875725 4.31355205 0 1 C0 0.67 0 0.34 0 0 Z " fill="#2B313C" transform="translate(159,135)"/>
<path d="M0 0 C1.051875 -0.00386719 1.051875 -0.00386719 2.125 -0.0078125 C4 0.125 4 0.125 6 1.125 C6 1.785 6 2.445 6 3.125 C7.98 3.125 9.96 3.125 12 3.125 C12 3.455 12 3.785 12 4.125 C4.08 4.125 -3.84 4.125 -12 4.125 C-12 3.795 -12 3.465 -12 3.125 C-11.05125 2.815625 -10.1025 2.50625 -9.125 2.1875 C-2.66238768 -0.00978819 -2.66238768 -0.00978819 0 0 Z " fill="#272715" transform="translate(191,156.875)"/>
<path d="M0 0 C0.33 0 0.66 0 1 0 C1.06058594 1.14339844 1.12117188 2.28679687 1.18359375 3.46484375 C1.26798428 4.95574305 1.35263302 6.44662775 1.4375 7.9375 C1.47681641 8.69224609 1.51613281 9.44699219 1.55664062 10.22460938 C1.44038024 13.91944187 1.44038024 13.91944187 3 17 C3.07226502 18.85287502 3.0838122 20.70833878 3.0625 22.5625 C3.05347656 23.57441406 3.04445313 24.58632812 3.03515625 25.62890625 C3.02355469 26.41136719 3.01195313 27.19382813 3 28 C2.67 28 2.34 28 2 28 C1.67 26.35 1.34 24.7 1 23 C0.67 26.63 0.34 30.26 0 34 C-0.33 34 -0.66 34 -1 34 C-1.11858127 22.61619816 -0.86612792 11.35246238 0 0 Z " fill="#7D746C" transform="translate(112,105)"/>
<path d="M0 0 C1.60725635 3.21451269 1.05748185 6.43612536 1 10 C1.99 10.33 2.98 10.66 4 11 C5.82421875 13.06640625 5.82421875 13.06640625 7.6875 15.5625 C8.31011719 16.38878906 8.93273437 17.21507813 9.57421875 18.06640625 C10.04472656 18.70449219 10.51523438 19.34257813 11 20 C8 20 8 20 5.37109375 17.41015625 C4.38495215 16.30157872 3.40738718 15.18532602 2.4375 14.0625 C-0.85164908 10.00950979 -0.85164908 10.00950979 -5 7 C-4.75 4.625 -4.75 4.625 -4 2 C-1.9375 0.6875 -1.9375 0.6875 0 0 Z " fill="#B29A82" transform="translate(128,62)"/>
<path d="M0 0 C1.32 0 2.64 0 4 0 C4 3.96 4 7.92 4 12 C2.68 12.33 1.36 12.66 0 13 C-0.12375 12.21625 -0.2475 11.4325 -0.375 10.625 C-0.79117993 7.85942178 -0.79117993 7.85942178 -3 6 C-2.01 4.02 -1.02 2.04 0 0 Z " fill="#C2A48C" transform="translate(135,32)"/>
<path d="M0 0 C0.94875 0.350625 1.8975 0.70125 2.875 1.0625 C2.875 4.3625 2.875 7.6625 2.875 11.0625 C1.885 11.0625 0.895 11.0625 -0.125 11.0625 C-0.125 10.4025 -0.125 9.7425 -0.125 9.0625 C-1.115 8.7325 -2.105 8.4025 -3.125 8.0625 C-2.465 7.7325 -1.805 7.4025 -1.125 7.0625 C-1.310625 6.44375 -1.49625 5.825 -1.6875 5.1875 C-2.125 3.0625 -2.125 3.0625 -1.125 1.0625 C-2.445 1.3925 -3.765 1.7225 -5.125 2.0625 C-5.125 1.4025 -5.125 0.7425 -5.125 0.0625 C-3.125 -0.9375 -3.125 -0.9375 0 0 Z " fill="#B89578" transform="translate(259.125,143.9375)"/>
<path d="M0 0 C4 4.75 4 4.75 4 7 C6.31 7.33 8.62 7.66 11 8 C11 8.33 11 8.66 11 9 C7.04 9 3.08 9 -1 9 C-1.66 7.02 -2.32 5.04 -3 3 C-2.01 2.01 -1.02 1.02 0 0 Z " fill="#9EA071" transform="translate(114,157)"/>
<path d="M0 0 C4.67764998 3.6630401 4.67764998 3.6630401 5.50634766 7.10009766 C5.71456302 9.51306547 5.79529719 11.89072727 5.8125 14.3125 C5.85020508 15.56643555 5.85020508 15.56643555 5.88867188 16.84570312 C5.9472699 18.89663409 5.97656493 20.94836593 6 23 C5.01 23 4.02 23 3 23 C2.92652344 21.64068359 2.92652344 21.64068359 2.8515625 20.25390625 C2.42420873 13.29098709 1.74718596 6.75578571 0 0 Z " fill="#494E50" transform="translate(136,87)"/>
<path d="M0 0 C2 2 2 2 2 6 C2.66 6 3.32 6 4 6 C3.54177532 9.46941546 3.10868317 12.67395049 2 16 C1.34 16 0.68 16 0 16 C-2.125 9.375 -2.125 9.375 -1 6 C-0.34 6 0.32 6 1 6 C1 5.34 1 4.68 1 4 C0.34 3.67 -0.32 3.34 -1 3 C-0.67 2.01 -0.34 1.02 0 0 Z " fill="#CAA383" transform="translate(131,42)"/>
<path d="M0 0 C5.61 0.33 11.22 0.66 17 1 C16.01 2.485 16.01 2.485 15 4 C12.3984375 4.29296875 12.3984375 4.29296875 9.375 4.1875 C7.87066406 4.14689453 7.87066406 4.14689453 6.3359375 4.10546875 C5.17964844 4.05326172 5.17964844 4.05326172 4 4 C3.67 4.99 3.34 5.98 3 7 C2.67 5.35 2.34 3.7 2 2 C1.34 2 0.68 2 0 2 C0 1.34 0 0.68 0 0 Z " fill="#D5C0A8" transform="translate(228,144)"/>
<path d="M0 0 C2.3151437 3.47271555 2.25453763 4.92739797 2 9 C1.67 9.99 1.34 10.98 1 12 C0.34 12 -0.32 12 -1 12 C-1.33 12.66 -1.66 13.32 -2 14 C-2.66 13.34 -3.32 12.68 -4 12 C-3.828125 9.94140625 -3.828125 9.94140625 -3.25 7.5625 C-3.06953125 6.78003906 -2.8890625 5.99757813 -2.703125 5.19140625 C-2 3 -2 3 0 0 Z " fill="#202021" transform="translate(113,30)"/>
<path d="M0 0 C12.21 0 24.42 0 37 0 C37.495 2.475 37.495 2.475 38 5 C37.505 4.01 37.505 4.01 37 3 C32.89815942 1.81472633 28.75806749 1.80201782 24.51171875 1.68359375 C23.4569207 1.6524221 23.4569207 1.6524221 22.3808136 1.62062073 C20.14980183 1.55559885 17.91867931 1.49646224 15.6875 1.4375 C14.16860866 1.39426964 12.64972823 1.35065395 11.13085938 1.30664062 C7.4206888 1.19996666 3.71039579 1.09856779 0 1 C0 0.67 0 0.34 0 0 Z " fill="#C9C8B0" transform="translate(75,150)"/>
<path d="M0 0 C0.99 0.33 1.98 0.66 3 1 C3.22134176 3.12368444 3.42670007 5.24904024 3.625 7.375 C3.74101563 8.55835937 3.85703125 9.74171875 3.9765625 10.9609375 C3.98429687 11.96382812 3.99203125 12.96671875 4 14 C3.34 14.66 2.68 15.32 2 16 C1.34 15.67 0.68 15.34 0 15 C0 10.05 0 5.1 0 0 Z " fill="#BB9F83" transform="translate(110,75)"/>
<path d="M0 0 C0.33 0 0.66 0 1 0 C1 2.31 1 4.62 1 7 C1.99 6.34 2.98 5.68 4 5 C7.35546875 4.8046875 7.35546875 4.8046875 11.1875 4.875 C12.45980469 4.89304688 13.73210937 4.91109375 15.04296875 4.9296875 C16.50669922 4.96449219 16.50669922 4.96449219 18 5 C18 5.33 18 5.66 18 6 C12.06 7.32 6.12 8.64 0 10 C0 6.7 0 3.4 0 0 Z " fill="#866C47" transform="translate(230,148)"/>
<path d="M0 0 C7.26 0.33 14.52 0.66 22 1 C22 1.33 22 1.66 22 2 C10.64906646 2.73570866 -0.62526092 3.13947228 -12 3 C-12 2.67 -12 2.34 -12 2 C-6.06 1.505 -6.06 1.505 0 1 C0 0.67 0 0.34 0 0 Z " fill="#645823" transform="translate(239,158)"/>
<path d="M0 0 C0.33 1.32 0.66 2.64 1 4 C2.5778125 3.690625 2.5778125 3.690625 4.1875 3.375 C7.99624887 3.00036896 9.66835752 3.28369933 13 5 C13 5.99 13 6.98 13 8 C8.545 8.495 8.545 8.495 4 9 C4 7.68 4 6.36 4 5 C2.68 5 1.36 5 0 5 C0 3.35 0 1.7 0 0 Z " fill="#B3AF7E" transform="translate(262,152)"/>
<path d="M0 0 C3.3125 0.0625 3.3125 0.0625 7 1 C10.44289393 6.27193133 10.16792411 9.94802961 9 16 C7 15 7 15 6.37890625 13.234375 C5.97600382 10.85849677 5.90208522 8.65820483 5.9375 6.25 C5.94652344 5.45078125 5.95554687 4.6515625 5.96484375 3.828125 C5.97644531 3.22484375 5.98804688 2.6215625 6 2 C4.02 2.33 2.04 2.66 0 3 C0 2.01 0 1.02 0 0 Z " fill="#D2BBB5" transform="translate(256,125)"/>
<path d="M0 0 C0.33 0 0.66 0 1 0 C2.33583899 4.84241633 3.25328119 8.93437617 3 14 C-1.455 13.01 -1.455 13.01 -6 12 C-5.67 11.34 -5.34 10.68 -5 10 C-3.68 9.67 -2.36 9.34 -1 9 C-0.67 6.03 -0.34 3.06 0 0 Z " fill="#2B170E" transform="translate(122,47)"/>
<path d="M0 0 C3.48331435 3.01887244 4.79157144 5.56909529 6 10 C4.68127338 9.60348083 3.37002899 9.18201309 2.0625 8.75 C1.33160156 8.51796875 0.60070312 8.2859375 -0.15234375 8.046875 C-2 7 -2 7 -2.84375 5 C-3 3 -3 3 -1.5625 1.25 C-1.046875 0.8375 -0.53125 0.425 0 0 Z " fill="#08090D" transform="translate(118,153)"/>
<path d="M0 0 C0.66 0 1.32 0 2 0 C2.66 7.59 3.32 15.18 4 23 C3.34 23 2.68 23 2 23 C1.4660256 19.91879316 0.95014449 16.83482141 0.4375 13.75 C0.28603516 12.87730469 0.13457031 12.00460938 -0.02148438 11.10546875 C-0.16005859 10.26113281 -0.29863281 9.41679687 -0.44140625 8.546875 C-0.57232666 7.77182617 -0.70324707 6.99677734 -0.83813477 6.19824219 C-1.00822774 3.88826153 -0.68559092 2.19914787 0 0 Z " fill="#B08661" transform="translate(123,132)"/>
<path d="M0 0 C0.33 0.66 0.66 1.32 1 2 C-0.36125 2.37125 -0.36125 2.37125 -1.75 2.75 C-5.10351489 4.03981342 -6.67708236 5.31971042 -9 8 C-9.66 7.01 -10.32 6.02 -11 5 C-10.1875 3.0625 -10.1875 3.0625 -9 1 C-5.8035914 -0.06546953 -3.34252724 -0.07427838 0 0 Z " fill="#C0AA92" transform="translate(121,69)"/>
<path d="M0 0 C1.32 0.66 2.64 1.32 4 2 C2.7934375 2.433125 2.7934375 2.433125 1.5625 2.875 C-1.1326468 3.73262568 -1.1326468 3.73262568 -2 6 C-6.29 6 -10.58 6 -15 6 C-15 5.34 -15 4.68 -15 4 C-13.87851563 3.94392578 -13.87851563 3.94392578 -12.734375 3.88671875 C-11.74953125 3.82097656 -10.7646875 3.75523437 -9.75 3.6875 C-8.77546875 3.62949219 -7.8009375 3.57148438 -6.796875 3.51171875 C-3.74658389 2.95363476 -2.29288724 2.03630224 0 0 Z " fill="#D0B18E" transform="translate(247,144)"/>
<path d="M0 0 C2 1 2 1 3.125 3.625 C4.08950655 7.34523953 4.41736226 10.17417926 4 14 C2 16.9375 2 16.9375 0 19 C0.55312735 14.97007218 1.1558062 10.97977076 2 7 C1.34 7 0.68 7 0 7 C0 4.69 0 2.38 0 0 Z " fill="#353D41" transform="translate(135,89)"/>
<path d="M0 0 C0.99 0.33 1.98 0.66 3 1 C3 2.32 3 3.64 3 5 C0.37472811 5.05382106 -2.24944713 5.09358313 -4.875 5.125 C-5.62136719 5.14175781 -6.36773437 5.15851563 -7.13671875 5.17578125 C-9.09194461 5.1933959 -11.04742021 5.10320189 -13 5 C-13.66 4.34 -14.32 3.68 -15 3 C-10.05 2.67 -5.1 2.34 0 2 C0 1.34 0 0.68 0 0 Z " fill="#1D212C" transform="translate(156,131)"/>
<path d="M0 0 C2.125 0.9375 2.125 0.9375 4 2 C4 2.99 4 3.98 4 5 C4.66 5.33 5.32 5.66 6 6 C-0.625 9.125 -0.625 9.125 -4 8 C-4 7.01 -4 6.02 -4 5 C-3.01 4.34 -2.02 3.68 -1 3 C-1.33 2.34 -1.66 1.68 -2 1 C-1.34 0.67 -0.68 0.34 0 0 Z " fill="#3D4144" transform="translate(138,126)"/>
<path d="M0 0 C1.28132812 0.19464844 2.56265625 0.38929688 3.8828125 0.58984375 C4.87023437 0.74582031 5.85765625 0.90179688 6.875 1.0625 C4.875 3.0625 4.875 3.0625 1.6171875 3.2578125 C0.34101563 3.23460937 -0.93515625 3.21140625 -2.25 3.1875 C-4.17199219 3.16042969 -4.17199219 3.16042969 -6.1328125 3.1328125 C-7.61394531 3.09800781 -7.61394531 3.09800781 -9.125 3.0625 C-9.125 2.0725 -9.125 1.0825 -9.125 0.0625 C-6.01752306 -1.49123847 -3.38273473 -0.52278628 0 0 Z " fill="#D4AF95" transform="translate(136.125,159.9375)"/>
<path d="M0 0 C0.66 0.33 1.32 0.66 2 1 C2 2.65 2 4.3 2 6 C2.66 6.33 3.32 6.66 4 7 C3.34 7.66 2.68 8.32 2 9 C1.01 9 0.02 9 -1 9 C-1.33 9.66 -1.66 10.32 -2 11 C-3.13643966 7.59068103 -2.86747764 6.99664544 -1.5625 3.8125 C-1.13130859 2.73935547 -1.13130859 2.73935547 -0.69140625 1.64453125 C-0.46324219 1.10183594 -0.23507813 0.55914062 0 0 Z " fill="#9F8361" transform="translate(129,83)"/>
<path d="M0 0 C1.89213369 2.38573379 3.02391783 4.07175348 4 7 C4.99 7 5.98 7 7 7 C6.25 8.9375 6.25 8.9375 5 11 C2.875 11.75 2.875 11.75 1 12 C0.03929566 9.11788698 -0.10581883 7.30149956 -0.0625 4.3125 C-0.05347656 3.50425781 -0.04445313 2.69601563 -0.03515625 1.86328125 C-0.02355469 1.24839844 -0.01195313 0.63351563 0 0 Z " fill="#322F30" transform="translate(108,42)"/>
<path d="M0 0 C2.97 0.495 2.97 0.495 6 1 C5.01 1.33 4.02 1.66 3 2 C3 3.32 3 4.64 3 6 C3.66 6 4.32 6 5 6 C5 7.98 5 9.96 5 12 C4.34 12 3.68 12 3 12 C3 11.01 3 10.02 3 9 C2.34 9 1.68 9 1 9 C0.67 6.03 0.34 3.06 0 0 Z " fill="#D1AC8F" transform="translate(132,39)"/>
<path d="M0 0 C2.31 0.33 4.62 0.66 7 1 C7.33 1.99 7.66 2.98 8 4 C8.66 4.33 9.32 4.66 10 5 C9.34 5 8.68 5 8 5 C7.67 5.66 7.34 6.32 7 7 C7 6.34 7 5.68 7 5 C4.36 4.67 1.72 4.34 -1 4 C-0.67 2.68 -0.34 1.36 0 0 Z " fill="#24262F" transform="translate(220,142)"/>
<path d="M0 0 C1.65 0 3.3 0 5 0 C4.67 0.66 4.34 1.32 4 2 C3.34 1.67 2.68 1.34 2 1 C1.87625 1.556875 1.7525 2.11375 1.625 2.6875 C0.94023145 5.22114364 0.00866237 7.57921032 -1 10 C-1.66 10 -2.32 10 -3 10 C-3.33 10.66 -3.66 11.32 -4 12 C-4.99 11.34 -5.98 10.68 -7 10 C-6.21625 9.46375 -5.4325 8.9275 -4.625 8.375 C-1.66573701 5.69757158 -0.95391744 3.81566975 0 0 Z " fill="#8F7660" transform="translate(133,31)"/>
<path d="M0 0 C1.32 0.33 2.64 0.66 4 1 C4 1.99 4 2.98 4 4 C4.99 4 5.98 4 7 4 C5.75453595 7.73639216 4.36595047 8.18756513 1 10 C0.67 6.7 0.34 3.4 0 0 Z " fill="#12141B" transform="translate(114,30)"/>
<path d="M0 0 C1.95917659 0.0868748 3.91741871 0.19504512 5.875 0.3125 C7.51082031 0.39951172 7.51082031 0.39951172 9.1796875 0.48828125 C10.11039063 0.65714844 11.04109375 0.82601563 12 1 C12.66 1.99 13.32 2.98 14 4 C12.68 4 11.36 4 10 4 C9.67 4.99 9.34 5.98 9 7 C8.67 6.01 8.34 5.02 8 4 C6.12612784 3.19787372 6.12612784 3.19787372 3.9375 2.8125 C3.20402344 2.65394531 2.47054687 2.49539062 1.71484375 2.33203125 C1.14894531 2.22246094 0.58304687 2.11289062 0 2 C0 1.34 0 0.68 0 0 Z " fill="#343231" transform="translate(123,27)"/>
<path d="M0 0 C0.99 0 1.98 0 3 0 C3 0.66 3 1.32 3 2 C9.27 2 15.54 2 22 2 C22 2.33 22 2.66 22 3 C13.09 3 4.18 3 -5 3 C-3.68 2.34 -2.36 1.68 -1 1 C-0.67 0.67 -0.34 0.34 0 0 Z " fill="#898765" transform="translate(13,163)"/>
<path d="M0 0 C-0.33 1.32 -0.66 2.64 -1 4 C-1.66 4 -2.32 4 -3 4 C-3 4.66 -3 5.32 -3 6 C-4.65 6.33 -6.3 6.66 -8 7 C-7.75 4.625 -7.75 4.625 -7 2 C-4.43689172 0.2058242 -3.16880694 0 0 0 Z " fill="#21272A" transform="translate(136,121)"/>
<path d="M0 0 C0.33 0 0.66 0 1 0 C1.09377123 7.41834582 1.17402193 14.66236293 0 22 C-0.33 22 -0.66 22 -1 22 C-2.11032496 14.24272966 -1.78540355 7.62854246 0 0 Z " fill="#987E69" transform="translate(126,100)"/>
<path d="M0 0 C0.928125 0.165 1.85625 0.33 2.8125 0.5 C5.95621353 1.07748388 5.95621353 1.07748388 9 1 C9.33 1.33 9.66 1.66 10 2 C12.32817964 2.36760731 14.6618385 2.70241581 17 3 C17 3.33 17 3.66 17 4 C15.2709226 4.02725341 13.54171824 4.04650987 11.8125 4.0625 C10.36810547 4.07990234 10.36810547 4.07990234 8.89453125 4.09765625 C6.14423487 4.00486622 3.67520409 3.62111685 1 3 C0.67 2.01 0.34 1.02 0 0 Z " fill="#6C6333" transform="translate(117,161)"/>
<path d="M0 0 C1.21236328 0.01353516 1.21236328 0.01353516 2.44921875 0.02734375 C3.37154297 0.04474609 3.37154297 0.04474609 4.3125 0.0625 C3.23046875 1.55078125 3.23046875 1.55078125 1.3125 3.0625 C-1.82421875 3.35546875 -1.82421875 3.35546875 -5.375 3.25 C-7.14423828 3.20939453 -7.14423828 3.20939453 -8.94921875 3.16796875 C-9.85285156 3.13316406 -10.75648438 3.09835938 -11.6875 3.0625 C-7.67753141 0.98837831 -4.53355023 -0.06570363 0 0 Z " fill="#5B451B" transform="translate(246.6875,153.9375)"/>
<path d="M0 0 C3.63 0.66 7.26 1.32 11 2 C11 2.99 11 3.98 11 5 C6.78121808 5.19622241 3.82989106 4.80230168 0 3 C0 2.01 0 1.02 0 0 Z " fill="#0B0F19" transform="translate(196,138)"/>
<path d="M0 0 C0.33 0 0.66 0 1 0 C1.33 4.29 1.66 8.58 2 13 C1.34 13 0.68 13 0 13 C-0.33 13.66 -0.66 14.32 -1 15 C-1.02693575 12.87506859 -1.04636628 10.75004088 -1.0625 8.625 C-1.07410156 7.44164062 -1.08570312 6.25828125 -1.09765625 5.0390625 C-1 2 -1 2 0 0 Z " fill="#4E4D4A" transform="translate(113,126)"/>
<path d="M0 0 C0 1.98 0 3.96 0 6 C-0.99 6 -1.98 6 -3 6 C-3.33 5.34 -3.66 4.68 -4 4 C-6.52733235 3.34444881 -6.52733235 3.34444881 -9 3 C-9 2.34 -9 1.68 -9 1 C-6.04335481 -0.4783226 -3.25770263 -0.06032783 0 0 Z " fill="#AC8865" transform="translate(258,145)"/>
<path d="M0 0 C1.95803507 -0.05389087 3.91648909 -0.09274217 5.875 -0.125 C7.51082031 -0.15980469 7.51082031 -0.15980469 9.1796875 -0.1953125 C12 0 12 0 14 2 C10.58860997 3.09651823 7.79344419 2.94215473 4.25 2.5625 C2.77273437 2.40974609 2.77273437 2.40974609 1.265625 2.25390625 C0.51796875 2.17011719 -0.2296875 2.08632812 -1 2 C-0.67 1.34 -0.34 0.68 0 0 Z " fill="#090D16" transform="translate(181,136)"/>
<path d="M0 0 C0.33 1.32 0.66 2.64 1 4 C1.99 4 2.98 4 4 4 C4.33 4.99 4.66 5.98 5 7 C3.02 7.99 3.02 7.99 1 9 C1 10.65 1 12.3 1 14 C0.67 14 0.34 14 0 14 C0 9.38 0 4.76 0 0 Z " fill="#29211A" transform="translate(127,132)"/>
<path d="M0 0 C2.97 0.495 2.97 0.495 6 1 C5.67 2.32 5.34 3.64 5 5 C3.02 5 1.04 5 -1 5 C-0.67 3.35 -0.34 1.7 0 0 Z " fill="#DCB896" transform="translate(118,72)"/>
<path d="M0 0 C6.0546875 0.390625 6.0546875 0.390625 8 1 C9.2578125 3.046875 9.2578125 3.046875 10 5 C8.54119891 4.85892253 7.08296449 4.71197585 5.625 4.5625 C4.40683594 4.44068359 4.40683594 4.44068359 3.1640625 4.31640625 C1 4 1 4 -1 3 C-0.67 2.01 -0.34 1.02 0 0 Z " fill="#62513D" transform="translate(114,66)"/>
<path d="M0 0 C2.31 0 4.62 0 7 0 C7 0.66 7 1.32 7 2 C6.01 2 5.02 2 4 2 C3.67 3.32 3.34 4.64 3 6 C1.68 5.34 0.36 4.68 -1 4 C-0.67 2.68 -0.34 1.36 0 0 Z " fill="#171414" transform="translate(123,34)"/>
<path d="M0 0 C2.31 0.33 4.62 0.66 7 1 C6.34 1.66 5.68 2.32 5 3 C5.33 3.66 5.66 4.32 6 5 C4.35 5.66 2.7 6.32 1 7 C0.67 4.69 0.34 2.38 0 0 Z " fill="#262A2E" transform="translate(130,131)"/>
<path d="M0 0 C1.65 0 3.3 0 5 0 C5 1.98 5 3.96 5 6 C3.68 6.33 2.36 6.66 1 7 C0.67 4.69 0.34 2.38 0 0 Z " fill="#A68572" transform="translate(257,127)"/>
<path d="M0 0 C2.5 2.3125 2.5 2.3125 5 5 C5 5.99 5 6.98 5 8 C3.35 7.67 1.7 7.34 0 7 C0 4.69 0 2.38 0 0 Z " fill="#B28867" transform="translate(115,117)"/>
<path d="M0 0 C0.99 1.485 0.99 1.485 2 3 C3.32 3 4.64 3 6 3 C6.33 5.31 6.66 7.62 7 10 C3.57730016 8.85910005 2.2477854 7.79035429 0 5 C-0.25 2.25 -0.25 2.25 0 0 Z " fill="#66645F" transform="translate(134,82)"/>
<path d="M0 0 C0.33 0.66 0.66 1.32 1 2 C1.99 2.33 2.98 2.66 4 3 C5.82421875 5.06640625 5.82421875 5.06640625 7.6875 7.5625 C8.31011719 8.38878906 8.93273437 9.21507813 9.57421875 10.06640625 C10.04472656 10.70449219 10.51523438 11.34257813 11 12 C8 12 8 12 5.95703125 10.13671875 C5.24933594 9.32847656 4.54164063 8.52023438 3.8125 7.6875 C3.09707031 6.88699219 2.38164062 6.08648437 1.64453125 5.26171875 C0 3 0 3 0 0 Z " fill="#C1BCB5" transform="translate(128,70)"/>
<path d="M0 0 C0.99 0.33 1.98 0.66 3 1 C3.76173392 5.3164922 4.16063604 8.74433453 3 13 C2.67 13 2.34 13 2 13 C1.66127487 11.58461283 1.32925376 10.16762037 1 8.75 C0.814375 7.96109375 0.62875 7.1721875 0.4375 6.359375 C0 4 0 4 0 0 Z " fill="#816749" transform="translate(123,48)"/>
<path d="M0 0 C4.455 0.99 4.455 0.99 9 2 C6.62216162 4.37783838 5.27926335 4.59009208 2 5 C1.34 4.67 0.68 4.34 0 4 C0 2.68 0 1.36 0 0 Z " fill="#846950" transform="translate(116,59)"/>
<path d="M0 0 C0.33 0 0.66 0 1 0 C1.33 3.63 1.66 7.26 2 11 C0.68 10.01 -0.64 9.02 -2 8 C-2.375 4.9375 -2.375 4.9375 -2 2 C-1.34 1.34 -0.68 0.68 0 0 Z " fill="#190A04" transform="translate(120,39)"/>
<path d="M0 0 C4 4.75 4 4.75 4 7 C5.65 7 7.3 7 9 7 C9 7.33 9 7.66 9 8 C3.25 8.125 3.25 8.125 1 7 C1 6.34 1 5.68 1 5 C0.34 5 -0.32 5 -1 5 C-0.67 3.35 -0.34 1.7 0 0 Z " fill="#818358" transform="translate(114,157)"/>
<path d="M0 0 C9.41002278 0.96355353 9.41002278 0.96355353 14 2 C14 2.33 14 2.66 14 3 C12.22925083 3.02705729 10.45838289 3.04642195 8.6875 3.0625 C7.70136719 3.07410156 6.71523437 3.08570313 5.69921875 3.09765625 C3 3 3 3 0 2 C0 1.34 0 0.68 0 0 Z " fill="#A28678" transform="translate(130,158)"/>
<path d="M0 0 C0.33 0 0.66 0 1 0 C0.979375 1.051875 0.95875 2.10375 0.9375 3.1875 C0.98896802 6.32704904 1.26517187 8.96883396 2 12 C1.01 12.33 0.02 12.66 -1 13 C-1 10.03 -1 7.06 -1 4 C-1.66 3.67 -2.32 3.34 -3 3 C-2.01 3 -1.02 3 0 3 C0 2.01 0 1.02 0 0 Z " fill="#BB9980" transform="translate(262,130)"/>
<path d="M0 0 C0.33 0.66 0.66 1.32 1 2 C1.66 2 2.32 2 3 2 C3 5.3 3 8.6 3 12 C2.34 11.67 1.68 11.34 1 11 C1 9.35 1 7.7 1 6 C0.34 5.67 -0.32 5.34 -1 5 C-0.67 3.35 -0.34 1.7 0 0 Z " fill="#080815" transform="translate(116,45)"/>
<path d="M0 0 C1.32 0 2.64 0 4 0 C4.33 1.98 4.66 3.96 5 6 C3.0625 6.5625 3.0625 6.5625 1 7 C0 6 0 6 -0.0625 2.9375 C-0.041875 1.968125 -0.02125 0.99875 0 0 Z " fill="#A88770" transform="translate(121,40)"/>
<path d="M0 0 C0.33 0.99 0.66 1.98 1 3 C3.97 3.495 3.97 3.495 7 4 C7 4.99 7 5.98 7 7 C6.67 6.34 6.34 5.68 6 5 C4.081875 5.061875 4.081875 5.061875 2.125 5.125 C-0.0546875 5.1953125 -0.0546875 5.1953125 -2 5 C-2.66 4.34 -3.32 3.68 -4 3 C-2.68 3 -1.36 3 0 3 C0 2.01 0 1.02 0 0 Z " fill="#876E44" transform="translate(255,153)"/>
<path d="M0 0 C2.6875 0.875 2.6875 0.875 5 2 C5 2.66 5 3.32 5 4 C5.99 4 6.98 4 8 4 C8 4.66 8 5.32 8 6 C5.03 5.505 5.03 5.505 2 5 C2 4.01 2 3.02 2 2 C0.35 2 -1.3 2 -3 2 C-2.01 1.34 -1.02 0.68 0 0 Z " fill="#9A7C5A" transform="translate(254,151)"/>
<path d="M0 0 C0.33 0 0.66 0 1 0 C1 1.65 1 3.3 1 5 C1.99 5.33 2.98 5.66 4 6 C2.75 7.5625 2.75 7.5625 1 9 C-1.1875 8.6875 -1.1875 8.6875 -3 8 C-2.34 7.01 -1.68 6.02 -1 5 C-0.61500109 3.34450469 -0.27206865 1.6777567 0 0 Z " fill="#C7AF9A" transform="translate(257,129)"/>
<path d="M0 0 C0.33 0.99 0.66 1.98 1 3 C-0.65 3.33 -2.3 3.66 -4 4 C-4 3.34 -4 2.68 -4 2 C-5.65 2.33 -7.3 2.66 -9 3 C-9.33 2.34 -9.66 1.68 -10 1 C-6.56484998 0.37542727 -3.50935186 0 0 0 Z " fill="#B2B28E" transform="translate(112,153)"/>
<path d="M0 0 C2.02054804 1.64169528 4.02043058 3.30911778 6 5 C6 5.33 6 5.66 6 6 C3.69 6 1.38 6 -1 6 C-0.67 4.02 -0.34 2.04 0 0 Z " fill="#FDF9E7" transform="translate(263,144)"/>
<path d="M0 0 C1.32 0.66 2.64 1.32 4 2 C4 2.66 4 3.32 4 4 C4.66 4 5.32 4 6 4 C6 4.66 6 5.32 6 6 C4.68 6 3.36 6 2 6 C2 5.34 2 4.68 2 4 C1.01 4 0.02 4 -1 4 C-0.67 2.68 -0.34 1.36 0 0 Z " fill="#A28262" transform="translate(127,54)"/>
<path d="M0 0 C0.66 0 1.32 0 2 0 C1.60196439 2.88575819 1.20990931 3.82189513 -1.0625 5.75 C-1.701875 6.1625 -2.34125 6.575 -3 7 C-3.66 6.67 -4.32 6.34 -5 6 C-5 5.34 -5 4.68 -5 4 C-4.34 4 -3.68 4 -3 4 C-3 3.34 -3 2.68 -3 2 C-2.01 2 -1.02 2 0 2 C0 1.34 0 0.68 0 0 Z " fill="#372C20" transform="translate(130,34)"/>
<path d="M0 0 C2.625 -0.1875 2.625 -0.1875 5 0 C5 1.32 5 2.64 5 4 C2.69 3.67 0.38 3.34 -2 3 C-1.34 2.01 -0.68 1.02 0 0 Z " fill="#C5A380" transform="translate(249,148)"/>
<path d="M0 0 C0.33 0.66 0.66 1.32 1 2 C-0.65 3.98 -2.3 5.96 -4 8 C-4.33 6.68 -4.66 5.36 -5 4 C-4.34 4 -3.68 4 -3 4 C-2.67 3.01 -2.34 2.02 -2 1 C-1.34 0.67 -0.68 0.34 0 0 Z " fill="#FCF4E6" transform="translate(254,135)"/>
<path d="M0 0 C0.66 0.33 1.32 0.66 2 1 C1.67 3.64 1.34 6.28 1 9 C-1 8 -1 8 -1.75 6.1875 C-2.05694702 3.50171361 -1.38111722 2.2747813 0 0 Z " fill="#C8B5A3" transform="translate(264,132)"/>
<path d="M0 0 C0.66 0.33 1.32 0.66 2 1 C2 3.31 2 5.62 2 8 C1.01 8 0.02 8 -1 8 C-0.67 5.36 -0.34 2.72 0 0 Z " fill="#B59F7D" transform="translate(132,81)"/>
<path d="M0 0 C0.33 0.66 0.66 1.32 1 2 C1.66 2.33 2.32 2.66 3 3 C2.01 3.33 1.02 3.66 0 4 C-0.33 4.99 -0.66 5.98 -1 7 C-1.99 6.34 -2.98 5.68 -4 5 C-4 4.34 -4 3.68 -4 3 C-3.01 2.67 -2.02 2.34 -1 2 C-0.67 1.34 -0.34 0.68 0 0 Z " fill="#B7987E" transform="translate(127,156)"/>
<path d="M0 0 C2.15377564 2.62198774 3.40072174 4.64404172 4 8 C2.02 7.34 0.04 6.68 -2 6 C-1.34 4.02 -0.68 2.04 0 0 Z " fill="#150A05" transform="translate(120,155)"/>
<path d="M0 0 C1.88343932 3.76687864 2.22057835 5.02958963 2 9 C1.01 9 0.02 9 -1 9 C-0.67 6.03 -0.34 3.06 0 0 Z " fill="#585C5C" transform="translate(140,101)"/>
<path d="M0 0 C2 3 2 3 1.75 5.625 C1.5025 6.40875 1.255 7.1925 1 8 C0.01 8.495 0.01 8.495 -1 9 C-0.67 6.03 -0.34 3.06 0 0 Z " fill="#F6EADE" transform="translate(129,61)"/>
<path d="M0 0 C1.5 1.375 1.5 1.375 3 3 C3 3.66 3 4.32 3 5 C1.35 5 -0.3 5 -2 5 C-2.33 4.01 -2.66 3.02 -3 2 C-2.01 2 -1.02 2 0 2 C0 1.34 0 0.68 0 0 Z " fill="#CCA789" transform="translate(126,44)"/>
<path d="M0 0 C1.65 0 3.3 0 5 0 C5.33 0.99 5.66 1.98 6 3 C4.02 3 2.04 3 0 3 C0 2.01 0 1.02 0 0 Z " fill="#AFB379" transform="translate(107,162)"/>
<path d="M0 0 C0.66 0.33 1.32 0.66 2 1 C1.34 1.66 0.68 2.32 0 3 C0.33 3.66 0.66 4.32 1 5 C-1.31 4.67 -3.62 4.34 -6 4 C-3.94766315 1.7522025 -2.99332739 0.9977758 0 0 Z " fill="#C7C5A0" transform="translate(22,155)"/>
<path d="M0 0 C2.64 0 5.28 0 8 0 C8 0.33 8 0.66 8 1 C6.35 1 4.7 1 3 1 C3 2.32 3 3.64 3 5 C2.34 5 1.68 5 1 5 C0.67 3.35 0.34 1.7 0 0 Z " fill="#C7C4A0" transform="translate(262,150)"/>
<path d="M0 0 C1.65 0 3.3 0 5 0 C4.01 1.98 3.02 3.96 2 6 C1.34 6 0.68 6 0 6 C0 4.02 0 2.04 0 0 Z " fill="#101421" transform="translate(171,138)"/>
<path d="M0 0 C0.33 0 0.66 0 1 0 C1 2.64 1 5.28 1 8 C0.67 7.34 0.34 6.68 0 6 C-0.99 6.33 -1.98 6.66 -3 7 C-1.125 1.125 -1.125 1.125 0 0 Z " fill="#D3AB8B" transform="translate(260,135)"/>
<path d="M0 0 C0.99 0 1.98 0 3 0 C3 1.65 3 3.3 3 5 C2.34 5 1.68 5 1 5 C0.67 6.32 0.34 7.64 0 9 C0 6.03 0 3.06 0 0 Z " fill="#B98C6B" transform="translate(122,127)"/>
<path d="M0 0 C0.33 0 0.66 0 1 0 C1 1.65 1 3.3 1 5 C-0.32 5.33 -1.64 5.66 -3 6 C-3 4.68 -3 3.36 -3 2 C-2.01 2 -1.02 2 0 2 C0 1.34 0 0.68 0 0 Z " fill="#AA8A71" transform="translate(138,39)"/>
</svg>
