<?xml version="1.0" encoding="UTF-8"?>
<svg version="1.1" xmlns="http://www.w3.org/2000/svg" width="275" height="183">
<path d="M0 0 C90.75 0 181.5 0 275 0 C275 60.39 275 120.78 275 183 C184.25 183 93.5 183 0 183 C0 122.61 0 62.22 0 0 Z " fill="#DFDFE1" transform="translate(0,0)"/>
<path d="M0 0 C0.99 0 1.98 0 3 0 C2.9071875 1.423125 2.9071875 1.423125 2.8125 2.875 C2.874375 3.90625 2.93625 4.9375 3 6 C3.99 6.66 4.98 7.32 6 8 C5.67 9.98 5.34 11.96 5 14 C5.66 14 6.32 14 7 14 C7.50660156 15.26457031 7.50660156 15.26457031 8.0234375 16.5546875 C8.46945313 17.65039062 8.91546875 18.74609375 9.375 19.875 C10.03628906 21.51082031 10.03628906 21.51082031 10.7109375 23.1796875 C11.83051338 26.06329362 11.83051338 26.06329362 14 28 C14.9178512 31.28146802 15.41478161 34.64508426 16 38 C16.4021875 39.85625 16.4021875 39.85625 16.8125 41.75 C17.04235109 45.7340855 16.03133811 47.61443649 14 51 C13.4121875 52.175625 13.4121875 52.175625 12.8125 53.375 C12.544375 53.91125 12.27625 54.4475 12 55 C11.34 55 10.68 55 10 55 C9.62875 55.7734375 9.62875 55.7734375 9.25 56.5625 C7.60418384 59.77184151 5.8023904 62.87585664 4 66 C2.35 66 0.7 66 -1 66 C-1.495 67.485 -1.495 67.485 -2 69 C-3.4375 70.6875 -3.4375 70.6875 -5 72 C-5.66 72 -6.32 72 -7 72 C-7 72.66 -7 73.32 -7 74 C-7.66 74 -8.32 74 -9 74 C-9.144375 74.804375 -9.28875 75.60875 -9.4375 76.4375 C-10 79 -10 79 -11 80 C-9.68 80.33 -8.36 80.66 -7 81 C-7.495 82.485 -7.495 82.485 -8 84 C-8.2754489 87.64641879 -8.44556491 91.29281881 -8.62109375 94.9453125 C-8.81548522 97.81057996 -9.31796793 100.41016167 -10.0390625 103.1875 C-11.67496783 110.10254806 -11.05152195 117.17896763 -10.83398438 124.23046875 C-10.70745962 131.65616308 -11.63061304 137.95463364 -14 145 C-14.99 145 -15.98 145 -17 145 C-17.02705729 143.22925083 -17.04642195 141.45838289 -17.0625 139.6875 C-17.07410156 138.70136719 -17.08570313 137.71523437 -17.09765625 136.69921875 C-17 134 -17 134 -16 131 C-15.52921934 125.39112261 -15.52921934 125.39112261 -17.5078125 120.28125 C-19.41424708 116.0890902 -19.29539019 112.84144261 -19.125 108.3125 C-19.09686921 106.71359773 -19.07212307 105.11463229 -19.05078125 103.515625 C-19.03869629 102.74412109 -19.02661133 101.97261719 -19.01416016 101.17773438 C-18.99540979 98.29405683 -19.10870211 95.43874189 -19.3125 92.5625 C-19.37050781 91.73878906 -19.42851562 90.91507812 -19.48828125 90.06640625 C-20.127581 87.4848065 -20.87247221 86.581399 -23 85 C-25.22405069 84.17631322 -25.22405069 84.17631322 -27.6875 83.625 C-32.81839203 82.18448907 -36.66625774 80.0481732 -41 77 C-41.8971875 76.37996094 -42.794375 75.75992188 -43.71875 75.12109375 C-46.15537962 73.4270886 -48.58148323 71.71972401 -51 70 C-50.47692589 66.49896984 -49.83951844 64.4580601 -47.5 61.8125 C-44.63365806 58.07307689 -44.33889358 54.7606252 -44.140625 50.13671875 C-44 48 -44 48 -43 46 C-42.960008 44.00039988 -42.95653201 41.99952758 -43 40 C-45.31 42.64 -47.62 45.28 -50 48 C-50.66 47.67 -51.32 47.34 -52 47 C-52.40729228 44.67843403 -52.74438677 42.3431213 -53 40 C-53.66 40 -54.32 40 -55 40 C-55.33 40.99 -55.66 41.98 -56 43 C-57.65 42.67 -59.3 42.34 -61 42 C-60.88490339 40.58249437 -60.75746342 39.16598831 -60.625 37.75 C-60.55539063 36.96109375 -60.48578125 36.1721875 -60.4140625 35.359375 C-59.98380988 32.90774689 -59.15017865 31.18814474 -58 29 C-58 28.34 -58 27.68 -58 27 C-58.66 27 -59.32 27 -60 27 C-60 26.34 -60 25.68 -60 25 C-55.38 24.67 -50.76 24.34 -46 24 C-44.66416101 28.84241633 -43.74671881 32.93437617 -44 38 C-43.53851563 37.69707031 -43.07703125 37.39414062 -42.6015625 37.08203125 C-38.82629439 34.65720489 -35.05194753 32.4943883 -31 30.5625 C-26.837286 28.54188921 -23.36380807 26.13271858 -19.73828125 23.27734375 C-17.62015097 21.72087499 -15.45805828 20.90560042 -13 20 C-8.82189826 17.65232094 -8.82189826 17.65232094 -6 14 C-5.01 14.33 -4.02 14.66 -3 15 C-0.5978396 10.1956792 -0.38877771 5.26896105 0 0 Z " fill="#E5E3EC" transform="translate(175,18)"/>
<path d="M0 0 C14.44388562 -0.09594814 28.87808691 -0.17630906 43.3125 0.4375 C44.76861694 0.49635376 44.76861694 0.49635376 46.25415039 0.55639648 C52.87144832 0.87144832 52.87144832 0.87144832 54 2 C60.63433491 3.08569836 67.22591866 3.21199395 73.9375 3.31640625 C75.05817871 3.33718735 76.17885742 3.35796844 77.33349609 3.37937927 C80.8889392 3.44440009 84.44445178 3.50353768 88 3.5625 C90.4205799 3.60573042 92.84115296 3.64934611 95.26171875 3.69335938 C101.1744072 3.80003239 107.08716369 3.90188411 113 4 C113 5.98 113 7.96 113 10 C22.25 10 -68.5 10 -162 10 C-162 8.02 -162 6.04 -162 4 C-160.7995253 3.97716446 -159.5990506 3.95432892 -158.36219788 3.93080139 C-147.07512083 3.71546238 -135.78815367 3.49501686 -124.50127506 3.26950932 C-118.69791815 3.15372632 -112.8945371 3.03977302 -107.09106445 2.92993164 C-101.49540287 2.82395729 -95.89985299 2.71326772 -90.3043499 2.59924126 C-88.16444661 2.5564758 -86.02450807 2.51543939 -83.88453865 2.4761219 C-80.89825707 2.42096613 -77.91215742 2.35978615 -74.92602539 2.29711914 C-73.58491196 2.27445984 -73.58491196 2.27445984 -72.21670532 2.25134277 C-68.29134292 2.54518819 -68.29134292 2.54518819 -65 1 C-62.00529431 0.89881461 -59.03413948 0.86031563 -56.0390625 0.8671875 C-55.13755463 0.86623077 -54.23604675 0.86527405 -53.30722046 0.86428833 C-51.39556814 0.86360633 -49.48391352 0.865462 -47.57226562 0.86962891 C-44.64447819 0.8749645 -41.71684505 0.86969101 -38.7890625 0.86328125 C-36.93489549 0.86394227 -35.08072858 0.86522393 -33.2265625 0.8671875 C-31.90925644 0.86415115 -31.90925644 0.86415115 -30.56533813 0.86105347 C-29.33924332 0.86578171 -29.33924332 0.86578171 -28.08837891 0.87060547 C-27.36969635 0.87140106 -26.65101379 0.87219666 -25.91055298 0.87301636 C-24 1 -24 1 -21 2 C-21 2.99 -21 3.98 -21 5 C-14.4 5 -7.8 5 -1 5 C-0.67 3.35 -0.34 1.7 0 0 Z " fill="#FDFDFE" transform="translate(162,173)"/>
<path d="M0 0 C5.11940422 3.90691374 5.83414946 7.49037742 6.73828125 13.76953125 C6.82464844 14.50558594 6.91101563 15.24164063 7 16 C7.66 16 8.32 16 9 16 C10.13764351 20.26616316 11 23.56486311 11 28 C11.66 28 12.32 28 13 28 C12.52373004 32.2864296 10.12632867 34.22104119 7 37 C5.02053408 38.36363208 3.0180755 39.69418644 1 41 C-0.4274527 41.98454214 -1.84376894 42.98537759 -3.25 44 C-3.91515625 44.474375 -4.5803125 44.94875 -5.265625 45.4375 C-7.1594062 47.14360919 -8.01517954 48.6685883 -9 51 C-9.66 51 -10.32 51 -11 51 C-11.495 48.525 -11.495 48.525 -12 46 C-13.423125 46.2475 -13.423125 46.2475 -14.875 46.5 C-16.24962386 46.669741 -17.62467489 46.83603775 -19 47 C-19.80695313 47.13792969 -20.61390625 47.27585938 -21.4453125 47.41796875 C-24.25100092 47.71398175 -26.27013405 47.74569821 -29 47 C-33.16920768 43.29815902 -36.27330266 38.41687798 -37 32.8125 C-35.52524262 27.1899875 -31.86605178 24.8994609 -27 22 C-26.01 21.67 -25.02 21.34 -24 21 C-24 20.34 -24 19.68 -24 19 C-23.34 19 -22.68 19 -22 19 C-21.67 18.01 -21.34 17.02 -21 16 C-19.109375 14.7890625 -19.109375 14.7890625 -16.75 13.625 C-13.77326115 12.07048082 -11.40682479 10.65831028 -9.125 8.1875 C-8.42375 7.465625 -7.7225 6.74375 -7 6 C-6.01 6 -5.02 6 -4 6 C-4 6.66 -4 7.32 -4 8 C-3.34 8 -2.68 8 -2 8 C-1.34 5.36 -0.68 2.72 0 0 Z " fill="#DFDFE2" transform="translate(176,32)"/>
<path d="M0 0 C0.99 0.33 1.98 0.66 3 1 C3 5 3 5 0.8046875 7.25390625 C-0.16210938 8.01574219 -1.12890625 8.77757812 -2.125 9.5625 C-3.07632813 10.32691406 -4.02765625 11.09132813 -5.0078125 11.87890625 C-7.9041991 13.93208892 -10.83318501 15.41659251 -14 17 C-14.33 17.66 -14.66 18.32 -15 19 C-15.66 19 -16.32 19 -17 19 C-17 19.66 -17 20.32 -17 21 C-19.1171875 22.9453125 -19.1171875 22.9453125 -21.875 25.125 C-22.77992188 25.84945312 -23.68484375 26.57390625 -24.6171875 27.3203125 C-27 29 -27 29 -29 29 C-28.75299703 35.79258171 -26.86975065 41.07920375 -22 46 C-20.02 46.66 -18.04 47.32 -16 48 C-16 53.28 -16 58.56 -16 64 C-21.63872832 64 -21.63872832 64 -25.1875 61.625 C-25.86167969 61.18414062 -26.53585938 60.74328125 -27.23046875 60.2890625 C-30.50537442 57.90336963 -31.61946932 55.7471547 -33 52 C-36.09938099 52.75416282 -36.09938099 52.75416282 -37.875 55.125 C-38.57625 55.74375 -39.2775 56.3625 -40 57 C-42.75 56.75 -42.75 56.75 -45 56 C-44.67702084 52.44722928 -43.70817425 50.49794534 -41.5 47.8125 C-38.63365806 44.07307689 -38.33889358 40.7606252 -38.140625 36.13671875 C-38 34 -38 34 -37 32 C-36.960008 30.00039988 -36.95653201 27.99952758 -37 26 C-39.31 28.64 -41.62 31.28 -44 34 C-44.66 33.67 -45.32 33.34 -46 33 C-46.40729228 30.67843403 -46.74438677 28.3431213 -47 26 C-47.66 26 -48.32 26 -49 26 C-49.33 26.99 -49.66 27.98 -50 29 C-51.65 28.67 -53.3 28.34 -55 28 C-54.88490339 26.58249437 -54.75746342 25.16598831 -54.625 23.75 C-54.55539063 22.96109375 -54.48578125 22.1721875 -54.4140625 21.359375 C-53.98380988 18.90774689 -53.15017865 17.18814474 -52 15 C-52 14.34 -52 13.68 -52 13 C-52.66 13 -53.32 13 -54 13 C-54 12.34 -54 11.68 -54 11 C-49.38 10.67 -44.76 10.34 -40 10 C-38.66416101 14.84241633 -37.74671881 18.93437617 -38 24 C-37.53851563 23.69707031 -37.07703125 23.39414062 -36.6015625 23.08203125 C-32.82629439 20.65720489 -29.05194753 18.4943883 -25 16.5625 C-20.837286 14.54188921 -17.36380807 12.13271858 -13.73828125 9.27734375 C-11.62015097 7.72087499 -9.45805828 6.90560042 -7 6 C-2.82189826 3.65232094 -2.82189826 3.65232094 0 0 Z " fill="#9F755B" transform="translate(169,32)"/>
<path d="M0 0 C0.66 0 1.32 0 2 0 C0.63350805 4.00695297 -1.17103527 6.6767174 -4 9.8125 C-5.051875 10.99779297 -5.051875 10.99779297 -6.125 12.20703125 C-8 14 -8 14 -10 14 C-10.2475 14.5775 -10.495 15.155 -10.75 15.75 C-12.18299988 18.32939979 -13.78424676 20.06121592 -16 22 C-16.66 22 -17.32 22 -18 22 C-18.66 23.32 -19.32 24.64 -20 26 C-20.66 26 -21.32 26 -22 26 C-22 26.66 -22 27.32 -22 28 C-22.66 28 -23.32 28 -24 28 C-24.0501123 28.71953857 -24.10022461 29.43907715 -24.15185547 30.18041992 C-25.82083192 53.82046849 -25.82083192 53.82046849 -27.125 60.9375 C-28.19672981 66.98865141 -28.05739477 72.90231213 -27.96142578 79.02246094 C-27.89690717 85.5138232 -28.58112642 91.65307445 -30 98 C-29.34 98.33 -28.68 98.66 -28 99 C-28 99.99 -28 100.98 -28 102 C-31.05847848 102.54372951 -33.88772805 103 -37 103 C-39.35953094 105.35953094 -39.49141413 106.77895617 -40 110 C-41.32 109.34 -42.64 108.68 -44 108 C-43.22878181 102.47293631 -43.22878181 102.47293631 -42.01171875 99.95703125 C-37.17329911 85.81539546 -40.06346458 67.68607242 -41.3125 53 C-41.3773056 52.21099304 -41.44211121 51.42198608 -41.50888062 50.60906982 C-41.69774398 48.36302109 -41.90194698 46.11903496 -42.11328125 43.875 C-42.23485596 42.57304688 -42.35643066 41.27109375 -42.48168945 39.9296875 C-42.73825317 38.47949219 -42.73825317 38.47949219 -43 37 C-43.66 36.67 -44.32 36.34 -45 36 C-41.70880761 36.56744696 -40.10255383 37.39516942 -38 40 C-37.48828125 42.06640625 -37.48828125 42.06640625 -37.3125 44.5625 C-37.24417969 45.52671875 -37.17585937 46.4909375 -37.10546875 47.484375 C-37.02478812 50.17372918 -37.00867508 52.82756723 -37.05078125 55.515625 C-37.06133545 56.30638428 -37.07188965 57.09714355 -37.08276367 57.91186523 C-37.11043481 59.48464165 -37.15301909 61.05724266 -37.2121582 62.62915039 C-37.31405607 67.61560685 -36.46572134 70.55403613 -34 75 C-33.43773359 78.82207287 -33.77425831 82.32277492 -35 86 C-35.06665376 87.39439664 -35.08538199 88.79169875 -35.0625 90.1875 C-35.041875 91.445625 -35.02125 92.70375 -35 94 C-31.26010717 89.44708698 -30.86934287 86.05209101 -30.97265625 80.23828125 C-30.98490234 79.11873047 -30.99714844 77.99917969 -31.00976562 76.84570312 C-31.04463135 74.50969922 -31.08362347 72.17375287 -31.12695312 69.83789062 C-31.18401418 63.97402803 -30.94946694 58.71063588 -29.47436523 53.03100586 C-28.42196881 48.52514594 -28.52983256 43.86335581 -28.34375 39.2578125 C-28 36 -28 36 -26 33 C-27.65 33 -29.3 33 -31 33 C-30.01 30.69 -29.02 28.38 -28 26 C-27.34 26 -26.68 26 -26 26 C-26 25.34 -26 24.68 -26 24 C-25.34 24 -24.68 24 -24 24 C-23.67 23.01 -23.34 22.02 -23 21 C-21.75 19.375 -21.75 19.375 -20 18 C-18.7934375 17.87625 -18.7934375 17.87625 -17.5625 17.75 C-14.47040526 16.84499666 -14.22374445 16.15589 -12.6875 13.4375 C-12.130625 12.303125 -11.57375 11.16875 -11 10 C-10.01 10 -9.02 10 -8 10 C-8 9.34 -8 8.68 -8 8 C-7.34 8 -6.68 8 -6 8 C-5.67 6.68 -5.34 5.36 -5 4 C-4.0409375 3.8453125 -4.0409375 3.8453125 -3.0625 3.6875 C-2.381875 3.460625 -1.70125 3.23375 -1 3 C-0.67 2.01 -0.34 1.02 0 0 Z " fill="#F3F1F8" transform="translate(194,66)"/>
<path d="M0 0 C0.99 0 1.98 0 3 0 C2.9071875 1.423125 2.9071875 1.423125 2.8125 2.875 C2.874375 3.90625 2.93625 4.9375 3 6 C3.99 6.66 4.98 7.32 6 8 C5.67 9.98 5.34 11.96 5 14 C5.66 14 6.32 14 7 14 C7.33773437 14.84304687 7.67546875 15.68609375 8.0234375 16.5546875 C8.46945313 17.65039062 8.91546875 18.74609375 9.375 19.875 C9.81585938 20.96554688 10.25671875 22.05609375 10.7109375 23.1796875 C11.83051338 26.06329362 11.83051338 26.06329362 14 28 C14.9178512 31.28146802 15.41478161 34.64508426 16 38 C16.268125 39.2375 16.53625 40.475 16.8125 41.75 C17.04235109 45.7340855 16.03133811 47.61443649 14 51 C13.4121875 52.175625 13.4121875 52.175625 12.8125 53.375 C12.544375 53.91125 12.27625 54.4475 12 55 C11.34 55 10.68 55 10 55 C9.773125 55.556875 9.54625 56.11375 9.3125 56.6875 C5.82713955 62.82837318 1.46977885 64.98482298 -5 67 C-5.66 67 -6.32 67 -7 67 C-7 67.66 -7 68.32 -7 69 C-8.98 69 -10.96 69 -13 69 C-13 69.66 -13 70.32 -13 71 C-14.98 71.495 -14.98 71.495 -17 72 C-17.33 69.36 -17.66 66.72 -18 64 C-19.98 64.99 -19.98 64.99 -22 66 C-22 64.68 -22 63.36 -22 62 C-22.99 61.67 -23.98 61.34 -25 61 C-20.38 60.67 -15.76 60.34 -11 60 C-10.67 61.65 -10.34 63.3 -10 65 C-9.34 65 -8.68 65 -8 65 C-7.76667969 64.25878906 -7.53335938 63.51757812 -7.29296875 62.75390625 C-5.7650005 59.49947237 -4.14750382 58.12127783 -1.3125 55.9375 C-0.42046875 55.24785156 0.4715625 54.55820313 1.390625 53.84765625 C3.53776718 52.32729959 5.60273774 51.06732517 7.9375 49.875 C11.50726491 47.68942965 12.5119841 45.85133527 14 42 C13.34 42 12.68 42 12 42 C10.40861915 37.82262526 9.78721942 34.46839215 10 30 C9.34 30 8.68 30 8 30 C7.81824219 29.24074219 7.63648438 28.48148438 7.44921875 27.69921875 C7.19785156 26.70535156 6.94648438 25.71148437 6.6875 24.6875 C6.44386719 23.70136719 6.20023438 22.71523438 5.94921875 21.69921875 C4.99950411 18.99858988 4.18152323 17.79043784 2 16 C1.01 17.98 0.02 19.96 -1 22 C-1.66 22 -2.32 22 -3 22 C-3 21.34 -3 20.68 -3 20 C-3.66 19.67 -4.32 19.34 -5 19 C-4.34 19 -3.68 19 -3 19 C-1.46667709 12.66226532 -0.51553879 6.49850211 0 0 Z " fill="#CECAD3" transform="translate(175,18)"/>
<path d="M0 0 C6.12050337 0.85687047 6.12050337 0.85687047 8.58984375 4.06640625 C9.55115647 5.65499465 10.47289848 7.26840566 11.34765625 8.90625 C13.23128874 11.68688311 13.23128874 11.68688311 19 13 C19 18.28 19 23.56 19 29 C13.36127168 29 13.36127168 29 9.8125 26.625 C9.13832031 26.18414062 8.46414062 25.74328125 7.76953125 25.2890625 C4.49462558 22.90336963 3.38053068 20.7471547 2 17 C-1.09938099 17.75416282 -1.09938099 17.75416282 -2.875 20.125 C-3.57625 20.74375 -4.2775 21.3625 -5 22 C-7.75 21.75 -7.75 21.75 -10 21 C-9.55946315 16.15409462 -7.25494123 12.51858133 -4 9 C-3.34 9 -2.68 9 -2 9 C-1.34 6.03 -0.68 3.06 0 0 Z " fill="#805A4A" transform="translate(134,67)"/>
<path d="M0 0 C3.29119239 0.56744696 4.89744617 1.39516942 7 4 C7.51171875 6.06640625 7.51171875 6.06640625 7.6875 8.5625 C7.75582031 9.52671875 7.82414063 10.4909375 7.89453125 11.484375 C7.97521188 14.17372918 7.99132492 16.82756723 7.94921875 19.515625 C7.93866455 20.30638428 7.92811035 21.09714355 7.91723633 21.91186523 C7.88956519 23.48464165 7.84698091 25.05724266 7.7878418 26.62915039 C7.68617828 31.60413899 8.50719567 34.57478922 11 39 C11.50643387 44.87463284 10.55074708 50.30269097 9.50390625 56.0859375 C9.06879092 58.60218583 8.75391928 61.08580722 8.5 63.625 C8 67 8 67 6 69 C5.35232207 71.57061311 5.35232207 71.57061311 5 74 C3.68 73.34 2.36 72.68 1 72 C1.77121819 66.47293631 1.77121819 66.47293631 2.98828125 63.95703125 C7.82670089 49.81539546 4.93653542 31.68607242 3.6875 17 C3.6226944 16.21099304 3.55788879 15.42198608 3.49111938 14.60906982 C3.30225602 12.36302109 3.09805302 10.11903496 2.88671875 7.875 C2.70435669 5.92207031 2.70435669 5.92207031 2.51831055 3.9296875 C2.26174683 2.47949219 2.26174683 2.47949219 2 1 C1.34 0.67 0.68 0.34 0 0 Z " fill="#FCFBFE" transform="translate(149,102)"/>
<path d="M0 0 C2.90046552 0.27179187 5.80217825 0.49921995 8.70703125 0.71875 C11 1 11 1 12 2 C14.32817964 2.36760731 16.6618385 2.70241581 19 3 C19.33 5.31 19.66 7.62 20 10 C18.68 10.33 17.36 10.66 16 11 C16.33 11.99 16.66 12.98 17 14 C15.88882813 13.73445313 14.77765625 13.46890625 13.6328125 13.1953125 C5.78001456 11.32765819 -2.06309702 9.48207525 -10 8 C-10.33 5.69 -10.66 3.38 -11 1 C-6.80807669 -1.09596166 -4.5336297 -0.92351716 0 0 Z " fill="#DDC5B8" transform="translate(101,65)"/>
<path d="M0 0 C2.06918507 6.55241939 2.17777451 10.64445099 -1 17 C-0.34 17 0.32 17 1 17 C1 17.66 1 18.32 1 19 C-0.95927063 20.7143618 -2.95880212 22.38405168 -5 24 C-6.25664978 21.09399739 -7 19.20395416 -7 16 C-7.66 16 -8.32 16 -9 16 C-9.33 16.99 -9.66 17.98 -10 19 C-11.65 18.67 -13.3 18.34 -15 18 C-14.88490339 16.58249437 -14.75746342 15.16598831 -14.625 13.75 C-14.55539063 12.96109375 -14.48578125 12.1721875 -14.4140625 11.359375 C-13.98380988 8.90774689 -13.15017865 7.18814474 -12 5 C-12 4.34 -12 3.68 -12 3 C-12.66 3 -13.32 3 -14 3 C-14 2.34 -14 1.68 -14 1 C-12.22932584 0.83165067 -10.45845388 0.66538091 -8.6875 0.5 C-7.70136719 0.4071875 -6.71523437 0.314375 -5.69921875 0.21875 C-3 0 -3 0 0 0 Z " fill="#2E180D" transform="translate(129,42)"/>
<path d="M0 0 C1.875 0.6875 1.875 0.6875 4 2 C4.68132451 3.66072849 5.34742127 5.327767 6 7 C9.44018757 10.57779508 14.37002492 11.60507161 19 13 C18.34 14.65 17.68 16.3 17 18 C7.29481003 19.03246702 0.26332993 12.75920711 -7 7 C-5.625 5.5 -5.625 5.5 -4 4 C-3.34 4 -2.68 4 -2 4 C-1.34 2.68 -0.68 1.36 0 0 Z " fill="#C59172" transform="translate(134,83)"/>
<path d="M0 0 C0.66 0.33 1.32 0.66 2 1 C3.41432878 9.0990337 4.29025229 19.00229359 2 27 C2.66 27 3.32 27 4 27 C4 29.64 4 32.28 4 35 C4.66 33.68 5.32 32.36 6 31 C7.4167991 40.91759371 6.96420925 48.40160813 4 58 C3.01 58 2.02 58 1 58 C0.97294271 56.22925083 0.95357805 54.45838289 0.9375 52.6875 C0.92589844 51.70136719 0.91429687 50.71523437 0.90234375 49.69921875 C1 47 1 47 2 44 C2.38715585 38.09587333 1.71327638 35.30858423 -1 30 C-0.70634266 28.32588702 -0.36678553 26.65962564 0 25 C0.07869838 23.01561604 0.10784044 21.02888652 0.09765625 19.04296875 C0.09443359 17.93115234 0.09121094 16.81933594 0.08789062 15.67382812 C0.07951172 14.52333984 0.07113281 13.37285156 0.0625 12.1875 C0.05573242 10.43276367 0.05573242 10.43276367 0.04882812 8.64257812 C0.0370693 5.76166642 0.02063426 2.88085956 0 0 Z " fill="#E5E1EC" transform="translate(157,105)"/>
<path d="M0 0 C0.99 0.33 1.98 0.66 3 1 C3 5 3 5 0.8046875 7.25390625 C-0.16210938 8.01574219 -1.12890625 8.77757812 -2.125 9.5625 C-3.07632813 10.32691406 -4.02765625 11.09132813 -5.0078125 11.87890625 C-7.9041991 13.93208892 -10.83318501 15.41659251 -14 17 C-14.33 17.66 -14.66 18.32 -15 19 C-15.66 19 -16.32 19 -17 19 C-17 19.66 -17 20.32 -17 21 C-18.53125 22.2890625 -18.53125 22.2890625 -20.5 23.625 C-21.1496875 24.07101563 -21.799375 24.51703125 -22.46875 24.9765625 C-23.22671875 25.48316406 -23.22671875 25.48316406 -24 26 C-24 22.04435836 -22.59478606 20.89133304 -20 18 C-19.01 17.34 -18.02 16.68 -17 16 C-19.9719385 17.12451727 -22.33440687 18.22293791 -25 20 C-27.6875 20.125 -27.6875 20.125 -30 20 C-27.41453621 18.27635747 -24.80365917 16.69637149 -22.125 15.125 C-19.30008471 13.4439909 -16.75953132 11.80762505 -14.1875 9.75 C-11.85248698 7.88198959 -9.77147454 7.08155104 -7 6 C-2.82189826 3.65232094 -2.82189826 3.65232094 0 0 Z " fill="#957261" transform="translate(169,32)"/>
<path d="M0 0 C0.2288982 14.49101696 0.05416833 28.63916247 -2 43 C-4.58464442 38.61991557 -3.81479148 35.88874887 -3 31 C-3.66 31 -4.32 31 -5 31 C-4.98952637 30.43079834 -4.97905273 29.86159668 -4.96826172 29.27514648 C-4.92634282 26.6626437 -4.90056112 24.05021201 -4.875 21.4375 C-4.85824219 20.54224609 -4.84148437 19.64699219 -4.82421875 18.72460938 C-4.78528128 13.40964539 -5.12296214 8.99449585 -7 4 C-7.66 3.34 -8.32 2.68 -9 2 C-5.83390538 0.12379578 -3.64167599 -0.09662822 0 0 Z " fill="#D3CFDB" transform="translate(164,101)"/>
<path d="M0 0 C0.99 0 1.98 0 3 0 C3.12630556 7.45202818 3.12630556 7.45202818 2.4921875 10.203125 C1.79411007 14.1699777 1.9832194 18.04574824 2.0625 22.0625 C2.14902336 29.57056481 1.64457119 36.64348064 0 44 C0.66 44.33 1.32 44.66 2 45 C2 45.99 2 46.98 2 48 C-3.75 49.125 -3.75 49.125 -6 48 C-6.40729228 45.67843403 -6.74438677 43.3431213 -7 41 C-5.515 40.505 -5.515 40.505 -4 40 C-0.40847688 33.06752515 -0.6765386 26.54596466 -0.875 18.875 C-0.91857678 16.58081047 -0.95778555 14.28653295 -0.9921875 11.9921875 C-1.01651855 10.98526855 -1.04084961 9.97834961 -1.06591797 8.94091797 C-0.99716298 5.87342689 -0.57390036 3.01059728 0 0 Z " fill="#EEECF4" transform="translate(164,120)"/>
<path d="M0 0 C0.33 0.99 0.66 1.98 1 3 C0 4 0 4 -2.5625 4.0625 C-3.7690625 4.0315625 -3.7690625 4.0315625 -5 4 C-5.33 4.99 -5.66 5.98 -6 7 C-8.90869728 9.90869728 -10.41844436 10.93878362 -14.5625 11.375 C-18.27919962 11.66108347 -18.27919962 11.66108347 -20.4375 15.0625 C-20.953125 16.031875 -21.46875 17.00125 -22 18 C-22.33 17.34 -22.66 16.68 -23 16 C-23.99 16 -24.98 16 -26 16 C-26 12.04 -26 8.08 -26 4 C-24.68 3.34 -23.36 2.68 -22 2 C-20.64560332 4.70879335 -20.93498549 7.00933268 -21 10 C-19.68 9.67 -18.36 9.34 -17 9 C-17 8.34 -17 7.68 -17 7 C-15.02 7 -13.04 7 -11 7 C-11 6.34 -11 5.68 -11 5 C-10.28972656 4.72285156 -9.57945312 4.44570312 -8.84765625 4.16015625 C-7.46900391 3.61681641 -7.46900391 3.61681641 -6.0625 3.0625 C-5.14597656 2.70285156 -4.22945312 2.34320313 -3.28515625 1.97265625 C-1.07581467 1.2003782 -1.07581467 1.2003782 0 0 Z " fill="#D6D2DC" transform="translate(179,80)"/>
<path d="M0 0 C0.66 0 1.32 0 2 0 C2 1.98 2 3.96 2 6 C1.195625 6.12375 0.39125 6.2475 -0.4375 6.375 C-1.283125 6.58125 -2.12875 6.7875 -3 7 C-3.33 7.66 -3.66 8.32 -4 9 C-4.66 9 -5.32 9 -6 9 C-6 9.66 -6 10.32 -6 11 C-7.98 11 -9.96 11 -12 11 C-12 11.66 -12 12.32 -12 13 C-13.32 13.33 -14.64 13.66 -16 14 C-16.33 11.36 -16.66 8.72 -17 6 C-18.98 6.99 -18.98 6.99 -21 8 C-21 6.68 -21 5.36 -21 4 C-21.99 3.67 -22.98 3.34 -24 3 C-19.38 2.67 -14.76 2.34 -10 2 C-9.67 3.65 -9.34 5.3 -9 7 C-8.34 7 -7.68 7 -7 7 C-7 6.34 -7 5.68 -7 5 C-6.030625 4.54625 -5.06125 4.0925 -4.0625 3.625 C-0.92920418 2.34213779 -0.92920418 2.34213779 0 0 Z " fill="#B2ABB7" transform="translate(174,76)"/>
<path d="M0 0 C5.11940422 3.90691374 5.83414946 7.49037742 6.73828125 13.76953125 C6.82464844 14.50558594 6.91101563 15.24164063 7 16 C7.66 16 8.32 16 9 16 C10.13764351 20.26616316 11 23.56486311 11 28 C11.66 28 12.32 28 13 28 C12.75 29.875 12.75 29.875 12 32 C9.9375 33.25 9.9375 33.25 8 34 C7.896875 32.989375 7.79375 31.97875 7.6875 30.9375 C7.09422654 27.53966111 6.15949367 25.02651093 4.77758789 21.91088867 C3.49300679 18.75408606 2.69639382 15.48950314 1.875 12.1875 C0.76785279 7.47848564 0.76785279 7.47848564 -1 3 C-0.67 2.01 -0.34 1.02 0 0 Z " fill="#F6F5FB" transform="translate(176,32)"/>
<path d="M0 0 C1.32 0 2.64 0 4 0 C4.0825 0.78375 4.165 1.5675 4.25 2.375 C4.4975 3.24125 4.745 4.1075 5 5 C6.32 5.66 7.64 6.32 9 7 C9 11.29 9 15.58 9 20 C9.99 20.33 10.98 20.66 12 21 C11.01 21.66 10.02 22.32 9 23 C7.74335022 20.09399739 7 18.20395416 7 15 C6.34 15 5.68 15 5 15 C4.67 15.99 4.34 16.98 4 18 C2.35 17.67 0.7 17.34 -1 17 C-0.88490339 15.58249437 -0.75746342 14.16598831 -0.625 12.75 C-0.55539063 11.96109375 -0.48578125 11.1721875 -0.4140625 10.359375 C0.01619012 7.90774689 0.84982135 6.18814474 2 4 C2 3.34 2 2.68 2 2 C1.34 2 0.68 2 0 2 C0 1.34 0 0.68 0 0 Z " fill="#A56E59" transform="translate(115,43)"/>
<path d="M0 0 C2.1631336 0.07881165 4.32641441 0.14551515 6.48999023 0.2109375 C7.86306118 0.25710207 9.2361093 0.30395163 10.60913086 0.3515625 C11.85170654 0.39458496 13.09428223 0.43760742 14.37451172 0.48193359 C17.20678711 0.703125 17.20678711 0.703125 18.20678711 1.703125 C19.55425795 1.93387582 20.91056276 2.11465563 22.26928711 2.265625 C23.56866211 2.41 24.86803711 2.554375 26.20678711 2.703125 C26.20678711 3.033125 26.20678711 3.363125 26.20678711 3.703125 C10.36678711 3.703125 -5.47321289 3.703125 -21.79321289 3.703125 C-21.79321289 2.713125 -21.79321289 1.723125 -21.79321289 0.703125 C-14.52674924 -0.56307283 -7.34080217 -0.27059748 0 0 Z " fill="#F0F1F6" transform="translate(197.793212890625,173.296875)"/>
<path d="M0 0 C0.09765625 6.15234375 0.09765625 6.15234375 0 8 C-0.33 8.33 -0.66 8.66 -1 9 C-1.08031171 10.49915185 -1.13887224 11.99948622 -1.1875 13.5 C-1.77667582 20.33443954 -5.23062149 25.23062149 -10 30 C-10.1875 27.1875 -10.1875 27.1875 -10 24 C-8.5 22.3125 -8.5 22.3125 -7 21 C-7 20.01 -7 19.02 -7 18 C-7.99 18.66 -8.98 19.32 -10 20 C-8.125 15.125 -8.125 15.125 -7 14 C-7.103125 12.96875 -7.20625 11.9375 -7.3125 10.875 C-7.04472686 7.55461308 -4.46659687 0 0 0 Z " fill="#CACBCD" transform="translate(133,57)"/>
<path d="M0 0 C0.66 0 1.32 0 2 0 C2 1.65 2 3.3 2 5 C1.34 5 0.68 5 0 5 C-0.226875 5.556875 -0.45375 6.11375 -0.6875 6.6875 C-3.05848293 10.86494611 -5.77307631 13.4707388 -10.1875 15.375 C-13 16 -13 16 -15 15 C-14.34 14.34 -13.68 13.68 -13 13 C-12.01 13 -11.02 13 -10 13 C-9.67 11.35 -9.34 9.7 -9 8 C-9.66 8 -10.32 8 -11 8 C-11.2475 8.639375 -11.495 9.27875 -11.75 9.9375 C-13 12 -13 12 -15.125 12.75 C-16.053125 12.87375 -16.053125 12.87375 -17 13 C-15.20187451 8.65453008 -12.78053893 6.8217872 -8.5625 4.875 C-6.05038446 4.01720445 -3.61384981 3.44808854 -1 3 C-0.67 2.01 -0.34 1.02 0 0 Z " fill="#B9B1BD" transform="translate(185,68)"/>
<path d="M0 0 C0.99 0 1.98 0 3 0 C3 0.66 3 1.32 3 2 C4.65 1.67 6.3 1.34 8 1 C8 1.99 8 2.98 8 4 C8.54785156 4.02578125 9.09570312 4.0515625 9.66015625 4.078125 C17.74009417 4.65620186 25.24921981 6.77810968 33 9 C32.67 9.99 32.34 10.98 32 12 C30.02 11.67 28.04 11.34 26 11 C26 10.34 26 9.68 26 9 C24.906875 9.061875 23.81375 9.12375 22.6875 9.1875 C18.11133152 9.1955851 14.12356344 8.08592681 9.7578125 6.796875 C6.45923209 5.84374412 3.13851424 5.12258702 -0.22265625 4.4296875 C-2 4 -2 4 -4 3 C-3.67 2.34 -3.34 1.68 -3 1 C-2.01 1.33 -1.02 1.66 0 2 C0 1.34 0 0.68 0 0 Z " fill="#E8D6CD" transform="translate(83,69)"/>
<path d="M0 0 C0.99 0.33 1.98 0.66 3 1 C3.66 0.67 4.32 0.34 5 0 C5 0.66 5 1.32 5 2 C9.63797755 1.40973774 9.63797755 1.40973774 14.1875 0.375 C16.39750957 -0.08224336 17.87346879 0.31647211 20 1 C20.625 3.375 20.625 3.375 21 6 C20.34 6.66 19.68 7.32 19 8 C18.67 6.02 18.34 4.04 18 2 C17.01 2.33 16.02 2.66 15 3 C13.10529184 3.0685495 11.2083166 3.08480372 9.3125 3.0625 C8.31863281 3.05347656 7.32476562 3.04445312 6.30078125 3.03515625 C5.16189453 3.01775391 5.16189453 3.01775391 4 3 C4 3.66 4 4.32 4 5 C4.66 5 5.32 5 6 5 C6.625 6.875 6.625 6.875 7 9 C6.34 9.66 5.68 10.32 5 11 C4.32348793 13.19704511 4.32348793 13.19704511 3.875 15.625 C3.62363281 16.85089844 3.62363281 16.85089844 3.3671875 18.1015625 C3.24601562 18.72804688 3.12484375 19.35453125 3 20 C4.65 20 6.3 20 8 20 C8 20.33 8 20.66 8 21 C5.69 21 3.38 21 1 21 C0.94593878 19.06280622 0.90717975 17.12518079 0.875 15.1875 C0.85179688 14.10855469 0.82859375 13.02960937 0.8046875 11.91796875 C1 9 1 9 3 6 C1.68 6 0.36 6 -1 6 C-1 6.66 -1 7.32 -1 8 C-1.66 7.67 -2.32 7.34 -3 7 C-2.01 4.69 -1.02 2.38 0 0 Z " fill="#DDD1CB" transform="translate(111,40)"/>
<path d="M0 0 C4.00172064 -0.06002581 7.99817246 -0.049042 12 0 C13.2065625 -0.01160156 13.2065625 -0.01160156 14.4375 -0.0234375 C16.5 0.0625 16.5 0.0625 20 1 C21.89965971 3.24505238 22.8046972 5.26076441 24 8 C18.2141153 8.41327748 15.0529635 7.77676323 10.03125 4.95703125 C6.74453034 3.40848064 3.60089444 3.25720675 0 3 C0 2.01 0 1.02 0 0 Z " fill="#9B6E56" transform="translate(92,69)"/>
<path d="M0 0 C0.99 0.33 1.98 0.66 3 1 C3.17942163 4.94727588 3.09350689 7.5980513 1 11 C1.66 11.33 2.32 11.66 3 12 C2.21625 12.2475 1.4325 12.495 0.625 12.75 C-2.45455085 14.21645279 -2.67019235 14.98576932 -4 18 C-5.29470975 19.37086915 -6.62150897 20.71340837 -8 22 C-8.66 21.67 -9.32 21.34 -10 21 C-9.55946315 16.15409462 -7.25494123 12.51858133 -4 9 C-3.34 9 -2.68 9 -2 9 C-1.34 6.03 -0.68 3.06 0 0 Z " fill="#4E4C4F" transform="translate(134,67)"/>
<path d="M0 0 C0.66 0 1.32 0 2 0 C2.33 4.29 2.66 8.58 3 13 C-2.68373494 13 -2.68373494 13 -6.1875 10.75 C-6.86167969 10.33234375 -7.53585938 9.9146875 -8.23046875 9.484375 C-10.20537611 7.82771982 -11.0166839 6.35995864 -12 4 C-10.35 3.67 -8.7 3.34 -7 3 C-7 3.66 -7 4.32 -7 5 C-4.69 5 -2.38 5 0 5 C0 3.35 0 1.7 0 0 Z " fill="#7E4F38" transform="translate(150,83)"/>
<path d="M0 0 C0.66 0 1.32 0 2 0 C2.66 2.31 3.32 4.62 4 7 C4.99 7 5.98 7 7 7 C7.3125 9.6875 7.3125 9.6875 7 13 C4.5 15.875 4.5 15.875 2 18 C1.18618205 16.06305322 0.37399084 14.12542289 -0.4375 12.1875 C-0.88996094 11.10855469 -1.34242187 10.02960938 -1.80859375 8.91796875 C-2.60375013 6.9704874 -3.33479648 4.99561057 -4 3 C-2.68 3 -1.36 3 0 3 C0 2.01 0 1.02 0 0 Z " fill="#FEF6EC" transform="translate(120,58)"/>
<path d="M0 0 C2.375 0.25 2.375 0.25 5 1 C6.7941758 3.56310828 7 4.83119306 7 8 C5.3203125 9.38671875 5.3203125 9.38671875 3.125 10.6875 C2.40570313 11.12449219 1.68640625 11.56148437 0.9453125 12.01171875 C-1 13 -1 13 -3 13 C-3.226875 13.78375 -3.45375 14.5675 -3.6875 15.375 C-5 18 -5 18 -7.625 19.3125 C-8.40875 19.539375 -9.1925 19.76625 -10 20 C-7.70162252 15.86292054 -5.33180324 12.16590162 -1 10 C-1.20625 9.46375 -1.4125 8.9275 -1.625 8.375 C-2.1314747 5.16732692 -1.15400225 2.98682934 0 0 Z " fill="#565452" transform="translate(137,69)"/>
<path d="M0 0 C0.66 0.33 1.32 0.66 2 1 C3.41432878 9.0990337 4.29025229 19.00229359 2 27 C2.66 27 3.32 27 4 27 C3.67 29.31 3.34 31.62 3 34 C2.01 33.67 1.02 33.34 0 33 C-0.38063221 30.6739143 -0.71269945 28.33944736 -1 26 C-0.67 25.67 -0.34 25.34 0 25 C0.08737645 23.14630389 0.10698153 21.28932459 0.09765625 19.43359375 C0.09443359 18.30888672 0.09121094 17.18417969 0.08789062 16.02539062 C0.07951172 14.84138672 0.07113281 13.65738281 0.0625 12.4375 C0.05798828 11.24962891 0.05347656 10.06175781 0.04882812 8.83789062 C0.03699675 5.89187774 0.02051287 2.94596319 0 0 Z " fill="#DDDBE9" transform="translate(157,105)"/>
<path d="M0 0 C0.33 2.31 0.66 4.62 1 7 C-0.32 7.33 -1.64 7.66 -3 8 C-2.67 8.99 -2.34 9.98 -2 11 C-3.65 10.67 -5.3 10.34 -7 10 C-6.34 9.34 -5.68 8.68 -5 8 C-5.7425 7.071875 -5.7425 7.071875 -6.5 6.125 C-8 4 -8 4 -8 2 C-10.64 2 -13.28 2 -16 2 C-16 1.67 -16 1.34 -16 1 C-10.59255982 0.22750855 -5.46137814 -0.09752461 0 0 Z " fill="#E8C6AE" transform="translate(120,68)"/>
<path d="M0 0 C5.61 0 11.22 0 17 0 C17.33 1.32 17.66 2.64 18 4 C17.34 4 16.68 4 16 4 C15.67 4.66 15.34 5.32 15 6 C14.34 5.67 13.68 5.34 13 5 C13 4.34 13 3.68 13 3 C12.01 3 11.02 3 10 3 C10 3.66 10 4.32 10 5 C6.7 4.34 3.4 3.68 0 3 C0 2.01 0 1.02 0 0 Z " fill="#FEF1E2" transform="translate(73,66)"/>
<path d="M0 0 C2.31 0 4.62 0 7 0 C7 4.62 7 9.24 7 14 C6.67 14 6.34 14 6 14 C6 10.37 6 6.74 6 3 C5.34 3 4.68 3 4 3 C4 4.65 4 6.3 4 8 C1.69 8 -0.62 8 -3 8 C-2.25 2.25 -2.25 2.25 0 0 Z " fill="#734E3E" transform="translate(146,80)"/>
<path d="M0 0 C0.05390357 2.93774463 0.0936255 5.87450232 0.125 8.8125 C0.14175781 9.64587891 0.15851563 10.47925781 0.17578125 11.33789062 C0.18222656 12.14033203 0.18867188 12.94277344 0.1953125 13.76953125 C0.20578613 14.50792236 0.21625977 15.24631348 0.22705078 16.00708008 C0 18 0 18 -2 21 C-2 17.37 -2 13.74 -2 10 C-2.66 10 -3.32 10 -4 10 C-4.28875 8.88625 -4.5775 7.7725 -4.875 6.625 C-5.69241329 2.99708908 -5.69241329 2.99708908 -8 1 C-5.29120665 -0.35439668 -2.99066732 -0.06501451 0 0 Z " fill="#C8C5D2" transform="translate(163,102)"/>
<path d="M0 0 C0.66 0 1.32 0 2 0 C1.67 1.98 1.34 3.96 1 6 C1.66 5.67 2.32 5.34 3 5 C3 4.01 3 3.02 3 2 C6.12290635 2.48578543 8.99580359 2.9986012 12 4 C11.67 5.32 11.34 6.64 11 8 C10.34 8 9.68 8 9 8 C9 7.34 9 6.68 9 6 C8.360625 6.309375 7.72125 6.61875 7.0625 6.9375 C3.07950896 8.31935403 -0.81650849 8.6536543 -5 9 C-5 8.01 -5 7.02 -5 6 C-3.35 6 -1.7 6 0 6 C0 4.02 0 2.04 0 0 Z " fill="#FDF8F7" transform="translate(60,61)"/>
<path d="M0 0 C3.77727089 1.81309003 7.37269822 3.9073259 11 6 C11 6.66 11 7.32 11 8 C14.62197194 9.49140021 18.27566618 10.7874262 22 12 C22 12.33 22 12.66 22 13 C12.29481003 14.03246702 5.26332993 7.75920711 -2 2 C-1.34 1.34 -0.68 0.68 0 0 Z " fill="#CA9F8B" transform="translate(129,88)"/>
<path d="M0 0 C0.99 0 1.98 0 3 0 C2.938125 0.94875 2.87625 1.8975 2.8125 2.875 C2.874375 3.90625 2.93625 4.9375 3 6 C3.99 6.66 4.98 7.32 6 8 C6.40843923 10.71203652 6.13336867 13.2437142 6 16 C5.01 15.67 4.02 15.34 3 15 C3 14.01 3 13.02 3 12 C1.68 12.33 0.36 12.66 -1 13 C-0.67 8.71 -0.34 4.42 0 0 Z " fill="#C3B5BA" transform="translate(175,18)"/>
<path d="M0 0 C0.33 0.66 0.66 1.32 1 2 C0.34 2 -0.32 2 -1 2 C-1 2.66 -1 3.32 -1 4 C-1.66 4.66 -2.32 5.32 -3 6 C-3.01797994 8.43332989 -3.01797994 8.43332989 -2.625 11.25 C-1.90995602 18.18172045 -1.9073112 25.03804121 -2 32 C-2.33 32 -2.66 32 -3 32 C-3.04487549 31.2886792 -3.08975098 30.5773584 -3.13598633 29.84448242 C-3.34718907 26.62436398 -3.57958578 23.40611776 -3.8125 20.1875 C-3.88275391 19.06794922 -3.95300781 17.94839844 -4.02539062 16.79492188 C-4.10595703 15.72177734 -4.18652344 14.64863281 -4.26953125 13.54296875 C-4.37164917 12.0583313 -4.37164917 12.0583313 -4.47583008 10.54370117 C-5.33234964 6.38716773 -7.56216985 5.29188677 -11 3 C-9.68 3 -8.36 3 -7 3 C-6.67 2.34 -6.34 1.68 -6 1 C-6 1.66 -6 2.32 -6 3 C-5.34 3 -4.68 3 -4 3 C-4 2.34 -4 1.68 -4 1 C-2.68 0.67 -1.36 0.34 0 0 Z " fill="#EFECF8" transform="translate(160,98)"/>
<path d="M0 0 C2.47923801 -0.02685095 4.9581884 -0.04676547 7.4375 -0.0625 C8.14455078 -0.07087891 8.85160156 -0.07925781 9.58007812 -0.08789062 C11.38693559 -0.09653588 13.19387603 -0.05220011 15 0 C15.33 0.33 15.66 0.66 16 1 C17.34747084 1.23075082 18.70377565 1.41153063 20.0625 1.5625 C21.361875 1.706875 22.66125 1.85125 24 2 C24 2.33 24 2.66 24 3 C15.75 3 7.5 3 -1 3 C-0.67 2.01 -0.34 1.02 0 0 Z " fill="#EAEBEF" transform="translate(200,174)"/>
<path d="M0 0 C1.512545 5.16044765 2.33500455 8.65998179 1 14 C0.67 14 0.34 14 0 14 C0 12.02 0 10.04 0 8 C-0.66 8 -1.32 8 -2 8 C-2.33 8.66 -2.66 9.32 -3 10 C-3 9.01 -3 8.02 -3 7 C-3.99 6.67 -4.98 6.34 -6 6 C-6 4.35 -6 2.7 -6 1 C-3 0 -3 0 0 0 Z " fill="#3D3431" transform="translate(129,42)"/>
<path d="M0 0 C4.68 4.32 4.68 4.32 6 7.125 C6 9 6 9 4.5625 10.75 C3.7890625 11.36875 3.7890625 11.36875 3 12 C3 11.34 3 10.68 3 10 C2.5875 10.45375 2.175 10.9075 1.75 11.375 C0 13 0 13 -2.125 14 C-4.3530435 14.91202978 -4.3530435 14.91202978 -5 18 C-5.66 18 -6.32 18 -7 18 C-7 18.66 -7 19.32 -7 20 C-7.66 19.67 -8.32 19.34 -9 19 C-8.67 18.34 -8.34 17.68 -8 17 C-7.34 17 -6.68 17 -6 17 C-5.67 15.68 -5.34 14.36 -5 13 C-3.68 12.67 -2.36 12.34 -1 12 C-1 10.68 -1 9.36 -1 8 C-0.01 8 0.98 8 2 8 C1.67 7.4225 1.34 6.845 1 6.25 C0 4 0 4 0 0 Z " fill="#E9E7EC" transform="translate(193,56)"/>
<path d="M0 0 C0.66 0 1.32 0 2 0 C0.63350805 4.00695297 -1.17103527 6.6767174 -4 9.8125 C-4.70125 10.60269531 -5.4025 11.39289063 -6.125 12.20703125 C-8 14 -8 14 -10 14 C-10 12.68 -10 11.36 -10 10 C-9.34 10 -8.68 10 -8 10 C-8 9.34 -8 8.68 -8 8 C-7.34 8 -6.68 8 -6 8 C-5.67 6.68 -5.34 5.36 -5 4 C-4.360625 3.896875 -3.72125 3.79375 -3.0625 3.6875 C-2.381875 3.460625 -1.70125 3.23375 -1 3 C-0.67 2.01 -0.34 1.02 0 0 Z " fill="#F9F7FC" transform="translate(194,66)"/>
<path d="M0 0 C0.5465625 0.22945312 1.093125 0.45890625 1.65625 0.6953125 C1.01816406 1.03304687 0.38007813 1.37078125 -0.27734375 1.71875 C-1.10363281 2.16476563 -1.92992187 2.61078125 -2.78125 3.0703125 C-3.60496094 3.51117188 -4.42867187 3.95203125 -5.27734375 4.40625 C-7.47841578 5.52949809 -7.47841578 5.52949809 -8.34375 7.6953125 C-9.00375 7.6953125 -9.66375 7.6953125 -10.34375 7.6953125 C-10.34375 8.3553125 -10.34375 9.0153125 -10.34375 9.6953125 C-11.875 10.984375 -11.875 10.984375 -13.84375 12.3203125 C-14.4934375 12.76632813 -15.143125 13.21234375 -15.8125 13.671875 C-16.3178125 14.00960937 -16.823125 14.34734375 -17.34375 14.6953125 C-17.34375 10.68536263 -16.02427593 9.61708576 -13.34375 6.6953125 C-10.6875 4.640625 -10.6875 4.640625 -7.84375 2.8203125 C-6.9053125 2.20414063 -5.966875 1.58796875 -5 0.953125 C-2.34375 -0.3046875 -2.34375 -0.3046875 0 0 Z " fill="#BD8C7A" transform="translate(162.34375,43.3046875)"/>
<path d="M0 0 C1 2 1 2 0.3125 4.25 C-1.18526213 7.38816827 -3.01250158 10.15125227 -5 13 C-7.76223278 10.23776722 -7.57856291 7.79293383 -8 4 C-6.68 4 -5.36 4 -4 4 C-1.74934898 2.08333079 -1.74934898 2.08333079 0 0 Z " fill="#E7E2E7" transform="translate(127,72)"/>
<path d="M0 0 C-0.11437651 2.72998676 -0.24111406 5.4584582 -0.375 8.1875 C-0.4059375 8.95642578 -0.436875 9.72535156 -0.46875 10.51757812 C-0.68616111 14.73897711 -1.09743072 18.14072328 -3 22 C-3.33 22 -3.66 22 -4 22 C-4 18.04 -4 14.08 -4 10 C-3.67 10 -3.34 10 -3 10 C-3 8.02 -3 6.04 -3 4 C-3.66 4.66 -4.32 5.32 -5 6 C-5.66 5.67 -6.32 5.34 -7 5 C-6 2 -6 2 -4.0625 0.8125 C-2 0 -2 0 0 0 Z " fill="#948A87" transform="translate(135,54)"/>
<path d="M0 0 C0.66 0 1.32 0 2 0 C2 1.98 2 3.96 2 6 C-3.625 9 -3.625 9 -7 9 C-7 8.34 -7 7.68 -7 7 C-7.66 6.67 -8.32 6.34 -9 6 C-8.360625 5.896875 -7.72125 5.79375 -7.0625 5.6875 C-6.381875 5.460625 -5.70125 5.23375 -5 5 C-4.67 4.01 -4.34 3.02 -4 2 C-2.68 2 -1.36 2 0 2 C0 1.34 0 0.68 0 0 Z " fill="#F4EAE7" transform="translate(148,168)"/>
<path d="M0 0 C0.33 0 0.66 0 1 0 C1 4.29 1 8.58 1 13 C1.99 13.33 2.98 13.66 4 14 C3.01 14.66 2.02 15.32 1 16 C-0.25664978 13.09399739 -1 11.20395416 -1 8 C-1.66 8 -2.32 8 -3 8 C-3.33 8.99 -3.66 9.98 -4 11 C-4.66 10.01 -5.32 9.02 -6 8 C-4.71034824 6.62437146 -3.37310707 5.29233607 -2 4 C-1.34 4 -0.68 4 0 4 C0 2.68 0 1.36 0 0 Z " fill="#855742" transform="translate(123,50)"/>
<path d="M0 0 C0.625 1.875 0.625 1.875 1 4 C0.34 4.66 -0.32 5.32 -1 6 C-1.67651207 8.19704511 -1.67651207 8.19704511 -2.125 10.625 C-2.37636719 11.85089844 -2.37636719 11.85089844 -2.6328125 13.1015625 C-2.75398438 13.72804688 -2.87515625 14.35453125 -3 15 C-1.35 15 0.3 15 2 15 C2 15.33 2 15.66 2 16 C-0.31 16 -2.62 16 -5 16 C-5.08133791 14.08404032 -5.13934367 12.16708068 -5.1875 10.25 C-5.22230469 9.18265625 -5.25710937 8.1153125 -5.29296875 7.015625 C-4.94860213 3.47094463 -4.06391445 0 0 0 Z " fill="#DDBBAA" transform="translate(117,45)"/>
<path d="M0 0 C2.1328125 0.40234375 2.1328125 0.40234375 4 1 C-10.4405365 12.45012567 -10.4405365 12.45012567 -18 12 C-15.41453621 10.27635747 -12.80365917 8.69637149 -10.125 7.125 C-7.20603395 5.39822793 -4.72165052 3.76400805 -2.125 1.5625 C-1.42375 1.046875 -0.7225 0.53125 0 0 Z " fill="#BE9A86" transform="translate(157,40)"/>
<path d="M0 0 C1.65 0 3.3 0 5 0 C3.63880608 4.08358176 1.66807348 4.85452306 -2 7 C-5.375 8.25 -5.375 8.25 -8 9 C-7.67 7.35 -7.34 5.7 -7 4 C-3.535 3.505 -3.535 3.505 0 3 C0 2.01 0 1.02 0 0 Z " fill="#E6D4C9" transform="translate(164,32)"/>
<path d="M0 0 C0 0.66 0 1.32 0 2 C-1.6796875 3.2890625 -1.6796875 3.2890625 -3.875 4.625 C-4.59429687 5.07101563 -5.31359375 5.51703125 -6.0546875 5.9765625 C-8 7 -8 7 -10 7 C-10.226875 7.78375 -10.45375 8.5675 -10.6875 9.375 C-12 12 -12 12 -14.625 13.3125 C-15.40875 13.539375 -16.1925 13.76625 -17 14 C-13.82826541 8.29087774 -7.26969796 0 0 0 Z " fill="#341E16" transform="translate(144,75)"/>
<path d="M0 0 C0.66 0.99 1.32 1.98 2 3 C-3.625 7 -3.625 7 -7 7 C-7 7.66 -7 8.32 -7 9 C-8.98 9.33 -10.96 9.66 -13 10 C-12.34 9.67 -11.68 9.34 -11 9 C-10.67 8.01 -10.34 7.02 -10 6 C-7.96875 4.6484375 -7.96875 4.6484375 -5.5 3.375 C-2.55480881 1.95980348 -2.55480881 1.95980348 0 0 Z " fill="#E4D5D2" transform="translate(165,42)"/>
<path d="M0 0 C0.33 0.99 0.66 1.98 1 3 C-5.435 3.495 -5.435 3.495 -12 4 C-9.62094121 -0.75811759 -4.68914367 -1.51707589 0 0 Z " fill="#C3A59C" transform="translate(152,175)"/>
<path d="M0 0 C1.98 0 3.96 0 6 0 C6.625 2.375 6.625 2.375 7 5 C5 7 5 7 2.375 7.125 C1.59125 7.08375 0.8075 7.0425 0 7 C0 4.69 0 2.38 0 0 Z " fill="#93664B" transform="translate(138,53)"/>
<path d="M0 0 C0 2.64 0 5.28 0 8 C-1.32 8 -2.64 8 -4 8 C-4.33 9.98 -4.66 11.96 -5 14 C-5.33 14 -5.66 14 -6 14 C-6.875 10.9375 -6.875 10.9375 -7 7 C-2.72972973 0 -2.72972973 0 0 0 Z " fill="#D1B9A9" transform="translate(133,57)"/>
<path d="M0 0 C2.97 0.495 2.97 0.495 6 1 C6 1.66 6 2.32 6 3 C6.66 3 7.32 3 8 3 C8 2.34 8 1.68 8 1 C9.32 1 10.64 1 12 1 C11.67 2.32 11.34 3.64 11 5 C6.78121808 5.19622241 3.82989106 4.80230168 0 3 C0 2.01 0 1.02 0 0 Z " fill="#AB7E68" transform="translate(141,95)"/>
<path d="M0 0 C4.455 0.99 4.455 0.99 9 2 C8.34 3.65 7.68 5.3 7 7 C4.20171644 6.61402985 3.1794116 6.19863427 1.25 4.0625 C0 2 0 2 0 0 Z " fill="#DDD4D0" transform="translate(143,72)"/>
<path d="M0 0 C0.66 0 1.32 0 2 0 C2.66 2.31 3.32 4.62 4 7 C4.66 7 5.32 7 6 7 C5.67 8.32 5.34 9.64 5 11 C4.67 10.67 4.34 10.34 4 10 C3.34 10.66 2.68 11.32 2 12 C1.46809459 10.56656 0.94984742 9.12804633 0.4375 7.6875 C0.14746094 6.88699219 -0.14257812 6.08648437 -0.44140625 5.26171875 C-1 3 -1 3 0 0 Z " fill="#ECC3AF" transform="translate(120,58)"/>
<path d="M0 0 C2.3125 -0.3125 2.3125 -0.3125 5 0 C6.81883009 2.3832946 8 3.95818337 8 7 C6.02 7 4.04 7 2 7 C2.33 5.68 2.66 4.36 3 3 C2.01 3 1.02 3 0 3 C0 2.01 0 1.02 0 0 Z " fill="#E3D8D2" transform="translate(111,61)"/>
<path d="M0 0 C0.99 0.33 1.98 0.66 3 1 C3 2.32 3 3.64 3 5 C-0.77385034 7.15648591 -3.69031271 7 -8 7 C-7.236875 6.401875 -6.47375 5.80375 -5.6875 5.1875 C-3.6516425 3.53040668 -1.8021721 1.89702326 0 0 Z " fill="#AB8E84" transform="translate(169,32)"/>
<path d="M0 0 C2.74554724 2.37115444 3.95117186 4.53079925 5 8 C5.125 11.3125 5.125 11.3125 5 14 C1.88979866 11.45528982 0.99866974 8.84103748 0 5 C-0.125 2.125 -0.125 2.125 0 0 Z " fill="#B6B5BE" transform="translate(183,39)"/>
<path d="M0 0 C0 1.65 0 3.3 0 5 C-0.99 5.33 -1.98 5.66 -3 6 C-3.33 6.66 -3.66 7.32 -4 8 C-5.32 6.68 -6.64 5.36 -8 4 C-2.25 0 -2.25 0 0 0 Z " fill="#75503A" transform="translate(142,78)"/>
<path d="M0 0 C3.63 0 7.26 0 11 0 C9.4375 2.0625 9.4375 2.0625 7 4 C3.25 3.75 3.25 3.75 0 3 C0 2.01 0 1.02 0 0 Z " fill="#FEFCFB" transform="translate(73,66)"/>
<path d="M0 0 C0.66 0 1.32 0 2 0 C3.15837626 4.05431692 2.83691257 6.21812119 1 10 C0.34 10 -0.32 10 -1 10 C-0.67 8.02 -0.34 6.04 0 4 C-0.66 4 -1.32 4 -2 4 C-2 4.66 -2 5.32 -2 6 C-2.66 6 -3.32 6 -4 6 C-2.84826645 3.53199953 -1.95216435 1.95216435 0 0 Z " fill="#E5D4D3" transform="translate(62,57)"/>
<path d="M0 0 C0.33 1.98 0.66 3.96 1 6 C1.99 6.33 2.98 6.66 4 7 C3.01 7.33 2.02 7.66 1 8 C-2.1875 5.6875 -2.1875 5.6875 -5 3 C-5 2.34 -5 1.68 -5 1 C-2 0 -2 0 0 0 Z " fill="#95684E" transform="translate(143,86)"/>
<path d="M0 0 C0.5859375 1.87890625 0.5859375 1.87890625 1 4 C0.03542166 5.35917857 -0.96854629 6.69084721 -2 8 C-2.71433121 10.64934822 -2.71433121 10.64934822 -3 13 C-3.99 12.67 -4.98 12.34 -6 12 C-5.54300722 6.97307937 -3.00758252 3.85103739 0 0 Z " fill="#85848B" transform="translate(130,76)"/>
<path d="M0 0 C0.66 0 1.32 0 2 0 C1.835 0.66 1.67 1.32 1.5 2 C0.87816701 5.73099794 0.93591074 9.21873378 1 13 C0.01 13.33 -0.98 13.66 -2 14 C-1.85970581 11.8537974 -1.71261836 9.70803782 -1.5625 7.5625 C-1.48128906 6.36753906 -1.40007812 5.17257813 -1.31640625 3.94140625 C-1 1 -1 1 0 0 Z " fill="#FEFBF6" transform="translate(112,46)"/>
<path d="M0 0 C0.625 2.875 0.625 2.875 1 6 C0.34 6.66 -0.32 7.32 -1 8 C-1.33 6.02 -1.66 4.04 -2 2 C-2.99 2.33 -3.98 2.66 -5 3 C-6.56118428 3.06740865 -8.1250252 3.08514456 -9.6875 3.0625 C-10.89986328 3.04896484 -10.89986328 3.04896484 -12.13671875 3.03515625 C-13.05904297 3.01775391 -13.05904297 3.01775391 -14 3 C-14 2.67 -14 2.34 -14 2 C-9.126739 0.4087311 -5.19209404 -0.21192221 0 0 Z " fill="#C6C1C0" transform="translate(131,40)"/>
<path d="M0 0 C1.38226016 2.76452033 1.09525387 5.0461363 1.0625 8.125 C1.05347656 9.22070312 1.04445312 10.31640625 1.03515625 11.4453125 C1.02355469 12.28835937 1.01195312 13.13140625 1 14 C0.01 14 -0.98 14 -2 14 C-2.05389087 12.04196493 -2.09274217 10.08351091 -2.125 8.125 C-2.14820313 7.03445312 -2.17140625 5.94390625 -2.1953125 4.8203125 C-2 2 -2 2 0 0 Z " fill="#DED2D6" transform="translate(155,82)"/>
<path d="M0 0 C0.66 0 1.32 0 2 0 C0.37621488 4.72373854 -2.10993018 8.94181834 -5 13 C-5.33 13 -5.66 13 -6 13 C-6.36666667 7.5 -6.36666667 7.5 -4.625 5.125 C-3 4 -3 4 -1 4 C-0.67 2.68 -0.34 1.36 0 0 Z " fill="#BFBEC3" transform="translate(129,74)"/>
<path d="M0 0 C3.38370684 3.38370684 3.05529986 7.2332093 3.0625 11.8125 C3.04655989 13.20839779 3.02736707 14.60427948 3 16 C0.99006295 12.98509443 0.27376659 10.7850073 -0.625 7.3125 C-0.88539063 6.31863281 -1.14578125 5.32476562 -1.4140625 4.30078125 C-1.60742188 3.54152344 -1.80078125 2.78226563 -2 2 C-1.34 2 -0.68 2 0 2 C0 1.34 0 0.68 0 0 Z " fill="#C8C6CE" transform="translate(181,32)"/>
<path d="M0 0 C0.99 0.33 1.98 0.66 3 1 C3.25 3.8125 3.25 3.8125 3 7 C1.68 7.99 0.36 8.98 -1 10 C-0.67 6.7 -0.34 3.4 0 0 Z " fill="#4C4540" transform="translate(134,67)"/>
<path d="M0 0 C0.33 0 0.66 0 1 0 C1 1.98 1 3.96 1 6 C1.66 6 2.32 6 3 6 C3 4.35 3 2.7 3 1 C3.99 1.33 4.98 1.66 6 2 C5.34 2 4.68 2 4 2 C4 4.64 4 7.28 4 10 C2.0625 9.6875 2.0625 9.6875 0 9 C-1.15941038 5.52176885 -0.70820884 3.54104422 0 0 Z " fill="#A88371" transform="translate(136,59)"/>
<path d="M0 0 C0.99 0.33 1.98 0.66 3 1 C2.360625 1.268125 1.72125 1.53625 1.0625 1.8125 C-1.33131686 2.88667752 -1.33131686 2.88667752 -2 6 C-2.66 6 -3.32 6 -4 6 C-4.33 6.99 -4.66 7.98 -5 9 C-5.66 8.34 -6.32 7.68 -7 7 C-5.65117186 2.95351557 -3.65173931 2.04497401 0 0 Z " fill="#9F6D52" transform="translate(150,47)"/>
<path d="M0 0 C1.134375 0.020625 2.26875 0.04125 3.4375 0.0625 C3.1075 0.7225 2.7775 1.3825 2.4375 2.0625 C2.4375 2.7225 2.4375 3.3825 2.4375 4.0625 C2.4375 4.7225 2.4375 5.3825 2.4375 6.0625 C-1.21566671 4.81273244 -2.34315836 4.39151247 -4.5625 1.0625 C-3.5625 0.0625 -3.5625 0.0625 0 0 Z " fill="#BEBBC8" transform="translate(160.5625,77.9375)"/>
<path d="M0 0 C0.66 0.33 1.32 0.66 2 1 C-5.25 8.25 -5.25 8.25 -12 9 C-11.34 8.01 -10.68 7.02 -10 6 C-9.01 6 -8.02 6 -7 6 C-6.67 5.34 -6.34 4.68 -6 4 C-5.360625 3.855625 -4.72125 3.71125 -4.0625 3.5625 C-1.61789145 3.13834965 -1.61789145 3.13834965 0 0 Z " fill="#C7BEC9" transform="translate(182,75)"/>
<path d="M0 0 C1.35432675 1.31200404 2.68733482 2.64631404 4 4 C4 4.33 4 4.66 4 5 C1.36 5 -1.28 5 -4 5 C-4.33 4.01 -4.66 3.02 -5 2 C-3.35 1.34 -1.7 0.68 0 0 Z " fill="#9C6D56" transform="translate(112,72)"/>
<path d="M0 0 C1.32 0 2.64 0 4 0 C4.103125 0.78375 4.20625 1.5675 4.3125 2.375 C4.77595022 5.33045181 4.77595022 5.33045181 8 7 C7.01 7.495 7.01 7.495 6 8 C6 8.66 6 9.32 6 10 C4.68 10.33 3.36 10.66 2 11 C2.185625 10.443125 2.37125 9.88625 2.5625 9.3125 C3.07551165 6.600867 2.6640724 4.65628961 2 2 C1.34 2 0.68 2 0 2 C0 1.34 0 0.68 0 0 Z " fill="#744B3A" transform="translate(115,43)"/>
<path d="M0 0 C0.66 0 1.32 0 2 0 C2 2.31 2 4.62 2 7 C0.68 7.33 -0.64 7.66 -2 8 C-2 6.02 -2 4.04 -2 2 C-1.34 2 -0.68 2 0 2 C0 1.34 0 0.68 0 0 Z " fill="#1D0E08" transform="translate(127,50)"/>
<path d="M0 0 C2.77158171 1.59738472 3.56868696 2.44678044 5.4375 5.25 C3.7875 4.92 2.1375 4.59 0.4375 4.25 C0.4375 3.59 0.4375 2.93 0.4375 2.25 C-0.531875 2.12625 -1.50125 2.0025 -2.5 1.875 C-3.510625 1.66875 -4.52125 1.4625 -5.5625 1.25 C-5.8925 0.59 -6.2225 -0.07 -6.5625 -0.75 C-3.5625 -1.75 -3.5625 -1.75 0 0 Z " fill="#E5D9D5" transform="translate(130.5625,91.75)"/>
<path d="M0 0 C2 2 2 2 2.125 4.625 C2.08375 5.40875 2.0425 6.1925 2 7 C1.34 7 0.68 7 0 7 C0.33 9.31 0.66 11.62 1 14 C-1.105184 10.842224 -1.25289344 10.04602866 -1.1875 6.4375 C-1.18105469 5.65246094 -1.17460937 4.86742188 -1.16796875 4.05859375 C-1 2 -1 2 0 0 Z " fill="#C5C3CF" transform="translate(156,82)"/>
<path d="M0 0 C0.66 0 1.32 0 2 0 C2.33 4.29 2.66 8.58 3 13 C1.35 13 -0.3 13 -2 13 C-2.33 12.34 -2.66 11.68 -3 11 C-1.68 11 -0.36 11 1 11 C0.67 7.37 0.34 3.74 0 0 Z " fill="#8C6452" transform="translate(150,83)"/>
<path d="M0 0 C2.31 0.33 4.62 0.66 7 1 C7 1.66 7 2.32 7 3 C5.68 3 4.36 3 3 3 C3 3.66 3 4.32 3 5 C1.68 5.33 0.36 5.66 -1 6 C-0.67 4.02 -0.34 2.04 0 0 Z " fill="#A8A3AF" transform="translate(159,84)"/>
<path d="M0 0 C2.125 0.375 2.125 0.375 4 1 C2.95125002 3.62187494 2.35068687 4.79371361 -0.125 6.25 C-0.74375 6.4975 -1.3625 6.745 -2 7 C-2.125 4.625 -2.125 4.625 -2 2 C-1.34 1.34 -0.68 0.68 0 0 Z " fill="#643A27" transform="translate(146,80)"/>
<path d="M0 0 C1.32 0.33 2.64 0.66 4 1 C5.2380014 4.57644848 4.74926071 7.33694766 4 11 C3.67 11 3.34 11 3 11 C3 9.02 3 7.04 3 5 C2.34 5 1.68 5 1 5 C0.67 5.66 0.34 6.32 0 7 C0 4.69 0 2.38 0 0 Z " fill="#322A28" transform="translate(126,45)"/>
<path d="M0 0 C0.1875 3.375 0.1875 3.375 0 7 C-0.99 7.66 -1.98 8.32 -3 9 C-4.04449911 5.86650268 -3.93423645 5.01031744 -3 2 C-3.99 1.67 -4.98 1.34 -6 1 C-1.125 0 -1.125 0 0 0 Z " fill="#E1D4CD" transform="translate(181,16)"/>
<path d="M0 0 C0.99 0 1.98 0 3 0 C2.979375 0.928125 2.95875 1.85625 2.9375 2.8125 C2.84230396 6.02286011 2.84230396 6.02286011 4 9 C2.68 8.67 1.36 8.34 0 8 C0 5.36 0 2.72 0 0 Z " fill="#B1988C" transform="translate(175,18)"/>
<path d="M0 0 C0.33 1.32 0.66 2.64 1 4 C1.66 4 2.32 4 3 4 C2.75 5.875 2.75 5.875 2 8 C-0.0625 9.25 -0.0625 9.25 -2 10 C-2 8.02 -2 6.04 -2 4 C-1.34 4 -0.68 4 0 4 C0 2.68 0 1.36 0 0 Z " fill="#EEECF8" transform="translate(186,56)"/>
<path d="M0 0 C1 3 1 3 0.0625 5.1875 C-0.4634375 6.0846875 -0.4634375 6.0846875 -1 7 C-2.98 7 -4.96 7 -7 7 C-4.66666667 4.66666667 -2.33333333 2.33333333 0 0 Z " fill="#E4D2CF" transform="translate(150,53)"/>
<path d="M0 0 C-2.64 1.98 -5.28 3.96 -8 6 C-8.66 5.34 -9.32 4.68 -10 4 C-9.01 4 -8.02 4 -7 4 C-6.87625 3.360625 -6.7525 2.72125 -6.625 2.0625 C-6.41875 1.381875 -6.2125 0.70125 -6 0 C-4 -1 -4 -1 0 0 Z " fill="#E6D5CC" transform="translate(154,43)"/>
<path d="M0 0 C0 2.64 0 5.28 0 8 C-0.66 8 -1.32 8 -2 8 C-2.33 8.66 -2.66 9.32 -3 10 C-3 7.03 -3 4.06 -3 1 C-1 0 -1 0 0 0 Z " fill="#EDCEC4" transform="translate(175,20)"/>
<path d="M0 0 C0.99 0 1.98 0 3 0 C3 3.3 3 6.6 3 10 C1.35 9.67 -0.3 9.34 -2 9 C-1.34 8.01 -0.68 7.02 0 6 C0.16699232 2.87478167 0.16699232 2.87478167 0 0 Z " fill="#CFB199" transform="translate(115,69)"/>
<path d="M0 0 C3.63 0 7.26 0 11 0 C11 0.66 11 1.32 11 2 C6.58937864 3.0257259 4.07369424 3.03684712 0 1 C0 0.67 0 0.34 0 0 Z " fill="#89553A" transform="translate(101,71)"/>
<path d="M0 0 C2.97 0.495 2.97 0.495 6 1 C6 1.66 6 2.32 6 3 C3 5 3 5 0 5 C0 3.35 0 1.7 0 0 Z " fill="#4A2F22" transform="translate(124,58)"/>
<path d="M0 0 C-0.33 2.97 -0.66 5.94 -1 9 C-1.33 9 -1.66 9 -2 9 C-2.33 7.35 -2.66 5.7 -3 4 C-3.66 4.66 -4.32 5.32 -5 6 C-5.66 5.67 -6.32 5.34 -7 5 C-6 2 -6 2 -4.0625 0.8125 C-2 0 -2 0 0 0 Z " fill="#B59785" transform="translate(135,54)"/>
<path d="M0 0 C-0.33 0.99 -0.66 1.98 -1 3 C-1.66 3 -2.32 3 -3 3 C-3 5.31 -3 7.62 -3 10 C-3.99 10.495 -3.99 10.495 -5 11 C-5.36717663 3.5340751 -5.36717663 3.5340751 -3.625 1 C-2 0 -2 0 0 0 Z " fill="#E8DCD4" transform="translate(175,18)"/>
<path d="M0 0 C2.8125 -0.25 2.8125 -0.25 6 0 C7.875 2 7.875 2 9 4 C8.01 4.495 8.01 4.495 7 5 C7 4.34 7 3.68 7 3 C5.02 3.99 5.02 3.99 3 5 C3 3.68 3 2.36 3 1 C2.01 0.67 1.02 0.34 0 0 Z " fill="#B7B1BA" transform="translate(150,79)"/>
<path d="M0 0 C2.475 0.495 2.475 0.495 5 1 C4 4 4 4 1.9375 5.1875 C1.298125 5.455625 0.65875 5.72375 0 6 C0 4.02 0 2.04 0 0 Z " fill="#615F5C" transform="translate(137,69)"/>
<path d="M0 0 C-2.64458379 1.32229189 -4.67761301 1.09677194 -7.625 1.0625 C-8.62789062 1.05347656 -9.63078125 1.04445312 -10.6640625 1.03515625 C-11.43492187 1.02355469 -12.20578125 1.01195312 -13 1 C-13 0.67 -13 0.34 -13 0 C-11.58800422 -0.39222105 -10.17007236 -0.76311059 -8.75 -1.125 C-7.96109375 -1.33382812 -7.1721875 -1.54265625 -6.359375 -1.7578125 C-3.5796929 -2.04314411 -2.34112451 -1.44977894 0 0 Z " fill="#DBCCD0" transform="translate(160,178)"/>
<path d="M0 0 C1.9375 0.75 1.9375 0.75 4 2 C4.75 4.125 4.75 4.125 5 6 C1.535 4.02 1.535 4.02 -2 2 C-1.34 1.34 -0.68 0.68 0 0 Z " fill="#D4B09E" transform="translate(129,88)"/>
<path d="M0 0 C0.66 0.33 1.32 0.66 2 1 C-1.44615385 5.8 -1.44615385 5.8 -4.25 6.8125 C-5.11625 6.9053125 -5.11625 6.9053125 -6 7 C-4.60667426 3.63279613 -3.0210714 2.0140476 0 0 Z " fill="#BEBCC5" transform="translate(174,74)"/>
<path d="M0 0 C0.99 0.99 1.98 1.98 3 3 C3 3.99 3 4.98 3 6 C2.01 6 1.02 6 0 6 C0 7.32 0 8.64 0 10 C-0.66 10 -1.32 10 -2 10 C-1.34 6.7 -0.68 3.4 0 0 Z " fill="#D8D6DC" transform="translate(192,58)"/>
<path d="M0 0 C0.99 0 1.98 0 3 0 C3.33 0.99 3.66 1.98 4 3 C3.67 3.66 3.34 4.32 3 5 C1.35 5 -0.3 5 -2 5 C-1.34 3.35 -0.68 1.7 0 0 Z " fill="#ECDCE0" transform="translate(153,96)"/>
<path d="M0 0 C0 2.31 0 4.62 0 7 C-1.65 6.67 -3.3 6.34 -5 6 C-4.01 5.67 -3.02 5.34 -2 5 C-2.33 3.68 -2.66 2.36 -3 1 C-1 0 -1 0 0 0 Z " fill="#8A5940" transform="translate(151,87)"/>
<path d="M0 0 C2 2 2 2 2.1953125 3.9453125 C2.13020833 5.96354167 2.06510417 7.98177083 2 10 C-0.77867692 7.22132308 -0.65193902 4.8286708 -1 1 C-0.67 0.67 -0.34 0.34 0 0 Z " fill="#F4F1F0" transform="translate(120,75)"/>
<path d="M0 0 C1.89213369 2.38573379 3.02391783 4.07175348 4 7 C3.34 7 2.68 7 2 7 C1.67 7.66 1.34 8.32 1 9 C0 8 0 8 -0.09765625 6.15234375 C-0.06510417 4.1015625 -0.03255208 2.05078125 0 0 Z " fill="#D3C4BA" transform="translate(140,61)"/>
<path d="M0 0 C1.98 0.495 1.98 0.495 4 1 C3.67 2.65 3.34 4.3 3 6 C1.68 6 0.36 6 -1 6 C-0.67 4.02 -0.34 2.04 0 0 Z " fill="#B7856D" transform="translate(115,54)"/>
<path d="M0 0 C0.99 0.33 1.98 0.66 3 1 C3.33 2.98 3.66 4.96 4 7 C3.34 7 2.68 7 2 7 C0.5393715 4.35261084 0 3.10551666 0 0 Z " fill="#BBBAC2" transform="translate(188,55)"/>
<path d="M0 0 C0.33 1.32 0.66 2.64 1 4 C-0.65 5.32 -2.3 6.64 -4 8 C-4 4.09161134 -2.49432124 2.88405893 0 0 Z " fill="#AE8573" transform="translate(149,50)"/>
<path d="M0 0 C-0.33 1.65 -0.66 3.3 -1 5 C-2.32 5 -3.64 5 -5 5 C-4.625 3.0625 -4.625 3.0625 -4 1 C-2 0 -2 0 0 0 Z " fill="#D9D8E7" transform="translate(160,172)"/>
<path d="M0 0 C0.66 0.33 1.32 0.66 2 1 C0.70700306 3.88437779 -0.65941363 5.87219421 -3 8 C-2.45276317 4.62537285 -1.9451 2.91765 0 0 Z " fill="#686067" transform="translate(130,80)"/>
<path d="M0 0 C0.66 0.33 1.32 0.66 2 1 C1.67 1.66 1.34 2.32 1 3 C1.66 3.33 2.32 3.66 3 4 C0.525 5.485 0.525 5.485 -2 7 C-2 5.35 -2 3.7 -2 2 C-1.34 2 -0.68 2 0 2 C0 1.34 0 0.68 0 0 Z " fill="#D8C9C5" transform="translate(132,50)"/>
<path d="M0 0 C-5.75 4 -5.75 4 -8 4 C-5.97675095 -0.48005146 -4.79569304 -1.43870791 0 0 Z " fill="#B99789" transform="translate(164,44)"/>
</svg>
