<?xml version="1.0" encoding="UTF-8"?>
<svg version="1.1" xmlns="http://www.w3.org/2000/svg" width="275" height="183">
<path d="M0 0 C90.75 0 181.5 0 275 0 C275 60.39 275 120.78 275 183 C184.25 183 93.5 183 0 183 C0 122.61 0 62.22 0 0 Z " fill="#FEFEFD" transform="translate(0,0)"/>
<path d="M0 0 C47.85 0 95.7 0 145 0 C142 3 142 3 139.4375 4.3125 C136.30780621 6.47921109 135.88547602 8.37759808 135 12 C137.97 12 140.94 12 144 12 C144 13.32 144 14.64 144 16 C142.35 16.33 140.7 16.66 139 17 C138.01 20.96 137.02 24.92 136 29 C135.34 29 134.68 29 134 29 C134.04640625 30.76923828 134.04640625 30.76923828 134.09375 32.57421875 C134.09375 36.51098388 133.42985005 39.97686854 132.5 43.8125 C130.40087502 53.58811789 130.84051695 63.387072 130.953125 73.33203125 C131.27941818 103.44116364 131.27941818 103.44116364 127 112 C126.37025987 123.26266004 126.40598766 132.36259735 133 142 C133.886875 142.886875 134.77375 143.77375 135.6875 144.6875 C138.74141123 148.17115323 138.40547332 151.5739739 138.17578125 156.0234375 C138.11777344 156.67570313 138.05976563 157.32796875 138 158 C138.99 158 139.98 158 141 158 C141 156.02 141 154.04 141 152 C142.98 151.67 144.96 151.34 147 151 C147 150.34 147 149.68 147 149 C150.96 149.66 154.92 150.32 159 151 C159 151.66 159 152.32 159 153 C159.99 152.67 160.98 152.34 162 152 C162.40992188 152.49371094 162.81984375 152.98742187 163.2421875 153.49609375 C163.78101563 154.13675781 164.31984375 154.77742187 164.875 155.4375 C165.40867188 156.07558594 165.94234375 156.71367187 166.4921875 157.37109375 C167.9222757 159.10805004 167.9222757 159.10805004 170 160 C170.2165625 161.2065625 170.2165625 161.2065625 170.4375 162.4375 C170.76502717 165.34440658 170.76502717 165.34440658 174 167 C174 167.66 174 168.32 174 169 C174.95720444 168.99333817 174.95720444 168.99333817 175.93374634 168.98654175 C182.58487709 168.94224081 189.23596581 168.91210541 195.88720703 168.89013672 C198.36834415 168.880089 200.84946945 168.86644856 203.33056641 168.84912109 C206.90009479 168.82481914 210.46946638 168.81350442 214.0390625 168.8046875 C215.14553131 168.79436493 216.25200012 168.78404236 217.39199829 168.77340698 C222.69226482 168.77263757 227.02883551 168.93455211 232 171 C232.66 171 233.32 171 234 171 C234 171.66 234 172.32 234 173 C207.71429163 173.04667292 181.42858944 173.08196572 155.14284801 173.10362434 C142.93856104 173.11394707 130.73429977 173.12802642 118.5300293 173.15087891 C107.89566017 173.1707823 97.26130966 173.18370918 86.62692243 173.18817699 C80.99351371 173.19078955 75.36015827 173.19695082 69.72676659 173.21146011 C64.42862935 173.22499587 59.13056752 173.22923078 53.83241463 173.22621536 C51.8840888 173.22676733 49.93576056 173.23076854 47.98744965 173.23841095 C45.3346942 173.24830953 42.68222634 173.24598758 40.02946472 173.24050903 C39.25223169 173.24633472 38.47499866 173.2521604 37.67421311 173.25816262 C33.90202403 173.23699461 32.22007982 173.14671988 29 171 C29 170.01 29 169.02 29 168 C31.3260857 167.61936779 33.66055264 167.28730055 36 167 C36.33 167.33 36.66 167.66 37 168 C38.84031989 168.12337174 40.68529411 168.17791308 42.52954102 168.20532227 C43.71068985 168.22526749 44.89183868 168.24521271 46.10877991 168.26576233 C47.3941716 168.28247482 48.67956329 168.29918732 50.00390625 168.31640625 C51.9661338 168.3475779 51.9661338 168.3475779 53.96800232 168.37937927 C57.45155447 168.434663 60.9351666 168.48404431 64.41882324 168.53222656 C67.9713273 168.58239574 71.5237439 168.63810567 75.07617188 168.69335938 C82.05070546 168.80101791 89.02531798 168.90244567 96 169 C96.14308594 168.26394531 96.28617187 167.52789062 96.43359375 166.76953125 C97.1745537 163.14649259 98.0888468 159.58386925 99 156 C89.89040835 155.97687455 80.78082674 155.95908388 71.6712122 155.94818783 C67.44168629 155.94295944 63.2121804 155.9358626 58.98266602 155.92456055 C54.90431457 155.91373009 50.82598243 155.90772283 46.74761772 155.90512276 C45.18822361 155.90326879 43.6288306 155.89964873 42.06944466 155.89426994 C39.89270838 155.88705738 37.71605286 155.88600915 35.53930664 155.88647461 C34.29798477 155.884254 33.0566629 155.88203339 31.77772522 155.87974548 C29.092183 155.68252989 29.092183 155.68252989 28 157 C18.76 157 9.52 157 0 157 C0 105.19 0 53.38 0 0 Z " fill="#FDFAF4" transform="translate(0,0)"/>
<path d="M0 0 C2.56695636 0.39491636 4.67123994 0.83561997 7 2 C6.86722656 2.78503906 6.73445313 3.57007813 6.59765625 4.37890625 C6.42105469 5.42949219 6.24445313 6.48007812 6.0625 7.5625 C5.88847656 8.59503906 5.71445313 9.62757812 5.53515625 10.69140625 C5.35855469 11.78324219 5.18195313 12.87507813 5 14 C4.81308594 15.02480469 4.62617188 16.04960938 4.43359375 17.10546875 C3.8150743 22.66099933 3.94153989 28.1658903 4 33.75 C4.17873832 71.64252336 4.17873832 71.64252336 0 80 C-0.62974013 91.26266004 -0.59401234 100.36259735 6 110 C6.886875 110.886875 7.77375 111.77375 8.6875 112.6875 C11.74141123 116.17115323 11.40547332 119.5739739 11.17578125 124.0234375 C11.11777344 124.67570312 11.05976563 125.32796875 11 126 C11.99 126 12.98 126 14 126 C14 124.02 14 122.04 14 120 C15.98 119.67 17.96 119.34 20 119 C20 118.34 20 117.68 20 117 C25.94 117.99 25.94 117.99 32 119 C32 119.66 32 120.32 32 121 C32.99 120.67 33.98 120.34 35 120 C35.40992188 120.49371094 35.81984375 120.98742187 36.2421875 121.49609375 C36.78101563 122.13675781 37.31984375 122.77742188 37.875 123.4375 C38.40867188 124.07558594 38.94234375 124.71367187 39.4921875 125.37109375 C40.9222757 127.10805004 40.9222757 127.10805004 43 128 C43.2165625 129.2065625 43.2165625 129.2065625 43.4375 130.4375 C43.76502717 133.34440658 43.76502717 133.34440658 47 135 C47 135.66 47 136.32 47 137 C47.95720444 136.99333817 47.95720444 136.99333817 48.93374634 136.98654175 C55.58487709 136.94224081 62.23596581 136.91210541 68.88720703 136.89013672 C71.36834415 136.880089 73.84946945 136.86644856 76.33056641 136.84912109 C79.90009479 136.82481914 83.46946638 136.81350442 87.0390625 136.8046875 C88.14553131 136.79436493 89.25200012 136.78404236 90.39199829 136.77340698 C95.69226482 136.77263757 100.02883551 136.93455211 105 139 C105.66 139 106.32 139 107 139 C107 139.66 107 140.32 107 141 C80.71429163 141.04667292 54.42858944 141.08196572 28.14284801 141.10362434 C15.93856104 141.11394707 3.73429977 141.12802642 -8.4699707 141.15087891 C-19.10433983 141.1707823 -29.73869034 141.18370918 -40.37307757 141.18817699 C-46.00648629 141.19078955 -51.63984173 141.19695082 -57.27323341 141.21146011 C-62.57137065 141.22499587 -67.86943248 141.22923078 -73.16758537 141.22621536 C-75.1159112 141.22676733 -77.06423944 141.23076854 -79.01255035 141.23841095 C-81.6653058 141.24830953 -84.31777366 141.24598758 -86.97053528 141.24050903 C-87.74776831 141.24633472 -88.52500134 141.2521604 -89.32578689 141.25816262 C-93.09797597 141.23699461 -94.77992018 141.14671988 -98 139 C-98 138.01 -98 137.02 -98 136 C-95.6739143 135.61936779 -93.33944736 135.28730055 -91 135 C-90.67 135.33 -90.34 135.66 -90 136 C-88.15968011 136.12337174 -86.31470589 136.17791308 -84.47045898 136.20532227 C-83.28931015 136.22526749 -82.10816132 136.24521271 -80.89122009 136.26576233 C-79.6058284 136.28247482 -78.32043671 136.29918732 -76.99609375 136.31640625 C-75.0338662 136.3475779 -75.0338662 136.3475779 -73.03199768 136.37937927 C-69.54844553 136.434663 -66.0648334 136.48404431 -62.58117676 136.53222656 C-59.0286727 136.58239574 -55.4762561 136.63810567 -51.92382812 136.69335938 C-44.94929454 136.80101791 -37.97468202 136.90244567 -31 137 C-30.86190918 136.23558594 -30.72381836 135.47117188 -30.58154297 134.68359375 C-29.88500957 131.46936408 -28.624421 128.92424394 -27.125 126 C-26.61195312 124.989375 -26.09890625 123.97875 -25.5703125 122.9375 C-24 120 -24 120 -22.29296875 117.78515625 C-20.25551581 113.39632258 -20.86570002 109.18648759 -21.1875 104.4375 C-21.23197266 103.49197266 -21.27644531 102.54644531 -21.32226562 101.57226562 C-21.57648713 97.13123571 -21.87981583 93.95051774 -24 90 C-25.26776792 82.47872303 -23.6118635 77.71463022 -19.7265625 71.37109375 C-16.30373935 64.68807027 -14.62855447 57.28280346 -12.63037109 50.07104492 C-12 48 -12 48 -10.8359375 45.52734375 C-9.74038253 42.21508175 -9.86477566 39.22093786 -9.875 35.75073242 C-9.875 24.72013207 -8.36543441 8.36543441 0 0 Z " fill="#181719" transform="translate(127,32)"/>
<path d="M0 0 C1.98 0 3.96 0 6 0 C6 8.91 6 17.82 6 27 C4.02 27 2.04 27 0 27 C0.00607553 27.60407621 0.01215105 28.20815243 0.01841068 28.83053398 C0.16620789 43.5632647 0.30792443 58.29604535 0.4429636 73.02889824 C0.50841382 80.15373763 0.57588391 87.27854696 0.64819336 94.40332031 C0.71124997 100.61691029 0.77043089 106.83052336 0.82505554 113.04419339 C0.85408242 116.33096079 0.88556177 119.61767433 0.92053413 122.90438461 C0.95934933 126.58320251 0.99131454 130.26202232 1.02172852 133.94091797 C1.03467453 135.01770309 1.04762054 136.09448822 1.06095886 137.2039032 C1.10488123 143.53711244 0.77705128 149.71351151 0 156 C-9.82948575 156.26912681 -19.27749229 155.2901906 -29 154 C-29 153.34 -29 152.68 -29 152 C-27.02 152 -25.04 152 -23 152 C-22.505 144.575 -22.505 144.575 -22 137 C-20.68 136.67 -19.36 136.34 -18 136 C-18.33 136.5775 -18.66 137.155 -19 137.75 C-20.27075898 140.19883862 -20.27075898 140.19883862 -20 144 C-19.01 144 -18.02 144 -17 144 C-17 142.02 -17 140.04 -17 138 C-14.525 137.01 -14.525 137.01 -12 136 C-12.0721875 135.26394531 -12.144375 134.52789062 -12.21875 133.76953125 C-12.3115625 132.79371094 -12.404375 131.81789062 -12.5 130.8125 C-12.63921875 129.36810547 -12.63921875 129.36810547 -12.78125 127.89453125 C-12.98124844 125.24812333 -13.03879183 122.65239135 -13 120 C-13.99 120 -14.98 120 -16 120 C-17.13050158 114.03917346 -17.1129332 111.387769 -14 106 C-13.30092586 103.26427415 -13.30092586 103.26427415 -13 101 C-13.66 101 -14.32 101 -15 101 C-15 100.01 -15 99.02 -15 98 C-14.34 98 -13.68 98 -13 98 C-13 97.01 -13 96.02 -13 95 C-14.32 95 -15.64 95 -17 95 C-16.91253716 93.56138706 -16.80434652 92.12402492 -16.6875 90.6875 C-16.62949219 89.88699219 -16.57148438 89.08648437 -16.51171875 88.26171875 C-15.91793306 85.63727666 -15.04219706 84.69179328 -13 83 C-13.66 83 -14.32 83 -15 83 C-16.35611804 77.82209476 -15.46288782 75.6302291 -13 71 C-12.74715633 68.24853726 -12.74715633 68.24853726 -13 66 C-12.34 66 -11.68 66 -11 66 C-10.23528715 62.51630811 -10.0016276 59.9896919 -10.5625 56.4375 C-11.02299609 52.81931642 -10.64337215 51.19007534 -9 48 C-10.98 48.66 -12.96 49.32 -15 50 C-14.69106068 48.3743193 -14.3777305 46.74947252 -14.0625 45.125 C-13.80146484 43.76761719 -13.80146484 43.76761719 -13.53515625 42.3828125 C-13 40 -13 40 -12 38 C-11.34 38 -10.68 38 -10 38 C-9.67 35.36 -9.34 32.72 -9 30 C-8.34 30 -7.68 30 -7 30 C-7 30.66 -7 31.32 -7 32 C-6.34 32 -5.68 32 -5 32 C-4.06934867 29.39417629 -3.85082593 28.35801776 -4.9375 25.75 C-5.288125 25.1725 -5.63875 24.595 -6 24 C-5.34 24 -4.68 24 -4 24 C-4 23.34 -4 22.68 -4 22 C-2.35 21.34 -0.7 20.68 1 20 C1.09087891 18.73542969 1.09087891 18.73542969 1.18359375 17.4453125 C1.26738281 16.34960938 1.35117187 15.25390625 1.4375 14.125 C1.51871094 13.03445313 1.59992188 11.94390625 1.68359375 10.8203125 C2 8 2 8 3 6 C2.01 6 1.02 6 0 6 C0 4.02 0 2.04 0 0 Z " fill="#E4CEBA" transform="translate(269,0)"/>
<path d="M0 0 C2.33333333 2.33333333 4.66666667 4.66666667 7 7 C7.45375 6.505 7.9075 6.01 8.375 5.5 C10 4 10 4 12 4 C10.26615508 8.53467132 8.26909352 12.90599569 5.75 17.0625 C4.70256345 19.76837774 5.12941576 21.25431124 6 24 C6.97888927 25.67915263 7.97657068 27.34761681 9 29 C9.71285156 28.71125 10.42570312 28.4225 11.16015625 28.125 C21.34848883 24.17582129 21.34848883 24.17582129 27 25 C27.99 25.99 28.98 26.98 30 28 C30 32.29 30 36.58 30 41 C17.79 41 5.58 41 -7 41 C-7 41.66 -7 42.32 -7 43 C15.275 42.505 15.275 42.505 38 42 C36.515 41.01 36.515 41.01 35 40 C43.91 40.66 52.82 41.32 62 42 C62 41.34 62 40.68 62 40 C62.66 40 63.32 40 64 40 C63.54947266 39.07767578 63.54947266 39.07767578 63.08984375 38.13671875 C62.51943359 36.92435547 62.51943359 36.92435547 61.9375 35.6875 C61.55464844 34.88699219 61.17179688 34.08648437 60.77734375 33.26171875 C60 31 60 31 61 28 C63.20220378 29.81921182 63.94199852 30.70274242 64.5 33.5625 C64.7756937 36.35862883 64.7756937 36.35862883 68 38 C68 38.66 68 39.32 68 40 C68.95720444 39.99333817 68.95720444 39.99333817 69.93374634 39.98654175 C76.58487709 39.94224081 83.23596581 39.91210541 89.88720703 39.89013672 C92.36834415 39.880089 94.84946945 39.86644856 97.33056641 39.84912109 C100.90009479 39.82481914 104.46946638 39.81350442 108.0390625 39.8046875 C109.14553131 39.79436493 110.25200012 39.78404236 111.39199829 39.77340698 C116.69226482 39.77263757 121.02883551 39.93455211 126 42 C126.66 42 127.32 42 128 42 C128 42.66 128 43.32 128 44 C101.71429163 44.04667292 75.42858944 44.08196572 49.14284801 44.10362434 C36.93856104 44.11394707 24.73429977 44.12802642 12.5300293 44.15087891 C1.89566017 44.1707823 -8.73869034 44.18370918 -19.37307757 44.18817699 C-25.00648629 44.19078955 -30.63984173 44.19695082 -36.27323341 44.21146011 C-41.57137065 44.22499587 -46.86943248 44.22923078 -52.16758537 44.22621536 C-54.1159112 44.22676733 -56.06423944 44.23076854 -58.01255035 44.23841095 C-60.6653058 44.24830953 -63.31777366 44.24598758 -65.97053528 44.24050903 C-66.74776831 44.24633472 -67.52500134 44.2521604 -68.32578689 44.25816262 C-72.09797597 44.23699461 -73.77992018 44.14671988 -77 42 C-77 41.01 -77 40.02 -77 39 C-74.6739143 38.61936779 -72.33944736 38.28730055 -70 38 C-69.67 38.33 -69.34 38.66 -69 39 C-67.15968011 39.12337174 -65.31470589 39.17791308 -63.47045898 39.20532227 C-62.28931015 39.22526749 -61.10816132 39.24521271 -59.89122009 39.26576233 C-58.6058284 39.28247482 -57.32043671 39.29918732 -55.99609375 39.31640625 C-54.68794205 39.33718735 -53.37979034 39.35796844 -52.03199768 39.37937927 C-48.54844553 39.434663 -45.0648334 39.48404431 -41.58117676 39.53222656 C-38.0286727 39.58239574 -34.4762561 39.63810567 -30.92382812 39.69335938 C-23.94929454 39.80101791 -16.97468202 39.90244567 -10 40 C-9.86190918 39.23558594 -9.72381836 38.47117188 -9.58154297 37.68359375 C-8.88500957 34.46936408 -7.624421 31.92424394 -6.125 29 C-5.61195312 27.989375 -5.09890625 26.97875 -4.5703125 25.9375 C-3 23 -3 23 -1.31640625 20.70703125 C0.6219722 16.72098891 0.32187859 13.05308137 0.1875 8.6875 C0.17396484 7.85154297 0.16042969 7.01558594 0.14648438 6.15429688 C0.11131217 4.10258502 0.05751048 2.05120725 0 0 Z " fill="#5D5550" transform="translate(106,129)"/>
<path d="M0 0 C25.41 0 50.82 0 77 0 C77 0.66 77 1.32 77 2 C76.34 2 75.68 2 75 2 C75 2.99 75 3.98 75 5 C73.865625 5.45375 72.73125 5.9075 71.5625 6.375 C67.95278308 7.57095806 67.95278308 7.57095806 67 10 C58.96810933 10.11580443 50.93656684 10.20466834 42.90404797 10.25906086 C39.17425763 10.28516566 35.445038 10.32057743 31.71557617 10.37719727 C28.11696574 10.4314892 24.51890448 10.46141389 20.91991615 10.47438622 C19.54630191 10.48363151 18.17271806 10.50168603 16.79933739 10.52865028 C14.87718345 10.564891 12.95447789 10.56704194 11.03198242 10.56762695 C9.38984016 10.58428154 9.38984016 10.58428154 7.71452332 10.60127258 C5 10 5 10 3.1230011 7.58952332 C2 5 2 5 2 3 C1.34 3 0.68 3 0 3 C0 2.01 0 1.02 0 0 Z " fill="#E1D1CB" transform="translate(96,173)"/>
<path d="M0 0 C0.33 0 0.66 0 1 0 C1 3.3 1 6.6 1 10 C1.99 10 2.98 10 4 10 C4 8.02 4 6.04 4 4 C5.98 3.67 7.96 3.34 10 3 C10 2.34 10 1.68 10 1 C15.94 1.99 15.94 1.99 22 3 C22 3.66 22 4.32 22 5 C22.99 4.67 23.98 4.34 25 4 C30.38360553 8.26975611 31.44653196 14.61190711 33 21 C32.34 21 31.68 21 31 21 C31 21.66 31 22.32 31 23 C26.33333333 23 21.66666667 23 17 23 C17 23.33 17 23.66 17 24 C-1.15 24 -19.3 24 -38 24 C-38 23.34 -38 22.68 -38 22 C-25.79 22 -13.58 22 -1 22 C-1 18.37 -1 14.74 -1 11 C-0.87020393 8.93485182 -0.71383321 6.87064465 -0.5 4.8125 C-0.36078125 3.42998047 -0.36078125 3.42998047 -0.21875 2.01953125 C-0.1465625 1.35308594 -0.074375 0.68664062 0 0 Z " fill="#331D13" transform="translate(137,148)"/>
<path d="M0 0 C1.32 0 2.64 0 4 0 C3.690625 1.3921875 3.690625 1.3921875 3.375 2.8125 C2.55644647 8.3604739 3.48579468 14.97158937 6 20 C6.02794388 21.59897075 5.98865847 23.19940081 5.9140625 24.796875 C5.87023437 25.7559375 5.82640625 26.715 5.78125 27.703125 C5.7296875 28.70859375 5.678125 29.7140625 5.625 30.75 C5.58117187 31.74 5.53734375 32.73 5.4921875 33.75 C5.26022586 38.56964737 4.95183299 43.25696782 4 48 C4.66 46.68 5.32 45.36 6 44 C6.66 44 7.32 44 8 44 C8.9088777 48.29015697 8.94030716 51.52673562 8.0625 55.8125 C7.09800434 60.99747331 6.82452792 65.73583773 7 71 C5.515 71.495 5.515 71.495 4 72 C4.33 73.65 4.66 75.3 5 77 C4.01 77 3.02 77 2 77 C1.505 76.01 1.505 76.01 1 75 C0.814375 76.27875 0.62875 77.5575 0.4375 78.875 C0.33308594 79.59429687 0.22867187 80.31359375 0.12109375 81.0546875 C-0.1684297 83.08140667 -0.1684297 83.08140667 1 85 C-4.77759884 85.12036664 -10.27959989 84.8320582 -16 84 C-16 83.34 -16 82.68 -16 82 C-14.02 82 -12.04 82 -10 82 C-9.67 77.05 -9.34 72.1 -9 67 C-7.02 66.505 -7.02 66.505 -5 66 C-5.33 66.5775 -5.66 67.155 -6 67.75 C-7.27075898 70.19883862 -7.27075898 70.19883862 -7 74 C-6.01 74 -5.02 74 -4 74 C-4 72.02 -4 70.04 -4 68 C-1.525 67.01 -1.525 67.01 1 66 C0.9278125 65.26394531 0.855625 64.52789062 0.78125 63.76953125 C0.6884375 62.79371094 0.595625 61.81789062 0.5 60.8125 C0.4071875 59.84957031 0.314375 58.88664062 0.21875 57.89453125 C0.01875156 55.24812333 -0.03879183 52.65239135 0 50 C-0.99 50 -1.98 50 -3 50 C-4.13050158 44.03917346 -4.1129332 41.387769 -1 36 C-0.30092586 33.26427415 -0.30092586 33.26427415 0 31 C-0.66 31 -1.32 31 -2 31 C-2 30.01 -2 29.02 -2 28 C-1.34 28 -0.68 28 0 28 C0 27.01 0 26.02 0 25 C-1.32 25 -2.64 25 -4 25 C-3.91253716 23.56138706 -3.80434652 22.12402492 -3.6875 20.6875 C-3.62949219 19.88699219 -3.57148438 19.08648437 -3.51171875 18.26171875 C-2.91793306 15.63727666 -2.04219706 14.69179328 0 13 C-0.66 13 -1.32 13 -2 13 C-3.46845421 7.52667068 -2.44038726 4.88077452 0 0 Z " fill="#EAD7C8" transform="translate(256,70)"/>
<path d="M0 0 C2.33333333 2.33333333 4.66666667 4.66666667 7 7 C7.45375 6.505 7.9075 6.01 8.375 5.5 C10 4 10 4 12 4 C10.26615508 8.53467132 8.26909352 12.90599569 5.75 17.0625 C4.70256345 19.76837774 5.12941576 21.25431124 6 24 C6.97888927 25.67915263 7.97657068 27.34761681 9 29 C9.71285156 28.71125 10.42570312 28.4225 11.16015625 28.125 C16.660493 25.99297176 21.08928349 24.37120037 27 25 C27.66 25.33 28.32 25.66 29 26 C29 30.29 29 34.58 29 39 C1.89361702 40.19148936 1.89361702 40.19148936 -10 40 C-9.380981 35.89333738 -8.01541 32.68676975 -6.125 29 C-5.61195312 27.989375 -5.09890625 26.97875 -4.5703125 25.9375 C-3 23 -3 23 -1.31640625 20.70703125 C0.6219722 16.72098891 0.32187859 13.05308137 0.1875 8.6875 C0.17396484 7.85154297 0.16042969 7.01558594 0.14648438 6.15429688 C0.11131217 4.10258502 0.05751048 2.05120725 0 0 Z " fill="#BE8E77" transform="translate(106,129)"/>
<path d="M0 0 C0.66 0 1.32 0 2 0 C2 1.98 2 3.96 2 6 C2.99 6 3.98 6 5 6 C4.34 10.62 3.68 15.24 3 20 C1.35 20.66 -0.3 21.32 -2 22 C-2.89386164 24.54775306 -2.89386164 24.54775306 -3 27 C-2.34 27.33 -1.68 27.66 -1 28 C-1.66 29.32 -2.32 30.64 -3 32 C-3.66 32 -4.32 32 -5 32 C-5 31.34 -5 30.68 -5 30 C-5.66 30 -6.32 30 -7 30 C-7.33 32.64 -7.66 35.28 -8 38 C-8.66 38 -9.32 38 -10 38 C-10.66 41.63 -11.32 45.26 -12 49 C-9.525 48.505 -9.525 48.505 -7 48 C-7.08378906 48.68707031 -7.16757812 49.37414063 -7.25390625 50.08203125 C-7.35574219 50.98308594 -7.45757812 51.88414063 -7.5625 52.8125 C-7.66691406 53.70582031 -7.77132813 54.59914062 -7.87890625 55.51953125 C-8.15658709 58.13375572 -8.15658709 58.13375572 -7 61 C-7.9375 63.6875 -7.9375 63.6875 -9 66 C-9.66 66 -10.32 66 -11 66 C-11.495 66.99 -11.495 66.99 -12 68 C-12.33 66.68 -12.66 65.36 -13 64 C-13.66 64 -14.32 64 -15 64 C-15 62.02 -15 60.04 -15 58 C-16.32 57.34 -17.64 56.68 -19 56 C-18.01 56 -17.02 56 -16 56 C-16.16757813 55.43152344 -16.33515625 54.86304688 -16.5078125 54.27734375 C-17.97317778 48.72193992 -18.05826236 45.37435172 -16 40 C-15.34 40 -14.68 40 -14 40 C-14.02094727 39.17274414 -14.04189453 38.34548828 -14.06347656 37.49316406 C-14.14661619 33.7455663 -14.19865531 29.99816251 -14.25 26.25 C-14.30027344 24.29707031 -14.30027344 24.29707031 -14.3515625 22.3046875 C-14.36445313 21.05429687 -14.37734375 19.80390625 -14.390625 18.515625 C-14.41157227 17.36352539 -14.43251953 16.21142578 -14.45410156 15.02441406 C-13.90987571 11.39975285 -12.80542794 10.26181561 -10 8 C-8.5 9.1875 -8.5 9.1875 -7 11 C-6.8125 13.6875 -6.8125 13.6875 -7 16 C-8.32 16 -9.64 16 -11 16 C-11 18.31 -11 20.62 -11 23 C-9.35 23 -7.7 23 -6 23 C-4.95361788 19.51205959 -4.04006468 16.30334684 -3.5625 12.6875 C-3 10 -3 10 0 8 C0.36297936 6.02252878 0.36297936 6.02252878 0.1875 3.875 C0.125625 2.59625 0.06375 1.3175 0 0 Z " fill="#F3DEC9" transform="translate(267,0)"/>
<path d="M0 0 C3.6875 0.875 3.6875 0.875 7 2 C7.33 3.32 7.66 4.64 8 6 C9.32 6 10.64 6 12 6 C12.103125 6.94875 12.20625 7.8975 12.3125 8.875 C12.68539295 12.29107501 12.68539295 12.29107501 16 14 C16.86625 14.33 17.7325 14.66 18.625 15 C21 16 21 16 22 18 C22.07065617 20.04055005 22.08421976 22.08334257 22.0625 24.125 C22.05347656 25.22070312 22.04445312 26.31640625 22.03515625 27.4453125 C22.02355469 28.28835937 22.01195312 29.13140625 22 30 C21.34 28.68 20.68 27.36 20 26 C13.42929266 25.68710917 8.0296248 26.22101859 2 29 C1.34 29.66 0.68 30.32 0 31 C-5 23.21453287 -5 23.21453287 -5 18.6875 C-3.97114263 15.92244582 -2.82544966 14.29871438 -1 12 C0.41114387 9.37060243 1.7128303 6.69194881 3 4 C1.02 5.32 -0.96 6.64 -3 8 C-3.1875 5.125 -3.1875 5.125 -3 2 C-2.01 1.34 -1.02 0.68 0 0 Z " fill="#0E0B0F" transform="translate(115,129)"/>
<path d="M0 0 C1.98 0 3.96 0 6 0 C6 8.91 6 17.82 6 27 C4.02 27.33 2.04 27.66 0 28 C-0.02505615 28.57032959 -0.0501123 29.14065918 -0.07592773 29.72827148 C-0.19156549 32.29826157 -0.31443624 34.86785527 -0.4375 37.4375 C-0.49647461 38.78424805 -0.49647461 38.78424805 -0.55664062 40.15820312 C-0.59853516 41.01220703 -0.64042969 41.86621094 -0.68359375 42.74609375 C-0.72025146 43.53685303 -0.75690918 44.3276123 -0.79467773 45.14233398 C-1 47 -1 47 -2 48 C-2.15764405 49.77869726 -2.25100677 51.56318476 -2.31640625 53.34765625 C-2.35830078 54.42724609 -2.40019531 55.50683594 -2.44335938 56.61914062 C-2.48267578 57.75544922 -2.52199219 58.89175781 -2.5625 60.0625 C-2.62727539 61.77276367 -2.62727539 61.77276367 -2.69335938 63.51757812 C-2.79982839 66.34492195 -2.90184207 69.17235738 -3 72 C-3.99 72 -4.98 72 -6 72 C-7.08360869 65.93179132 -6.79074734 61.89893243 -5 56 C-5.99 56 -6.98 56 -8 56 C-7.34 54.02 -6.68 52.04 -6 50 C-6.66 50 -7.32 50 -8 50 C-8 48.68 -8 47.36 -8 46 C-8.66 45.67 -9.32 45.34 -10 45 C-9.34 45 -8.68 45 -8 45 C-8.495 43.515 -8.495 43.515 -9 42 C-9.03954234 39.66700175 -9.04401732 37.33291811 -9 35 C-8.360625 34.773125 -7.72125 34.54625 -7.0625 34.3125 C-4.78496514 33.15585096 -4.78496514 33.15585096 -4.125 30.625 C-3.98738679 27.73512258 -4.47805175 26.41721193 -6 24 C-5.34 24 -4.68 24 -4 24 C-4 23.34 -4 22.68 -4 22 C-2.35 21.34 -0.7 20.68 1 20 C1.06058594 19.15695313 1.12117188 18.31390625 1.18359375 17.4453125 C1.26738281 16.34960938 1.35117187 15.25390625 1.4375 14.125 C1.51871094 13.03445313 1.59992188 11.94390625 1.68359375 10.8203125 C2 8 2 8 3 6 C2.01 6 1.02 6 0 6 C0 4.02 0 2.04 0 0 Z " fill="#CEBAA8" transform="translate(269,0)"/>
<path d="M0 0 C0.33 0 0.66 0 1 0 C1 4.29 1 8.58 1 13 C-12.2 13 -25.4 13 -39 13 C-39 13.66 -39 14.32 -39 15 C-42.70445413 15.8542021 -46.13766497 16.1311791 -49.93603516 16.14526367 C-51.10719879 16.15164352 -52.27836243 16.15802338 -53.48501587 16.16459656 C-54.74035126 16.16570938 -55.99568665 16.1668222 -57.2890625 16.16796875 C-58.58443939 16.17129715 -59.87981628 16.17462555 -61.21444702 16.17805481 C-63.9496138 16.1840271 -66.68474904 16.18589649 -69.41992188 16.18530273 C-72.92494171 16.1852008 -76.42976039 16.1988935 -79.93473244 16.21607494 C-83.28201241 16.22985499 -86.6292545 16.22928294 -89.9765625 16.23046875 C-91.23594635 16.23765427 -92.4953302 16.24483978 -93.7928772 16.25224304 C-94.95773651 16.24916641 -96.12259583 16.24608978 -97.32275391 16.24291992 C-98.34913971 16.24434494 -99.37552551 16.24576996 -100.43301392 16.24723816 C-103 16 -103 16 -106 14 C-106 13.01 -106 12.02 -106 11 C-103.6739143 10.61936779 -101.33944736 10.28730055 -99 10 C-98.67 10.33 -98.34 10.66 -98 11 C-94.95597578 11.09530981 -91.93468292 11.12551639 -88.89038086 11.11352539 C-87.93438492 11.11367142 -86.97838898 11.11381744 -85.99342346 11.1139679 C-82.81720755 11.11326835 -79.64104948 11.10547403 -76.46484375 11.09765625 C-74.26908907 11.09579222 -72.07333398 11.09436825 -69.87757874 11.09336853 C-64.08579367 11.08954219 -58.2940335 11.07971091 -52.5022583 11.06866455 C-46.59721209 11.05845293 -40.69216187 11.05387145 -34.78710938 11.04882812 C-23.19139528 11.03808875 -11.59569971 11.02101093 0 11 C0 7.37 0 3.74 0 0 Z " fill="#817976" transform="translate(135,157)"/>
<path d="M0 0 C0.66 0 1.32 0 2 0 C2.614687 11.00948323 3.18115526 21.96965735 3 33 C3.99 32.505 3.99 32.505 5 32 C6.33257403 50.82004556 6.33257403 50.82004556 5 60 C3.04233719 60.08082094 1.08373272 60.13910778 -0.875 60.1875 C-2.51082031 60.23970703 -2.51082031 60.23970703 -4.1796875 60.29296875 C-5.11039062 60.19628906 -6.04109375 60.09960938 -7 60 C-9.80722691 55.78915963 -8.94537893 53.88445782 -8 49 C-7.01 48.505 -7.01 48.505 -6 48 C-6 48.99 -6 49.98 -6 51 C-5.01 51 -4.02 51 -3 51 C-3.33 49.35 -3.66 47.7 -4 46 C-3.01 45.505 -3.01 45.505 -2 45 C-2.04125 43.80375 -2.0825 42.6075 -2.125 41.375 C-2.14249062 35.87419896 -1.29658881 30.55971686 -0.4375 25.13671875 C0.09209317 21.8675719 0.09209317 21.8675719 0 18 C-0.66 17.67 -1.32 17.34 -2 17 C-1.34 16.67 -0.68 16.34 0 16 C0 10.72 0 5.44 0 0 Z " fill="#D3C0B0" transform="translate(264,96)"/>
<path d="M0 0 C0.99 0 1.98 0 3 0 C3 3.63 3 7.26 3 11 C4.32 10.67 5.64 10.34 7 10 C7 9.01 7 8.02 7 7 C7.99 6.67 8.98 6.34 10 6 C10.33 7.32 10.66 8.64 11 10 C11.99 10 12.98 10 14 10 C14 9.01 14 8.02 14 7 C14.66 7 15.32 7 16 7 C18.21854707 11.62197306 19.38281159 14.76824163 19 20 C18.195625 19.979375 17.39125 19.95875 16.5625 19.9375 C14.06645115 19.70366379 14.06645115 19.70366379 13 21 C11.21928754 21.08726223 9.4351686 21.10699041 7.65234375 21.09765625 C6.57275391 21.09443359 5.49316406 21.09121094 4.38085938 21.08789062 C3.24455078 21.07951172 2.10824219 21.07113281 0.9375 21.0625 C-0.20267578 21.05798828 -1.34285156 21.05347656 -2.51757812 21.04882812 C-5.34510351 21.03699747 -8.1725264 21.0205141 -11 21 C-11 18.69 -11 16.38 -11 14 C-7.62902617 12.50178941 -5.79557881 12 -2 12 C-2.33 13.32 -2.66 14.64 -3 16 C-1.02 15.01 0.96 14.02 3 13 C2.01 12.67 1.02 12.34 0 12 C0.33 9.03 0.66 6.06 1 3 C0.34 2.67 -0.32 2.34 -1 2 C-0.67 1.34 -0.34 0.68 0 0 Z " fill="#F8EBE3" transform="translate(11,134)"/>
<path d="M0 0 C0.33 0 0.66 0 1 0 C1 3.3 1 6.6 1 10 C1.99 10 2.98 10 4 10 C4 8.02 4 6.04 4 4 C5.98 3.67 7.96 3.34 10 3 C10 2.34 10 1.68 10 1 C15.94 1.99 15.94 1.99 22 3 C22 3.66 22 4.32 22 5 C22.66 5.33 23.32 5.66 24 6 C23.21625 6.226875 22.4325 6.45375 21.625 6.6875 C18.83597889 7.78123446 18.83597889 7.78123446 17.625 10.375 C16.98018152 13.08323761 17.04587119 14.42385222 18 17 C16.02 17 14.04 17 12 17 C11.67 17.66 11.34 18.32 11 19 C7.34850439 19.60383547 3.69649725 19.74506916 0 20 C0 13.4 0 6.8 0 0 Z " fill="#855A46" transform="translate(137,148)"/>
<path d="M0 0 C15.83014705 -0.51870627 15.83014705 -0.51870627 20.125 1.5625 C25.6440801 4.23463381 32.11788193 2.68569635 38 2 C38 4.31 38 6.62 38 9 C33.35532361 9.12359943 28.71160374 9.21433399 24.06567383 9.2746582 C22.48542611 9.2998033 20.90529471 9.33392474 19.32543945 9.37719727 C17.05390768 9.43785708 14.78391256 9.46620678 12.51171875 9.48828125 C11.45219246 9.52699089 11.45219246 9.52699089 10.3712616 9.56648254 C8.36987305 9.56762695 8.36987305 9.56762695 5 9 C3.02428039 6.58686435 2 5.1428606 2 2 C1.34 2 0.68 2 0 2 C0 1.34 0 0.68 0 0 Z " fill="#F3E0D7" transform="translate(96,174)"/>
<path d="M0 0 C0.66 0 1.32 0 2 0 C2.6416966 5.69505736 3.12462322 11.26733196 3 17 C4.62490954 17.02698189 6.24994633 17.04638757 7.875 17.0625 C8.77992187 17.07410156 9.68484375 17.08570313 10.6171875 17.09765625 C13.0168585 17.16249257 13.0168585 17.16249257 15 16 C17.70150557 15.98337937 20.37221408 16.0272318 23.0703125 16.12109375 C23.86654022 16.14470474 24.66276794 16.16831573 25.48312378 16.19264221 C28.03059529 16.26932211 30.5777661 16.35332761 33.125 16.4375 C34.85024562 16.49071637 36.57550598 16.5434568 38.30078125 16.59570312 C42.53404522 16.72494307 46.76705382 16.86075419 51 17 C50.38722388 19.96175123 49.74627478 21.38058783 48 24 C48 22.68 48 21.36 48 20 C47.37883301 20.00222061 46.75766602 20.00444122 46.11767578 20.00672913 C39.62842384 20.02892366 33.13918276 20.04396557 26.64990234 20.05493164 C24.23095257 20.05994752 21.81200581 20.06676179 19.39306641 20.07543945 C15.90787002 20.08762545 12.42271387 20.09325589 8.9375 20.09765625 C7.86322754 20.10281754 6.78895508 20.10797882 5.68212891 20.11329651 C0.02218827 20.11371544 -5.40237353 19.84963973 -11 19 C-11 18.67 -11 18.34 -11 18 C-8.36 18 -5.72 18 -3 18 C-2.67 17.01 -2.34 16.02 -2 15 C-1.01 15 -0.02 15 1 15 C1 12.69 1 10.38 1 8 C0.01 8 -0.98 8 -2 8 C-1.33333333 5.33333333 -0.66666667 2.66666667 0 0 Z " fill="#F7EEE3" transform="translate(51,136)"/>
<path d="M0 0 C2.33333333 2.33333333 4.66666667 4.66666667 7 7 C7.45375 6.505 7.9075 6.01 8.375 5.5 C10 4 10 4 12 4 C10.26615508 8.53467132 8.26909352 12.90599569 5.75 17.0625 C4.7052166 19.76152379 5.2397742 21.21250542 6 24 C6.3559215 25.43706651 6.70999678 26.87459119 7.0625 28.3125 C7.371875 29.529375 7.68125 30.74625 8 32 C4.535 32.495 4.535 32.495 1 33 C1 30.03 1 27.06 1 24 C0.01 24.33 -0.98 24.66 -2 25 C-3.18047472 27.41956465 -3.18047472 27.41956465 -4.0625 30.3125 C-5.18428019 33.68685085 -6.32215093 36.86055796 -8 40 C-8.66 40 -9.32 40 -10 40 C-9.380981 35.89333738 -8.01541 32.68676975 -6.125 29 C-5.61195312 27.989375 -5.09890625 26.97875 -4.5703125 25.9375 C-3 23 -3 23 -1.31640625 20.70703125 C0.6219722 16.72098891 0.32187859 13.05308137 0.1875 8.6875 C0.17396484 7.85154297 0.16042969 7.01558594 0.14648438 6.15429688 C0.11131217 4.10258502 0.05751048 2.05120725 0 0 Z " fill="#C9A188" transform="translate(106,129)"/>
<path d="M0 0 C0.33 0 0.66 0 1 0 C1.06939405 13.00380502 1.12275729 26.00756627 1.15543652 39.01151848 C1.17111788 45.04924924 1.19240122 51.08685368 1.22631836 57.12451172 C1.25882368 62.94703545 1.27683438 68.76943739 1.28463173 74.59204483 C1.29019114 76.8176986 1.3010467 79.04334543 1.31719017 81.2689476 C1.33884702 84.37720088 1.34197185 87.4849456 1.34057617 90.59326172 C1.351362 91.52114502 1.36214783 92.44902832 1.3732605 93.4050293 C1.36913651 94.24919403 1.36501251 95.09335876 1.36076355 95.96310425 C1.36352893 96.69869505 1.36629431 97.43428585 1.36914349 98.19216728 C1 100 1 100 -2 102 C-2.02464638 96.17928378 -2.0428343 90.35859766 -2.05493164 84.5378418 C-2.05997267 82.55606559 -2.06680538 80.57429311 -2.07543945 78.5925293 C-2.08751515 75.75047891 -2.09323045 72.90847753 -2.09765625 70.06640625 C-2.10281754 69.17474258 -2.10797882 68.28307892 -2.11329651 67.36439514 C-2.11349177 65.24259399 -2.0621003 63.1208922 -2 61 C-1.505 60.505 -1.505 60.505 -1 60 C-0.92686433 57.46950598 -0.90752473 54.96695163 -0.9375 52.4375 C-0.94201172 51.72658203 -0.94652344 51.01566406 -0.95117188 50.28320312 C-0.96299136 48.52209987 -0.98092737 46.76103964 -1 45 C-1.33 45 -1.66 45 -2 45 C-2.02886751 40.85418113 -2.04675327 36.70838784 -2.0625 32.5625 C-2.07087891 31.37849609 -2.07925781 30.19449219 -2.08789062 28.97460938 C-2.09111328 27.84990234 -2.09433594 26.72519531 -2.09765625 25.56640625 C-2.10289307 24.52427979 -2.10812988 23.48215332 -2.11352539 22.40844727 C-2 20 -2 20 -1 19 C-0.84379445 17.58672053 -0.74943827 16.1664541 -0.68359375 14.74609375 C-0.64169922 13.89208984 -0.59980469 13.03808594 -0.55664062 12.15820312 C-0.51732422 11.26037109 -0.47800781 10.36253906 -0.4375 9.4375 C-0.39431641 8.53580078 -0.35113281 7.63410156 -0.30664062 6.70507812 C-0.20021858 4.47021515 -0.09820012 2.23523692 0 0 Z " fill="#F0E3D6" transform="translate(268,28)"/>
<path d="M0 0 C1.9375 1.1875 1.9375 1.1875 4 3 C4.36442233 4.66014616 4.69972883 6.32706064 5 8 C5.99 8.66 6.98 9.32 8 10 C8 10.66 8 11.32 8 12 C8.64701874 11.99777939 9.29403748 11.99555878 9.96066284 11.99327087 C16.67608083 11.97120032 23.39148856 11.95608596 30.10693359 11.94506836 C32.61540139 11.94002997 35.12386624 11.93319916 37.63232422 11.92456055 C41.2314527 11.91247339 44.83054247 11.90676685 48.4296875 11.90234375 C50.12035843 11.89460182 50.12035843 11.89460182 51.84518433 11.88670349 C52.88611237 11.88662796 53.92704041 11.88655243 54.99951172 11.88647461 C55.91884491 11.884254 56.8381781 11.88203339 57.78536987 11.87974548 C60 12 60 12 62 13 C62 13.66 62 14.32 62 15 C43.52 15 25.04 15 6 15 C5.01 13.02 4.02 11.04 3 9 C2.1646875 7.4221875 2.1646875 7.4221875 1.3125 5.8125 C0 3 0 3 0 0 Z " fill="#9E9B98" transform="translate(166,157)"/>
<path d="M0 0 C0.99 0.33 1.98 0.66 3 1 C3.13277344 1.68707031 3.26554687 2.37414062 3.40234375 3.08203125 C3.57894531 3.98308594 3.75554687 4.88414063 3.9375 5.8125 C4.19853516 7.15248047 4.19853516 7.15248047 4.46484375 8.51953125 C4.97741153 11.11397171 4.97741153 11.11397171 6 14 C5.5625 16.6875 5.5625 16.6875 5 19 C5.66 19 6.32 19 7 19 C7 22.63 7 26.26 7 30 C6.34 30.33 5.68 30.66 5 31 C4.25723969 32.97080157 4.25723969 32.97080157 4 35 C4.33 35.33 4.66 35.66 5 36 C5.28581606 37.63694652 5.50503506 39.28583682 5.6875 40.9375 C5.79449219 41.83339844 5.90148437 42.72929688 6.01171875 43.65234375 C6 46 6 46 4 48 C3.67 46.35 3.34 44.7 3 43 C2.01 43 1.02 43 0 43 C-1.13050158 37.03917346 -1.1129332 34.387769 2 29 C2.69907414 26.26427415 2.69907414 26.26427415 3 24 C2.34 24 1.68 24 1 24 C1 23.01 1 22.02 1 21 C1.66 21 2.32 21 3 21 C3 20.01 3 19.02 3 18 C1.68 18 0.36 18 -1 18 C-0.91253716 16.56138706 -0.80434652 15.12402492 -0.6875 13.6875 C-0.62949219 12.88699219 -0.57148438 12.08648437 -0.51171875 11.26171875 C0.08206694 8.63727666 0.95780294 7.69179328 3 6 C2.34 6 1.68 6 1 6 C0.67 4.02 0.34 2.04 0 0 Z " fill="#FBEDDD" transform="translate(253,77)"/>
<path d="M0 0 C2.31 0 4.62 0 7 0 C7.8723412 2.99480917 8.10829766 5.63575911 8.0625 8.75 C8.05347656 9.54921875 8.04445312 10.3484375 8.03515625 11.171875 C8.02355469 11.77515625 8.01195312 12.3784375 8 13 C4.58340509 13.05816623 1.16693795 13.09365195 -2.25 13.125 C-3.70212891 13.15013672 -3.70212891 13.15013672 -5.18359375 13.17578125 C-6.58544922 13.18544922 -6.58544922 13.18544922 -8.015625 13.1953125 C-8.87446289 13.20578613 -9.73330078 13.21625977 -10.61816406 13.22705078 C-13.17903596 12.98293323 -14.79511029 12.28990512 -17 11 C-16.34 11 -15.68 11 -15 11 C-15 10.34 -15 9.68 -15 9 C-13.50146484 8.69255859 -13.50146484 8.69255859 -11.97265625 8.37890625 C-10.03712891 7.97478516 -10.03712891 7.97478516 -8.0625 7.5625 C-6.77472656 7.29566406 -5.48695312 7.02882812 -4.16015625 6.75390625 C-1.15361121 6.32818384 -1.15361121 6.32818384 0 5 C-1.65 4.67 -3.3 4.34 -5 4 C-4.0409375 3.8453125 -4.0409375 3.8453125 -3.0625 3.6875 C-2.381875 3.460625 -1.70125 3.23375 -1 3 C-0.67 2.01 -0.34 1.02 0 0 Z " fill="#D8A38D" transform="translate(126,154)"/>
<path d="M0 0 C0 1.32 0 2.64 0 4 C-1.65 4.33 -3.3 4.66 -5 5 C-5.99 8.96 -6.98 12.92 -8 17 C-8.66 17 -9.32 17 -10 17 C-10 18.65 -10 20.3 -10 22 C-12.64 21.67 -15.28 21.34 -18 21 C-18.19491452 19.54263913 -18.38069358 18.08405407 -18.5625 16.625 C-18.66691406 15.81289063 -18.77132812 15.00078125 -18.87890625 14.1640625 C-19 12 -19 12 -18 10 C-17.38125 9.896875 -16.7625 9.79375 -16.125 9.6875 C-13.07398661 8.70040743 -12.5278116 6.70839329 -11 4 C-10.34 4 -9.68 4 -9 4 C-8.67 3.01 -8.34 2.02 -8 1 C-5.29120665 -0.35439668 -2.99066732 -0.06501451 0 0 Z " fill="#F2C4A9" transform="translate(144,12)"/>
<path d="M0 0 C0.66 0 1.32 0 2 0 C3.37880823 14.0426315 2.71020147 27.93124713 2 42 C1.01 42 0.02 42 -1 42 C-2.08360869 35.93179132 -1.79074734 31.89893243 0 26 C-0.99 26 -1.98 26 -3 26 C-2.34 24.02 -1.68 22.04 -1 20 C-1.66 20 -2.32 20 -3 20 C-3 18.68 -3 17.36 -3 16 C-3.66 15.67 -4.32 15.34 -5 15 C-4.34 15 -3.68 15 -3 15 C-3.33 14.01 -3.66 13.02 -4 12 C-4.03954234 9.66700175 -4.04401732 7.33291811 -4 5 C-2.68 4.34 -1.36 3.68 0 3 C0 2.01 0 1.02 0 0 Z " fill="#CBAD91" transform="translate(264,30)"/>
<path d="M0 0 C0.66 0 1.32 0 2 0 C3.49821059 3.37097383 4 5.20442119 4 9 C5.65 8.67 7.3 8.34 9 8 C8.91621094 8.68707031 8.83242188 9.37414063 8.74609375 10.08203125 C8.64425781 10.98308594 8.54242188 11.88414063 8.4375 12.8125 C8.33308594 13.70582031 8.22867187 14.59914063 8.12109375 15.51953125 C7.84341291 18.13375572 7.84341291 18.13375572 9 21 C8.0625 23.6875 8.0625 23.6875 7 26 C6.34 26 5.68 26 5 26 C4.67 26.66 4.34 27.32 4 28 C3.67 26.68 3.34 25.36 3 24 C2.34 24 1.68 24 1 24 C1 22.02 1 20.04 1 18 C-0.32 17.34 -1.64 16.68 -3 16 C-2.01 16 -1.02 16 0 16 C-0.25136719 15.14728516 -0.25136719 15.14728516 -0.5078125 14.27734375 C-1.97317778 8.72193992 -2.05826236 5.37435172 0 0 Z " fill="#FCF0DE" transform="translate(251,40)"/>
<path d="M0 0 C0.99 0.33 1.98 0.66 3 1 C2.01 2.485 2.01 2.485 1 4 C1 5.32 1 6.64 1 8 C1.99 8 2.98 8 4 8 C4 6.02 4 4.04 4 2 C5.32 1.34 6.64 0.68 8 0 C8.68885208 4.57821689 9.16762001 8.83176703 8.5 13.4375 C7.68006639 16.83278957 7.68006639 16.83278957 9 19 C3.22240116 19.12036664 -2.27959989 18.8320582 -8 18 C-8 17.34 -8 16.68 -8 16 C-6.02 16 -4.04 16 -2 16 C-1.93941406 14.92878906 -1.87882813 13.85757813 -1.81640625 12.75390625 C-1.73201463 11.35675609 -1.64736594 9.95962143 -1.5625 8.5625 C-1.50352539 7.50192383 -1.50352539 7.50192383 -1.44335938 6.41992188 C-1.11328125 1.11328125 -1.11328125 1.11328125 0 0 Z " fill="#F4E1D1" transform="translate(248,136)"/>
<path d="M0 0 C0.33 0 0.66 0 1 0 C1 4.29 1 8.58 1 13 C-12.2 13 -25.4 13 -39 13 C-39 13.66 -39 14.32 -39 15 C-42.6464806 15.8410478 -45.99950907 16.11764968 -49.73828125 16.09765625 C-50.80498047 16.09443359 -51.87167969 16.09121094 -52.97070312 16.08789062 C-54.62489258 16.07532227 -54.62489258 16.07532227 -56.3125 16.0625 C-57.43462891 16.05798828 -58.55675781 16.05347656 -59.71289062 16.04882812 C-62.4753151 16.03707313 -65.23762998 16.02064077 -68 16 C-68 15.67 -68 15.34 -68 15 C-63.59085217 13.89771304 -59.51617599 13.92345464 -55 14 C-55 13.34 -55 12.68 -55 12 C-36.65614062 11.28562495 -18.36116066 10.85376067 0 11 C0 7.37 0 3.74 0 0 Z " fill="#7D6A5F" transform="translate(135,157)"/>
<path d="M0 0 C0.33 1.32 0.66 2.64 1 4 C1.66 4 2.32 4 3 4 C3.99 6.64 4.98 9.28 6 12 C5.34 12 4.68 12 4 12 C3.67 15.63 3.34 19.26 3 23 C3.66 23 4.32 23 5 23 C4.67 23.99 4.34 24.98 4 26 C3.34 26 2.68 26 2 26 C1.67 28.97 1.34 31.94 1 35 C2.32 35 3.64 35 5 35 C5 35.99 5 36.98 5 38 C4.34 38 3.68 38 3 38 C2.67 38.99 2.34 39.98 2 41 C2 39.35 2 37.7 2 36 C0.35 35.67 -1.3 35.34 -3 35 C-3 34.34 -3 33.68 -3 33 C-2.01 32.505 -2.01 32.505 -1 32 C-0.52402634 29.29400158 -0.15906371 26.66404596 0.125 23.9375 C0.21136719 23.17888672 0.29773438 22.42027344 0.38671875 21.63867188 C0.59939517 19.76003014 0.80075459 17.88011364 1 16 C0.34 16 -0.32 16 -1 16 C-1 16.66 -1 17.32 -1 18 C-1.66 18 -2.32 18 -3 18 C-2.91621094 17.26394531 -2.83242187 16.52789062 -2.74609375 15.76953125 C-2.59333984 14.30580078 -2.59333984 14.30580078 -2.4375 12.8125 C-2.33308594 11.84957031 -2.22867188 10.88664062 -2.12109375 9.89453125 C-2.00241249 7.05766623 -2.32234361 4.74576329 -3 2 C-2.01 1.34 -1.02 0.68 0 0 Z " fill="#FEF8E8" transform="translate(251,60)"/>
<path d="M0 0 C10.56 0 21.12 0 32 0 C31.01 0.33 30.02 0.66 29 1 C29 1.66 29 2.32 29 3 C25.01803543 4.05404945 22.01804691 3.84098656 18 3 C18.33 3.99 18.66 4.98 19 6 C11.08 6.495 11.08 6.495 3 7 C2.67 5.35 2.34 3.7 2 2 C1.34 2 0.68 2 0 2 C0 1.34 0 0.68 0 0 Z " fill="#DCD1CB" transform="translate(141,173)"/>
<path d="M0 0 C6.47061835 4.02227627 7.29506478 10.0539676 9 17 C1.375 16.125 1.375 16.125 -2 15 C-1.34 14.67 -0.68 14.34 0 14 C0 13.34 0 12.68 0 12 C-0.99 12.33 -1.98 12.66 -3 13 C-3 12.34 -3 11.68 -3 11 C-3.66 11 -4.32 11 -5 11 C-5.33 10.01 -5.66 9.02 -6 8 C-6.99 8.495 -6.99 8.495 -8 9 C-7.3125 6.625 -7.3125 6.625 -6 4 C-3.4375 2.8125 -3.4375 2.8125 -1 2 C-0.67 1.34 -0.34 0.68 0 0 Z " fill="#442923" transform="translate(161,152)"/>
<path d="M0 0 C0.99 0.33 1.98 0.66 3 1 C2.34 1 1.68 1 1 1 C1 1.99 1 2.98 1 4 C-0.134375 4.45375 -1.26875 4.9075 -2.4375 5.375 C-6.04721692 6.57095806 -6.04721692 6.57095806 -7 9 C-15.58 9 -24.16 9 -33 9 C-33 8.34 -33 7.68 -33 7 C-30.69 6.01 -28.38 5.02 -26 4 C-26 4.66 -26 5.32 -26 6 C-18.08 5.505 -18.08 5.505 -10 5 C-10 4.34 -10 3.68 -10 3 C-10.66 2.67 -11.32 2.34 -12 2 C-9.37684968 0.68842484 -7.76966564 1.10350012 -4.875 1.4375 C-3.96492188 1.53933594 -3.05484375 1.64117187 -2.1171875 1.74609375 C-1.06917969 1.87177734 -1.06917969 1.87177734 0 2 C0 1.34 0 0.68 0 0 Z " fill="#E7E0DB" transform="translate(170,174)"/>
<path d="M0 0 C0.33 0 0.66 0 1 0 C1.03738281 0.99 1.07476562 1.98 1.11328125 3 C1.55402467 12.51090581 2.7114169 19.82673521 8 28 C8.33 28.66 8.66 29.32 9 30 C6.6875 30.3125 6.6875 30.3125 4 30 C2.02493835 27.39009711 1.0343299 25.10298971 0 22 C-0.99 22 -1.98 22 -3 22 C-3.66 19.36 -4.32 16.72 -5 14 C-4.34 14 -3.68 14 -3 14 C-3.03480469 13.40832031 -3.06960937 12.81664063 -3.10546875 12.20703125 C-3.27423273 7.28073029 -3.23487828 4.01124906 0 0 Z " fill="#38383B" transform="translate(125,114)"/>
<path d="M0 0 C2 1 2 1 2.75 2.6875 C3.09806828 5.90713162 2.30421419 8.06551807 1 11 C0.01 11.33 -0.98 11.66 -2 12 C-1.01 13.485 -1.01 13.485 0 15 C-0.33 15.99 -0.66 16.98 -1 18 C-1.89652166 23.08028939 -2.09010093 27.86424708 -2 33 C-2.66 33 -3.32 33 -4 33 C-7.15792901 27.07888311 -8.14374977 21.67485217 -7 15 C-5.67562022 11.96102139 -4.16198876 9.22219945 -2.41015625 6.41015625 C-1.12151096 4.2076794 -0.45621486 2.48896966 0 0 Z " fill="#302D2C" transform="translate(110,96)"/>
<path d="M0 0 C0.33 0 0.66 0 1 0 C1.06058594 1.12019531 1.12117188 2.24039063 1.18359375 3.39453125 C1.26801424 4.86719984 1.35266149 6.33985544 1.4375 7.8125 C1.47681641 8.55048828 1.51613281 9.28847656 1.55664062 10.04882812 C1.74381035 13.23071342 1.98720793 15.96162378 3 19 C1.20866022 19.05391993 -0.58313899 19.09275571 -2.375 19.125 C-3.37273437 19.14820313 -4.37046875 19.17140625 -5.3984375 19.1953125 C-8 19 -8 19 -10 17 C-10.046875 15.08984375 -10.046875 15.08984375 -9.75 12.9375 C-9.66234375 12.22464844 -9.5746875 11.51179687 -9.484375 10.77734375 C-9.32453125 10.19082031 -9.1646875 9.60429687 -9 9 C-8.34 8.67 -7.68 8.34 -7 8 C-7 8.99 -7 9.98 -7 11 C-6.01 11 -5.02 11 -4 11 C-4 10.01 -4 9.02 -4 8 C-3.34 8 -2.68 8 -2 8 C-2 7.34 -2 6.68 -2 6 C-1.34 6 -0.68 6 0 6 C0 4.02 0 2.04 0 0 Z " fill="#DBC0AB" transform="translate(265,136)"/>
<path d="M0 0 C2 1.1875 2 1.1875 4 3 C4.25 5.6875 4.25 5.6875 4 8 C2.68 8 1.36 8 0 8 C0 10.31 0 12.62 0 15 C1.98 15 3.96 15 6 15 C5.75 17.375 5.75 17.375 5 20 C2.43689172 21.7941758 1.16880694 22 -2 22 C-2.89739214 17.96173538 -3.14920777 13.99740231 -3.25 9.875 C-3.27578125 8.86179687 -3.3015625 7.84859375 -3.328125 6.8046875 C-2.95882646 3.64806427 -2.11028587 2.32131445 0 0 Z " fill="#FCEFDE" transform="translate(256,8)"/>
<path d="M0 0 C5.94 0.99 5.94 0.99 12 2 C12 2.66 12 3.32 12 4 C12.66 4.33 13.32 4.66 14 5 C13.195625 5.28875 12.39125 5.5775 11.5625 5.875 C8.8673532 6.73262568 8.8673532 6.73262568 8 9 C7.01 9 6.02 9 5 9 C5 9.99 5 10.98 5 12 C4.01 11.67 3.02 11.34 2 11 C2 10.34 2 9.68 2 9 C1.01 9 0.02 9 -1 9 C-1 7.02 -1 5.04 -1 3 C-1.66 2.67 -2.32 2.34 -3 2 C-2.01 2 -1.02 2 0 2 C0 1.34 0 0.68 0 0 Z " fill="#A8796E" transform="translate(147,149)"/>
<path d="M0 0 C1.32 0 2.64 0 4 0 C3.79375 0.928125 3.5875 1.85625 3.375 2.8125 C2.55644647 8.3604739 3.48579468 14.97158937 6 20 C5.91061582 22.88912732 5.765952 25.74393255 5.5625 28.625 C5.51029297 29.42679688 5.45808594 30.22859375 5.40429688 31.0546875 C5.27451629 33.03679103 5.13790265 35.01844499 5 37 C4.67 37 4.34 37 4 37 C4 33.37 4 29.74 4 26 C3.34 26 2.68 26 2 26 C2.020625 24.865625 2.04125 23.73125 2.0625 22.5625 C2.41577477 19.18424326 2.41577477 19.18424326 1 18 C0.76712992 16.31816052 0.58735834 14.6287584 0.4375 12.9375 C0.35371094 12.01839844 0.26992188 11.09929687 0.18359375 10.15234375 C0.09271484 9.08693359 0.09271484 9.08693359 0 8 C-0.66 8 -1.32 8 -2 8 C-1.34 5.36 -0.68 2.72 0 0 Z M2 37 C4 38 4 38 4 38 Z " fill="#F4DFCC" transform="translate(256,70)"/>
<path d="M0 0 C0.66 0.99 1.32 1.98 2 3 C4.86051233 3.40319167 4.86051233 3.40319167 8.0625 3.25 C9.14660156 3.23453125 10.23070312 3.2190625 11.34765625 3.203125 C13.92151708 3.29549888 13.92151708 3.29549888 15 2 C17.18639453 1.92741054 19.37500389 1.91626217 21.5625 1.9375 C23.35880859 1.95103516 23.35880859 1.95103516 25.19140625 1.96484375 C26.11824219 1.97644531 27.04507812 1.98804688 28 2 C28 2.99 28 3.98 28 5 C26.7934375 4.9690625 26.7934375 4.9690625 25.5625 4.9375 C23.06645115 4.70366379 23.06645115 4.70366379 22 6 C20.21928754 6.08726223 18.4351686 6.10699041 16.65234375 6.09765625 C15.57275391 6.09443359 14.49316406 6.09121094 13.38085938 6.08789062 C12.24455078 6.07951172 11.10824219 6.07113281 9.9375 6.0625 C8.79732422 6.05798828 7.65714844 6.05347656 6.48242188 6.04882812 C3.65489649 6.03699747 0.8274736 6.0205141 -2 6 C-1.125 1.125 -1.125 1.125 0 0 Z " fill="#EFE1DA" transform="translate(2,149)"/>
<path d="M0 0 C0.6909375 0.08314453 1.381875 0.16628906 2.09375 0.25195312 C6.64241197 0.8376361 10.86972704 1.82869805 15.25 3.1875 C14.610625 3.331875 13.97125 3.47625 13.3125 3.625 C11.27454854 3.99757181 11.27454854 3.99757181 10.25 5.1875 C7.28059297 5.31442296 4.34481743 5.37271201 1.375 5.375 C0.54613281 5.38724609 -0.28273438 5.39949219 -1.13671875 5.41210938 C-1.93464844 5.41404297 -2.73257813 5.41597656 -3.5546875 5.41796875 C-4.28671387 5.42207764 -5.01874023 5.42618652 -5.77294922 5.43041992 C-7.75 5.1875 -7.75 5.1875 -10.75 3.1875 C-10.75 2.1975 -10.75 1.2075 -10.75 0.1875 C-6.97093742 -1.07218753 -3.85837497 -0.51750102 0 0 Z " fill="#928C88" transform="translate(39.75,167.8125)"/>
<path d="M0 0 C5.94 0.66 11.88 1.32 18 2 C18 2.33 18 2.66 18 3 C17.42967041 3.05534912 16.85934082 3.11069824 16.27172852 3.16772461 C13.70151247 3.41973743 11.13202369 3.67852728 8.5625 3.9375 C7.66466797 4.02451172 6.76683594 4.11152344 5.84179688 4.20117188 C4.98779297 4.28818359 4.13378906 4.37519531 3.25390625 4.46484375 C2.46314697 4.543396 1.6723877 4.62194824 0.85766602 4.70288086 C-1.01103348 4.81551499 -1.01103348 4.81551499 -2 6 C-4.07262076 6.08767112 -6.14820294 6.10695873 -8.22265625 6.09765625 C-9.48271484 6.09443359 -10.74277344 6.09121094 -12.04101562 6.08789062 C-13.38151109 6.07953403 -14.72200588 6.07106907 -16.0625 6.0625 C-17.40689942 6.0574866 -18.7513006 6.05292342 -20.09570312 6.04882812 C-23.39717941 6.03699488 -26.69856803 6.02050971 -30 6 C-30 5.34 -30 4.68 -30 4 C-22.08 4 -14.16 4 -6 4 C-5.67 3.34 -5.34 2.68 -5 2 C-2.525 2.495 -2.525 2.495 0 3 C0 2.01 0 1.02 0 0 Z " fill="#FBF0E7" transform="translate(30,151)"/>
<path d="M0 0 C0.33 0 0.66 0 1 0 C2.33257403 18.82004556 2.33257403 18.82004556 1 28 C-2.96 28 -6.92 28 -11 28 C-11 27.67 -11 27.34 -11 27 C-7.37 27 -3.74 27 0 27 C-0.66 26.67 -1.32 26.34 -2 26 C-2.05785647 22.04172765 -2.09354717 18.0835633 -2.125 14.125 C-2.14175781 12.99707031 -2.15851563 11.86914062 -2.17578125 10.70703125 C-2.18222656 9.63066406 -2.18867188 8.55429688 -2.1953125 7.4453125 C-2.20578613 6.45031738 -2.21625977 5.45532227 -2.22705078 4.43017578 C-2 2 -2 2 0 0 Z " fill="#D8C5B5" transform="translate(268,128)"/>
<path d="M0 0 C0.33 0 0.66 0 1 0 C1.04972917 5.12287 1.08587445 10.24559702 1.10986328 15.36865234 C1.11987218 17.10858612 1.13348343 18.8485033 1.15087891 20.58837891 C1.17535354 23.10062785 1.1865344 25.61265288 1.1953125 28.125 C1.20563507 28.89303955 1.21595764 29.6610791 1.22659302 30.45239258 C1.22764695 35.61638725 0.42419558 40.03256351 -1 45 C-1.33 45 -1.66 45 -2 45 C-2.02886751 40.85418113 -2.04675327 36.70838784 -2.0625 32.5625 C-2.07087891 31.37849609 -2.07925781 30.19449219 -2.08789062 28.97460938 C-2.09111328 27.84990234 -2.09433594 26.72519531 -2.09765625 25.56640625 C-2.10289307 24.52427979 -2.10812988 23.48215332 -2.11352539 22.40844727 C-2 20 -2 20 -1 19 C-0.84379445 17.58672053 -0.74943827 16.1664541 -0.68359375 14.74609375 C-0.64169922 13.89208984 -0.59980469 13.03808594 -0.55664062 12.15820312 C-0.51732422 11.26037109 -0.47800781 10.36253906 -0.4375 9.4375 C-0.39431641 8.53580078 -0.35113281 7.63410156 -0.30664062 6.70507812 C-0.20021858 4.47021515 -0.09820012 2.23523692 0 0 Z " fill="#EADBCC" transform="translate(268,28)"/>
<path d="M0 0 C0.495 1.485 0.495 1.485 1 3 C-12.2 3 -25.4 3 -39 3 C-39 2.34 -39 1.68 -39 1 C-33.76726191 0.85724064 -28.53451442 0.71483282 -23.30175781 0.57275391 C-21.52083069 0.52434855 -19.73990619 0.47584634 -17.95898438 0.42724609 C-15.40235057 0.35749384 -12.84570758 0.28808744 -10.2890625 0.21875 C-9.49005524 0.19687622 -8.69104797 0.17500244 -7.86782837 0.15246582 C-2.22774341 0 -2.22774341 0 0 0 Z " fill="#3D291E" transform="translate(138,169)"/>
<path d="M0 0 C0 1.65 0 3.3 0 5 C-0.66 5 -1.32 5 -2 5 C-2 6.65 -2 8.3 -2 10 C-4.64 9.67 -7.28 9.34 -10 9 C-10.125 2.25 -10.125 2.25 -9 0 C-5.44307323 -0.85056945 -3.50729422 -1.16909807 0 0 Z " fill="#ECB99D" transform="translate(136,24)"/>
<path d="M0 0 C1.65 0 3.3 0 5 0 C4.67 1.32 4.34 2.64 4 4 C5.65 3.34 7.3 2.68 9 2 C9 2.66 9 3.32 9 4 C9.969375 3.814375 10.93875 3.62875 11.9375 3.4375 C13.4534375 3.2209375 13.4534375 3.2209375 15 3 C16 4 16 4 16.0625 6.5625 C16.041875 7.366875 16.02125 8.17125 16 9 C12.29207191 9.28328822 8.69795687 9.45269973 5 9 C2.73702662 6.54305747 2 5.3203746 2 2 C1.34 2 0.68 2 0 2 C0 1.34 0 0.68 0 0 Z " fill="#FEF1E8" transform="translate(96,174)"/>
<path d="M0 0 C2.33333333 2.33333333 4.66666667 4.66666667 7 7 C7.680625 6.2575 7.680625 6.2575 8.375 5.5 C10 4 10 4 12 4 C9.9149977 9.45308294 7.57401508 14.3707047 4 19 C3.87882812 18.38253906 3.75765625 17.76507813 3.6328125 17.12890625 C2.49925432 11.4000776 1.28630034 5.69647293 0 0 Z " fill="#C59B82" transform="translate(106,129)"/>
<path d="M0 0 C0.33 0 0.66 0 1 0 C1.54826897 30.52030626 1.54826897 30.52030626 -2 42 C-2.66 42.66 -3.32 43.32 -4 44 C-4.04241723 41.66705225 -4.04092937 39.33297433 -4 37 C-3.505 36.505 -3.505 36.505 -3 36 C-2.01487086 29.27436528 -1.96818878 22.52852021 -2.0625 15.75 C-2.13546985 10.17470916 -1.77042577 5.3112773 0 0 Z " fill="#414040" transform="translate(130,68)"/>
<path d="M0 0 C-0.33 0.99 -0.66 1.98 -1 3 C0.11375 2.95875 1.2275 2.9175 2.375 2.875 C6 3 6 3 8 5 C7.67 5.66 7.34 6.32 7 7 C-0.40239645 7.12886183 -7.63959083 6.79725902 -15 6 C-15 5.67 -15 5.34 -15 5 C-14.030625 4.87625 -13.06125 4.7525 -12.0625 4.625 C-11.051875 4.41875 -10.04125 4.2125 -9 4 C-8.67 3.34 -8.34 2.68 -8 2 C-2.77777778 0 -2.77777778 0 0 0 Z " fill="#3C251A" transform="translate(161,164)"/>
<path d="M0 0 C1.32 0.33 2.64 0.66 4 1 C4 4.96 4 8.92 4 13 C-6.17857143 12.19642857 -6.17857143 12.19642857 -10 10 C-9 9 -9 9 -5.4375 8.9375 C-4.303125 8.958125 -3.16875 8.97875 -2 9 C-0.50178941 5.62902617 0 3.79557881 0 0 Z " fill="#E0AF99" transform="translate(130,154)"/>
<path d="M0 0 C0.33 0 0.66 0 1 0 C1 7.92 1 15.84 1 24 C0.01 24 -0.98 24 -2 24 C-3.08360869 17.93179132 -2.79074734 13.89893243 -1 8 C-1.99 8 -2.98 8 -4 8 C-2.25 2.25 -2.25 2.25 0 0 Z " fill="#D2BDA8" transform="translate(265,48)"/>
<path d="M0 0 C2.046875 3.71875 2.046875 3.71875 1.625 6.25 C1.41875 6.8275 1.2125 7.405 1 8 C1.66 8.33 2.32 8.66 3 9 C2.566875 9.8353125 2.566875 9.8353125 2.125 10.6875 C0.92638182 13.00238964 0.92638182 13.00238964 0.1875 15.625 C-1 18 -1 18 -3.625 19.3125 C-4.40875 19.539375 -5.1925 19.76625 -6 20 C-4.63125844 13.04223041 -2.5466871 6.61396893 0 0 Z " fill="#33312D" transform="translate(117,75)"/>
<path d="M0 0 C0.33 0.99 0.66 1.98 1 3 C1.99 3.66 2.98 4.32 4 5 C2.74703125 5.27714844 1.4940625 5.55429688 0.203125 5.83984375 C-1.44792292 6.20570096 -3.09896424 6.57158793 -4.75 6.9375 C-5.575 7.11990234 -6.4 7.30230469 -7.25 7.49023438 C-8.44882813 7.75610352 -8.44882813 7.75610352 -9.671875 8.02734375 C-10.4050293 8.18968506 -11.13818359 8.35202637 -11.89355469 8.51928711 C-13.93661753 8.98553546 -15.96893762 9.48420649 -18 10 C-18 9.34 -18 8.68 -18 8 C-15.69 7.34 -13.38 6.68 -11 6 C-11.33 4.68 -11.66 3.36 -12 2 C-11.01 2.33 -10.02 2.66 -9 3 C-1.56521739 0 -1.56521739 0 0 0 Z " fill="#B87C5A" transform="translate(125,155)"/>
<path d="M0 0 C9.57 0.33 19.14 0.66 29 1 C29.33 1.66 29.66 2.32 30 3 C19.77 3 9.54 3 -1 3 C-0.67 2.01 -0.34 1.02 0 0 Z " fill="#E9DACD" transform="translate(66,152)"/>
<path d="M0 0 C3.95061434 2.3703686 4.83662776 4.61498156 6 9 C6.33 10.32 6.66 11.64 7 13 C13.27 13 19.54 13 26 13 C26 13.66 26 14.32 26 15 C19.4 15 12.8 15 6 15 C5.01 13.02 4.02 11.04 3 9 C2.1646875 7.4221875 2.1646875 7.4221875 1.3125 5.8125 C0 3 0 3 0 0 Z " fill="#86817C" transform="translate(166,157)"/>
<path d="M0 0 C1.65 0 3.3 0 5 0 C5 1.98 5 3.96 5 6 C5.99 6 6.98 6 8 6 C9.6875 7.5 9.6875 7.5 11 9 C11 8.01 11 7.02 11 6 C11.66 6.33 12.32 6.66 13 7 C13.625 10.0625 13.625 10.0625 14 13 C12.02 13 10.04 13 8 13 C8 12.01 8 11.02 8 10 C7.01 10 6.02 10 5 10 C4.67 8.02 4.34 6.04 4 4 C3.01 4 2.02 4 1 4 C0.67 4.66 0.34 5.32 0 6 C0 4.02 0 2.04 0 0 Z " fill="#926C5B" transform="translate(141,152)"/>
<path d="M0 0 C0.66 0 1.32 0 2 0 C2.33 4.29 2.66 8.58 3 13 C3.66 12.67 4.32 12.34 5 12 C4.67 13.32 4.34 14.64 4 16 C3.34 16 2.68 16 2 16 C2.33 17.65 2.66 19.3 3 21 C2.01 21 1.02 21 0 21 C-1.84651134 17.88401212 -2.38079379 15.61754103 -2 12 C-1.34 11.34 -0.68 10.68 0 10 C0.24287489 7.55987051 0.24287489 7.55987051 0.125 4.875 C0.10695313 3.96492187 0.08890625 3.05484375 0.0703125 2.1171875 C0.04710937 1.41851562 0.02390625 0.71984375 0 0 Z " fill="#E2CCBD" transform="translate(258,126)"/>
<path d="M0 0 C1.98 0 3.96 0 6 0 C6 4.29 6 8.58 6 13 C4.68 13 3.36 13 2 13 C2.33 10.69 2.66 8.38 3 6 C2.01 6 1.02 6 0 6 C0 4.02 0 2.04 0 0 Z " fill="#DAC6B0" transform="translate(269,0)"/>
<path d="M0 0 C0 0.66 0 1.32 0 2 C0.66 2.33 1.32 2.66 2 3 C1.67 3.99 1.34 4.98 1 6 C0.34 6 -0.32 6 -1 6 C-1.33 6.99 -1.66 7.98 -2 9 C-3.32 9 -4.64 9 -6 9 C-6.33 8.01 -6.66 7.02 -7 6 C-7.99 6.495 -7.99 6.495 -9 7 C-8.3125 4.625 -8.3125 4.625 -7 2 C-4.52858057 0.7025048 -2.79207427 0 0 0 Z " fill="#47302A" transform="translate(162,154)"/>
<path d="M0 0 C0.99 0 1.98 0 3 0 C3 2.97 3 5.94 3 9 C2.01 9.33 1.02 9.66 0 10 C-0.33 10.99 -0.66 11.98 -1 13 C-1.33 12.34 -1.66 11.68 -2 11 C-2.66 12.32 -3.32 13.64 -4 15 C-4.66 14.67 -5.32 14.34 -6 14 C-5.37720331 12.41579871 -4.75166599 10.83267469 -4.125 9.25 C-3.60292969 7.92742187 -3.60292969 7.92742187 -3.0703125 6.578125 C-2.1353291 4.3259752 -1.12219206 2.16350541 0 0 Z " fill="#D49F82" transform="translate(104,153)"/>
<path d="M0 0 C1.20628008 2.33214148 2.1654738 4.49642139 3 7 C2.0625 9.6875 2.0625 9.6875 1 12 C0.34 12 -0.32 12 -1 12 C-1.33 12.66 -1.66 13.32 -2 14 C-2.33 12.68 -2.66 11.36 -3 10 C-3.66 10 -4.32 10 -5 10 C-4.3001048 6.85047161 -3.34839851 3.9347497 -2 1 C-1.34 0.67 -0.68 0.34 0 0 Z " fill="#F0DECA" transform="translate(257,54)"/>
<path d="M0 0 C4.75 0.875 4.75 0.875 7 2 C6.67 3.98 6.34 5.96 6 8 C3.69 7.67 1.38 7.34 -1 7 C-1.33 7.66 -1.66 8.32 -2 9 C-3 6 -3 6 -1.5625 2.8125 C-1.046875 1.884375 -0.53125 0.95625 0 0 Z " fill="#292220" transform="translate(127,32)"/>
<path d="M0 0 C3.80984844 2.77079887 4.06840752 6.62868145 5 11 C2.69 11.33 0.38 11.66 -2 12 C-1.85831863 10.56208484 -1.71148957 9.1246763 -1.5625 7.6875 C-1.48128906 6.88699219 -1.40007812 6.08648437 -1.31640625 5.26171875 C-1 3 -1 3 0 0 Z " fill="#F5EEE7" transform="translate(109,150)"/>
<path d="M0 0 C0.33 0.66 0.66 1.32 1 2 C1.61488281 1.90460938 2.22976562 1.80921875 2.86328125 1.7109375 C4.07564453 1.54464844 4.07564453 1.54464844 5.3125 1.375 C6.51326172 1.20097656 6.51326172 1.20097656 7.73828125 1.0234375 C10 1 10 1 13 3 C9.25764681 5.44989101 5.55774581 5.23086143 1.25 5.125 C0.55261719 5.11597656 -0.14476562 5.10695312 -0.86328125 5.09765625 C-2.57566958 5.07419888 -4.28788004 5.03833104 -6 5 C-6 4.34 -6 3.68 -6 3 C-4.02 2.01 -2.04 1.02 0 0 Z " fill="#F0E5E0" transform="translate(143,178)"/>
<path d="M0 0 C0.99 0 1.98 0 3 0 C3 0.66 3 1.32 3 2 C15.87 2 28.74 2 42 2 C42 2.33 42 2.66 42 3 C26.49 3 10.98 3 -5 3 C-5 2.67 -5 2.34 -5 2 C-3.35 2 -1.7 2 0 2 C0 1.34 0 0.68 0 0 Z " fill="#504037" transform="translate(96,170)"/>
<path d="M0 0 C0.99 0.33 1.98 0.66 3 1 C2.70703125 3.01822917 2.4140625 5.03645833 2.12109375 7.0546875 C1.8315703 9.08140667 1.8315703 9.08140667 3 11 C0.03 11 -2.94 11 -6 11 C-6.1875 7.625 -6.1875 7.625 -6 4 C-5.01 3.34 -4.02 2.68 -3 2 C-3 3.98 -3 5.96 -3 8 C-2.01 8 -1.02 8 0 8 C0 5.36 0 2.72 0 0 Z " fill="#E6D2C3" transform="translate(254,144)"/>
<path d="M0 0 C1.98 0.66 3.96 1.32 6 2 C6.33 3.98 6.66 5.96 7 8 C5.02 8.99 5.02 8.99 3 10 C0.9375 7.8125 0.9375 7.8125 -1 5 C-0.75 2.1875 -0.75 2.1875 0 0 Z " fill="#1F2023" transform="translate(130,143)"/>
<path d="M0 0 C1.32 0.66 2.64 1.32 4 2 C3.67 4.97 3.34 7.94 3 11 C2.01 11.33 1.02 11.66 0 12 C-2 10 -2 10 -2.01171875 7.87109375 C-1.90472656 7.06800781 -1.79773438 6.26492187 -1.6875 5.4375 C-1.58824219 4.63183594 -1.48898438 3.82617188 -1.38671875 2.99609375 C-1 1 -1 1 0 0 Z " fill="#F9F2EB" transform="translate(133,70)"/>
<path d="M0 0 C0.66 0 1.32 0 2 0 C2 0.66 2 1.32 2 2 C2.66 2.33 3.32 2.66 4 3 C3.01 3.66 2.02 4.32 1 5 C0.63583953 7.43693311 0.63583953 7.43693311 0.8125 10.125 C0.83957031 11.03507812 0.86664063 11.94515625 0.89453125 12.8828125 C0.92933594 13.58148438 0.96414063 14.28015625 1 15 C-2 16 -2 16 -5 15 C-4.125 10.25 -4.125 10.25 -3 8 C-2.34 8 -1.68 8 -1 8 C-0.67 5.36 -0.34 2.72 0 0 Z " fill="#DCC4AA" transform="translate(260,30)"/>
<path d="M0 0 C1.65 0.33 3.3 0.66 5 1 C5.1875 3.375 5.1875 3.375 5 6 C1.79619983 8.13586678 0.98060033 8.23132175 -2.6875 8.125 C-3.89986328 8.09792969 -3.89986328 8.09792969 -5.13671875 8.0703125 C-6.05904297 8.03550781 -6.05904297 8.03550781 -7 8 C-7 7.67 -7 7.34 -7 7 C-4.69 6.34 -2.38 5.68 0 5 C-1.65 4.67 -3.3 4.34 -5 4 C-4.360625 3.896875 -3.72125 3.79375 -3.0625 3.6875 C-2.381875 3.460625 -1.70125 3.23375 -1 3 C-0.67 2.01 -0.34 1.02 0 0 Z " fill="#D49A7A" transform="translate(126,154)"/>
<path d="M0 0 C0.99 0.33 1.98 0.66 3 1 C2.01 2.485 2.01 2.485 1 4 C0.70547416 6.38677076 0.5071783 8.78626094 0.375 11.1875 C0.30023438 12.45980469 0.22546875 13.73210937 0.1484375 15.04296875 C0.09945312 16.01878906 0.05046875 16.99460938 0 18 C-2.64 18 -5.28 18 -8 18 C-8 17.34 -8 16.68 -8 16 C-6.02 16 -4.04 16 -2 16 C-1.93941406 14.92878906 -1.87882813 13.85757813 -1.81640625 12.75390625 C-1.73201463 11.35675609 -1.64736594 9.95962143 -1.5625 8.5625 C-1.50352539 7.50192383 -1.50352539 7.50192383 -1.44335938 6.41992188 C-1.11328125 1.11328125 -1.11328125 1.11328125 0 0 Z " fill="#F8EDE4" transform="translate(248,136)"/>
<path d="M0 0 C0.99 0 1.98 0 3 0 C3.33 1.32 3.66 2.64 4 4 C2.02 4.33 0.04 4.66 -2 5 C-2 6.98 -2 8.96 -2 11 C-2.99 11 -3.98 11 -5 11 C-5 8.03 -5 5.06 -5 2 C-4.34 1.67 -3.68 1.34 -3 1 C-2.34 1.33 -1.68 1.66 -1 2 C-0.67 1.34 -0.34 0.68 0 0 Z " fill="#FAF3EC" transform="translate(143,147)"/>
<path d="M0 0 C0.99 0 1.98 0 3 0 C3 3.96 3 7.92 3 12 C2.67 11.01 2.34 10.02 2 9 C0.68 9 -0.64 9 -2 9 C-2.33 7.35 -2.66 5.7 -3 4 C-2.34 4 -1.68 4 -1 4 C-0.67 2.68 -0.34 1.36 0 0 Z " fill="#CFB9A5" transform="translate(263,76)"/>
<path d="M0 0 C0.33 0 0.66 0 1 0 C1.06058594 1.12019531 1.12117188 2.24039063 1.18359375 3.39453125 C1.26801424 4.86719984 1.35266149 6.33985544 1.4375 7.8125 C1.47681641 8.55048828 1.51613281 9.28847656 1.55664062 10.04882812 C1.74381035 13.23071342 1.98720793 15.96162378 3 19 C1.02 19 -0.96 19 -3 19 C-2.68798326 16.95825942 -2.37536431 14.91661087 -2.0625 12.875 C-1.88847656 11.73804688 -1.71445312 10.60109375 -1.53515625 9.4296875 C-1.04410734 6.28267331 -0.52981281 3.14069217 0 0 Z " fill="#AC967F" transform="translate(265,136)"/>
<path d="M0 0 C1.32 0 2.64 0 4 0 C3.48659616 3.79918838 2.7920132 5.43134786 0 8 C-0.350625 8.70125 -0.70125 9.4025 -1.0625 10.125 C-2 12 -2 12 -4 13 C-4 10.69 -4 8.38 -4 6 C-2.68 6 -1.36 6 0 6 C-0.66 4.68 -1.32 3.36 -2 2 C-1.34 1.34 -0.68 0.68 0 0 Z " fill="#FCECD9" transform="translate(256,48)"/>
<path d="M0 0 C0.66 0.99 1.32 1.98 2 3 C4.66653905 3.36460453 4.66653905 3.36460453 7.625 3.1875 C8.62789062 3.16042969 9.63078125 3.13335937 10.6640625 3.10546875 C11.43492188 3.07066406 12.20578125 3.03585938 13 3 C13.33 3.66 13.66 4.32 14 5 C8.61509359 5.91657981 3.45769811 6.11138159 -2 6 C-1.125 1.125 -1.125 1.125 0 0 Z " fill="#EDDAD0" transform="translate(2,149)"/>
<path d="M0 0 C0.99 0.33 1.98 0.66 3 1 C2.67 7.27 2.34 13.54 2 20 C1.34 20.33 0.68 20.66 0 21 C-0.19592461 17.68794116 -0.38032746 14.37534146 -0.5625 11.0625 C-0.61857422 10.11697266 -0.67464844 9.17144531 -0.73242188 8.19726562 C-0.78076172 7.29814453 -0.82910156 6.39902344 -0.87890625 5.47265625 C-0.9260376 4.64000244 -0.97316895 3.80734863 -1.02172852 2.94946289 C-1 1 -1 1 0 0 Z " fill="#D7C5B1" transform="translate(266,27)"/>
<path d="M0 0 C0.99 0.33 1.98 0.66 3 1 C5.33006911 1.35543427 7.66327016 1.6913753 10 2 C10 2.66 10 3.32 10 4 C8.25181409 4.22304441 6.50129677 4.4278645 4.75 4.625 C3.77546875 4.74101562 2.8009375 4.85703125 1.796875 4.9765625 C-1.13429393 5.00112537 -2.54528964 4.5312717 -5 3 C-2.6875 1.4375 -2.6875 1.4375 0 0 Z " fill="#FDF2E4" transform="translate(66,148)"/>
<path d="M0 0 C0.99 0 1.98 0 3 0 C3.27036084 5.27203646 2.26305335 9.92523206 1 15 C0.34 14.67 -0.32 14.34 -1 14 C-1.08333357 9.1666528 -0.95261487 4.76307437 0 0 Z " fill="#F3E6D5" transform="translate(254,30)"/>
<path d="M0 0 C0.99 0 1.98 0 3 0 C3 2.64 3 5.28 3 8 C3.66 8 4.32 8 5 8 C5 8.99 5 9.98 5 11 C3.68 11.33 2.36 11.66 1 12 C0.36605303 7.95858806 -0.12404452 4.0934693 0 0 Z " fill="#FAE8D6" transform="translate(96,0)"/>
<path d="M0 0 C4.62 0 9.24 0 14 0 C13.01 0.33 12.02 0.66 11 1 C11 1.66 11 2.32 11 3 C6.70700357 4.26264601 4.12168689 3.62950412 0 2 C0 1.34 0 0.68 0 0 Z " fill="#D3CDC3" transform="translate(159,173)"/>
<path d="M0 0 C-2.07008243 5.41406174 -4.3391253 10.46748846 -8 15 C-8.33 13.68 -8.66 12.36 -9 11 C-8.34 11 -7.68 11 -7 11 C-6.34 9.02 -5.68 7.04 -5 5 C-5.66 5 -6.32 5 -7 5 C-5.53924541 2.07849082 -3.3640735 0 0 0 Z " fill="#A38273" transform="translate(118,133)"/>
<path d="M0 0 C0.66 0.33 1.32 0.66 2 1 C1.95875 1.7425 1.9175 2.485 1.875 3.25 C2.00543093 6.11948044 2.46084023 7.60575147 4 10 C4.66 10.33 5.32 10.66 6 11 C5.34 12.32 4.68 13.64 4 15 C-1.05908096 7.12253829 -1.05908096 7.12253829 -0.8125 2.4375 C-0.544375 1.633125 -0.27625 0.82875 0 0 Z " fill="#211510" transform="translate(111,145)"/>
<path d="M0 0 C0.66 0.33 1.32 0.66 2 1 C1.21012527 2.91740583 0.41802852 4.83389641 -0.375 6.75 C-0.81585938 7.81734375 -1.25671875 8.8846875 -1.7109375 9.984375 C-2.73307585 12.37555926 -3.80213595 14.69383183 -5 17 C-5.66 17 -6.32 17 -7 17 C-6.37954537 12.76677156 -4.89476441 9.47709705 -2.9375 5.6875 C-2.38964844 4.61886719 -1.84179688 3.55023438 -1.27734375 2.44921875 C-0.64505859 1.23685547 -0.64505859 1.23685547 0 0 Z " fill="#E1B7A3" transform="translate(103,152)"/>
<path d="M0 0 C0.33 0 0.66 0 1 0 C1.12086218 6.43255401 0.82351864 12.61773055 0 19 C-0.33 19 -0.66 19 -1 19 C-1.22114415 16.20880221 -1.42743301 13.4178788 -1.625 10.625 C-1.68945312 9.8309375 -1.75390625 9.036875 -1.8203125 8.21875 C-1.96058587 6.14971776 -1.98758237 4.07374464 -2 2 C-1.34 1.34 -0.68 0.68 0 0 Z " fill="#E4D3C6" transform="translate(268,128)"/>
<path d="M0 0 C0.33 0 0.66 0 1 0 C1.33 3.63 1.66 7.26 2 11 C1.34 11 0.68 11 0 11 C-0.33 12.65 -0.66 14.3 -1 16 C-1.66 16 -2.32 16 -3 16 C-4 13 -4 13 -3 10 C-2.34 10 -1.68 10 -1 10 C-0.67 6.7 -0.34 3.4 0 0 Z " fill="#FEF9EA" transform="translate(137,19)"/>
<path d="M0 0 C0.33 0 0.66 0 1 0 C1 3.3 1 6.6 1 10 C1.99 10 2.98 10 4 10 C3.67 12.31 3.34 14.62 3 17 C2.01 17 1.02 17 0 17 C0 11.39 0 5.78 0 0 Z " fill="#9D8072" transform="translate(137,148)"/>
<path d="M0 0 C1.65 0.33 3.3 0.66 5 1 C5 2.65 5 4.3 5 6 C3.125 6.625 3.125 6.625 1 7 C0.34 6.34 -0.32 5.68 -1 5 C-0.625 2.375 -0.625 2.375 0 0 Z " fill="#C9B095" transform="translate(256,148)"/>
<path d="M0 0 C0.33 0 0.66 0 1 0 C1 3.96 1 7.92 1 12 C0.34 12 -0.32 12 -1 12 C-1 15.96 -1 19.92 -1 24 C-1.33 24 -1.66 24 -2 24 C-2.3690205 7.1070615 -2.3690205 7.1070615 0 0 Z " fill="#4A4747" transform="translate(130,68)"/>
<path d="M0 0 C3.63 0 7.26 0 11 0 C11 0.66 11 1.32 11 2 C9.68 2 8.36 2 7 2 C7 2.66 7 3.32 7 4 C6.01 4 5.02 4 4 4 C4 3.34 4 2.68 4 2 C2.35 2.66 0.7 3.32 -1 4 C-0.67 2.68 -0.34 1.36 0 0 Z " fill="#EBD8CD" transform="translate(101,174)"/>
<path d="M0 0 C1.98 0.495 1.98 0.495 4 1 C4 4.3 4 7.6 4 11 C3.34 11 2.68 11 2 11 C2 10.34 2 9.68 2 9 C1.01 9 0.02 9 -1 9 C-0.67 6.03 -0.34 3.06 0 0 Z " fill="#EBBEA7" transform="translate(130,154)"/>
<path d="M0 0 C2.31 0 4.62 0 7 0 C6.38722388 2.96175123 5.74627478 4.38058783 4 7 C4 5.68 4 4.36 4 3 C0.04 3 -3.92 3 -8 3 C-8 2.67 -8 2.34 -8 2 C-5.36 1.67 -2.72 1.34 0 1 C0 0.67 0 0.34 0 0 Z " fill="#FBEFE1" transform="translate(95,153)"/>
<path d="M0 0 C0.66 0 1.32 0 2 0 C2.33 1.65 2.66 3.3 3 5 C2.34 5 1.68 5 1 5 C1.33 6.98 1.66 8.96 2 11 C2.66 11 3.32 11 4 11 C4.33 12.32 4.66 13.64 5 15 C4.01 15.495 4.01 15.495 3 16 C-0.62167726 10.8418536 -1.39880692 7.94885347 -0.359375 1.72265625 C-0.24078125 1.15417969 -0.1221875 0.58570312 0 0 Z " fill="#291D19" transform="translate(108,120)"/>
<path d="M0 0 C1.485 0.99 1.485 0.99 3 2 C2.34 6.29 1.68 10.58 1 15 C0.34 14.67 -0.32 14.34 -1 14 C-1.02705729 12.22925083 -1.04642195 10.45838289 -1.0625 8.6875 C-1.07410156 7.70136719 -1.08570312 6.71523438 -1.09765625 5.69921875 C-1 3 -1 3 0 0 Z " fill="#2C2824" transform="translate(119,50)"/>
<path d="M0 0 C0 2.97 0 5.94 0 9 C-2.475 8.01 -2.475 8.01 -5 7 C-4.6875 4.625 -4.6875 4.625 -4 2 C-1 0 -1 0 0 0 Z " fill="#CAAA8C" transform="translate(265,32)"/>
<path d="M0 0 C1.42944945 2.35438733 2.08661261 3.48032433 1.625 6.25 C1.41875 6.8275 1.2125 7.405 1 8 C1.66 8.33 2.32 8.66 3 9 C2 11 1 13 0 15 C-0.66 15 -1.32 15 -2 15 C-1.34 13.02 -0.68 11.04 0 9 C-0.66 9 -1.32 9 -2 9 C-1.51421457 5.87709365 -1.0013988 3.00419641 0 0 Z " fill="#2D2B28" transform="translate(117,75)"/>
<path d="M0 0 C2.97 0.495 2.97 0.495 6 1 C6 2.32 6 3.64 6 5 C3.5 7.25 3.5 7.25 1 9 C0.67 6.03 0.34 3.06 0 0 Z " fill="#FEEDE0" transform="translate(111,24)"/>
<path d="M0 0 C1.65 0.33 3.3 0.66 5 1 C4.42415568 3.38564077 3.77772405 5.66682784 3 8 C1.68 7.67 0.36 7.34 -1 7 C-0.67 6.34 -0.34 5.68 0 5 C0.0396713 3.33380554 0.04384447 1.66608987 0 0 Z " fill="#FBEADC" transform="translate(43,16)"/>
<path d="M0 0 C0.66 0.33 1.32 0.66 2 1 C2 1.66 2 2.32 2 3 C2.8971875 2.690625 2.8971875 2.690625 3.8125 2.375 C6 2 6 2 9 4 C4.05 5.32 -0.9 6.64 -6 8 C-6 7.34 -6 6.68 -6 6 C-3.69 5.34 -1.38 4.68 1 4 C0.67 2.68 0.34 1.36 0 0 Z " fill="#97705B" transform="translate(113,157)"/>
<path d="M0 0 C0.66 0.33 1.32 0.66 2 1 C1 3 1 3 -1.3984375 3.88671875 C-2.87183594 4.28310547 -2.87183594 4.28310547 -4.375 4.6875 C-5.35210937 4.95949219 -6.32921875 5.23148438 -7.3359375 5.51171875 C-10 6 -10 6 -13 5 C-12.01 4.67 -11.02 4.34 -10 4 C-10 3.34 -10 2.68 -10 2 C-3.375 0.875 -3.375 0.875 0 2 C0 1.34 0 0.68 0 0 Z " fill="#130804" transform="translate(129,151)"/>
<path d="M0 0 C1.65 0 3.3 0 5 0 C4.01 0.495 4.01 0.495 3 1 C2.53476937 2.89533342 2.53476937 2.89533342 2.375 5.0625 C2.189375 7.0115625 2.189375 7.0115625 2 9 C1.34 9 0.68 9 0 9 C0 9.66 0 10.32 0 11 C-0.66 11 -1.32 11 -2 11 C-1.34 7.37 -0.68 3.74 0 0 Z " fill="#EBD5BE" transform="translate(257,29)"/>
<path d="M0 0 C0.33 0.66 0.66 1.32 1 2 C1.66 2 2.32 2 3 2 C3 1.34 3 0.68 3 0 C3.99 0.33 4.98 0.66 6 1 C5.67 2.32 5.34 3.64 5 5 C2.36 5 -0.28 5 -3 5 C-2.01 3.35 -1.02 1.7 0 0 Z " fill="#694535" transform="translate(143,162)"/>
<path d="M0 0 C2.8384145 1.71798773 4.68152621 3.07018456 5.77734375 6.26953125 C6.26033279 8.50820309 6.67548233 10.73321986 7 13 C5.68 12.67 4.36 12.34 3 12 C2.814375 10.4221875 2.814375 10.4221875 2.625 8.8125 C2.08859218 5.54041229 1.36119965 2.99463924 0 0 Z " fill="#5E483F" transform="translate(161,152)"/>
<path d="M0 0 C1.98 0.66 3.96 1.32 6 2 C5.67 3.65 5.34 5.3 5 7 C4.01 7 3.02 7 2 7 C2 6.34 2 5.68 2 5 C1.34 5 0.68 5 0 5 C0 4.34 0 3.68 0 3 C-0.99 2.67 -1.98 2.34 -3 2 C-2.01 2 -1.02 2 0 2 C0 1.34 0 0.68 0 0 Z " fill="#C89A8D" transform="translate(147,149)"/>
<path d="M0 0 C0.66 0 1.32 0 2 0 C2 2.64 2 5.28 2 8 C1.01 8.495 1.01 8.495 0 9 C-0.33 8.34 -0.66 7.68 -1 7 C-1.99 6.34 -2.98 5.68 -4 5 C-3.34 5 -2.68 5 -2 5 C-1.7834375 4.0409375 -1.7834375 4.0409375 -1.5625 3.0625 C-1 1 -1 1 0 0 Z " fill="#212026" transform="translate(124,106)"/>
<path d="M0 0 C1.32 0 2.64 0 4 0 C4 2.31 4 4.62 4 7 C2.68 7 1.36 7 0 7 C0 4.69 0 2.38 0 0 Z " fill="#FAEAE0" transform="translate(130,176)"/>
<path d="M0 0 C0.33 0.66 0.66 1.32 1 2 C1.66 2 2.32 2 3 2 C3 2.66 3 3.32 3 4 C3.99 4 4.98 4 6 4 C6 5.65 6 7.3 6 9 C5.01 8.67 4.02 8.34 3 8 C3 7.34 3 6.68 3 6 C2.01 6 1.02 6 0 6 C0 4.02 0 2.04 0 0 Z " fill="#AF7E6D" transform="translate(146,152)"/>
<path d="M0 0 C1.32 0.33 2.64 0.66 4 1 C4 1.66 4 2.32 4 3 C4.99 2.67 5.98 2.34 7 2 C6.67 2.99 6.34 3.98 6 5 C3.03 5 0.06 5 -3 5 C-2.01 3.35 -1.02 1.7 0 0 Z " fill="#F9EFE3" transform="translate(153,146)"/>
<path d="M0 0 C0.33 2.64 0.66 5.28 1 8 C-0.65 8 -2.3 8 -4 8 C-4.1875 5.125 -4.1875 5.125 -4 2 C-1 0 -1 0 0 0 Z " fill="#FBEDDE" transform="translate(256,136)"/>
<path d="M0 0 C0.66 0 1.32 0 2 0 C2.33 5.28 2.66 10.56 3 16 C2.67 15.34 2.34 14.68 2 14 C1.34 14 0.68 14 0 14 C-0.33 14.99 -0.66 15.98 -1 17 C-1 15.02 -1 13.04 -1 11 C-0.34 11 0.32 11 1 11 C0.67 7.37 0.34 3.74 0 0 Z " fill="#D1B69C" transform="translate(264,30)"/>
<path d="M0 0 C0.33 0 0.66 0 1 0 C1.90413673 3.83724172 2.10576898 7.37502274 2.0625 11.3125 C2.05347656 12.38113281 2.04445312 13.44976562 2.03515625 14.55078125 C2.02355469 15.35902344 2.01195312 16.16726562 2 17 C-1.0662121 11.15542428 -1.16687463 6.48263681 0 0 Z " fill="#FEFAEC" transform="translate(252,19)"/>
<path d="M0 0 C3.95940397 2.37564238 4.87482542 4.58585358 6 9 C6.36920191 10.99369031 6.71325582 12.99279077 7 15 C6.34 14.01 5.68 13.02 5 12 C4.319375 11.071875 3.63875 10.14375 2.9375 9.1875 C0.97607225 5.96063499 0.35426628 3.71979591 0 0 Z " fill="#A07E68" transform="translate(166,157)"/>
<path d="M0 0 C4.02603178 -0.55917108 7.24455129 0.60262373 11 2 C11 2.33 11 2.66 11 3 C6.71 3 2.42 3 -2 3 C-1.34 2.01 -0.68 1.02 0 0 Z " fill="#FCEDE1" transform="translate(82,150)"/>
<path d="M0 0 C2.45526122 2.45526122 2.41457598 3.60629818 2.75 7 C2.84796875 7.886875 2.9459375 8.77375 3.046875 9.6875 C3 12 3 12 1 14 C-0.20568053 9.32798795 -0.09382426 4.78503708 0 0 Z " fill="#E5C1AB" transform="translate(106,132)"/>
<path d="M0 0 C0.66 0 1.32 0 2 0 C2.22162329 1.62324086 2.42689803 3.248721 2.625 4.875 C2.74101562 5.77992187 2.85703125 6.68484375 2.9765625 7.6171875 C2.98429687 8.40351562 2.99203125 9.18984375 3 10 C2.34 10.66 1.68 11.32 1 12 C-0.47075246 7.58774263 -1.36884358 4.51718381 0 0 Z " fill="#F5E7D7" transform="translate(256,113)"/>
<path d="M0 0 C1.65 0.33 3.3 0.66 5 1 C5 2.32 5 3.64 5 5 C2.36 5 -0.28 5 -3 5 C-2.34 4.67 -1.68 4.34 -1 4 C-0.34786708 1.97536745 -0.34786708 1.97536745 0 0 Z " fill="#BAA794" transform="translate(270,22)"/>
<path d="M0 0 C0.33 0.99 0.66 1.98 1 3 C2.65 3.33 4.3 3.66 6 4 C6 5.32 6 6.64 6 8 C5.01 8 4.02 8 3 8 C3 7.34 3 6.68 3 6 C2.34 6 1.68 6 1 6 C0.67 6.66 0.34 7.32 0 8 C0 5.36 0 2.72 0 0 Z " fill="#FDF3E6" transform="translate(269,136)"/>
<path d="M0 0 C1.5 1.3125 1.5 1.3125 3 3 C3 3.99 3 4.98 3 6 C1.68 6 0.36 6 -1 6 C-1 7.32 -1 8.64 -1 10 C-2.32 9.34 -3.64 8.68 -5 8 C-4.01 8 -3.02 8 -2 8 C-1.855625 6.865625 -1.71125 5.73125 -1.5625 4.5625 C-1 1 -1 1 0 0 Z " fill="#FFF9EA" transform="translate(253,48)"/>
<path d="M0 0 C0.99 0.66 1.98 1.32 3 2 C1.125 6.75 1.125 6.75 0 9 C-0.99 9 -1.98 9 -3 9 C-2.01 6.03 -1.02 3.06 0 0 Z " fill="#2B2925" transform="translate(123,41)"/>
<path d="M0 0 C0 0.33 0 0.66 0 1 C-3.63 1.33 -7.26 1.66 -11 2 C-11 2.66 -11 3.32 -11 4 C-12.32 4 -13.64 4 -15 4 C-15 3.01 -15 2.02 -15 1 C-9.92928099 0.28832014 -5.11791642 -0.10662326 0 0 Z " fill="#FFF7F2" transform="translate(15,156)"/>
<path d="M0 0 C0.99 0 1.98 0 3 0 C3 2.97 3 5.94 3 9 C2.67 8.34 2.34 7.68 2 7 C1.34 7 0.68 7 0 7 C0 4.69 0 2.38 0 0 Z " fill="#F9EEE3" transform="translate(11,73)"/>
<path d="M0 0 C1.65 0 3.3 0 5 0 C4.67 1.32 4.34 2.64 4 4 C5.65 3.34 7.3 2.68 9 2 C9 2.66 9 3.32 9 4 C7.02 4.33 5.04 4.66 3 5 C2.67 4.01 2.34 3.02 2 2 C1.34 2 0.68 2 0 2 C0 1.34 0 0.68 0 0 Z " fill="#F8E6DB" transform="translate(96,174)"/>
<path d="M0 0 C0.33 0.66 0.66 1.32 1 2 C1.99 2.33 2.98 2.66 4 3 C3.01 3.33 2.02 3.66 1 4 C0.67 4.99 0.34 5.98 0 7 C-0.66 7 -1.32 7 -2 7 C-2.66 5.35 -3.32 3.7 -4 2 C-2.68 1.34 -1.36 0.68 0 0 Z " fill="#161115" transform="translate(128,38)"/>
<path d="M0 0 C0.33 0.99 0.66 1.98 1 3 C3.01508358 3.73323796 3.01508358 3.73323796 5 4 C4.67 4.99 4.34 5.98 4 7 C1.03 6.505 1.03 6.505 -2 6 C-1.34 4.02 -0.68 2.04 0 0 Z " fill="#4E2C1E" transform="translate(165,162)"/>
<path d="M0 0 C1 3 1 3 0.22265625 4.82421875 C-0.8515625 6.54947917 -1.92578125 8.27473958 -3 10 C-3.66 10 -4.32 10 -5 10 C-4.3001048 6.85047161 -3.34839851 3.9347497 -2 1 C-1.34 0.67 -0.68 0.34 0 0 Z " fill="#F5E4D2" transform="translate(257,54)"/>
<path d="M0 0 C2.1385485 2.1385485 2.42655063 3.13275314 3 6 C1.02 6 -0.96 6 -3 6 C-2.67 4.68 -2.34 3.36 -2 2 C-1.34 2 -0.68 2 0 2 C0 1.34 0 0.68 0 0 Z " fill="#664A35" transform="translate(170,167)"/>
<path d="M0 0 C0 2.64 0 5.28 0 8 C-0.3403125 7.0409375 -0.3403125 7.0409375 -0.6875 6.0625 C-1.85250896 3.72806339 -1.85250896 3.72806339 -4.625 3.25 C-5.40875 3.1675 -6.1925 3.085 -7 3 C-1 0 -1 0 0 0 Z " fill="#1D140F" transform="translate(137,151)"/>
<path d="M0 0 C0.268125 0.639375 0.53625 1.27875 0.8125 1.9375 C1.88667752 4.33131686 1.88667752 4.33131686 5 5 C2.03 5 -0.94 5 -4 5 C-3.34 4.67 -2.68 4.34 -2 4 C-2 3.01 -2 2.02 -2 1 C-1.34 0.67 -0.68 0.34 0 0 Z " fill="#F4E7DD" transform="translate(20,140)"/>
<path d="M0 0 C0.33 0 0.66 0 1 0 C1.16702456 4.34263862 1.12999997 7.20960634 -1 11 C-1.22174933 9.54364629 -1.42698698 8.08477044 -1.625 6.625 C-1.74101563 5.81289062 -1.85703125 5.00078125 -1.9765625 4.1640625 C-1.98429687 3.44992188 -1.99203125 2.73578125 -2 2 C-1.34 1.34 -0.68 0.68 0 0 Z " fill="#272420" transform="translate(120,65)"/>
<path d="M0 0 C1.231394 2.46278801 1.07159196 4.2795055 1 7 C-0.32 7.33 -1.64 7.66 -3 8 C-3.66 7.01 -4.32 6.02 -5 5 C-4.01 5 -3.02 5 -2 5 C-1.34 3.35 -0.68 1.7 0 0 Z " fill="#0F0E0F" transform="translate(125,45)"/>
<path d="M0 0 C0.66 0 1.32 0 2 0 C2 0.66 2 1.32 2 2 C2.66 2.33 3.32 2.66 4 3 C3.34 4.32 2.68 5.64 2 7 C1.34 7 0.68 7 0 7 C0 6.01 0 5.02 0 4 C-0.66 3.67 -1.32 3.34 -2 3 C-1.34 2.01 -0.68 1.02 0 0 Z " fill="#F5E2CE" transform="translate(262,25)"/>
<path d="M0 0 C0.33 2.31 0.66 4.62 1 7 C-0.32 6.67 -1.64 6.34 -3 6 C-3 4.68 -3 3.36 -3 2 C-3.66 1.67 -4.32 1.34 -5 1 C-2 0 -2 0 0 0 Z " fill="#D3A68D" transform="translate(133,27)"/>
<path d="M0 0 C1.65 0.33 3.3 0.66 5 1 C5 1.66 5 2.32 5 3 C1.7 3.33 -1.6 3.66 -5 4 C-3.68 3.67 -2.36 3.34 -1 3 C-0.67 2.01 -0.34 1.02 0 0 Z " fill="#C0977D" transform="translate(126,154)"/>
<path d="M0 0 C2.97 0.33 5.94 0.66 9 1 C9 1.66 9 2.32 9 3 C7.35 3.66 5.7 4.32 4 5 C2.68 3.35 1.36 1.7 0 0 Z " fill="#F3EBE1" transform="translate(162,152)"/>
<path d="M0 0 C0.33 0 0.66 0 1 0 C1 3.63 1 7.26 1 11 C0.34 11 -0.32 11 -1 11 C-1.33 8.03 -1.66 5.06 -2 2 C-1.34 2 -0.68 2 0 2 C0 1.34 0 0.68 0 0 Z " fill="#D0B69F" transform="translate(263,142)"/>
<path d="M0 0 C0.66 0 1.32 0 2 0 C2.185625 1.2065625 2.185625 1.2065625 2.375 2.4375 C2.58125 3.283125 2.7875 4.12875 3 5 C3.66 5.33 4.32 5.66 5 6 C3.02 6 1.04 6 -1 6 C-0.67 4.02 -0.34 2.04 0 0 Z " fill="#F8EFE9" transform="translate(189,149)"/>
<path d="M0 0 C0.66 0 1.32 0 2 0 C2.125 5.75 2.125 5.75 1 8 C0.34 8 -0.32 8 -1 8 C-1.125 2.25 -1.125 2.25 0 0 Z " fill="#E1C9B2" transform="translate(262,56)"/>
<path d="M0 0 C0.99 0.33 1.98 0.66 3 1 C2.34 1.66 1.68 2.32 1 3 C0.28591666 4.98356483 -0.38617742 6.98315437 -1 9 C-1.66 8.67 -2.32 8.34 -3 8 C-1.125 1.125 -1.125 1.125 0 0 Z " fill="#423937" transform="translate(127,32)"/>
<path d="M0 0 C0.66 0 1.32 0 2 0 C2 0.66 2 1.32 2 2 C2.66 2.33 3.32 2.66 4 3 C3.01 3.66 2.02 4.32 1 5 C0.26393501 8.56769552 0.26393501 8.56769552 0 12 C-2 9 -2 9 -1.7578125 6.73828125 C-1.44457031 5.53751953 -1.44457031 5.53751953 -1.125 4.3125 C-0.92132813 3.50425781 -0.71765625 2.69601563 -0.5078125 1.86328125 C-0.34023438 1.24839844 -0.17265625 0.63351563 0 0 Z " fill="#D5BA9F" transform="translate(260,30)"/>
<path d="M0 0 C1.9375 0.3125 1.9375 0.3125 4 1 C4.33 1.99 4.66 2.98 5 4 C3.02 4 1.04 4 -1 4 C-0.67 2.68 -0.34 1.36 0 0 Z " fill="#F5E5CF" transform="translate(255,12)"/>
<path d="M0 0 C0.33 0.66 0.66 1.32 1 2 C1.99 2 2.98 2 4 2 C4 2.66 4 3.32 4 4 C1.36 4.66 -1.28 5.32 -4 6 C-4.33 5.34 -4.66 4.68 -5 4 C-3.35 4 -1.7 4 0 4 C0 2.68 0 1.36 0 0 Z " fill="#331A11" transform="translate(148,163)"/>
<path d="M0 0 C1.32 0 2.64 0 4 0 C4 0.66 4 1.32 4 2 C4.66 2.33 5.32 2.66 6 3 C5 4 5 4 2.4375 4.0625 C1.2309375 4.0315625 1.2309375 4.0315625 0 4 C0 2.68 0 1.36 0 0 Z " fill="#C2A094" transform="translate(155,151)"/>
<path d="M0 0 C1.32 0.66 2.64 1.32 4 2 C4 2.66 4 3.32 4 4 C2.68 3.67 1.36 3.34 0 3 C0 5.31 0 7.62 0 10 C-0.33 10 -0.66 10 -1 10 C-1.02689216 8.52093108 -1.04634621 7.04172517 -1.0625 5.5625 C-1.07410156 4.73878906 -1.08570313 3.91507813 -1.09765625 3.06640625 C-1 1 -1 1 0 0 Z " fill="#FBEEE4" transform="translate(270,145)"/>
<path d="M0 0 C0 0.66 0 1.32 0 2 C-1.32 2 -2.64 2 -4 2 C-4 2.66 -4 3.32 -4 4 C-5.65 4.33 -7.3 4.66 -9 5 C-8.67 4.01 -8.34 3.02 -8 2 C-5.27366306 0.89786379 -2.95855967 0 0 0 Z " fill="#A5836F" transform="translate(125,155)"/>
<path d="M0 0 C2.475 0.495 2.475 0.495 5 1 C3.35 2.65 1.7 4.3 0 6 C0 4.02 0 2.04 0 0 Z " fill="#1E0C0D" transform="translate(112,131)"/>
<path d="M0 0 C2.475 0.99 2.475 0.99 5 2 C4.01 2.495 4.01 2.495 3 3 C3.33 4.32 3.66 5.64 4 7 C3.01 7 2.02 7 1 7 C0.67 4.69 0.34 2.38 0 0 Z " fill="#F9F1E9" transform="translate(8,131)"/>
<path d="M0 0 C0.99 0 1.98 0 3 0 C3 1.98 3 3.96 3 6 C2.01 6 1.02 6 0 6 C0 4.02 0 2.04 0 0 Z " fill="#E7D4BA" transform="translate(269,0)"/>
<path d="M0 0 C0.66 0.33 1.32 0.66 2 1 C0.1875 3 0.1875 3 -2 5 C-2.99 5 -3.98 5 -5 5 C-4.1875 3.0625 -4.1875 3.0625 -3 1 C-2.01 0.67 -1.02 0.34 0 0 Z " fill="#FAF5F1" transform="translate(168,178)"/>
<path d="M0 0 C0.66 0 1.32 0 2 0 C1.67 1.98 1.34 3.96 1 6 C-0.32 6 -1.64 6 -3 6 C-3 5.01 -3 4.02 -3 3 C-2.01 3 -1.02 3 0 3 C0 2.01 0 1.02 0 0 Z " fill="#DED4CF" transform="translate(139,173)"/>
<path d="M0 0 C0 0.99 0 1.98 0 3 C-3 5 -3 5 -6 5 C-5.25 3.0625 -5.25 3.0625 -4 1 C-1.875 0.25 -1.875 0.25 0 0 Z " fill="#392317" transform="translate(159,156)"/>
<path d="M0 0 C0.99 0 1.98 0 3 0 C2.67 2.31 2.34 4.62 2 7 C1.34 7 0.68 7 0 7 C-0.38133299 5.0085944 -0.71325582 3.00720923 -1 1 C-0.67 0.67 -0.34 0.34 0 0 Z " fill="#DEA587" transform="translate(104,153)"/>
<path d="M0 0 C1.65 0 3.3 0 5 0 C5 0.99 5 1.98 5 3 C3.02 3 1.04 3 -1 3 C-0.67 2.01 -0.34 1.02 0 0 Z " fill="#F2E4D5" transform="translate(66,152)"/>
<path d="M0 0 C2 3 2 3 2 6 C0.68 6 -0.64 6 -2 6 C-1.125 1.125 -1.125 1.125 0 0 Z " fill="#E7D4CB" transform="translate(2,149)"/>
<path d="M0 0 C0.66 0 1.32 0 2 0 C1.125 5.75 1.125 5.75 0 8 C-0.66 8 -1.32 8 -2 8 C-1.33333333 5.33333333 -0.66666667 2.66666667 0 0 Z " fill="#EFE8DB" transform="translate(51,136)"/>
<path d="M0 0 C0.66 0 1.32 0 2 0 C0.8141763 3.37503669 -0.27573689 5.64722731 -3 8 C-3 4.40142046 -2.04169485 2.90548882 0 0 Z " fill="#3A3431" transform="translate(108,103)"/>
<path d="M0 0 C0.66 0.33 1.32 0.66 2 1 C1.67 3.31 1.34 5.62 1 8 C0.34 7.67 -0.32 7.34 -1 7 C-1.04254356 5.00045254 -1.04080783 2.99958364 -1 1 C-0.67 0.67 -0.34 0.34 0 0 Z " fill="#EDDECB" transform="translate(254,37)"/>
</svg>
