<?xml version="1.0" encoding="UTF-8"?>
<svg version="1.1" xmlns="http://www.w3.org/2000/svg" width="155" height="225">
<path d="M0 0 C51.15 0 102.3 0 155 0 C155 74.25 155 148.5 155 225 C103.85 225 52.7 225 0 225 C0 150.75 0 76.5 0 0 Z " fill="#F2D9C1" transform="translate(0,0)"/>
<path d="M0 0 C8.25 0 16.5 0 25 0 C25 1.98 25 3.96 25 6 C31.93 6 38.86 6 46 6 C46 6.99 46 7.98 46 9 C43.26752652 10.36623674 41.01801098 10.128426 38 10 C37.505 9.505 37.505 9.505 37 9 C35.14227838 9.08984301 33.28752015 9.24611861 31.4375 9.4375 C30.42558594 9.53933594 29.41367187 9.64117187 28.37109375 9.74609375 C27.19740234 9.87177734 27.19740234 9.87177734 26 10 C26.66 11.65 27.32 13.3 28 15 C27.34 15 26.68 15 26 15 C26.515625 15.928125 27.03125 16.85625 27.5625 17.8125 C29 21 29 21 28 24 C26.35 22.02 24.7 20.04 23 18 C23.33 18.598125 23.66 19.19625 24 19.8125 C25 22 25 22 25 25 C23.68 24.67 22.36 24.34 21 24 C22.32 24.99 23.64 25.98 25 27 C24.67 27.66 24.34 28.32 24 29 C22.68 29 21.36 29 20 29 C21.010625 29.37125 22.02125 29.7425 23.0625 30.125 C27.40100154 31.95779555 30.59573753 34.80268358 34 38 C33.01 38.33 32.02 38.66 31 39 C31.99 39.99 32.98 40.98 34 42 C33.67 42.33 33.34 42.66 33 43 C33.61875 43.2475 34.2375 43.495 34.875 43.75 C37.43979493 45.2587029 37.75629465 46.34581231 39 49 C40.7635205 52.02959137 42.60632151 55.01090551 44.4375 58 C44.92798828 58.80695312 45.41847656 59.61390625 45.92382812 60.4453125 C46.40142578 61.22648437 46.87902344 62.00765625 47.37109375 62.8125 C47.80349365 63.52019531 48.23589355 64.22789063 48.68139648 64.95703125 C49.99249729 67.0524049 49.99249729 67.0524049 51.63012695 69.10498047 C53.35377737 71.48939938 53.5239621 73.2125886 53.75 76.125 C53.82734375 76.99382812 53.9046875 77.86265625 53.984375 78.7578125 C54 81 54 81 53 83 C54.32 83.33 55.64 83.66 57 84 C57 85.32 57 86.64 57 88 C57.71027344 87.98839844 58.42054687 87.97679688 59.15234375 87.96484375 C60.07144531 87.95582031 60.99054687 87.94679688 61.9375 87.9375 C62.85402344 87.92589844 63.77054688 87.91429688 64.71484375 87.90234375 C67 88 67 88 68 89 C67.95828963 92.71222289 67.87271591 96.41480099 67.69726562 100.12304688 C67.57459329 105.67964947 68.4712227 108.4867701 72 113 C72 113.66 72 114.32 72 115 C73.485 115.495 73.485 115.495 75 116 C75.96484375 117.6796875 75.96484375 117.6796875 76.9375 119.875 C79.664788 125.1517094 83.5368293 128.56390676 87.98608398 132.36865234 C89.35380922 133.54537834 90.68077588 134.76914496 92 136 C92 136.66 92 137.32 92 138 C90.96101563 138.42410156 89.92203125 138.84820312 88.8515625 139.28515625 C75.04802386 144.31758295 75.04802386 144.31758295 65 154 C64.63151441 156.45848979 64.29902007 158.90808445 64 161.375 C63.00286533 169.50787966 63.00286533 169.50787966 62 173 C62.66 173 63.32 173 64 173 C64 174.32 64 175.64 64 177 C64.6290625 176.94457031 65.258125 176.88914063 65.90625 176.83203125 C70.41885916 176.79805076 73.03711509 177.05158247 76.33984375 180.3046875 C85.2629486 192.56772545 85.2629486 192.56772545 84.75 197.3125 C84 199 84 199 83 200 C55.61 200 28.22 200 0 200 C0 134 0 68 0 0 Z " fill="#EECEBD" transform="translate(0,0)"/>
<path d="M0 0 C4.06428092 0.75614529 5.34560905 3.24737367 7.6875 6.5 C9.28877074 9.70254147 9.09451607 11.95314564 8.6875 15.5 C3.92372151 24.19907376 -6.69208085 28.95361542 -15.73046875 31.8203125 C-23.17077451 33.23210443 -30.77548606 32.78382061 -38.3125 32.5 C-37.92578125 33.03625 -37.5390625 33.5725 -37.140625 34.125 C-32.88233318 40.53351838 -31.00071952 46.73718499 -29.46484375 54.1796875 C-27.96652482 59.79711373 -25.54858244 65.13340216 -23.3125 70.5 C-4.5025 70.83 14.3075 71.16 33.6875 71.5 C33.6875 79.75 33.6875 88 33.6875 96.5 C-17.4625 96.5 -68.6125 96.5 -121.3125 96.5 C-121.3125 88.25 -121.3125 80 -121.3125 71.5 C-93.9225 71.17 -66.5325 70.84 -38.3125 70.5 C-37.2142347 66.10693878 -37.28726474 65.81199835 -39.4375 62.1875 C-40.38701963 60.61962835 -41.3452682 59.05700728 -42.3125 57.5 C-42.85583984 56.47519531 -42.85583984 56.47519531 -43.41015625 55.4296875 C-45.21296749 52.34100015 -46.39810444 50.81511478 -49.8515625 49.625 C-52.34180889 49.11993594 -54.78402477 48.74057337 -57.3125 48.5 C-57.3125 47.18 -57.3125 45.86 -57.3125 44.5 C-57.9725 44.5 -58.6325 44.5 -59.3125 44.5 C-59.08386878 41.4345366 -58.83051398 38.37455968 -58.5625 35.3125 C-58.4696875 34.01602539 -58.4696875 34.01602539 -58.375 32.69335938 C-57.89565345 27.48046569 -57.34096628 24.17991346 -53.3125 20.5 C-51.04855738 18.99438164 -48.87737542 17.66157964 -46.5 16.375 C-45.90896484 16.04113281 -45.31792969 15.70726562 -44.70898438 15.36328125 C-38.39338238 11.85078723 -32.58577904 9.30814212 -25.3125 8.5 C-24.508125 8.314375 -23.70375 8.12875 -22.875 7.9375 C-20.3125 7.5 -20.3125 7.5 -16.5 7.75 C-11.50798053 7.84472523 -8.15701969 5.47814905 -4.3125 2.5 C-2.3125 0.5 -2.3125 0.5 0 0 Z " fill="#30332F" transform="translate(121.3125,128.5)"/>
<path d="M0 0 C0.66 0 1.32 0 2 0 C2.31453125 0.62648438 2.6290625 1.25296875 2.953125 1.8984375 C3.38109375 2.71570313 3.8090625 3.53296875 4.25 4.375 C4.87648438 5.59316406 4.87648438 5.59316406 5.515625 6.8359375 C7.16066276 9.2342294 8.29574712 10.01565195 11 11 C11.66 11 12.32 11 13 11 C13.66 9.68 14.32 8.36 15 7 C15.66 7.33 16.32 7.66 17 8 C16.76023437 8.59167969 16.52046875 9.18335938 16.2734375 9.79296875 C14.36629429 14.54217366 14.36629429 14.54217366 14.5625 19.5 C15.036875 20.325 15.51125 21.15 16 22 C16.649155 23.58197437 17.29470331 25.16543143 17.9375 26.75 C18.82695074 29.07921897 18.82695074 29.07921897 20 31 C20.99 31.33 21.98 31.66 23 32 C25 35 25 35 25 38 C25.99 38 26.98 38 28 38 C29.32 40.31 30.64 42.62 32 45 C32.70125 44.649375 33.4025 44.29875 34.125 43.9375 C37.7261647 42.76320716 39.3840691 42.84290211 43 44 C45.56380601 45.77295456 47.91642987 47.67601794 50 50 C50 50.66 50 51.32 50 52 C51.258125 51.773125 52.51625 51.54625 53.8125 51.3125 C57.69738844 50.8441092 57.69738844 50.8441092 60.0625 52.0625 C61.51009586 55.0541981 60.95761682 56.87178505 60 60 C58.0625 62.375 58.0625 62.375 56 64 C55.34 64 54.68 64 54 64 C54 61.36 54 58.72 54 56 C53.01 55.67 52.02 55.34 51 55 C51.66 55.99 52.32 56.98 53 58 C53 59.32 53 60.64 53 62 C50.13275314 61.42655063 49.1385485 61.1385485 47 59 C46.01 59 45.02 59 44 59 C44 60.32 44 61.64 44 63 C44.928125 63.0928125 44.928125 63.0928125 45.875 63.1875 C46.57625 63.455625 47.2775 63.72375 48 64 C48.309375 64.825 48.61875 65.65 48.9375 66.5 C49.4634375 67.7375 49.4634375 67.7375 50 69 C52.54775306 69.89386164 52.54775306 69.89386164 55 70 C55.48108275 71.41601714 55.95978141 72.83284437 56.4375 74.25 C56.70433594 75.03890625 56.97117188 75.8278125 57.24609375 76.640625 C57.91954708 78.74821988 58.49150595 80.84753973 59 83 C59.61875 83.103125 60.2375 83.20625 60.875 83.3125 C63 84 63 84 65 87 C68.06556598 87.73343428 68.06556598 87.73343428 71 88 C69.02 89.485 69.02 89.485 67 91 C69.64 91.66 72.28 92.32 75 93 C75 93.33 75 93.66 75 94 C71.535 94.495 71.535 94.495 68 95 C68 95.66 68 96.32 68 97 C69.98 97.495 69.98 97.495 72 98 C69 100 69 100 65 102 C67.97 102.66 70.94 103.32 74 104 C74 104.66 74 105.32 74 106 C77.63 106.99 81.26 107.98 85 109 C85 109.33 85 109.66 85 110 C81.97265625 109.95117188 81.97265625 109.95117188 78.9453125 109.90234375 C76.91814596 109.87350758 76.91814596 109.87350758 75 111 C75.66 111.33 76.32 111.66 77 112 C77 112.66 77 113.32 77 114 C78.65 114 80.3 114 82 114 C81.67 114.66 81.34 115.32 81 116 C81.66 116.66 82.32 117.32 83 118 C86.17280351 117.56237193 89.05667611 116.22638495 92 115 C85.50210325 121.85889101 85.50210325 121.85889101 80.16015625 122.16015625 C79.13792969 122.12792969 78.11570312 122.09570312 77.0625 122.0625 C73.18267256 121.9496858 69.78299858 122.10127658 66 123 C65.36384766 122.23816406 65.36384766 122.23816406 64.71484375 121.4609375 C61.763548 117.99721897 58.90068912 114.81152481 55.3125 112 C52.07002785 109.34969426 50.64340104 106.67633856 48.96875 102.88671875 C47.51893769 100.06309236 45.28510763 98.1648388 43 96 C41.24997258 93.11963686 40.7568018 91.02387417 40.8046875 87.671875 C40.81113281 86.87265625 40.81757812 86.0734375 40.82421875 85.25 C40.84097656 84.425 40.85773438 83.6 40.875 82.75 C40.88402344 81.90953125 40.89304688 81.0690625 40.90234375 80.203125 C40.92584183 78.13529396 40.96171092 76.06761005 41 74 C37.7 73.67 34.4 73.34 31 73 C30.67 71.68 30.34 70.36 30 69 C29.01 68.67 28.02 68.34 27 68 C27.04125 66.989375 27.0825 65.97875 27.125 64.9375 C26.8810148 57.25196621 24.30688205 52.68386272 19.87890625 46.62890625 C16.54395681 41.96275039 13.3712636 37.01998132 10.99609375 31.7890625 C9.56531606 29.21927355 7.72111077 28.85929814 5 28 C5.66 27.34 6.32 26.68 7 26 C6.01 25.01 5.02 24.02 4 23 C4.99 23 5.98 23 7 23 C5.61019248 21.86756424 4.21285323 20.74436881 2.8125 19.625 C2.03519531 18.99851562 1.25789063 18.37203125 0.45703125 17.7265625 C-1.96879382 16.02192866 -4.21309045 14.98012094 -7 14 C-7 13.67 -7 13.34 -7 13 C-5.35 13 -3.7 13 -2 13 C-3.65 11.02 -5.3 9.04 -7 7 C-5.02 7.66 -3.04 8.32 -1 9 C-2.98 5.535 -2.98 5.535 -5 2 C-1.63279613 3.39332574 -0.0140476 4.9789286 2 8 C1.34 5.36 0.68 2.72 0 0 Z " fill="#C0A998" transform="translate(26,15)"/>
<path d="M0 0 C26.73 0 53.46 0 81 0 C78.31342365 2.68657635 75.53335886 3.65976043 72 5 C70.68 5 69.36 5 68 5 C68 6.98 68 8.96 68 11 C68.66 11 69.32 11 70 11 C70 11.99 70 12.98 70 14 C71.27875 13.79375 72.5575 13.5875 73.875 13.375 C76.0546875 13.0234375 76.0546875 13.0234375 78 13 C78.99 13.99 78.99 13.99 80 15 C78.35 15.33 76.7 15.66 75 16 C88.86 16.33 102.72 16.66 117 17 C117 19.64 117 22.28 117 25 C78.39 25 39.78 25 0 25 C0 16.75 0 8.5 0 0 Z " fill="#425469" transform="translate(0,200)"/>
<path d="M0 0 C4.06428092 0.75614529 5.34560905 3.24737367 7.6875 6.5 C9.28877074 9.70254147 9.09451607 11.95314564 8.6875 15.5 C3.92372151 24.19907376 -6.69208085 28.95361542 -15.73046875 31.8203125 C-23.17077451 33.23210443 -30.77548606 32.78382061 -38.3125 32.5 C-37.9825 34.15 -37.6525 35.8 -37.3125 37.5 C-38.6325 36.84 -39.9525 36.18 -41.3125 35.5 C-41.38597656 36.87285156 -41.38597656 36.87285156 -41.4609375 38.2734375 C-41.53570312 39.46195313 -41.61046875 40.65046875 -41.6875 41.875 C-41.75710937 43.05835938 -41.82671875 44.24171875 -41.8984375 45.4609375 C-42.3125 48.5 -42.3125 48.5 -44.3125 50.5 C-46.84375 50.51171875 -46.84375 50.51171875 -49.8125 50.1875 C-50.7921875 50.08824219 -51.771875 49.98898438 -52.78125 49.88671875 C-55.3125 49.5 -55.3125 49.5 -57.3125 48.5 C-57.3125 47.18 -57.3125 45.86 -57.3125 44.5 C-57.9725 44.5 -58.6325 44.5 -59.3125 44.5 C-59.08386878 41.4345366 -58.83051398 38.37455968 -58.5625 35.3125 C-58.500625 34.44818359 -58.43875 33.58386719 -58.375 32.69335938 C-57.89565345 27.48046569 -57.34096628 24.17991346 -53.3125 20.5 C-51.04855738 18.99438164 -48.87737542 17.66157964 -46.5 16.375 C-45.61344727 15.87419922 -45.61344727 15.87419922 -44.70898438 15.36328125 C-38.39338238 11.85078723 -32.58577904 9.30814212 -25.3125 8.5 C-24.1059375 8.2215625 -24.1059375 8.2215625 -22.875 7.9375 C-20.3125 7.5 -20.3125 7.5 -16.5 7.75 C-11.50798053 7.84472523 -8.15701969 5.47814905 -4.3125 2.5 C-2.3125 0.5 -2.3125 0.5 0 0 Z " fill="#030503" transform="translate(121.3125,128.5)"/>
<path d="M0 0 C3.79979982 3.25697128 6.48005185 7.22568435 8 12 C7.46315789 15.53684211 7.46315789 15.53684211 6 17 C3.41360962 17.09507821 0.8540144 17.12556376 -1.73266602 17.11352539 C-2.94720459 17.11374443 -2.94720459 17.11374443 -4.1862793 17.1139679 C-6.87551508 17.11326854 -9.56468249 17.1054751 -12.25390625 17.09765625 C-14.11335716 17.09579215 -15.97280856 17.09436821 -17.83226013 17.09336853 C-22.73629096 17.08954271 -27.64029236 17.07971188 -32.54431152 17.06866455 C-37.54451092 17.05845181 -42.54471506 17.05387121 -47.54492188 17.04882812 C-57.36329421 17.03808967 -67.18164466 17.02101248 -77 17 C-77 12.05 -77 7.1 -77 2 C-51.59 2 -26.18 2 0 2 C0 1.34 0 0.68 0 0 Z " fill="#E2AF7A" transform="translate(77,183)"/>
<path d="M0 0 C0.66 0 1.32 0 2 0 C2.31453125 0.62648438 2.6290625 1.25296875 2.953125 1.8984375 C3.38109375 2.71570313 3.8090625 3.53296875 4.25 4.375 C4.87648438 5.59316406 4.87648438 5.59316406 5.515625 6.8359375 C7.16066276 9.2342294 8.29574712 10.01565195 11 11 C11.66 11 12.32 11 13 11 C13.66 9.68 14.32 8.36 15 7 C15.66 7.33 16.32 7.66 17 8 C16.76023437 8.59167969 16.52046875 9.18335938 16.2734375 9.79296875 C14.36629429 14.54217366 14.36629429 14.54217366 14.5625 19.5 C15.036875 20.325 15.51125 21.15 16 22 C16.649155 23.58197437 17.29470331 25.16543143 17.9375 26.75 C18.82695074 29.07921897 18.82695074 29.07921897 20 31 C20.99 31.33 21.98 31.66 23 32 C25 35 25 35 25 38 C25.99 38 26.98 38 28 38 C29.32 40.31 30.64 42.62 32 45 C32.70125 44.649375 33.4025 44.29875 34.125 43.9375 C37.7261647 42.76320716 39.3840691 42.84290211 43 44 C45.56380601 45.77295456 47.91642987 47.67601794 50 50 C50 50.66 50 51.32 50 52 C51.258125 51.773125 52.51625 51.54625 53.8125 51.3125 C57.69738844 50.8441092 57.69738844 50.8441092 60.0625 52.0625 C61.51009586 55.0541981 60.95761682 56.87178505 60 60 C58.0625 62.375 58.0625 62.375 56 64 C55.34 64 54.68 64 54 64 C54 61.36 54 58.72 54 56 C53.01 55.67 52.02 55.34 51 55 C51.66 55.99 52.32 56.98 53 58 C53 59.32 53 60.64 53 62 C50.13275314 61.42655063 49.1385485 61.1385485 47 59 C46.01 59 45.02 59 44 59 C43.505 59.99 43.505 59.99 43 61 C42.01 60.34 41.02 59.68 40 59 C40 58.34 40 57.68 40 57 C39.01 57.33 38.02 57.66 37 58 C36.01 56.35 35.02 54.7 34 53 C33.67 54.65 33.34 56.3 33 58 C33.33 57.67 33.66 57.34 34 57 C35.0625 58.875 35.0625 58.875 36 61 C35.505 61.99 35.505 61.99 35 63 C37.49825283 66.21203935 40.0702992 69.17493137 43 72 C42.505 73.485 42.505 73.485 42 75 C41.67 74.67 41.34 74.34 41 74 C39.31816052 73.76712992 37.6287584 73.58735834 35.9375 73.4375 C34.55884766 73.31181641 34.55884766 73.31181641 33.15234375 73.18359375 C32.44207031 73.12300781 31.73179688 73.06242187 31 73 C30.8453125 72.0409375 30.8453125 72.0409375 30.6875 71.0625 C30.460625 70.381875 30.23375 69.70125 30 69 C29.01 68.67 28.02 68.34 27 68 C27.04125 66.989375 27.0825 65.97875 27.125 64.9375 C26.8810148 57.25196621 24.30688205 52.68386272 19.87890625 46.62890625 C16.54395681 41.96275039 13.3712636 37.01998132 10.99609375 31.7890625 C9.56531606 29.21927355 7.72111077 28.85929814 5 28 C5.66 27.34 6.32 26.68 7 26 C6.01 25.01 5.02 24.02 4 23 C4.99 23 5.98 23 7 23 C5.61019248 21.86756424 4.21285323 20.74436881 2.8125 19.625 C2.03519531 18.99851562 1.25789063 18.37203125 0.45703125 17.7265625 C-1.96879382 16.02192866 -4.21309045 14.98012094 -7 14 C-7 13.67 -7 13.34 -7 13 C-5.35 13 -3.7 13 -2 13 C-3.65 11.02 -5.3 9.04 -7 7 C-5.02 7.66 -3.04 8.32 -1 9 C-2.98 5.535 -2.98 5.535 -5 2 C-1.63279613 3.39332574 -0.0140476 4.9789286 2 8 C1.34 5.36 0.68 2.72 0 0 Z " fill="#E1D0C2" transform="translate(26,15)"/>
<path d="M0 0 C20.79 0 41.58 0 63 0 C63 5.28 63 10.56 63 16 C44.19 16 25.38 16 6 16 C0 4 0 4 0 0 Z " fill="#E2B17E" transform="translate(92,184)"/>
<path d="M0 0 C31.68 0 63.36 0 96 0 C96 2.64 96 5.28 96 8 C63.66 8 31.32 8 -2 8 C-2 6.02 -2 4.04 -2 2 C-1.34 2 -0.68 2 0 2 C0 1.34 0 0.68 0 0 Z " fill="#9C752C" transform="translate(21,217)"/>
<path d="M0 0 C5.7265625 1.5859375 5.7265625 1.5859375 8.1875 5.3125 C10.19798362 9.86686085 11.05561704 14.60970527 12.078125 19.4609375 C13.5446153 25.0907689 15.87072039 33.87072039 20 38 C20.14115161 40.67058851 20.04247107 43.32432238 20 46 C16.80542649 47.88414642 14.48497371 48.23819737 10.796875 48.1953125 C9.32734375 48.18564453 9.32734375 48.18564453 7.828125 48.17578125 C6.30445313 48.15064453 6.30445313 48.15064453 4.75 48.125 C3.71875 48.11597656 2.6875 48.10695312 1.625 48.09765625 C-0.91690287 48.07412011 -3.4583328 48.04124023 -6 48 C-6 47.34 -6 46.68 -6 46 C-7.65 45.67 -9.3 45.34 -11 45 C-11.33 43.68 -11.66 42.36 -12 41 C-11.09636719 40.66226563 -10.19273438 40.32453125 -9.26171875 39.9765625 C-8.08222656 39.53054687 -6.90273437 39.08453125 -5.6875 38.625 C-4.51574219 38.18414062 -3.34398438 37.74328125 -2.13671875 37.2890625 C1.08553593 36.08510352 1.08553593 36.08510352 4 34 C3.42432075 30.02710243 2.20062263 27.31981135 0.0625 23.9375 C-1.77419557 21.00871517 -3.50825738 18.12040847 -5 15 C-4.01 14.34 -3.02 13.68 -2 13 C-1.19458793 9.89188713 -1.19458793 9.89188713 -0.8125 6.375 C-0.57466797 4.59222656 -0.57466797 4.59222656 -0.33203125 2.7734375 C-0.16767578 1.40058594 -0.16767578 1.40058594 0 0 Z " fill="#503913" transform="translate(80,164)"/>
<path d="M0 0 C18.81 0 37.62 0 57 0 C57 4.95 57 9.9 57 15 C37.2 15 17.4 15 -3 15 C-3 14.67 -3 14.34 -3 14 C-1.38931641 13.83564453 -1.38931641 13.83564453 0.25390625 13.66796875 C1.6901678 13.50838413 3.12636233 13.34819558 4.5625 13.1875 C5.26697266 13.11724609 5.97144531 13.04699219 6.69726562 12.97460938 C11.63187965 12.40610545 15.51848567 11.14947796 20 9 C19.67 8.34 19.34 7.68 19 7 C13.39 6.67 7.78 6.34 2 6 C1.34 4.02 0.68 2.04 0 0 Z " fill="#40505F" transform="translate(98,200)"/>
<path d="M0 0 C0.99 1.485 0.99 1.485 2 3 C-10.87 3.33 -23.74 3.66 -37 4 C-36.505 6.475 -36.505 6.475 -36 9 C-36.928125 9.5775 -37.85625 10.155 -38.8125 10.75 C-42.00478328 12.67525357 -42.00478328 12.67525357 -43.2434082 15.11621094 C-45 17 -45 17 -48.27807617 17.45410156 C-49.6165408 17.45347015 -50.95511238 17.43097731 -52.29296875 17.390625 C-53.35201164 17.38213531 -53.35201164 17.38213531 -54.43244934 17.37347412 C-56.68482626 17.35110411 -58.93560503 17.30091199 -61.1875 17.25 C-62.71547179 17.22993556 -64.24346856 17.21168468 -65.77148438 17.1953125 C-69.515432 17.15463952 -73.25593025 17.0763663 -77 17 C-77 12.05 -77 7.1 -77 2 C-51.59 2 -26.18 2 0 2 C0 1.34 0 0.68 0 0 Z " fill="#DDAE7F" transform="translate(77,183)"/>
<path d="M0 0 C10.56 0 21.12 0 32 0 C32 8.34482759 32 8.34482759 29 13 C24.06095895 17.56861297 20.11030068 18.35194833 13.57421875 18.28515625 C8.71599785 17.74699217 5.41939893 15.56133882 2.125 11.9375 C-0.38615936 7.61272554 0 5.42203281 0 0 Z " fill="#37B62C" transform="translate(90,0)"/>
<path d="M0 0 C10.89 0 21.78 0 33 0 C31.81443299 10.67010309 31.81443299 10.67010309 28 15 C22.84402224 18.77266665 17.1505876 18.81116445 11 18 C7.33368459 16.72787989 4.69614358 15.08961603 2.5625 11.75 C2.376875 11.1725 2.19125 10.595 2 10 C5.39620731 7.91002627 8.05163095 7.7367754 12 8 C12.33 8.33 12.66 8.66 13 9 C15.67058851 9.14115161 18.32432238 9.04247107 21 9 C21 8.01 21 7.02 21 6 C14.07 6 7.14 6 0 6 C0 4.02 0 2.04 0 0 Z " fill="#39B72D" transform="translate(25,0)"/>
<path d="M0 0 C0.64066406 0.34933594 1.28132813 0.69867188 1.94140625 1.05859375 C7.04932398 3.74576954 11.22309915 5.6232456 17 6 C17 6.66 17 7.32 17 8 C20.63 8.99 24.26 9.98 28 11 C28 11.33 28 11.66 28 12 C25.98177083 11.96744792 23.96354167 11.93489583 21.9453125 11.90234375 C19.91814596 11.87350758 19.91814596 11.87350758 18 13 C18.66 13.33 19.32 13.66 20 14 C20 14.66 20 15.32 20 16 C21.65 16 23.3 16 25 16 C24.67 16.66 24.34 17.32 24 18 C24.66 18.66 25.32 19.32 26 20 C29.17280351 19.56237193 32.05667611 18.22638495 35 17 C28.50210325 23.85889101 28.50210325 23.85889101 23.16015625 24.16015625 C22.13792969 24.12792969 21.11570312 24.09570312 20.0625 24.0625 C16.18267256 23.9496858 12.78299858 24.10127658 9 25 C8.55269531 24.46890625 8.10539062 23.9378125 7.64453125 23.390625 C6.73767578 22.33101562 6.73767578 22.33101562 5.8125 21.25 C5.17957031 20.50878906 4.54664062 19.76757812 3.89453125 19.00390625 C1.99206917 16.81318212 1.99206917 16.81318212 -1 15.1875 C-3 13 -3 13 -3.15234375 10.38671875 C-2.59663059 2.59663059 -2.59663059 2.59663059 0 0 Z " fill="#B49F8C" transform="translate(83,113)"/>
<path d="M0 0 C20.79 0 41.58 0 63 0 C63.495 2.475 63.495 2.475 64 5 C55.63994116 7.38858824 47.61264844 7.190218 39 7 C39 6.67 39 6.34 39 6 C38.03586182 6.00523682 37.07172363 6.01047363 36.07836914 6.01586914 C32.51327436 6.03392118 28.94818364 6.04543274 25.38305664 6.05493164 C23.83780234 6.0599714 22.29255284 6.0668032 20.74731445 6.07543945 C18.53074971 6.08752076 16.31424782 6.09323173 14.09765625 6.09765625 C13.05545677 6.10539818 13.05545677 6.10539818 11.99220276 6.11329651 C10.3277067 6.11349277 8.66334501 6.06189129 7 6 C6.67 5.67 6.34 5.34 6 5 C5.67 5.66 5.34 6.32 5 7 C2.67843403 7.40729228 0.3431213 7.74438677 -2 8 C-2 6.02 -2 4.04 -2 2 C-1.34 2 -0.68 2 0 2 C0 1.34 0 0.68 0 0 Z " fill="#B28D49" transform="translate(21,217)"/>
<path d="M0 0 C0.89589844 0.00322266 1.79179688 0.00644531 2.71484375 0.00976562 C4.12056641 0.02233398 4.12056641 0.02233398 5.5546875 0.03515625 C6.49957031 0.03966797 7.44445312 0.04417969 8.41796875 0.04882812 C10.75527137 0.06063268 13.09244811 0.07709866 15.4296875 0.09765625 C15.0996875 1.08765625 14.7696875 2.07765625 14.4296875 3.09765625 C11.55859375 4.484375 11.55859375 4.484375 7.9921875 5.78515625 C6.81785156 6.22214844 5.64351562 6.65914063 4.43359375 7.109375 C1.4296875 8.09765625 1.4296875 8.09765625 -0.5703125 8.09765625 C-0.5703125 8.75765625 -0.5703125 9.41765625 -0.5703125 10.09765625 C6.98007172 9.44415992 6.98007172 9.44415992 14.4296875 8.09765625 C17.4296875 12.84765625 17.4296875 12.84765625 17.4296875 15.09765625 C9.65209667 17.93200606 1.2905206 20.18087043 -6.6328125 16.78515625 C-9.58361433 14.21510304 -10.51887194 12.56919468 -10.9453125 8.66015625 C-10.5703125 5.09765625 -10.5703125 5.09765625 -8.6953125 2.72265625 C-5.55930281 0.32453119 -3.8872502 -0.02460285 0 0 Z " fill="#38B72D" transform="translate(70.5703125,-0.09765625)"/>
<path d="M0 0 C0 0.99 0 1.98 0 3 C0.66 3.33 1.32 3.66 2 4 C2 5.32 2 6.64 2 8 C-1.95489135 9.18371458 -5.57108755 8.99356814 -9.66015625 8.83984375 C-12.2742853 8.82421099 -12.2742853 8.82421099 -15 11 C-17.61409145 11.17145815 -20.11869674 11.23233432 -22.73046875 11.1953125 C-23.48088943 11.1924826 -24.23131012 11.18965271 -25.00447083 11.18673706 C-27.39897675 11.17555062 -29.79310731 11.15044928 -32.1875 11.125 C-33.81184355 11.11496819 -35.43619297 11.10584269 -37.06054688 11.09765625 C-41.040509 11.07561637 -45.02019088 11.0410974 -49 11 C-49 10.67 -49 10.34 -49 10 C-47.38931641 9.83564453 -47.38931641 9.83564453 -45.74609375 9.66796875 C-44.3098322 9.50838413 -42.87363767 9.34819558 -41.4375 9.1875 C-40.73302734 9.11724609 -40.02855469 9.04699219 -39.30273438 8.97460938 C-34.36812035 8.40610545 -30.48151433 7.14947796 -26 5 C-26.33 4.34 -26.66 3.68 -27 3 C-32.61 2.67 -38.22 2.34 -44 2 C-44 1.34 -44 0.68 -44 0 C-39.34124223 -0.16931862 -34.6822877 -0.32967117 -30.02294922 -0.48217773 C-28.44213828 -0.53512895 -26.86140352 -0.59041318 -25.28076172 -0.64819336 C-16.74868349 -0.95849981 -8.48871013 -1.14827241 0 0 Z " fill="#3E4D5B" transform="translate(144,204)"/>
<path d="M0 0 C1.125 1.75 1.125 1.75 1.125 4.75 C-24.285 4.75 -49.695 4.75 -75.875 4.75 C-75.875 3.43 -75.875 2.11 -75.875 0.75 C-75.03641449 0.73969254 -74.19782898 0.72938507 -73.33383179 0.71876526 C-65.4183487 0.62065494 -57.50293779 0.51812165 -49.58757591 0.41066074 C-45.51853416 0.35557337 -41.44948506 0.30217671 -37.38037109 0.25268555 C-33.45106648 0.20483193 -29.52184479 0.15248276 -25.59263992 0.09705925 C-24.09601541 0.07673046 -22.59936825 0.0580023 -21.10270309 0.04092598 C-19.00116575 0.01667078 -16.8997821 -0.01335288 -14.79833984 -0.04467773 C-13.60365082 -0.06022202 -12.40896179 -0.0757663 -11.17807007 -0.09178162 C-7.85693827 -0.18014417 -7.85693827 -0.18014417 -4.55947876 -0.84095764 C-1.875 -1.25 -1.875 -1.25 0 0 Z " fill="#EBD4C9" transform="translate(75.875,180.25)"/>
<path d="M0 0 C1.02814316 0.00222061 2.05628632 0.00444122 3.11558533 0.00672913 C4.85727745 0.00684242 4.85727745 0.00684242 6.63415527 0.00695801 C8.52943214 0.01469994 8.52943214 0.01469994 10.46299744 0.02259827 C12.39193092 0.02472069 12.39193092 0.02472069 14.35983276 0.02688599 C17.78427561 0.03071034 21.20867628 0.0405399 24.63310242 0.05158997 C28.12522308 0.06180587 31.61735053 0.06638399 35.10948181 0.07142639 C41.96561897 0.08216225 48.82172806 0.09923767 55.67784119 0.12025452 C55.67784119 2.10025452 55.67784119 4.08025452 55.67784119 6.12025452 C36.86784119 6.12025452 18.05784119 6.12025452 -1.32215881 6.12025452 C-1.98215881 4.47025452 -2.64215881 2.82025452 -3.32215881 1.12025452 C-2.32215881 0.12025452 -2.32215881 0.12025452 0 0 Z " fill="#D8A76D" transform="translate(99.32215881347656,193.87974548339844)"/>
<path d="M0 0 C0 2.97 0 5.94 0 9 C-11.88 9 -23.76 9 -36 9 C-36 7.02 -36 5.04 -36 3 C-35.34 3 -34.68 3 -34 3 C-34 2.34 -34 1.68 -34 1 C-22.66325922 -0.1778432 -11.38390597 -0.09674708 0 0 Z " fill="#B9904E" transform="translate(155,216)"/>
<path d="M0 0 C20.79 0 41.58 0 63 0 C63 3.3 63 6.6 63 10 C45.50473274 10.24679844 45.50473274 10.24679844 40 9 C39.505 8.01 39.505 8.01 39 7 C39.66 7 40.32 7 41 7 C41 6.34 41 5.68 41 5 C40.01 5 39.02 5 38 5 C38 4.34 38 3.68 38 3 C25.46 3 12.92 3 0 3 C0 2.01 0 1.02 0 0 Z " fill="#D4AC7E" transform="translate(92,184)"/>
<path d="M0 0 C0 1.65 0 3.3 0 5 C-21.12 5 -42.24 5 -64 5 C-64 3.68 -64 2.36 -64 1 C-21.1979874 -0.19388403 -21.1979874 -0.19388403 0 0 Z " fill="#E5CDBD" transform="translate(155,179)"/>
<path d="M0 0 C8.91 0 17.82 0 27 0 C27 5.94 27 11.88 27 18 C23.37 18 19.74 18 16 18 C16 13.71 16 9.42 16 5 C13.4321875 5.0928125 13.4321875 5.0928125 10.8125 5.1875 C6.4072024 5.19317693 3.41895162 5.06526697 0 2 C0 1.34 0 0.68 0 0 Z " fill="#39B72D" transform="translate(128,0)"/>
<path d="M0 0 C0.66 0 1.32 0 2 0 C2.31453125 0.62648438 2.6290625 1.25296875 2.953125 1.8984375 C3.38109375 2.71570313 3.8090625 3.53296875 4.25 4.375 C4.87648438 5.59316406 4.87648438 5.59316406 5.515625 6.8359375 C7.16066276 9.2342294 8.29574712 10.01565195 11 11 C11.66 11 12.32 11 13 11 C13.66 9.68 14.32 8.36 15 7 C15.66 7.33 16.32 7.66 17 8 C16.76023437 8.59167969 16.52046875 9.18335938 16.2734375 9.79296875 C14.2673916 14.69169277 14.2673916 14.69169277 14.875 19.75 C15.24625 20.4925 15.6175 21.235 16 22 C15.625 24.8125 15.625 24.8125 15 27 C13.68 27.33 12.36 27.66 11 28 C10.9175 27.38125 10.835 26.7625 10.75 26.125 C9.75356539 23.3017686 8.64653175 23.26920705 6 22 C4.66830021 21.02571467 3.35595301 20.02451723 2.0625 19 C-0.8484605 16.76917046 -3.46102751 15.1059289 -7 14 C-7 13.67 -7 13.34 -7 13 C-5.35 13 -3.7 13 -2 13 C-3.65 11.02 -5.3 9.04 -7 7 C-5.02 7.66 -3.04 8.32 -1 9 C-2.98 5.535 -2.98 5.535 -5 2 C-1.63279613 3.39332574 -0.0140476 4.9789286 2 8 C1.34 5.36 0.68 2.72 0 0 Z " fill="#86642F" transform="translate(26,15)"/>
<path d="M0 0 C1.66666667 1.66666667 3.33333333 3.33333333 5 5 C5.66 5 6.32 5 7 5 C9.125 6.875 9.125 6.875 11 9 C11 9.66 11 10.32 11 11 C11.61488281 11.08636719 12.22976562 11.17273438 12.86328125 11.26171875 C15 12 15 12 16.23046875 13.70703125 C16.54628906 14.40183594 16.86210938 15.09664062 17.1875 15.8125 C17.51105469 16.49957031 17.83460937 17.18664062 18.16796875 17.89453125 C18.96655063 19.91535582 19.52865864 21.88134438 20 24 C20.66 24 21.32 24 22 24 C22 26.31 22 28.62 22 31 C21.34 31 20.68 31 20 31 C20 31.66 20 32.32 20 33 C18.35 32.67 16.7 32.34 15 32 C14.938125 31.05125 14.87625 30.1025 14.8125 29.125 C14.4103125 27.578125 14.4103125 27.578125 14 26 C12.34795544 25.29788106 10.68076231 24.63028587 9 24 C8.86722656 23.24460937 8.73445313 22.48921875 8.59765625 21.7109375 C7.84289269 18.28736945 6.47181261 17.06090387 3.9375 14.6875 C3.20402344 13.99011719 2.47054687 13.29273437 1.71484375 12.57421875 C1.14894531 12.05472656 0.58304688 11.53523438 0 11 C0.66 10.34 1.32 9.68 2 9 C1.16666667 6.83333333 1.16666667 6.83333333 -1 6 C-0.67 4.02 -0.34 2.04 0 0 Z " fill="#B09D87" transform="translate(59,67)"/>
<path d="M0 0 C1.9375 0.625 1.9375 0.625 4 2 C4.625 5.0625 4.625 5.0625 5 8 C5.66 8.33 6.32 8.66 7 9 C8 10 8 10 9 13 C9.66 13 10.32 13 11 13 C10.67 14.98 10.34 16.96 10 19 C10.66 19 11.32 19 12 19 C12.33 18.01 12.66 17.02 13 16 C13.77772405 18.33317216 14.42415568 20.61435923 15 23 C15.33 22.34 15.66 21.68 16 21 C16.38133299 22.9914056 16.71325582 24.99279077 17 27 C16.67 27.33 16.34 27.66 16 28 C18.64 30.64 21.28 33.28 24 36 C23.67 36.99 23.34 37.98 23 39 C22.505 38.505 22.505 38.505 22 38 C20.31816052 37.76712992 18.6287584 37.58735834 16.9375 37.4375 C16.01839844 37.35371094 15.09929688 37.26992187 14.15234375 37.18359375 C13.08693359 37.09271484 13.08693359 37.09271484 12 37 C11.896875 36.360625 11.79375 35.72125 11.6875 35.0625 C11.460625 34.381875 11.23375 33.70125 11 33 C10.01 32.67 9.02 32.34 8 32 C8.04125 30.989375 8.0825 29.97875 8.125 28.9375 C7.94365305 23.22507116 6.8973629 18.98731971 3.4375 14.4375 C1.09141475 11.34871912 0.0902736 8.97203839 0 5 C0.66 4.01 1.32 3.02 2 2 C1.01 1.67 0.02 1.34 -1 1 C-0.67 0.67 -0.34 0.34 0 0 Z " fill="#A7957B" transform="translate(45,51)"/>
<path d="M0 0 C0.680625 -0.00515625 1.36125 -0.0103125 2.0625 -0.015625 C4 0.25 4 0.25 7 2.25 C7 3.57 7 4.89 7 6.25 C5.68 5.92 4.36 5.59 3 5.25 C3 4.26 3 3.27 3 2.25 C1.35 2.58 -0.3 2.91 -2 3.25 C-2 4.9 -2 6.55 -2 8.25 C-1.36191406 8.59933594 -0.72382812 8.94867188 -0.06640625 9.30859375 C0.75988281 9.76363281 1.58617188 10.21867187 2.4375 10.6875 C3.26121094 11.13996094 4.08492187 11.59242187 4.93359375 12.05859375 C7 13.25 7 13.25 8 14.25 C8.1875 16.6875 8.1875 16.6875 8 19.25 C6 21.25 6 21.25 3.0625 21.5 C0 21.25 0 21.25 -3 19.25 C-3.66 19.91 -4.32 20.57 -5 21.25 C-7.625 21.375 -7.625 21.375 -10 21.25 C-10.33 20.59 -10.66 19.93 -11 19.25 C-10.01 18.92 -9.02 18.59 -8 18.25 C-7.94392578 16.55230469 -7.94392578 16.55230469 -7.88671875 14.8203125 C-7.82106918 13.33850795 -7.75462149 11.85673861 -7.6875 10.375 C-7.66494141 9.62863281 -7.64238281 8.88226563 -7.61914062 8.11328125 C-7.52188055 6.150396 -7.26957706 4.19671678 -7 2.25 C-4.00261059 0.25174039 -3.36652492 -0.02550398 0 0 Z " fill="#FEBC48" transform="translate(105,71.75)"/>
<path d="M0 0 C0 6.93 0 13.86 0 21 C-1.65 20.67 -3.3 20.34 -5 20 C-5 19.34 -5 18.68 -5 18 C-5.66 18 -6.32 18 -7 18 C-7.33 18.99 -7.66 19.98 -8 21 C-9.65 21 -11.3 21 -13 21 C-13.33 20.34 -13.66 19.68 -14 19 C-13.01 18.67 -12.02 18.34 -11 18 C-10.94392578 16.42798828 -10.94392578 16.42798828 -10.88671875 14.82421875 C-10.82105485 13.44527695 -10.75460765 12.06637229 -10.6875 10.6875 C-10.66494141 9.99720703 -10.64238281 9.30691406 -10.61914062 8.59570312 C-10.47007146 5.79049245 -10.27704824 3.4963373 -8.89453125 1.01953125 C-7 0 -7 0 0 0 Z " fill="#FDBE54" transform="translate(155,72)"/>
<path d="M0 0 C0.99 1.485 0.99 1.485 2 3 C-10.87 3.33 -23.74 3.66 -37 4 C-36.505 5.98 -36.505 5.98 -36 8 C-40 8 -44 8 -48 8 C-48.33 7.01 -48.66 6.02 -49 5 C-50.28777344 5.24363281 -50.28777344 5.24363281 -51.6015625 5.4921875 C-59.68058993 6.69939849 -67.95163148 6.26248918 -76 5 C-76.33 5.99 -76.66 6.98 -77 8 C-77 6.02 -77 4.04 -77 2 C-51.59 2 -26.18 2 0 2 C0 1.34 0 0.68 0 0 Z " fill="#DAB08B" transform="translate(77,183)"/>
<path d="M0 0 C2.90277951 1.35463044 5.34550901 2.91439052 7.875 4.875 C11.17164936 7.39378827 14.52213381 9.73938698 18 12 C16.67294683 14.65410635 15.39310357 14.86639196 12.6875 16 C10.3557317 16.98666559 8.08226412 17.9561059 5.84765625 19.1484375 C3.50941788 20.22610339 2.37417037 19.84791799 0 19 C0.99 18.67 1.98 18.34 3 18 C2.34 17.34 1.68 16.68 1 16 C1.33 15.67 1.66 15.34 2 15 C0.68 14.67 -0.64 14.34 -2 14 C-2 13.34 -2 12.68 -2 12 C-3.32 11.34 -4.64 10.68 -6 10 C-2.7 9.67 0.6 9.34 4 9 C1.69 8.34 -0.62 7.68 -3 7 C-2.34 6.34 -1.68 5.68 -1 5 C-0.35232207 2.42938689 -0.35232207 2.42938689 0 0 Z " fill="#F6ECDE" transform="translate(105,115)"/>
<path d="M0 0 C17.16 0 34.32 0 52 0 C52 0.99 52 1.98 52 3 C40.64869525 3.85734054 29.38089989 4.12747067 18 4.0625 C16.4348973 4.0574649 14.86979299 4.05290562 13.3046875 4.04882812 C9.53641734 4.03800474 5.76822743 4.02085616 2 4 C1.34 2.68 0.68 1.36 0 0 Z " fill="#525F6F" transform="translate(98,200)"/>
<path d="M0 0 C2.875 1.5 2.875 1.5 5 3 C5 2.01 5 1.02 5 0 C7.97 0.495 7.97 0.495 11 1 C11 1.66 11 2.32 11 3 C10.01 3.495 10.01 3.495 9 4 C9 8.62 9 13.24 9 18 C9.66 18.33 10.32 18.66 11 19 C11 19.66 11 20.32 11 21 C7.7 21 4.4 21 1 21 C1 20.34 1 19.68 1 19 C1.99 18.67 2.98 18.34 4 18 C4.10807131 16.06372231 4.1856225 14.12572244 4.25 12.1875 C4.29640625 11.10855469 4.3428125 10.02960938 4.390625 8.91796875 C4.28566752 5.90740447 4.28566752 5.90740447 2.12109375 4.09765625 C0.06956909 2.78614957 0.06956909 2.78614957 -2.1875 3.25 C-3.98662264 3.85895096 -3.98662264 3.85895096 -5 5 C-5.07258946 7.18639453 -5.08373783 9.37500389 -5.0625 11.5625 C-5.05347656 12.76003906 -5.04445313 13.95757812 -5.03515625 15.19140625 C-5.02355469 16.11824219 -5.01195313 17.04507813 -5 18 C-4.34 18.33 -3.68 18.66 -3 19 C-3 19.66 -3 20.32 -3 21 C-5.97 21 -8.94 21 -12 21 C-12 20.34 -12 19.68 -12 19 C-11.34 18.67 -10.68 18.34 -10 18 C-9.70187429 14.83760318 -9.58411728 11.72027544 -9.52148438 8.546875 C-9.31856434 3.45902643 -9.31856434 3.45902643 -7.64453125 1.046875 C-5.01733949 -0.62554161 -3.04053755 -0.36486451 0 0 Z " fill="#FEBD4E" transform="translate(128,72)"/>
<path d="M0 0 C2.76258288 0.96690401 3.77123749 1.53843049 5.5 3.875 C5.79296875 6.79296875 5.79296875 6.79296875 5.6875 10.0625 C5.66042969 11.14917969 5.63335937 12.23585938 5.60546875 13.35546875 C5.57066406 14.18691406 5.53585938 15.01835938 5.5 15.875 C4.860625 15.99875 4.22125 16.1225 3.5625 16.25 C2.881875 16.45625 2.20125 16.6625 1.5 16.875 C1.17 17.535 0.84 18.195 0.5 18.875 C-2.02475462 20.13737731 -3.81200466 19.97356404 -6.625 19.9375 C-7.53507812 19.92847656 -8.44515625 19.91945313 -9.3828125 19.91015625 C-10.43082031 19.89275391 -10.43082031 19.89275391 -11.5 19.875 C-11.5 19.545 -11.5 19.215 -11.5 18.875 C-8.53 18.875 -5.56 18.875 -2.5 18.875 C-2.5 18.215 -2.5 17.555 -2.5 16.875 C-3.49 16.545 -4.48 16.215 -5.5 15.875 C-5.5810206 13.77146505 -5.63919907 11.66704048 -5.6875 9.5625 C-5.72230469 8.39074219 -5.75710937 7.21898438 -5.79296875 6.01171875 C-5.5 2.875 -5.5 2.875 -4.14453125 0.94921875 C-2.5 -0.125 -2.5 -0.125 0 0 Z " fill="#FCD6BD" transform="translate(127.5,74.125)"/>
<path d="M0 0 C13.53 0 27.06 0 41 0 C41 0.66 41 1.32 41 2 C42.32 2.33 43.64 2.66 45 3 C42.71448265 4.14275867 41.30953524 4.17180468 38.765625 4.25292969 C37.89131836 4.28255798 37.01701172 4.31218628 36.11621094 4.3427124 C34.69743652 4.38189789 34.69743652 4.38189789 33.25 4.421875 C31.7964209 4.46371918 31.7964209 4.46371918 30.31347656 4.50640869 C28.26244351 4.56284513 26.21133112 4.61645781 24.16015625 4.66748047 C21.01242588 4.74967553 17.86582914 4.85314613 14.71875 4.95703125 C12.7292008 5.00913277 10.73961766 5.05995712 8.75 5.109375 C7.33122559 5.16070587 7.33122559 5.16070587 5.88378906 5.21307373 C5.00948242 5.23009338 4.13517578 5.24711304 3.234375 5.26464844 C2.46319336 5.28605896 1.69201172 5.30746948 0.89746094 5.32952881 C0.27129883 5.2207843 -0.35486328 5.11203979 -1 5 C-1.66 4.01 -2.32 3.02 -3 2 C-2.01 2 -1.02 2 0 2 C0 1.34 0 0.68 0 0 Z " fill="#D1A062" transform="translate(29,218)"/>
<path d="M0 0 C0.99 0.33 1.98 0.66 3 1 C5.41827722 1.07239267 7.83854561 1.08378647 10.2578125 1.0625 C10.96146942 1.05871338 11.66512634 1.05492676 12.3901062 1.05102539 C14.63513318 1.0388162 16.88003134 1.02017733 19.125 1 C22.0859338 0.97351241 25.04680549 0.95347765 28.0078125 0.9375 C29.32410645 0.92589844 30.64040039 0.91429687 31.99658203 0.90234375 C35 1 35 1 36 2 C38.26902176 2.09980173 40.54128925 2.12967809 42.8125 2.125 C44.67841797 2.12886719 44.67841797 2.12886719 46.58203125 2.1328125 C49.35041936 2.02524085 51.36920177 1.67225629 54 1 C56.08234592 0.93256652 58.16668557 0.91485528 60.25 0.9375 C61.86648437 0.95103516 61.86648437 0.95103516 63.515625 0.96484375 C64.33546875 0.97644531 65.1553125 0.98804688 66 1 C66 1.99 66 2.98 66 4 C43.23 4 20.46 4 -3 4 C-2.01 3.67 -1.02 3.34 0 3 C0 2.01 0 1.02 0 0 Z " fill="#A97E5B" transform="translate(26,221)"/>
<path d="M0 0 C26.73 0 53.46 0 81 0 C77.29569387 3.70430613 72.81868763 3.26744333 67.875 3.5 C63.20279781 3.73834263 58.5760039 3.98914182 53.9375 4.625 C49.66750517 5.03166617 46.21332376 4.68945298 42 4 C42 3.01 42 2.02 42 1 C28.14 1 14.28 1 0 1 C0 0.67 0 0.34 0 0 Z " fill="#6F6E74" transform="translate(0,200)"/>
<path d="M0 0 C5.14798407 -0.10295968 9.91796611 0.07599384 15 1 C16.3303125 0.938125 16.3303125 0.938125 17.6875 0.875 C20 1 20 1 21.875 2.125 C23 4 23 4 22.9375 6.9375 C21.88944433 10.36114852 20.78969296 11.80206009 18 14 C17.34 14 16.68 14 16 14 C16 11.36 16 8.72 16 6 C15.01 5.67 14.02 5.34 13 5 C13.99 6.485 13.99 6.485 15 8 C15 9.32 15 10.64 15 12 C11.40942326 11.38517522 9.22666475 9.91446896 6.375 7.6875 C5.59898438 7.09324219 4.82296875 6.49898438 4.0234375 5.88671875 C2.01245914 4.0116173 1.03524923 2.52133281 0 0 Z " fill="#2D351F" transform="translate(64,65)"/>
<path d="M0 0 C2 2 2 2 2 6 C2.66 6 3.32 6 4 6 C4 6.66 4 7.32 4 8 C4.99 7.67 5.98 7.34 7 7 C7.33 8.65 7.66 10.3 8 12 C9.32 12 10.64 12 12 12 C12.12375 12.804375 12.2475 13.60875 12.375 14.4375 C12.58125 15.283125 12.7875 16.12875 13 17 C13.66 17.33 14.32 17.66 15 18 C15 18.99 15 19.98 15 21 C14.01 21 13.02 21 12 21 C12 21.99 12 22.98 12 24 C10.35 24 8.7 24 7 24 C6.54109375 23.04738281 6.0821875 22.09476563 5.609375 21.11328125 C4.98991026 19.84619428 4.37010019 18.5792761 3.75 17.3125 C3.44964844 16.68666016 3.14929688 16.06082031 2.83984375 15.41601562 C0.92748365 11.53026265 -1.25230962 8.37382337 -4 5 C-4 4.34 -4 3.68 -4 3 C-2 1.375 -2 1.375 0 0 Z " fill="#482C0A" transform="translate(79,176)"/>
<path d="M0 0 C0.33 0.99 0.66 1.98 1 3 C2.32 3 3.64 3 5 3 C4.67 4.32 4.34 5.64 4 7 C3.34 7 2.68 7 2 7 C1.34 8.98 0.68 10.96 0 13 C-2.45862401 13.05383848 -4.9160755 13.09359038 -7.375 13.125 C-8.42300781 13.15013672 -8.42300781 13.15013672 -9.4921875 13.17578125 C-11.32897486 13.19344267 -13.16601963 13.10303261 -15 13 C-15.66 12.34 -16.32 11.68 -17 11 C-17 10.01 -17 9.02 -17 8 C-16.10796875 7.67386719 -15.2159375 7.34773437 -14.296875 7.01171875 C-12.54117188 6.35623047 -12.54117188 6.35623047 -10.75 5.6875 C-9.58984375 5.25824219 -8.4296875 4.82898438 -7.234375 4.38671875 C-4.4058701 3.17401435 -2.33463456 1.97057026 0 0 Z " fill="#5C4127" transform="translate(85,197)"/>
<path d="M0 0 C0 1.32 0 2.64 0 4 C-11.88 4 -23.76 4 -36 4 C-36 2.68 -36 1.36 -36 0 C-31.67692456 -0.16825313 -27.35365008 -0.32874187 -23.0300293 -0.48217773 C-21.56055024 -0.53540449 -20.09114516 -0.59071749 -18.62182617 -0.64819336 C-16.50455674 -0.73064713 -14.38713092 -0.80548711 -12.26953125 -0.87890625 C-10.36071167 -0.94960327 -10.36071167 -0.94960327 -8.41333008 -1.02172852 C-5.42550759 -1.00270869 -2.88808168 -0.71659169 0 0 Z " fill="#C09650" transform="translate(155,221)"/>
<path d="M0 0 C1.5 1 1.5 1 3 3 C3.27345479 5.71846235 3.13491285 8.25677199 3 11 C-0.19457351 12.88414642 -2.51502629 13.23819737 -6.203125 13.1953125 C-7.1828125 13.18886719 -8.1625 13.18242187 -9.171875 13.17578125 C-10.18765625 13.15902344 -11.2034375 13.14226562 -12.25 13.125 C-13.28125 13.11597656 -14.3125 13.10695312 -15.375 13.09765625 C-17.91690287 13.07412011 -20.4583328 13.04124023 -23 13 C-23 12.34 -23 11.68 -23 11 C-19.37 11 -15.74 11 -12 11 C-11.67 9.68 -11.34 8.36 -11 7 C-10.67 6.34 -10.34 5.68 -10 5 C-7.03 5 -4.06 5 -1 5 C-0.67 3.35 -0.34 1.7 0 0 Z " fill="#593C20" transform="translate(97,199)"/>
<path d="M0 0 C1.73504856 0.03311161 3.46975671 0.09256933 5.203125 0.17578125 C6.53537109 0.20961914 6.53537109 0.20961914 7.89453125 0.24414062 C10.08245312 0.30295573 12.26692171 0.38506857 14.453125 0.48828125 C14.783125 1.80828125 15.113125 3.12828125 15.453125 4.48828125 C14.380625 4.57078125 13.308125 4.65328125 12.203125 4.73828125 C8.42033367 5.10224257 8.42033367 5.10224257 6.60546875 7.57421875 C4.453125 9.48828125 4.453125 9.48828125 1.47265625 9.51171875 C0.41433594 9.29773438 -0.64398438 9.08375 -1.734375 8.86328125 C-2.80042969 8.66476563 -3.86648437 8.46625 -4.96484375 8.26171875 C-5.81691406 8.00648438 -6.66898438 7.75125 -7.546875 7.48828125 C-7.876875 6.82828125 -8.206875 6.16828125 -8.546875 5.48828125 C-6.25431042 1.39901578 -4.57220703 0.14207941 0 0 Z " fill="#E8B384" transform="translate(65.546875,185.51171875)"/>
<path d="M0 0 C4.2290362 -0.08725659 8.45784012 -0.1404789 12.6875 -0.1875 C13.88568359 -0.21263672 15.08386719 -0.23777344 16.31835938 -0.26367188 C17.47529297 -0.27333984 18.63222656 -0.28300781 19.82421875 -0.29296875 C20.88729248 -0.3086792 21.95036621 -0.32438965 23.0456543 -0.34057617 C26.38703212 0.04461696 28.26958732 1.08628311 31 3 C30 6 30 6 26.8125 7.625 C16.85001384 11.02291939 5.38882549 10.15531467 -5 10 C-5 9.67 -5 9.34 -5 9 C-3.38931641 8.83564453 -3.38931641 8.83564453 -1.74609375 8.66796875 C-0.3098322 8.50838413 1.12636233 8.34819558 2.5625 8.1875 C3.26697266 8.11724609 3.97144531 8.04699219 4.69726562 7.97460938 C9.63187965 7.40610545 13.51848567 6.14947796 18 4 C17.67 3.34 17.34 2.68 17 2 C11.39 1.67 5.78 1.34 0 1 C0 0.67 0 0.34 0 0 Z " fill="#37454E" transform="translate(100,205)"/>
<path d="M0 0 C5.61 0 11.22 0 17 0 C17 2.64 17 5.28 17 8 C11.39 8 5.78 8 0 8 C0 5.36 0 2.72 0 0 Z " fill="#C59B5E" transform="translate(0,217)"/>
<path d="M0 0 C2.00720923 0.28674418 4.0085944 0.61866701 6 1 C6 1.33 6 1.66 6 2 C2.4440462 2.80398083 -0.88201612 3.14560682 -4.5246582 3.20532227 C-6.14577263 3.2352401 -6.14577263 3.2352401 -7.79963684 3.26576233 C-9.53270332 3.29083107 -9.53270332 3.29083107 -11.30078125 3.31640625 C-12.49229294 3.33718735 -13.68380463 3.35796844 -14.91142273 3.37937927 C-18.71172403 3.44468179 -22.51209352 3.50367018 -26.3125 3.5625 C-28.89128305 3.60570356 -31.47005924 3.64931844 -34.04882812 3.69335938 C-40.36581366 3.80034345 -46.6828668 3.90214555 -53 4 C-53 4.66 -53 5.32 -53 6 C-53.66 6 -54.32 6 -55 6 C-55 7.98 -55 9.96 -55 12 C-55.66 12 -56.32 12 -57 12 C-57 9.36 -57 6.72 -57 4 C-62.61 4 -68.22 4 -74 4 C-74 3.34 -74 2.68 -74 2 C-73.08767105 1.98969254 -72.1753421 1.97938507 -71.23536682 1.96876526 C-62.65609996 1.87096739 -54.07690493 1.76847872 -45.49775791 1.66066074 C-41.086666 1.60539168 -36.67556751 1.55196546 -32.2644043 1.50268555 C-28.01093013 1.45510055 -23.75753911 1.40276014 -19.50416374 1.34705925 C-17.87780757 1.32660902 -16.25142858 1.30790044 -14.62503242 1.29092598 C-12.35483637 1.26694073 -10.08479887 1.23687865 -7.81469727 1.20532227 C-6.52008072 1.18977798 -5.22546417 1.1742337 -3.89161682 1.15821838 C-1.10593983 1.32841258 -1.10593983 1.32841258 0 0 Z " fill="#39465D" transform="translate(74,213)"/>
<path d="M0 0 C2.79224073 -0.08071788 5.58216566 -0.14035408 8.375 -0.1875 C9.1690625 -0.21263672 9.963125 -0.23777344 10.78125 -0.26367188 C12.85586148 -0.29004405 14.93100865 -0.15486462 17 0 C17.66 0.99 18.32 1.98 19 3 C15.01499541 6.98500459 7.92104485 7.78247538 2.4296875 8.19140625 C0.61867035 8.1881607 -1.19198635 8.10430848 -3 8 C-2.5359375 7.13375 -2.5359375 7.13375 -2.0625 6.25 C-1.07128616 4.15095893 -0.52451199 2.24925862 0 0 Z " fill="#2F3B3F" transform="translate(100,206)"/>
<path d="M0 0 C2.97 0.495 2.97 0.495 6 1 C6.33 2.32 6.66 3.64 7 5 C8.65 4.34 10.3 3.68 12 3 C12.26554687 3.56589844 12.53109375 4.13179687 12.8046875 4.71484375 C13.15789063 5.44832031 13.51109375 6.18179688 13.875 6.9375 C14.39707031 8.03384766 14.39707031 8.03384766 14.9296875 9.15234375 C15.8684977 11.16332459 15.8684977 11.16332459 18 12 C17.67 12.66 17.34 13.32 17 14 C16.34 14 15.68 14 15 14 C15.66 14.33 16.32 14.66 17 15 C16.67 17.64 16.34 20.28 16 23 C13.87014533 20.20058024 11.83981556 17.35510301 9.875 14.4375 C9.35679688 13.67308594 8.83859375 12.90867187 8.3046875 12.12109375 C7 10 7 10 6 7 C3.49552484 5.78130071 3.49552484 5.78130071 1 5 C1.66 4.34 2.32 3.68 3 3 C2.01 2.01 1.02 1.02 0 0 Z " fill="#AA9A84" transform="translate(30,38)"/>
<path d="M0 0 C1.485 0.99 1.485 0.99 3 2 C3 2.66 3 3.32 3 4 C4.175625 4.4640625 4.175625 4.4640625 5.375 4.9375 C8 6 8 6 10 7 C11.53668865 7.22467831 13.07968054 7.40796805 14.625 7.5625 C15.85089844 7.68818359 15.85089844 7.68818359 17.1015625 7.81640625 C17.72804688 7.87699219 18.35453125 7.93757813 19 8 C18.09674384 9.32176485 17.17682097 10.63215066 16.25 11.9375 C15.73953125 12.66839844 15.2290625 13.39929688 14.703125 14.15234375 C12.80822085 16.20805399 11.72574271 16.62669176 9 17 C4.83162147 12.4842566 0 6.45372869 0 0 Z " fill="#F3E5CA" transform="translate(26,10)"/>
<path d="M0 0 C2.97 0.99 5.94 1.98 9 3 C9.33 5.31 9.66 7.62 10 10 C10.66 10 11.32 10 12 10 C13.47265625 11.609375 13.47265625 11.609375 15.0625 13.75 C15.85333984 14.79414062 15.85333984 14.79414062 16.66015625 15.859375 C17.96931568 17.95097666 18.56033954 19.59000935 19 22 C17.35 22 15.7 22 14 22 C14.33 20.68 14.66 19.36 15 18 C13.329375 17.690625 13.329375 17.690625 11.625 17.375 C8 16 8 16 6.5 13 C6 10 6 10 7 8 C6.34 8 5.68 8 5 8 C5 7.34 5 6.68 5 6 C4.01 5.67 3.02 5.34 2 5 C0.8125 2.4375 0.8125 2.4375 0 0 Z " fill="#F9E6D5" transform="translate(79,80)"/>
<path d="M0 0 C1.98 0.495 1.98 0.495 4 1 C4 1.66 4 2.32 4 3 C4.58265625 3.25523438 5.1653125 3.51046875 5.765625 3.7734375 C8.21388223 5.11741087 9.81743248 6.61810296 11.75 8.625 C12.36359375 9.25664063 12.9771875 9.88828125 13.609375 10.5390625 C14.29773438 11.26222656 14.29773438 11.26222656 15 12 C14.67 12.99 14.34 13.98 14 15 C13.67 14.67 13.34 14.34 13 14 C11.31816052 13.76712992 9.6287584 13.58735834 7.9375 13.4375 C7.01839844 13.35371094 6.09929688 13.26992187 5.15234375 13.18359375 C4.44207031 13.12300781 3.73179688 13.06242187 3 13 C2.896875 12.360625 2.79375 11.72125 2.6875 11.0625 C2.460625 10.381875 2.23375 9.70125 2 9 C1.01 8.67 0.02 8.34 -1 8 C-0.67 5.36 -0.34 2.72 0 0 Z " fill="#7C572A" transform="translate(54,75)"/>
<path d="M0 0 C0.66 0 1.32 0 2 0 C4.70120574 4.61455981 5.10168885 7.71218001 5 13 C5.66 13.66 6.32 14.32 7 15 C7 15.99 7 16.98 7 18 C2.16371695 17.00956295 -2.47618873 16.04301154 -7 14 C-7 13.67 -7 13.34 -7 13 C-5.35 13 -3.7 13 -2 13 C-3.65 11.02 -5.3 9.04 -7 7 C-5.02 7.66 -3.04 8.32 -1 9 C-2.98 5.535 -2.98 5.535 -5 2 C-1.63279613 3.39332574 -0.0140476 4.9789286 2 8 C1.34 5.36 0.68 2.72 0 0 Z " fill="#7A5524" transform="translate(26,15)"/>
<path d="M0 0 C1.98 0 3.96 0 6 0 C5.34 0.66 4.68 1.32 4 2 C4.99 2.33 5.98 2.66 7 3 C7 3.66 7 4.32 7 5 C9.94729537 6.15811388 9.94729537 6.15811388 13 6 C12.34 7.65 11.68 9.3 11 11 C11.66 11.33 12.32 11.66 13 12 C11.02 12.33 9.04 12.66 7 13 C6.67 12.34 6.34 11.68 6 11 C4.11235097 10.31527335 4.11235097 10.31527335 1.9375 9.875 C0.83728516 9.62363281 0.83728516 9.62363281 -0.28515625 9.3671875 C-0.85105469 9.24601562 -1.41695313 9.12484375 -2 9 C-2 8.01 -2 7.02 -2 6 C-0.68 5.67 0.64 5.34 2 5 C0.02 4.34 -1.96 3.68 -4 3 C-3.01 2.67 -2.02 2.34 -1 2 C-0.34 2.33 0.32 2.66 1 3 C0.67 2.01 0.34 1.02 0 0 Z " fill="#E8CCBF" transform="translate(93,109)"/>
<path d="M0 0 C5.94 0 11.88 0 18 0 C18 2.31 18 4.62 18 7 C16.02 7 14.04 7 12 7 C11.67 6.34 11.34 5.68 11 5 C8.41394668 4.5316735 8.41394668 4.5316735 5.4375 4.375 C4.42558594 4.30023438 3.41367188 4.22546875 2.37109375 4.1484375 C1.19740234 4.07496094 1.19740234 4.07496094 0 4 C0 2.68 0 1.36 0 0 Z " fill="#C49855" transform="translate(98,218)"/>
<path d="M0 0 C1.46015291 0.28241641 2.91809793 0.57626614 4.375 0.875 C5.18710938 1.03742188 5.99921875 1.19984375 6.8359375 1.3671875 C9 2 9 2 11 4 C10.01 4.33 9.02 4.66 8 5 C8 5.66 8 6.32 8 7 C10.97 7 13.94 7 17 7 C17.66 8.65 18.32 10.3 19 12 C15.91208695 12.89626501 13.20886241 13.39281782 10 13 C7.75041077 11.19604369 6.20892411 9.30203412 4.5078125 6.98046875 C2.98116371 4.75199507 2.98116371 4.75199507 0 3 C0 2.01 0 1.02 0 0 Z " fill="#7F7E73" transform="translate(82,125)"/>
<path d="M0 0 C8.3719487 16.15432354 8.3719487 16.15432354 6 24 C1.25 25.125 1.25 25.125 -1 24 C-0.01 20.535 -0.01 20.535 1 17 C1.99 17 2.98 17 4 17 C3.01 14.03 2.02 11.06 1 8 C-0.32 8 -1.64 8 -3 8 C-3 7.01 -3 6.02 -3 5 C-2.34 4.67 -1.68 4.34 -1 4 C-0.34786708 1.97536745 -0.34786708 1.97536745 0 0 Z " fill="#563C17" transform="translate(90,180)"/>
<path d="M0 0 C6.75 0.75 6.75 0.75 9 3 C7.35 3.33 5.7 3.66 4 4 C4.66 4.66 5.32 5.32 6 6 C5.01 6.33 4.02 6.66 3 7 C2.67 7.66 2.34 8.32 2 9 C2.66 9.33 3.32 9.66 4 10 C1.64561267 11.42944945 0.51967567 12.08661261 -2.25 11.625 C-2.8275 11.41875 -3.405 11.2125 -4 11 C-3.01 10.67 -2.02 10.34 -1 10 C-1.66 9.34 -2.32 8.68 -3 8 C-2.67 7.67 -2.34 7.34 -2 7 C-3.32 6.67 -4.64 6.34 -6 6 C-6 5.34 -6 4.68 -6 4 C-7.32 3.34 -8.64 2.68 -10 2 C-6.7 1.67 -3.4 1.34 0 1 C0 0.67 0 0.34 0 0 Z " fill="#F1D8CD" transform="translate(109,123)"/>
<path d="M0 0 C1.02486226 2.04972452 2.03441521 4.08030215 2.9375 6.1875 C3.93434552 8.34395107 3.93434552 8.34395107 7 9 C9 12 9 12 9 15 C9.66 15 10.32 15 11 15 C11 15.99 11 16.98 11 18 C10.34 18 9.68 18 9 18 C9 18.66 9 19.32 9 20 C9.99 19.67 10.98 19.34 12 19 C12.66666667 20.33333333 13.33333333 21.66666667 14 23 C13.67 23.66 13.34 24.32 13 25 C13.99 24.67 14.98 24.34 16 24 C16.125 29.75 16.125 29.75 15 32 C14.34 32 13.68 32 13 32 C13 30.35 13 28.7 13 27 C12.01 27 11.02 27 10 27 C10.33 26.01 10.66 25.02 11 24 C10.01 23.67 9.02 23.34 8 23 C8 22.34 8 21.68 8 21 C7.76195188 19.47369144 7.48670906 17.95300607 7.1875 16.4375 C6.96126953 15.22900391 6.96126953 15.22900391 6.73046875 13.99609375 C6.48941406 13.33738281 6.24835937 12.67867187 6 12 C5.01 11.67 4.02 11.34 3 11 C0.68059158 7.22022332 -0.39168975 4.43915044 0 0 Z " fill="#B5A48E" transform="translate(42,38)"/>
<path d="M0 0 C1.64703306 0.81006526 3.29259506 1.6231221 4.9375 2.4375 C5.85402344 2.88996094 6.77054688 3.34242187 7.71484375 3.80859375 C10 5 10 5 11 6 C11.1875 8.4375 11.1875 8.4375 11 11 C9 13 9 13 6.0625 13.25 C3 13 3 13 0 11 C-0.66 11.66 -1.32 12.32 -2 13 C-4.625 13.125 -4.625 13.125 -7 13 C-7.33 12.34 -7.66 11.68 -8 11 C-7.21625 10.9175 -6.4325 10.835 -5.625 10.75 C-2.85250896 10.27193661 -2.85250896 10.27193661 -1.6875 7.9375 C-1.460625 7.298125 -1.23375 6.65875 -1 6 C-0.1028125 6.99 -0.1028125 6.99 0.8125 8 C2.87501834 10.3373846 2.87501834 10.3373846 6 10 C5.96906827 7.58414426 5.96906827 7.58414426 5 5 C2.03292954 3.14083176 2.03292954 3.14083176 -1 2 C-0.67 1.34 -0.34 0.68 0 0 Z " fill="#FEBF54" transform="translate(102,80)"/>
<path d="M0 0 C2.0625 0.4375 2.0625 0.4375 4 1 C4 3.31 4 5.62 4 8 C4.66 8 5.32 8 6 8 C7.32 10.64 8.64 13.28 10 16 C7.69 15.67 5.38 15.34 3 15 C3 14.34 3 13.68 3 13 C2.34 13 1.68 13 1 13 C-0.58593284 8.8369263 -1.31121486 5.46074638 -1 1 C-0.67 0.67 -0.34 0.34 0 0 Z " fill="#58360F" transform="translate(80,169)"/>
<path d="M0 0 C2.51072327 1.82368431 4.77136481 3.84389436 7 6 C2.67651662 7.44116113 -1.48166202 7.55462414 -6 7 C-8.625 5.125 -8.625 5.125 -10 3 C-10 2.34 -10 1.68 -10 1 C-6.38638266 -1.3627498 -4.08501782 -1.28157422 0 0 Z " fill="#9B9E88" transform="translate(69,59)"/>
<path d="M0 0 C0.99 0.495 0.99 0.495 2 1 C3.53668865 1.22467831 5.07968054 1.40796805 6.625 1.5625 C7.44226563 1.64628906 8.25953125 1.73007813 9.1015625 1.81640625 C9.72804688 1.87699219 10.35453125 1.93757812 11 2 C11 3.32 11 4.64 11 6 C17.93 6 24.86 6 32 6 C32 6.33 32 6.66 32 7 C21.44 7 10.88 7 0 7 C0 4.69 0 2.38 0 0 Z " fill="#D6A776" transform="translate(0,193)"/>
<path d="M0 0 C0.99 0.33 1.98 0.66 3 1 C3 1.66 3 2.32 3 3 C3.66 3 4.32 3 5 3 C5.33 5.64 5.66 8.28 6 11 C7.134375 11.12375 8.26875 11.2475 9.4375 11.375 C10.613125 11.58125 11.78875 11.7875 13 12 C13.33 12.66 13.66 13.32 14 14 C13.34 14 12.68 14 12 14 C12 14.99 12 15.98 12 17 C13.65 17 15.3 17 17 17 C17.33 17.66 17.66 18.32 18 19 C14.37 18.34 10.74 17.68 7 17 C7 16.01 7 15.02 7 14 C6.01 13.67 5.02 13.34 4 13 C0.74130704 8.86396663 0.43134828 5.08990966 0 0 Z " fill="#E4C6B4" transform="translate(81,85)"/>
<path d="M0 0 C3.3 0 6.6 0 10 0 C10.35880399 5.3820598 10.35880399 5.3820598 8.875 7.9375 C7 9 7 9 3.875 8.8125 C2.92625 8.544375 1.9775 8.27625 1 8 C-0.35439668 5.29120665 -0.06501451 2.99066732 0 0 Z " fill="#F8ECD1" transform="translate(101,0)"/>
<path d="M0 0 C1.07765625 0.00902344 2.1553125 0.01804688 3.265625 0.02734375 C4.08546875 0.03894531 4.9053125 0.05054688 5.75 0.0625 C5.75 1.0525 5.75 2.0425 5.75 3.0625 C-6.13 3.0625 -18.01 3.0625 -30.25 3.0625 C-30.25 2.7325 -30.25 2.4025 -30.25 2.0625 C-25.80180279 1.19190483 -21.65262504 0.9842689 -17.125 1.0625 C-11.26050759 1.16339449 -5.84591599 -0.06354257 0 0 Z " fill="#87595F" transform="translate(86.25,221.9375)"/>
<path d="M0 0 C1.77049689 -0.05410687 3.54146849 -0.09284119 5.3125 -0.125 C6.29863281 -0.14820313 7.28476563 -0.17140625 8.30078125 -0.1953125 C11 0 11 0 14 2 C14 2.66 14 3.32 14 4 C6.09388645 6.63537118 -1.76865163 6.17981101 -10 6 C-9.67 5.34 -9.34 4.68 -9 4 C-6.49609375 3.5859375 -6.49609375 3.5859375 -3.4375 3.375 C-2.42558594 3.30023438 -1.41367188 3.22546875 -0.37109375 3.1484375 C0.41136719 3.09945312 1.19382812 3.05046875 2 3 C1.34 2.67 0.68 2.34 0 2 C0 1.34 0 0.68 0 0 Z " fill="#C49753" transform="translate(70,218)"/>
<path d="M0 0 C12.21 0 24.42 0 37 0 C35.68 0.99 34.36 1.98 33 3 C30.994845 2.69922675 28.99601306 2.3564309 27 2 C23.9205518 2.18988555 20.870611 2.50049139 17.8046875 2.84375 C15.16837233 2.99061993 13.50082972 2.70653523 11 2 C9.46120419 1.88708495 7.91787911 1.82540033 6.375 1.8125 C5.59898437 1.79832031 4.82296875 1.78414062 4.0234375 1.76953125 C1.77163007 1.81334164 1.77163007 1.81334164 0 4 C0 2.68 0 1.36 0 0 Z " fill="#495C76" transform="translate(0,201)"/>
<path d="M0 0 C5.14798407 -0.10295968 9.91796611 0.07599384 15 1 C16.3303125 0.938125 16.3303125 0.938125 17.6875 0.875 C20 1 20 1 21.875 2.125 C23.55290631 4.92151052 22.74875648 6.93690532 22 10 C21.67 8.68 21.34 7.36 21 6 C19.66961551 5.6550855 18.33542939 5.32483418 17 5 C16.21625 4.773125 15.4325 4.54625 14.625 4.3125 C11.30370932 3.91710825 9.07730213 4.78339218 6 6 C6 5.34 6 4.68 6 4 C4.02 3.34 2.04 2.68 0 2 C0 1.34 0 0.68 0 0 Z " fill="#546143" transform="translate(64,65)"/>
<path d="M0 0 C0.66 0 1.32 0 2 0 C2.2361959 6.40353322 1.823321 11.84629161 0 18 C0.66 18 1.32 18 2 18 C2 19.32 2 20.64 2 22 C5.3 22.33 8.6 22.66 12 23 C12 23.33 12 23.66 12 24 C10.23186888 24.24915939 8.46025018 24.47366632 6.6875 24.6875 C5.70136719 24.81511719 4.71523437 24.94273437 3.69921875 25.07421875 C1 25 1 25 -0.875 23.71875 C-2 22 -2 22 -1.6875 18.8125 C-1.460625 17.884375 -1.23375 16.95625 -1 16 C-1.66 15.67 -2.32 15.34 -3 15 C-2.52433594 14.18789062 -2.52433594 14.18789062 -2.0390625 13.359375 C-0.81692026 10.5842851 -0.59056564 8.26791902 -0.375 5.25 C-0.30023438 4.26515625 -0.22546875 3.2803125 -0.1484375 2.265625 C-0.09945312 1.51796875 -0.05046875 0.7703125 0 0 Z " fill="#CAB09C" transform="translate(62,155)"/>
<path d="M0 0 C0.598125 0.309375 1.19625 0.61875 1.8125 0.9375 C4.76923392 2.3736279 7.83301604 3.14735047 11 4 C11 4.33 11 4.66 11 5 C9.80375 4.979375 8.6075 4.95875 7.375 4.9375 C4.7480516 4.92826644 2.54118563 5.08427203 -0.0625 5.5625 C-3.60893169 6.09069195 -6.5052145 5.75377727 -10 5 C-10.33 4.34 -10.66 3.68 -11 3 C-9.68 2.67 -8.36 2.34 -7 2 C-7 1.34 -7 0.68 -7 0 C-3.78715118 -1.07094961 -3.0747749 -1.02492497 0 0 Z " fill="#C7AC9A" transform="translate(100,120)"/>
<path d="M0 0 C0 1.65 0 3.3 0 5 C0.66 5 1.32 5 2 5 C3.31223496 8.93670488 2.24296256 11.12488144 1 15 C-2 15 -2 15 -4 14 C-3.88655624 11.8535247 -3.75893655 9.70779408 -3.625 7.5625 C-3.52058594 5.77005859 -3.52058594 5.77005859 -3.4140625 3.94140625 C-3.27742188 2.97074219 -3.14078125 2.00007813 -3 1 C-1 0 -1 0 0 0 Z " fill="#CDB7B1" transform="translate(71,93)"/>
<path d="M0 0 C0.81210938 0.02578125 1.62421875 0.0515625 2.4609375 0.078125 C3.34265625 0.10261719 4.224375 0.12710938 5.1328125 0.15234375 C8.38822491 0.36403964 11.60203592 0.72490355 14.828125 1.20703125 C17.03506967 1.34013492 18.72997346 0.96558048 20.8359375 0.328125 C20.8359375 1.318125 20.8359375 2.308125 20.8359375 3.328125 C12.2559375 3.328125 3.6759375 3.328125 -5.1640625 3.328125 C-2.1640625 0.328125 -2.1640625 0.328125 0 0 Z " fill="#44536B" transform="translate(134.1640625,211.671875)"/>
<path d="M0 0 C-0.33 0.66 -0.66 1.32 -1 2 C-4.00015912 3.00005304 -5.97423756 3.11575585 -9.10546875 3.09765625 C-10.08837891 3.09443359 -11.07128906 3.09121094 -12.08398438 3.08789062 C-13.10814453 3.07951172 -14.13230469 3.07113281 -15.1875 3.0625 C-16.22326172 3.05798828 -17.25902344 3.05347656 -18.32617188 3.04882812 C-20.88417266 3.0370401 -23.44205733 3.02058515 -26 3 C-26 2.34 -26 1.68 -26 1 C-17.30019136 -0.01286753 -8.74507107 -0.10621544 0 0 Z " fill="#191515" transform="translate(100,209)"/>
<path d="M0 0 C6.6 0 13.2 0 20 0 C20 0.99 20 1.98 20 3 C17.26752652 4.36623674 15.01801098 4.128426 12 4 C11.67 3.67 11.34 3.34 11 3 C9.31391034 2.92794489 7.62499341 2.91613932 5.9375 2.9375 C5.01839844 2.94652344 4.09929688 2.95554687 3.15234375 2.96484375 C2.44207031 2.97644531 1.73179688 2.98804688 1 3 C0.67 2.01 0.34 1.02 0 0 Z " fill="#F6EBD2" transform="translate(26,6)"/>
<path d="M0 0 C-0.375 2.4375 -0.375 2.4375 -1 5 C-4.21451269 6.60725635 -7.43612536 6.05748185 -11 6 C-11.33 4.68 -11.66 3.36 -12 2 C-7.82262526 0.40861915 -4.46839215 -0.21278058 0 0 Z " fill="#6F5230" transform="translate(80,203)"/>
<path d="M0 0 C0 0.66 0 1.32 0 2 C-7.45614351 4.66290839 -13.24248246 5.12053031 -21 4 C-21.33 4.99 -21.66 5.98 -22 7 C-23.5 5.625 -23.5 5.625 -25 4 C-25 3.34 -25 2.68 -25 2 C-24.44014404 1.97494385 -23.88028809 1.9498877 -23.3034668 1.92407227 C-20.76458695 1.80796255 -18.22606447 1.6853042 -15.6875 1.5625 C-14.36588867 1.50352539 -14.36588867 1.50352539 -13.01757812 1.44335938 C-11.74624023 1.38051758 -11.74624023 1.38051758 -10.44921875 1.31640625 C-9.66893311 1.27974854 -8.88864746 1.24309082 -8.0847168 1.20532227 C-5.2060908 0.92180845 -2.94729463 0 0 0 Z " fill="#BBA791" transform="translate(108,159)"/>
<path d="M0 0 C2.67857172 0.36196915 4.60980914 0.73987276 6.875 2.25 C8 4 8 4 7.6875 6.6875 C7.460625 7.450625 7.23375 8.21375 7 9 C4.625 8.75 4.625 8.75 2 8 C-0.09862498 5.10189884 0 3.71621139 0 0 Z " fill="#FCDABD" transform="translate(101,82)"/>
<path d="M0 0 C2.97 0.495 2.97 0.495 6 1 C6.33 2.32 6.66 3.64 7 5 C8.65 4.34 10.3 3.68 12 3 C12.33 3.99 12.66 4.98 13 6 C12.01 6.495 12.01 6.495 11 7 C10.34444881 9.52733235 10.34444881 9.52733235 10 12 C9.1028125 11.071875 9.1028125 11.071875 8.1875 10.125 C5.99188856 7.86323046 5.99188856 7.86323046 3 6 C2.34 5.34 1.68 4.68 1 4 C1.66 3.67 2.32 3.34 3 3 C2.01 2.01 1.02 1.02 0 0 Z " fill="#BD9E80" transform="translate(30,38)"/>
<path d="M0 0 C0 0.66 0 1.32 0 2 C-0.99 2 -1.98 2 -3 2 C-3 3.32 -3 4.64 -3 6 C-5.31 6.33 -7.62 6.66 -10 7 C-10 5.02 -10 3.04 -10 1 C-6.52674819 -0.1577506 -3.63932552 -0.06866652 0 0 Z " fill="#CD9F60" transform="translate(29,218)"/>
<path d="M0 0 C0.66 0.33 1.32 0.66 2 1 C0.68 4.3 -0.64 7.6 -2 11 C-6.14648122 8.92675939 -7.08477197 8.03205902 -9 4 C-8.67 3.34 -8.34 2.68 -8 2 C-7.38125 2.33 -6.7625 2.66 -6.125 3 C-4.08981656 4.14193235 -4.08981656 4.14193235 -2 4 C-1.34 2.68 -0.68 1.36 0 0 Z " fill="#A27D52" transform="translate(41,22)"/>
<path d="M0 0 C0.80050781 0.12761719 1.60101563 0.25523437 2.42578125 0.38671875 C3.23402344 0.50660156 4.04226562 0.62648437 4.875 0.75 C5.48988281 0.85699219 6.10476562 0.96398437 6.73828125 1.07421875 C6.40828125 1.73421875 6.07828125 2.39421875 5.73828125 3.07421875 C6.39828125 3.73421875 7.05828125 4.39421875 7.73828125 5.07421875 C7.40828125 6.06421875 7.07828125 7.05421875 6.73828125 8.07421875 C4.42828125 7.74421875 2.11828125 7.41421875 -0.26171875 7.07421875 C-0.26171875 5.40755208 -0.26171875 3.74088542 -0.26171875 2.07421875 C-1.91171875 2.40421875 -3.56171875 2.73421875 -5.26171875 3.07421875 C-3.53640014 0.90221572 -2.83921072 0.09316926 0 0 Z " fill="#C7B0A3" transform="translate(101.26171875,127.92578125)"/>
<path d="M0 0 C-2.34877419 2.50535913 -4.0911787 3.90564909 -7.55859375 4.265625 C-10.04963675 4.25149142 -12.51524028 4.17369194 -15 4 C-15 3.34 -15 2.68 -15 2 C-9.32010626 -0.49118146 -6.05525768 -1.38766322 0 0 Z " fill="#E4E8C3" transform="translate(85,6)"/>
<path d="M0 0 C0.99 0.33 1.98 0.66 3 1 C4.89470816 1.0685495 6.7916834 1.08480372 8.6875 1.0625 C9.68136719 1.05347656 10.67523438 1.04445312 11.69921875 1.03515625 C12.45847656 1.02355469 13.21773437 1.01195312 14 1 C14.33 1.99 14.66 2.98 15 4 C9.06 4 3.12 4 -3 4 C-2.01 3.67 -1.02 3.34 0 3 C0 2.01 0 1.02 0 0 Z " fill="#8D5D6B" transform="translate(26,221)"/>
<path d="M0 0 C7.59 0 15.18 0 23 0 C22.01 0.495 22.01 0.495 21 1 C21 1.66 21 2.32 21 3 C20.34 3 19.68 3 19 3 C19 4.98 19 6.96 19 9 C18.34 9 17.68 9 17 9 C17 6.36 17 3.72 17 1 C11.39 1 5.78 1 0 1 C0 0.67 0 0.34 0 0 Z " fill="#564C22" transform="translate(0,216)"/>
<path d="M0 0 C1.2065625 0.0309375 1.2065625 0.0309375 2.4375 0.0625 C2.4375 2.7025 2.4375 5.3425 2.4375 8.0625 C-2.4375 7.1875 -2.4375 7.1875 -3.5625 6.0625 C-3.6875 3.5625 -3.6875 3.5625 -3.5625 1.0625 C-2.5625 0.0625 -2.5625 0.0625 0 0 Z " fill="#FAD2BC" transform="translate(152.5625,73.9375)"/>
<path d="M0 0 C1.67542976 0.28604898 3.34385343 0.61781233 5 1 C5 2.32 5 3.64 5 5 C0.38 5 -4.24 5 -9 5 C-8.67 4.34 -8.34 3.68 -8 3 C-5.67793475 2.29508733 -3.34406932 1.62787571 -1 1 C-0.67 0.67 -0.34 0.34 0 0 Z " fill="#976864" transform="translate(150,220)"/>
<path d="M0 0 C0.99 0.66 1.98 1.32 3 2 C3 3.32 3 4.64 3 6 C1.68 5.67 0.36 5.34 -1 5 C-1 4.01 -1 3.02 -1 2 C-2.65 2.33 -4.3 2.66 -6 3 C-6.33 4.65 -6.66 6.3 -7 8 C-7.33 8 -7.66 8 -8 8 C-8 6.02 -8 4.04 -8 2 C-8.66 1.67 -9.32 1.34 -10 1 C-6.87293041 -0.5635348 -3.42017557 -0.39958487 0 0 Z " fill="#FDC66C" transform="translate(109,72)"/>
<path d="M0 0 C1.75570312 0.01353516 1.75570312 0.01353516 3.546875 0.02734375 C4.43890625 0.03894531 5.3309375 0.05054688 6.25 0.0625 C5.92 1.0525 5.59 2.0425 5.25 3.0625 C-0.03 3.0625 -5.31 3.0625 -10.75 3.0625 C-10.75 2.4025 -10.75 1.7425 -10.75 1.0625 C-7.14006828 -0.07230527 -3.7657673 -0.03765767 0 0 Z " fill="#906163" transform="translate(104.75,221.9375)"/>
<path d="M0 0 C1.72880982 -0.05449838 3.45812712 -0.09301688 5.1875 -0.125 C6.15042969 -0.14820313 7.11335937 -0.17140625 8.10546875 -0.1953125 C11.12812778 0.0086456 13.26769985 0.73125368 16 2 C16 2.33 16 2.66 16 3 C10.72 3 5.44 3 0 3 C0 2.01 0 1.02 0 0 Z " fill="#9C725E" transform="translate(0,222)"/>
<path d="M0 0 C1.98 0.66 3.96 1.32 6 2 C6 2.66 6 3.32 6 4 C7.98567708 4.1953125 9.97135417 4.390625 11.95703125 4.5859375 C14 5 14 5 17 7 C13.7 7.33 10.4 7.66 7 8 C7.99 7.34 8.98 6.68 10 6 C7.36 6 4.72 6 2 6 C2 5.01 2 4.02 2 3 C1.34 3 0.68 3 0 3 C0 2.01 0 1.02 0 0 Z " fill="#2D384D" transform="translate(68,208)"/>
<path d="M0 0 C4.875 1.875 4.875 1.875 6 3 C6.04080783 4.99958364 6.04254356 7.00045254 6 9 C3.13275314 8.42655063 2.1385485 8.1385485 0 6 C-0.125 2.875 -0.125 2.875 0 0 Z " fill="#F7CFB9" transform="translate(149,82)"/>
<path d="M0 0 C2.97 0.99 5.94 1.98 9 3 C9.33 4.65 9.66 6.3 10 8 C8.35 8 6.7 8 5 8 C5 7.34 5 6.68 5 6 C4.01 5.67 3.02 5.34 2 5 C0.8125 2.4375 0.8125 2.4375 0 0 Z " fill="#F9F0DF" transform="translate(79,80)"/>
<path d="M0 0 C0.99 0 1.98 0 3 0 C3.33 0.66 3.66 1.32 4 2 C5.88764903 2.68472665 5.88764903 2.68472665 8.0625 3.125 C8.79597656 3.29257813 9.52945313 3.46015625 10.28515625 3.6328125 C10.85105469 3.75398438 11.41695312 3.87515625 12 4 C12 4.33 12 4.66 12 5 C9.69 5.33 7.38 5.66 5 6 C5 6.66 5 7.32 5 8 C2.6568787 7.74438677 0.32156597 7.40729228 -2 7 C-2.33 6.34 -2.66 5.68 -3 5 C-1.68 5.33 -0.36 5.66 1 6 C0.67 4.02 0.34 2.04 0 0 Z " fill="#CAB09B" transform="translate(89,104)"/>
<path d="M0 0 C1.98 0 3.96 0 6 0 C7.60031344 3.20062687 6.03173691 5.72271806 5 9 C3.68 9.33 2.36 9.66 1 10 C1.03255208 7.98177083 1.06510417 5.96354167 1.09765625 3.9453125 C1.12649242 1.91814596 1.12649242 1.91814596 0 0 Z " fill="#1A1D0C" transform="translate(79,69)"/>
<path d="M0 0 C1.423125 0.2784375 1.423125 0.2784375 2.875 0.5625 C5.89868793 1.28686632 5.89868793 1.28686632 8 0 C8.17835515 4.54805635 7.99785435 7.8794254 6 12 C5.67 12 5.34 12 5 12 C4.731875 10.948125 4.46375 9.89625 4.1875 8.8125 C3.1323171 5.42480754 1.95273622 2.92910433 0 0 Z " fill="#B09E86" transform="translate(48,64)"/>
<path d="M0 0 C1.48831242 0.00667405 2.97660807 0.01863442 4.46484375 0.03515625 C5.22345703 0.03966797 5.98207031 0.04417969 6.76367188 0.04882812 C8.64326246 0.06064945 10.52281274 0.07858547 12.40234375 0.09765625 C12.40234375 0.42765625 12.40234375 0.75765625 12.40234375 1.09765625 C8.11234375 1.09765625 3.82234375 1.09765625 -0.59765625 1.09765625 C-0.59765625 1.75765625 -0.59765625 2.41765625 -0.59765625 3.09765625 C-1.25765625 3.09765625 -1.91765625 3.09765625 -2.59765625 3.09765625 C-2.59765625 5.07765625 -2.59765625 7.05765625 -2.59765625 9.09765625 C-3.25765625 9.09765625 -3.91765625 9.09765625 -4.59765625 9.09765625 C-4.6953125 2.9453125 -4.6953125 2.9453125 -4.59765625 1.09765625 C-3.59765625 0.09765625 -3.59765625 0.09765625 0 0 Z " fill="#543154" transform="translate(121.59765625,215.90234375)"/>
<path d="M0 0 C1.46015291 0.28241641 2.91809793 0.57626614 4.375 0.875 C5.18710938 1.03742188 5.99921875 1.19984375 6.8359375 1.3671875 C9 2 9 2 11 4 C8.79112053 5.34110539 7.54530581 6.06609767 4.9375 5.75 C3 5 3 5 0 3 C0 2.01 0 1.02 0 0 Z " fill="#988874" transform="translate(82,125)"/>
<path d="M0 0 C3.81684226 1.55500981 6.19195732 4.03595495 9 7 C5.7 6.34 2.4 5.68 -1 5 C-0.67 3.35 -0.34 1.7 0 0 Z " fill="#F8EBDB" transform="translate(105,115)"/>
<path d="M0 0 C1.05960938 0.00676758 1.05960938 0.00676758 2.140625 0.01367188 C3.88545275 0.02546125 5.630237 0.04339676 7.375 0.0625 C4.52885976 2.90864024 1.57130858 2.51829076 -2.25 2.6875 C-3.30960938 2.74550781 -3.30960938 2.74550781 -4.390625 2.8046875 C-6.13498524 2.89897724 -7.87995691 2.98182891 -9.625 3.0625 C-9.625 2.4025 -9.625 1.7425 -9.625 1.0625 C-6.55966836 -0.47016582 -3.35745728 -0.04026471 0 0 Z " fill="#4A5A6B" transform="translate(66.625,202.9375)"/>
<path d="M0 0 C3.375 -0.1875 3.375 -0.1875 7 0 C7.66 0.99 8.32 1.98 9 3 C3.375 6 3.375 6 0 6 C0.66 4.68 1.32 3.36 2 2 C1.34 1.34 0.68 0.68 0 0 Z " fill="#F9F6E8" transform="translate(111,126)"/>
<path d="M0 0 C0.99 0.33 1.98 0.66 3 1 C3 1.66 3 2.32 3 3 C3.66 3 4.32 3 5 3 C5.144375 3.7425 5.28875 4.485 5.4375 5.25 C5.90187492 7.52027739 6.41863569 9.75759479 7 12 C6.34 12 5.68 12 5 12 C5 11.01 5 10.02 5 9 C3.68 8.67 2.36 8.34 1 8 C0.67 5.36 0.34 2.72 0 0 Z " fill="#EECFC3" transform="translate(81,85)"/>
<path d="M0 0 C1 3 1 3 0 6 C0.66 6.33 1.32 6.66 2 7 C2.33 7.99 2.66 8.98 3 10 C3.66 10.33 4.32 10.66 5 11 C4.67 11.66 4.34 12.32 4 13 C0.82537057 10.59757773 -1.85751741 8.38286724 -4 5 C-4 4.34 -4 3.68 -4 3 C-2 1.375 -2 1.375 0 0 Z " fill="#3F2709" transform="translate(79,176)"/>
<path d="M0 0 C4.67461851 -0.32613618 7.16674383 0.29417212 11 3 C11 2.01 11 1.02 11 0 C11.66 0.33 12.32 0.66 13 1 C12.67 1.99 12.34 2.98 12 4 C11.01 4.33 10.02 4.66 9 5 C8.01 4.34 7.02 3.68 6 3 C4.32457024 3.28604898 2.65614657 3.61781233 1 4 C0.34 3.67 -0.32 3.34 -1 3 C-0.67 2.01 -0.34 1.02 0 0 Z " fill="#FEC15E" transform="translate(122,72)"/>
<path d="M0 0 C2.97 0.495 2.97 0.495 6 1 C4.68 2.32 3.36 3.64 2 5 C2.66 5.33 3.32 5.66 4 6 C1.64561267 7.42944945 0.51967567 8.08661261 -2.25 7.625 C-2.8275 7.41875 -3.405 7.2125 -4 7 C-3.01 6.67 -2.02 6.34 -1 6 C-1.66 5.34 -2.32 4.68 -3 4 C-1.68 3.67 -0.36 3.34 1 3 C0.67 2.01 0.34 1.02 0 0 Z " fill="#F1DCD2" transform="translate(109,127)"/>
<path d="M0 0 C2.0625 0.4375 2.0625 0.4375 4 1 C4 1.66 4 2.32 4 3 C4.804375 2.7215625 4.804375 2.7215625 5.625 2.4375 C8.61990614 1.88580676 11.03745829 2.39402556 14 3 C14 3.33 14 3.66 14 4 C4.58997722 5.51708428 4.58997722 5.51708428 0 3 C-0.33 3.66 -0.66 4.32 -1 5 C-1 1 -1 1 0 0 Z " fill="#A99782" transform="translate(82,122)"/>
<path d="M0 0 C1.66666667 1.66666667 3.33333333 3.33333333 5 5 C5.66 5 6.32 5 7 5 C7.33 5.99 7.66 6.98 8 8 C6.02 8.33 4.04 8.66 2 9 C1.67 8.34 1.34 7.68 1 7 C0.34 6.67 -0.32 6.34 -1 6 C-0.67 4.02 -0.34 2.04 0 0 Z " fill="#BBA791" transform="translate(59,67)"/>
<path d="M0 0 C1.02486226 2.04972452 2.03441521 4.08030215 2.9375 6.1875 C3.93434552 8.34395107 3.93434552 8.34395107 7 9 C8.1875 11.5625 8.1875 11.5625 9 14 C8.01 14 7.02 14 6 14 C6 13.34 6 12.68 6 12 C5.01 11.67 4.02 11.34 3 11 C0.68059158 7.22022332 -0.39168975 4.43915044 0 0 Z " fill="#C7B39F" transform="translate(42,38)"/>
<path d="M0 0 C1.96301592 3.50538557 2.95902388 7.13351728 4 11 C3.01 10.67 2.02 10.34 1 10 C1 9.34 1 8.68 1 8 C-0.32 8 -1.64 8 -3 8 C-3 7.01 -3 6.02 -3 5 C-2.34 4.67 -1.68 4.34 -1 4 C-0.34786708 1.97536745 -0.34786708 1.97536745 0 0 Z " fill="#5E4622" transform="translate(90,180)"/>
<path d="M0 0 C0.99 0.33 1.98 0.66 3 1 C3.33 2.98 3.66 4.96 4 7 C2.68 7.33 1.36 7.66 0 8 C-1.125 5.6875 -1.125 5.6875 -2 3 C-1.34 2.01 -0.68 1.02 0 0 Z " fill="#816424" transform="translate(37,35)"/>
<path d="M0 0 C0.66 0.33 1.32 0.66 2 1 C-3.66139133 5.71782611 -6.5075585 7.28817083 -14 7 C-13.67 6.01 -13.34 5.02 -13 4 C-12.67 4.66 -12.34 5.32 -12 6 C-8.53569653 4.5735221 -5.37184699 3.23137146 -2.1875 1.25 C-1.1046875 0.63125 -1.1046875 0.63125 0 0 Z " fill="#A8907D" transform="translate(116,130)"/>
<path d="M0 0 C3.125 0.25 3.125 0.25 5 1.75 C5.37125 2.245 5.7425 2.74 6.125 3.25 C5.135 4.24 4.145 5.23 3.125 6.25 C1.125 5.25 1.125 5.25 0.125 2.25 C-1.89008358 1.51676204 -1.89008358 1.51676204 -3.875 1.25 C-2.875 0.25 -2.875 0.25 0 0 Z " fill="#F7E2D4" transform="translate(99.875,109.75)"/>
<path d="M0 0 C2.50286528 2.23470114 2.46722566 4.31059508 2.75 7.5625 C2.09 7.2325 1.43 6.9025 0.75 6.5625 C0.41666667 5.22916667 0.08333333 3.89583333 -0.25 2.5625 C-0.91 2.2325 -1.57 1.9025 -2.25 1.5625 C-2.91 2.8825 -3.57 4.2025 -4.25 5.5625 C-5.24 4.5725 -6.23 3.5825 -7.25 2.5625 C-2.91666667 -0.56712963 -2.91666667 -0.56712963 0 0 Z " fill="#95753F" transform="translate(39.25,33.4375)"/>
<path d="M0 0 C0.33 0.99 0.66 1.98 1 3 C-2.63 3 -6.26 3 -10 3 C-10 2.34 -10 1.68 -10 1 C-6.52674819 -0.1577506 -3.63932552 -0.06866652 0 0 Z " fill="#CD9F62" transform="translate(16,218)"/>
<path d="M0 0 C3.30320986 0.64452875 4.49559427 1.89722982 6.5625 4.5 C6.5625 5.16 6.5625 5.82 6.5625 6.5 C5.2425 6.5 3.9225 6.5 2.5625 6.5 C1.9025 5.18 1.2425 3.86 0.5625 2.5 C-1.4175 3.16 -3.3975 3.82 -5.4375 4.5 C-3.83983668 1.80919861 -3.13576973 0.64323482 0 0 Z " fill="#262C25" transform="translate(121.4375,128.5)"/>
<path d="M0 0 C0 0.33 0 0.66 0 1 C-1.19625 0.979375 -2.3925 0.95875 -3.625 0.9375 C-6.3782547 0.92285503 -8.63665404 1.1178989 -11.375 1.625 C-12.24125 1.74875 -13.1075 1.8725 -14 2 C-14.66 1.34 -15.32 0.68 -16 0 C-10.03241883 -2.28545662 -6.07806891 -1.79172099 0 0 Z " fill="#D5B8AA" transform="translate(111,124)"/>
<path d="M0 0 C2.64 0 5.28 0 8 0 C5.33333333 2.66666667 2.66666667 5.33333333 0 8 C0 5.36 0 2.72 0 0 Z " fill="#F7ECD2" transform="translate(58,0)"/>
<path d="M0 0 C5.61 0 11.22 0 17 0 C16.67 1.32 16.34 2.64 16 4 C15.29488281 3.68289062 14.58976563 3.36578125 13.86328125 3.0390625 C10.87494121 1.95461714 8.34930342 1.6035641 5.1875 1.375 C4.21167969 1.30023438 3.23585937 1.22546875 2.23046875 1.1484375 C1.12638672 1.07496094 1.12638672 1.07496094 0 1 C0 0.67 0 0.34 0 0 Z " fill="#BD9558" transform="translate(0,221)"/>
<path d="M0 0 C-2.43338652 1.53508028 -3.67124507 2.03088304 -6.578125 1.7578125 C-7.90070313 1.44457031 -7.90070313 1.44457031 -9.25 1.125 C-10.14203125 0.92132813 -11.0340625 0.71765625 -11.953125 0.5078125 C-12.62859375 0.34023437 -13.3040625 0.17265625 -14 0 C-14 -0.33 -14 -0.66 -14 -1 C-8.51053913 -2.12029814 -5.16569441 -1.79217969 0 0 Z " fill="#BEA796" transform="translate(103,127)"/>
<path d="M0 0 C2.475 0.495 2.475 0.495 5 1 C5.33 3.64 5.66 6.28 6 9 C5.67 8.34 5.34 7.68 5 7 C4.34 7 3.68 7 3 7 C0 2.61538462 0 2.61538462 0 0 Z " fill="#C8B29F" transform="translate(76,84)"/>
<path d="M0 0 C5.75 1.75 5.75 1.75 8 4 C7.67 4.99 7.34 5.98 7 7 C6.67 6.01 6.34 5.02 6 4 C3.69 4 1.38 4 -1 4 C-0.67 2.68 -0.34 1.36 0 0 Z " fill="#654210" transform="translate(61,83)"/>
<path d="M0 0 C0.99 0.33 1.98 0.66 3 1 C3.33 3.97 3.66 6.94 4 10 C1.525 9.01 1.525 9.01 -1 8 C-0.67 5.36 -0.34 2.72 0 0 Z " fill="#694726" transform="translate(54,75)"/>
<path d="M0 0 C2.97 0 5.94 0 9 0 C9 0.99 9 1.98 9 3 C6.36 3 3.72 3 1 3 C0.67 2.01 0.34 1.02 0 0 Z " fill="#8A5D36" transform="translate(83,222)"/>
<path d="M0 0 C0.66 0.33 1.32 0.66 2 1 C2 1.99 2 2.98 2 4 C-2.29 4 -6.58 4 -11 4 C-11 3.34 -11 2.68 -11 2 C-9.01432292 2.06510417 -7.02864583 2.13020833 -5.04296875 2.1953125 C-2.68640281 2.13254462 -2.68640281 2.13254462 0 0 Z " fill="#4F2A0A" transform="translate(98,205)"/>
<path d="M0 0 C1.98 0 3.96 0 6 0 C6.66 1.65 7.32 3.3 8 5 C6.02 5 4.04 5 2 5 C2 4.34 2 3.68 2 3 C1.34 2.67 0.68 2.34 0 2 C0 1.34 0 0.68 0 0 Z " fill="#908B82" transform="translate(93,132)"/>
<path d="M0 0 C-1.98 0.99 -1.98 0.99 -4 2 C-4 2.66 -4 3.32 -4 4 C-5.65 3.67 -7.3 3.34 -9 3 C-9 2.01 -9 1.02 -9 0 C-5.67465243 -1.10844919 -3.37817425 -0.84454356 0 0 Z " fill="#D7BAAA" transform="translate(100,115)"/>
<path d="M0 0 C1.98 0 3.96 0 6 0 C5.34 0.66 4.68 1.32 4 2 C4.99 2.66 5.98 3.32 7 4 C3.64338305 5.67830848 0.63864406 4.6353188 -3 4 C-3.33 3.34 -3.66 2.68 -4 2 C-1.525 2.495 -1.525 2.495 1 3 C0.67 2.01 0.34 1.02 0 0 Z " fill="#DEBFAF" transform="translate(93,109)"/>
<path d="M0 0 C2.125 0.9375 2.125 0.9375 4 2 C4 3.32 4 4.64 4 6 C2.125 5.75 2.125 5.75 0 5 C-1.25 2.9375 -1.25 2.9375 -2 1 C-1.34 0.67 -0.68 0.34 0 0 Z " fill="#43553E" transform="translate(75,71)"/>
<path d="M0 0 C0.33 1.32 0.66 2.64 1 4 C4.3 4.33 7.6 4.66 11 5 C11 5.33 11 5.66 11 6 C9.23186888 6.24915939 7.46025018 6.47366632 5.6875 6.6875 C4.70136719 6.81511719 3.71523437 6.94273437 2.69921875 7.07421875 C0 7 0 7 -1.85546875 5.51953125 C-2.23316406 5.01808594 -2.61085937 4.51664063 -3 4 C-2.01 4 -1.02 4 0 4 C0 2.68 0 1.36 0 0 Z " fill="#ACA69B" transform="translate(63,173)"/>
<path d="M0 0 C0.66 0.66 1.32 1.32 2 2 C-1.465 4.97 -1.465 4.97 -5 8 C-5.33 7.34 -5.66 6.68 -6 6 C-2.25 1.125 -2.25 1.125 0 0 Z " fill="#181C14" transform="translate(70,148)"/>
<path d="M0 0 C1.32 0.33 2.64 0.66 4 1 C4 3.97 4 6.94 4 10 C3.34 10 2.68 10 2 10 C2 9.34 2 8.68 2 8 C1.34 7.67 0.68 7.34 0 7 C0.66 7 1.32 7 2 7 C1.34 4.69 0.68 2.38 0 0 Z " fill="#C7BBA3" transform="translate(77,70)"/>
<path d="M0 0 C3.875 1.75 3.875 1.75 5 4 C0.71 4 -3.58 4 -8 4 C-8.33 3.34 -8.66 2.68 -9 2 C-6.03 2 -3.06 2 0 2 C0 1.34 0 0.68 0 0 Z " fill="#768266" transform="translate(71,62)"/>
<path d="M0 0 C1.32 0.66 2.64 1.32 4 2 C3.88541307 3.43836751 3.75790884 4.87570966 3.625 6.3125 C3.55539063 7.11300781 3.48578125 7.91351563 3.4140625 8.73828125 C3 11 3 11 1 14 C0.34 13.67 -0.32 13.34 -1 13 C-0.34 12.01 0.32 11.02 1 10 C1.19850603 6.29455413 1.17664871 3.52994613 0 0 Z " fill="#DCBFA9" transform="translate(128,134)"/>
<path d="M0 0 C0.33 0.99 0.66 1.98 1 3 C-5.75 2.25 -5.75 2.25 -8 0 C-4.99727245 -0.96516243 -2.95784231 -1.22393475 0 0 Z " fill="#E5CCC0" transform="translate(107,125)"/>
<path d="M0 0 C2.8125 0.1875 2.8125 0.1875 6 1 C7.875 3.5625 7.875 3.5625 9 6 C8.01 6.33 7.02 6.66 6 7 C5.7525 6.21625 5.505 5.4325 5.25 4.625 C3.84610901 1.67682892 2.99324263 1.0975223 0 0 Z " fill="#E5C7B8" transform="translate(70,77)"/>
<path d="M0 0 C2.5625 0.1875 2.5625 0.1875 4.5625 2.1875 C4.1875 5.3125 4.1875 5.3125 3.5625 8.1875 C3.2325 6.8675 2.9025 5.5475 2.5625 4.1875 C1.94375 4.06375 1.325 3.94 0.6875 3.8125 C-1.4375 3.1875 -1.4375 3.1875 -3.4375 1.1875 C-2.4375 0.1875 -2.4375 0.1875 0 0 Z " fill="#454F2E" transform="translate(82.4375,66.8125)"/>
<path d="M0 0 C3.93846154 4.30769231 3.93846154 4.30769231 4.25 7.8125 C4.1675 8.534375 4.085 9.25625 4 10 C3.34 10 2.68 10 2 10 C2 9.01 2 8.02 2 7 C1.34 6.67 0.68 6.34 0 6 C-0.66 5.67 -1.32 5.34 -2 5 C-2 4.34 -2 3.68 -2 3 C-1.34 3 -0.68 3 0 3 C0 2.01 0 1.02 0 0 Z " fill="#D1BCAC" transform="translate(53,53)"/>
<path d="M0 0 C0.763125 0.804375 1.52625 1.60875 2.3125 2.4375 C4.79430898 5.16799024 4.79430898 5.16799024 8 6 C7.67 6.99 7.34 7.98 7 9 C3.17475764 7.549046 1.80909034 5.61818068 0 2 C0 1.34 0 0.68 0 0 Z " fill="#BC966A" transform="translate(32,24)"/>
<path d="M0 0 C0.99 0.66 1.98 1.32 3 2 C-0.96 2 -4.92 2 -9 2 C-5.98198988 -1.01801012 -3.9005021 -1.3407976 0 0 Z " fill="#83526E" transform="translate(134,223)"/>
<path d="M0 0 C3.375 -0.1875 3.375 -0.1875 7 0 C7.66 0.99 8.32 1.98 9 3 C8.01 3.66 7.02 4.32 6 5 C5.566875 4.54625 5.13375 4.0925 4.6875 3.625 C2.89201658 1.79975666 2.89201658 1.79975666 0 0 Z " fill="#313F40" transform="translate(110,206)"/>
<path d="M0 0 C0.33 0.99 0.66 1.98 1 3 C2.98 3 4.96 3 7 3 C7 3.66 7 4.32 7 5 C4.69 5.33 2.38 5.66 0 6 C0 4.02 0 2.04 0 0 Z " fill="#AD8459" transform="translate(19,219)"/>
<path d="M0 0 C2.00720923 0.28674418 4.0085944 0.61866701 6 1 C6 1.33 6 1.66 6 2 C1.03926578 3.32286246 -3.91111512 3.08893197 -9 3 C-9 2.67 -9 2.34 -9 2 C-6.94921875 1.77213542 -4.8984375 1.54427083 -2.84765625 1.31640625 C-0.98859771 1.18113386 -0.98859771 1.18113386 0 0 Z " fill="#35425E" transform="translate(74,213)"/>
<path d="M0 0 C1.32 0 2.64 0 4 0 C4 0.66 4 1.32 4 2 C3.34 2 2.68 2 2 2 C2 3.98 2 5.96 2 8 C1.34 8 0.68 8 0 8 C0 5.36 0 2.72 0 0 Z " fill="#4C168A" transform="translate(17,217)"/>
<path d="M0 0 C1.32 0 2.64 0 4 0 C3.67 1.32 3.34 2.64 3 4 C1.35 4.33 -0.3 4.66 -2 5 C-1.34 3.35 -0.68 1.7 0 0 Z " fill="#28322E" transform="translate(100,207)"/>
<path d="M0 0 C0 0.99 0 1.98 0 3 C-2.64 3.33 -5.28 3.66 -8 4 C-8 3.34 -8 2.68 -8 2 C-5.09399739 0.74335022 -3.20395416 0 0 0 Z " fill="#816044" transform="translate(77,203)"/>
<path d="M0 0 C2 2 2 2 2 5 C0.35 5.33 -1.3 5.66 -3 6 C-3 5.01 -3 4.02 -3 3 C-2.01 2.67 -1.02 2.34 0 2 C0 1.34 0 0.68 0 0 Z " fill="#4A3211" transform="translate(94,199)"/>
<path d="M0 0 C2.31 0.33 4.62 0.66 7 1 C3.375 4 3.375 4 0 4 C0 2.68 0 1.36 0 0 Z " fill="#F1EACD" transform="translate(78,5)"/>
<path d="M0 0 C1.32 0.66 2.64 1.32 4 2 C3.67 2.99 3.34 3.98 3 5 C0.69 4.67 -1.62 4.34 -4 4 C-2.68 2.68 -1.36 1.36 0 0 Z " fill="#D7BBB2" transform="translate(105,131)"/>
<path d="M0 0 C0.66 0.33 1.32 0.66 2 1 C2 1.99 2 2.98 2 4 C3.65 4 5.3 4 7 4 C7.33 4.66 7.66 5.32 8 6 C4.37 5.34 0.74 4.68 -3 4 C-2.01 3.67 -1.02 3.34 0 3 C0 2.01 0 1.02 0 0 Z " fill="#E8CDBC" transform="translate(91,98)"/>
<path d="M0 0 C2.475 0.495 2.475 0.495 5 1 C5 2.32 5 3.64 5 5 C3.68 4.67 2.36 4.34 1 4 C0.67 2.68 0.34 1.36 0 0 Z " fill="#FEBF56" transform="translate(107,73)"/>
<path d="M0 0 C3.80666984 1.44390925 5.26602582 3.34952803 7 7 C6.67 7.66 6.34 8.32 6 9 C3.43673506 7.71836753 3.17583941 6.57214871 2 4 C1.62875 3.2575 1.2575 2.515 0.875 1.75 C0.58625 1.1725 0.2975 0.595 0 0 Z " fill="#856037" transform="translate(21,17)"/>
<path d="M0 0 C1.65 0 3.3 0 5 0 C5 0.99 5 1.98 5 3 C3.02 3 1.04 3 -1 3 C-0.67 2.01 -0.34 1.02 0 0 Z " fill="#BB924C" transform="translate(111,222)"/>
<path d="M0 0 C2.31 0 4.62 0 7 0 C7 0.99 7 1.98 7 3 C5.02 3 3.04 3 1 3 C0.67 2.01 0.34 1.02 0 0 Z " fill="#C59855" transform="translate(148,218)"/>
<path d="M0 0 C1.98 0.66 3.96 1.32 6 2 C5.67 2.99 5.34 3.98 5 5 C2.525 4.01 2.525 4.01 0 3 C0 2.01 0 1.02 0 0 Z " fill="#342608" transform="translate(80,164)"/>
<path d="M0 0 C3.3 0 6.6 0 10 0 C10 0.33 10 0.66 10 1 C7.69 1 5.38 1 3 1 C2.67 1.99 2.34 2.98 2 4 C1.34 3.67 0.68 3.34 0 3 C0 2.01 0 1.02 0 0 Z " fill="#DEBEA2" transform="translate(84,162)"/>
<path d="M0 0 C0.33 0.99 0.66 1.98 1 3 C-0.75 4.5625 -0.75 4.5625 -3 6 C-4.32 5.67 -5.64 5.34 -7 5 C-4.69 3.35 -2.38 1.7 0 0 Z " fill="#C6B199" transform="translate(126,148)"/>
<path d="M0 0 C0.66 0.33 1.32 0.66 2 1 C2 1.66 2 2.32 2 3 C3.9600281 4.63676257 3.9600281 4.63676257 6 6 C3.69 5.67 1.38 5.34 -1 5 C-0.67 3.35 -0.34 1.7 0 0 Z " fill="#F7E0D3" transform="translate(105,115)"/>
<path d="M0 0 C2.475 0.495 2.475 0.495 5 1 C5.33 2.32 5.66 3.64 6 5 C5.34 5 4.68 5 4 5 C3.34 4.34 2.68 3.68 2 3 C1.34 3 0.68 3 0 3 C0 2.01 0 1.02 0 0 Z " fill="#B7A89F" transform="translate(68,91)"/>
<path d="M0 0 C4.75 1.875 4.75 1.875 7 3 C7 3.66 7 4.32 7 5 C4.0625 4.1875 4.0625 4.1875 1 3 C0.67 2.01 0.34 1.02 0 0 Z " fill="#F9F8EE" transform="translate(79,80)"/>
<path d="M0 0 C0.99 0.33 1.98 0.66 3 1 C3 1.66 3 2.32 3 3 C4.32 3.66 5.64 4.32 7 5 C5.68 5.33 4.36 5.66 3 6 C2.01 4.02 1.02 2.04 0 0 Z " fill="#C2AD98" transform="translate(67,75)"/>
</svg>
