<?xml version="1.0" encoding="UTF-8"?>
<svg version="1.1" xmlns="http://www.w3.org/2000/svg" width="183" height="275">
<path d="M0 0 C60.39 0 120.78 0 183 0 C183 90.75 183 181.5 183 275 C122.61 275 62.22 275 0 275 C0 184.25 0 93.5 0 0 Z " fill="#FEFEFE" transform="translate(0,0)"/>
<path d="M0 0 C6.14455816 3.73536089 10.77428191 8.7320882 15.2734375 14.27734375 C16.94745898 16.35315276 16.94745898 16.35315276 20 16 C21.5703125 17.6796875 21.5703125 17.6796875 23.125 19.875 C23.64320312 20.59429687 24.16140625 21.31359375 24.6953125 22.0546875 C27.681247 26.50676949 26.83478904 29.8634919 26 35 C25.35050775 37.33817209 24.68255989 39.67126625 24 42 C23.5770704 43.82727275 23.18322101 45.66142417 22.8125 47.5 C22.63332031 48.3765625 22.45414063 49.253125 22.26953125 50.15625 C21.77459284 55.37820885 22.09358604 58.79247749 25.29296875 63.0546875 C26.24223499 64.01051851 27.20759265 64.95060782 28.1875 65.875 C28.65736328 66.3596875 29.12722656 66.844375 29.61132812 67.34375 C32.91510458 70.57090408 35.39349261 71.81299699 40 72 C42.04353303 71.59329395 42.04353303 71.59329395 44 71 C45.74886981 70.93375493 47.50002748 70.91447405 49.25 70.9375 C50.58804688 70.95103516 50.58804688 70.95103516 51.953125 70.96484375 C52.62859375 70.97644531 53.3040625 70.98804688 54 71 C53.505 72.485 53.505 72.485 53 74 C51.02 74 49.04 74 47 74 C47 75.65 47 77.3 47 79 C47.680625 79.2475 48.36125 79.495 49.0625 79.75 C52.56865083 81.24197908 55.71620368 83.06835511 59 85 C59 85.99 59 86.98 59 88 C59.90492188 88.45439453 59.90492188 88.45439453 60.828125 88.91796875 C66.25099207 91.76060068 70.75506674 94.16145579 72.75 100.3125 C73.77607789 111.34283727 73.77607789 111.34283727 70 116 C63.65348442 122.27540616 58.37431217 122.19401566 49.875 122.1875 C48.89305664 122.18741943 47.91111328 122.18733887 46.89941406 122.18725586 C40.05394667 122.13462399 33.3755916 121.65376855 26.58984375 120.78637695 C18.41830582 119.74738733 10.22492358 119.36944101 2 119 C1.34 116.36 0.68 113.72 0 111 C-0.73605469 110.80664062 -1.47210938 110.61328125 -2.23046875 110.4140625 C-3.20628906 110.15367187 -4.18210937 109.89328125 -5.1875 109.625 C-6.63189453 109.24214844 -6.63189453 109.24214844 -8.10546875 108.8515625 C-15.41215388 106.70195743 -15.41215388 106.70195743 -17.328125 104.4140625 C-17.63234375 103.82367188 -17.9365625 103.23328125 -18.25 102.625 C-18.56453125 102.03976563 -18.8790625 101.45453125 -19.203125 100.8515625 C-22.64078049 92.86406885 -22.15508181 82.17948172 -19.25 74.125 C-18.20134848 71.59853352 -17.06713103 69.13917408 -15.87890625 66.67578125 C-11.91848677 58.36325245 -11.44875355 52.0251208 -13.4375 43 C-15.07476354 35.4736283 -15.37394898 28.0652079 -15.4375 20.375 C-15.4593335 19.24835938 -15.48116699 18.12171875 -15.50366211 16.9609375 C-15.48558196 9.19696962 -14.4804485 5.72047943 -9.1875 0.0625 C-5.65926477 -1.65121425 -3.7475353 -1.10583009 0 0 Z " fill="#FCD9C5" transform="translate(71,126)"/>
<path d="M0 0 C0.33 0 0.66 0 1 0 C1.33 2.97 1.66 5.94 2 9 C2.69480469 9.23460937 3.38960937 9.46921875 4.10546875 9.7109375 C7.54775465 11.24393932 10.33541011 13.35864721 13.3125 15.625 C19.10174474 19.91755126 25.04736887 23.28151678 31.58129883 26.31103516 C34.5424818 27.6970568 37.07476376 29.06021094 39.62890625 31.1171875 C47.47130644 37.34459589 59.54123962 36.57392712 69 36 C70.67414485 35.70652441 72.34550895 35.38929201 74 35 C74 34.34 74 33.68 74 33 C72.515 32.505 72.515 32.505 71 32 C71.99 31.505 71.99 31.505 73 31 C77.32946969 33.01306552 81.71961483 35.70751026 84 40 C85.54870389 45.06848547 85.93462687 50.76728027 83.875 55.6875 C80.61949868 59.70261829 77.25252175 63.072328 72 64 C68.62842246 64.22384386 65.25332632 64.19008986 61.875 64.1875 C60.89305664 64.18741943 59.91111328 64.18733887 58.89941406 64.18725586 C52.05394667 64.13462399 45.3755916 63.65376855 38.58984375 62.78637695 C30.41830582 61.74738733 22.22492358 61.36944101 14 61 C13.34 58.36 12.68 55.72 12 53 C11.26394531 52.80664062 10.52789062 52.61328125 9.76953125 52.4140625 C8.79371094 52.15367187 7.81789063 51.89328125 6.8125 51.625 C5.36810547 51.24214844 5.36810547 51.24214844 3.89453125 50.8515625 C-3.41215388 48.70195743 -3.41215388 48.70195743 -5.328125 46.4140625 C-5.63234375 45.82367188 -5.9365625 45.23328125 -6.25 44.625 C-6.56453125 44.03976563 -6.8790625 43.45453125 -7.203125 42.8515625 C-10.6129853 34.9286518 -10.17759369 24.25608843 -7.3125 16.25 C-6.57269257 14.48665971 -5.80053121 12.73661562 -5 11 C-4.54496094 9.97003906 -4.08992188 8.94007813 -3.62109375 7.87890625 C-2.44072669 5.23905399 -1.2341707 2.61502563 0 0 Z " fill="#86315B" transform="translate(59,184)"/>
<path d="M0 0 C4.17004797 1.39498921 6.837108 3.3463358 10.0625 6.3125 C10.89910156 7.07175781 11.73570313 7.83101562 12.59765625 8.61328125 C15 11 15 11 17.12109375 13.79296875 C17.74113281 14.52128906 18.36117187 15.24960938 19 16 C19.99 16 20.98 16 22 16 C23.5703125 17.6796875 23.5703125 17.6796875 25.125 19.875 C25.64320312 20.59429687 26.16140625 21.31359375 26.6953125 22.0546875 C29.681247 26.50676949 28.83478904 29.8634919 28 35 C27.35050775 37.33817209 26.68255989 39.67126625 26 42 C25.4705003 44.80347518 24.991323 47.61338192 24.51171875 50.42578125 C24 53 24 53 22.8125 56.25 C21.72370269 59.93516012 21.99127747 62.30135073 23 66 C25.29324609 68.86655762 26.96325241 70.6278342 30.4375 71.875 C33.22750285 73.0998793 34.06555136 74.10243907 35.9375 76.4375 C38.5696955 79.71919829 41.04975019 81.40108936 45 83 C45 83.33 45 83.66 45 84 C37.33183857 85.567713 37.33183857 85.567713 34.06640625 84.17578125 C32.4375 83.0625 32.4375 83.0625 30 81 C31.98 80.01 31.98 80.01 34 79 C32.44066679 77.72528295 30.87738294 76.45539786 29.3125 75.1875 C28.44238281 74.47980469 27.57226562 73.77210938 26.67578125 73.04296875 C24.20000368 71.15270354 21.70203762 69.54332599 19 68 C19 68.66 19 69.32 19 70 C18.34 70 17.68 70 17 70 C15.44921875 68.390625 15.44921875 68.390625 13.6875 66.25 C11.65342648 63.78168606 9.91306589 61.93802966 7.29296875 60.0703125 C5 58 5 58 4.4765625 55.5390625 C4.52554688 54.57742187 4.57453125 53.61578125 4.625 52.625 C4.67269531 51.49578125 4.72039062 50.3665625 4.76953125 49.203125 C4.80771973 48.55537109 4.8459082 47.90761719 4.88525391 47.24023438 C5.019798 44.61347557 5.07846946 41.98891427 5.13671875 39.359375 C5.1937886 37.36453915 5.25238791 35.36974649 5.3125 33.375 C5.3345752 32.40256348 5.35665039 31.43012695 5.37939453 30.42822266 C5.41532715 29.51089355 5.45125977 28.59356445 5.48828125 27.6484375 C5.51446533 26.82520996 5.54064941 26.00198242 5.56762695 25.15380859 C6.09436867 22.52991505 7.1089843 21.81618801 9 20 C9.81326691 14.00215654 8.79490471 10.70957719 5.37890625 5.765625 C3.73618287 3.66219449 1.99515673 1.77347265 0 0 Z " fill="#873C69" transform="translate(69,126)"/>
<path d="M0 0 C5.06538379 1.32664814 8.32989689 3.24648545 12 7 C14.10648673 12.07471803 14.4358536 16.59541536 14 22 C12.07970734 26.5873658 8.92951233 29.11301135 5 32 C0.41592619 33.51569235 -4.34938875 33.19116103 -9.125 33.1875 C-10.10694336 33.18741943 -11.08888672 33.18733887 -12.10058594 33.18725586 C-18.94605333 33.13462399 -25.6244084 32.65376855 -32.41015625 31.78637695 C-40.58169418 30.74738733 -48.77507642 30.36944101 -57 30 C-58.4783226 27.04335481 -58.06032783 24.25770263 -58 21 C-57.02933594 21.16371094 -56.05867188 21.32742187 -55.05859375 21.49609375 C-50.71723112 22.11628841 -46.44002229 22.11126417 -42.0625 22.0625 C-40.89364258 22.05573242 -40.89364258 22.05573242 -39.70117188 22.04882812 C-37.80074732 22.03716908 -35.90036294 22.01923877 -34 22 C-33.67 21.01 -33.34 20.02 -33 19 C-30.69 19 -28.38 19 -26 19 C-26.33 19.66 -26.66 20.32 -27 21 C-21.39 21 -15.78 21 -10 21 C-10 20.67 -10 20.34 -10 20 C-4.45445241 19.74206755 -4.45445241 19.74206755 -1.6875 21.3125 C1.78562394 22.20097356 2.73845718 21.33973951 5.8125 19.625 C7.21883261 18.76697652 8.61825429 17.89708109 10 17 C9.505 14.525 9.505 14.525 9 12 C6.3331926 11.1110642 4.61683183 10.84490741 1.8671875 10.75390625 C1.06023437 10.72103516 0.25328125 10.68816406 -0.578125 10.65429688 C-2.25249676 10.59394759 -3.92697868 10.53656851 -5.6015625 10.48242188 C-17.1680009 9.99743672 -17.1680009 9.99743672 -22 8 C-22.495 6.515 -22.495 6.515 -23 5 C-22.08504761 5.00785522 -22.08504761 5.00785522 -21.15161133 5.01586914 C-18.37191815 5.03673335 -15.59224149 5.04969013 -12.8125 5.0625 C-11.85279297 5.07087891 -10.89308594 5.07925781 -9.90429688 5.08789062 C-8.97294922 5.09111328 -8.04160156 5.09433594 -7.08203125 5.09765625 C-6.22843018 5.10289307 -5.3748291 5.10812988 -4.49536133 5.11352539 C-1.90753253 4.99579323 0.47661953 4.57107044 3 4 C3 3.34 3 2.68 3 2 C2.01 1.67 1.02 1.34 0 1 C0 0.67 0 0.34 0 0 Z " fill="#5E183D" transform="translate(130,215)"/>
<path d="M0 0 C3 1 6 2 9 3 C9.66 2.67 10.32 2.34 11 2 C23.31207591 0.96265659 23.31207591 0.96265659 27.75 3.8125 C30 6 30 6 31 9 C29.625 10.5 29.625 10.5 28 12 C27.34 12 26.68 12 26 12 C26 12.99 26 13.98 26 15 C24.68 15 23.36 15 22 15 C22 17.97 22 20.94 22 24 C21.2575 23.690625 20.515 23.38125 19.75 23.0625 C17.4876042 22.18839253 15.35025921 21.55743327 13 21 C12.92652344 22.33804688 12.92652344 22.33804688 12.8515625 23.703125 C12.77679688 24.87359375 12.70203125 26.0440625 12.625 27.25 C12.55539063 28.41015625 12.48578125 29.5703125 12.4140625 30.765625 C12.03751692 33.70694334 11.5225877 35.49949011 10 38 C7.8125 38 7.8125 38 5 37 C-0.25503085 31.55572981 -0.85291499 25.27402219 -1 18 C-2.65 18.33 -4.3 18.66 -6 19 C-8.28062828 15.57905758 -8.21925007 14.31812778 -8.125 10.3125 C-8.10695312 9.31863281 -8.08890625 8.32476562 -8.0703125 7.30078125 C-8.04710937 6.54152344 -8.02390625 5.78226562 -8 5 C-5.35261084 3.5393715 -4.10551666 3 -1 3 C-0.67 2.01 -0.34 1.02 0 0 Z " fill="#524641" transform="translate(56,75)"/>
<path d="M0 0 C3.23580609 1.61790305 3.72679445 3.64336718 5 7 C5.24780253 10.68163753 5.17698024 14.31618918 5 18 C5.99 18.33 6.98 18.66 8 19 C7.34 19.33 6.68 19.66 6 20 C5.31068656 22.34907875 5.31068656 22.34907875 4.875 25.0625 C4.70742187 25.98160156 4.53984375 26.90070313 4.3671875 27.84765625 C4.24601562 28.55792969 4.12484375 29.26820312 4 30 C0.62182575 30.84454356 -1.67465243 31.10844919 -5 30 C-5.22281874 31.91503674 -5.42771076 33.83216506 -5.625 35.75 C-5.74101563 36.81734375 -5.85703125 37.8846875 -5.9765625 38.984375 C-6.01201111 43.54542917 -4.69820107 45.28389633 -1.5625 48.5 C-0.716875 49.325 0.12875 50.15 1 51 C2.875 53.0625 2.875 53.0625 4 55 C3.5703125 57.12109375 3.5703125 57.12109375 3 59 C1.948125 57.80503906 1.948125 57.80503906 0.875 56.5859375 C-3.92555763 51.20164292 -8.51402073 46.14361869 -14.5390625 42.0859375 C-16 41 -16 41 -17 39 C-16.34 39 -15.68 39 -15 39 C-15.33 38.67 -15.66 38.34 -16 38 C-17.65 38.66 -19.3 39.32 -21 40 C-22.17571451 36.32589215 -22.07366746 32.83070817 -22 29 C-21.01 28.67 -20.02 28.34 -19 28 C-17.89485234 24.68455701 -17.67892369 21.79589889 -17.4375 18.3125 C-17.35371094 17.13300781 -17.26992187 15.95351562 -17.18359375 14.73828125 C-17.12300781 13.83464844 -17.06242187 12.93101563 -17 12 C-15.203125 11.37890625 -15.203125 11.37890625 -13 11 C-9.75 12.9375 -9.75 12.9375 -7 15 C-7 12.03 -7 9.06 -7 6 C-5.68 6 -4.36 6 -3 6 C-3 5.01 -3 4.02 -3 3 C-2.34 3 -1.68 3 -1 3 C-0.67 2.01 -0.34 1.02 0 0 Z " fill="#F4C0AC" transform="translate(85,84)"/>
<path d="M0 0 C3.72943822 0.13935544 7.45847096 0.28762301 11.1875 0.4375 C12.24259766 0.47681641 13.29769531 0.51613281 14.38476562 0.55664062 C15.40634766 0.59853516 16.42792969 0.64042969 17.48046875 0.68359375 C18.88655396 0.73858032 18.88655396 0.73858032 20.32104492 0.79467773 C23 1 23 1 25.70043945 1.54711914 C28.17618539 2.03469836 29.63111436 1.78962855 32 1 C31.34 1.33 30.68 1.66 30 2 C30.78521486 4.14663862 30.78521486 4.14663862 32.71923828 4.61523438 C39.30929691 6.03182956 45.70022015 6.39114838 52.421875 6.56640625 C53.22882813 6.59605469 54.03578125 6.62570313 54.8671875 6.65625 C55.95169189 6.68428711 55.95169189 6.68428711 57.05810547 6.71289062 C59 7 59 7 62 9 C62 10.32 62 11.64 62 13 C62.99 13.495 62.99 13.495 64 14 C62.02866014 15.37535339 60.02318078 16.70211044 58 18 C57.236875 18.495 56.47375 18.99 55.6875 19.5 C51.91946873 20.20102907 49.78069643 18.82525852 46.41796875 17.15234375 C43.31438138 15.67325122 40.13507289 14.6965827 36.84765625 13.7109375 C35 13 35 13 33 11 C27.78326219 8.74103877 22.71766383 8.57714448 17.125 8.375 C16.24585937 8.33632812 15.36671875 8.29765625 14.4609375 8.2578125 C12.30761207 8.16418966 10.15383586 8.08103541 8 8 C8 7.34 8 6.68 8 6 C6.35 5.67 4.7 5.34 3 5 C3 4.34 3 3.68 3 3 C1.68 3 0.36 3 -1 3 C-0.67 2.01 -0.34 1.02 0 0 Z " fill="#963D6E" transform="translate(77,218)"/>
<path d="M0 0 C0.26425781 0.58007812 0.52851562 1.16015625 0.80078125 1.7578125 C2.90347844 5.68923983 5.96087226 8.76938251 9 12 C9.57234375 12.62261719 10.1446875 13.24523437 10.734375 13.88671875 C12.4264042 15.55158235 13.9169232 16.85926747 16 18 C19.53111834 18.00166272 19.53111834 18.00166272 21.80078125 17.43359375 C25.81828457 16.6415105 29.92061359 16.92476541 34 17 C33.505 18.485 33.505 18.485 33 20 C31.02 20 29.04 20 27 20 C27 21.65 27 23.3 27 25 C27.680625 25.2475 28.36125 25.495 29.0625 25.75 C32.66996206 27.28509024 35.73380131 28.80159704 39 31 C39.8125 33.6875 39.8125 33.6875 40 36 C40.99 36.495 40.99 36.495 42 37 C42 37.66 42 38.32 42 39 C32.11152034 43.70969335 20.028518 41.13741345 10 38 C10 37.67 10 37.34 10 37 C10.91523437 37.08378906 11.83046875 37.16757813 12.7734375 37.25390625 C13.96195313 37.35574219 15.15046875 37.45757812 16.375 37.5625 C17.55835937 37.66691406 18.74171875 37.77132812 19.9609375 37.87890625 C22.91898631 38.24153596 22.91898631 38.24153596 25 37 C25.33 36.01 25.66 35.02 26 34 C26.66 34 27.32 34 28 34 C28 33.34 28 32.68 28 32 C29.65 32 31.3 32 33 32 C33.33 31.34 33.66 30.68 34 30 C33.29875 30.05800781 32.5975 30.11601562 31.875 30.17578125 C23.19889438 30.58836779 18.89611163 28.40909768 12.5 22.8125 C11 21 11 21 11 19 C10.13375 18.814375 9.2675 18.62875 8.375 18.4375 C3.97030802 16.56142749 1.13814503 14.34729856 -1 10 C-1.19663569 6.53618672 -0.7478033 3.37871129 0 0 Z " fill="#EFB1B6" transform="translate(91,180)"/>
<path d="M0 0 C3 1 6 2 9 3 C9.66 2.67 10.32 2.34 11 2 C23.31207591 0.96265659 23.31207591 0.96265659 27.75 3.8125 C30 6 30 6 31 9 C29.625 10.5 29.625 10.5 28 12 C27.34 12 26.68 12 26 12 C26 12.99 26 13.98 26 15 C24.68 15 23.36 15 22 15 C22 17.97 22 20.94 22 24 C17.125 22.25 17.125 22.25 16 20 C16.66 19.67 17.32 19.34 18 19 C18.65555119 16.47266765 18.65555119 16.47266765 19 14 C18.01 14 17.02 14 16 14 C15.67 14.99 15.34 15.98 15 17 C14.34 17 13.68 17 13 17 C12.67 17.99 12.34 18.98 12 20 C10.02 20 8.04 20 6 20 C6.60990891 16.44219804 7.5783681 13.3171411 9 10 C8.34 9.67 7.68 9.34 7 9 C7.66 9 8.32 9 9 9 C9 8.34 9 7.68 9 7 C5.7014861 7.72268235 5.7014861 7.72268235 4.3125 11.0625 C3.879375 12.031875 3.44625 13.00125 3 14 C2.34 14 1.68 14 1 14 C0.06380187 10.84493858 -0.1057123 8.03413498 -0.0625 4.75 C-0.05347656 3.85796875 -0.04445312 2.9659375 -0.03515625 2.046875 C-0.02355469 1.37140625 -0.01195312 0.6959375 0 0 Z " fill="#6C615A" transform="translate(56,75)"/>
<path d="M0 0 C5.06538379 1.32664814 8.32989689 3.24648545 12 7 C14.10648673 12.07471803 14.4358536 16.59541536 14 22 C12.20730333 26.15150807 9.61983266 28.35850049 6 31 C5.01 30.34 4.02 29.68 3 29 C3.495 28.505 3.495 28.505 4 28 C-4.32211384 23.30884225 -12.28109126 23.3381114 -21.5625 23.25 C-23.06318476 23.22179225 -24.56383811 23.19185823 -26.06445312 23.16015625 C-29.70948832 23.08686442 -33.35439394 23.03694333 -37 23 C-36.01 22.67 -35.02 22.34 -34 22 C-33.67 21.01 -33.34 20.02 -33 19 C-30.69 19 -28.38 19 -26 19 C-26.33 19.66 -26.66 20.32 -27 21 C-21.39 21 -15.78 21 -10 21 C-10 20.67 -10 20.34 -10 20 C-4.45445241 19.74206755 -4.45445241 19.74206755 -1.6875 21.3125 C1.78562394 22.20097356 2.73845718 21.33973951 5.8125 19.625 C7.21883261 18.76697652 8.61825429 17.89708109 10 17 C9.505 14.525 9.505 14.525 9 12 C6.3331926 11.1110642 4.61683183 10.84490741 1.8671875 10.75390625 C1.06023437 10.72103516 0.25328125 10.68816406 -0.578125 10.65429688 C-2.25249676 10.59394759 -3.92697868 10.53656851 -5.6015625 10.48242188 C-17.1680009 9.99743672 -17.1680009 9.99743672 -22 8 C-22.33 7.01 -22.66 6.02 -23 5 C-22.08504761 5.00785522 -22.08504761 5.00785522 -21.15161133 5.01586914 C-18.37191815 5.03673335 -15.59224149 5.04969013 -12.8125 5.0625 C-11.85279297 5.07087891 -10.89308594 5.07925781 -9.90429688 5.08789062 C-8.97294922 5.09111328 -8.04160156 5.09433594 -7.08203125 5.09765625 C-6.22843018 5.10289307 -5.3748291 5.10812988 -4.49536133 5.11352539 C-1.90753253 4.99579323 0.47661953 4.57107044 3 4 C3 3.34 3 2.68 3 2 C2.01 1.67 1.02 1.34 0 1 C0 0.67 0 0.34 0 0 Z " fill="#783956" transform="translate(130,215)"/>
<path d="M0 0 C0.99 0 1.98 0 3 0 C2.84402344 0.74378906 2.68804687 1.48757812 2.52734375 2.25390625 C1.79095785 7.4849735 1.65530632 12.66034083 1.5625 17.9375 C1.51673828 18.99646484 1.47097656 20.05542969 1.42382812 21.14648438 C1.34820276 26.41724333 1.41130172 30.03350224 4.87109375 34.19140625 C6.78418772 36.12391652 7.94346008 36.97738403 10.5 38 C13.31009138 39.12403655 14.07707578 40.11317779 15.9375 42.4375 C18.5696955 45.71919829 21.04975019 47.40108936 25 49 C25 49.33 25 49.66 25 50 C17.33183857 51.567713 17.33183857 51.567713 14.06640625 50.17578125 C12.4375 49.0625 12.4375 49.0625 10 47 C11.32 46.34 12.64 45.68 14 45 C12.44066679 43.72528295 10.87738294 42.45539786 9.3125 41.1875 C8.44238281 40.47980469 7.57226562 39.77210938 6.67578125 39.04296875 C4.20000368 37.15270354 1.70203762 35.54332599 -1 34 C-1 34.66 -1 35.32 -1 36 C-3 36 -3 36 -4.76171875 34.49609375 C-9.98452381 28.91309524 -9.98452381 28.91309524 -10.0625 24.3125 C-9 21 -9 21 -8.00390625 18.71875 C-6.83303799 15.5478383 -6.34795731 12.53198386 -5.875 9.1875 C-5.62363281 7.44533203 -5.62363281 7.44533203 -5.3671875 5.66796875 C-5.24601562 4.78753906 -5.12484375 3.90710938 -5 3 C-3.35 2.67 -1.7 2.34 0 2 C0 1.34 0 0.68 0 0 Z " fill="#762448" transform="translate(89,160)"/>
<path d="M0 0 C4.57892717 1.28343652 7.53813604 2.98132376 11.1875 6 C17.21414543 10.68654965 23.59290739 14.14256046 30.4128418 17.54882812 C34.68689808 19.69887482 38.32532337 21.89013478 42 25 C44.6794645 26.24016669 44.6794645 26.24016669 47 27 C46.67 27.66 46.34 28.32 46 29 C42.51987918 28.52759949 39.04110146 28.0459514 35.5625 27.5625 C34.56927734 27.42779297 33.57605469 27.29308594 32.55273438 27.15429688 C31.60849609 27.02216797 30.66425781 26.89003906 29.69140625 26.75390625 C28.81685791 26.63345947 27.94230957 26.5130127 27.04125977 26.38891602 C25 26 25 26 24 25 C22.48530552 24.76807135 20.96245438 24.58784762 19.4375 24.4375 C18.61121094 24.35371094 17.78492187 24.26992187 16.93359375 24.18359375 C15.97646484 24.09271484 15.97646484 24.09271484 15 24 C13.74335022 21.09399739 13 19.20395416 13 16 C12.01 15.67 11.02 15.34 10 15 C9.67 13.35 9.34 11.7 9 10 C4.32047386 8.19558808 4.32047386 8.19558808 -0.4375 8.875 C-0.953125 9.24625 -1.46875 9.6175 -2 10 C-3.39195915 5.82412255 -1.82323219 3.86525224 0 0 Z " fill="#550F2E" transform="translate(59,192)"/>
<path d="M0 0 C0.66 0.33 1.32 0.66 2 1 C2 1.99 2 2.98 2 4 C4.60545745 4.52204066 7.20878861 5.03754152 9.82421875 5.5078125 C12.71465901 6.13085419 15.30285006 6.78038115 18 8 C19.75 11.5625 19.75 11.5625 20 15 C19.67 15.66 19.34 16.32 19 17 C17.93394531 16.84402344 16.86789063 16.68804687 15.76953125 16.52734375 C9.01592549 15.68072518 2.20201746 15.64821994 -4.59570312 15.48242188 C-5.63275391 15.44826172 -6.66980469 15.41410156 -7.73828125 15.37890625 C-8.67712158 15.3538501 -9.61596191 15.32879395 -10.58325195 15.30297852 C-13 15 -13 15 -16 13 C-15.45127532 9.15892722 -13.98081203 7.43171508 -11 5 C-6.96527316 2.98263658 -4.53939487 2 0 2 C0 1.34 0 0.68 0 0 Z " fill="#FEE1CF" transform="translate(53,228)"/>
<path d="M0 0 C9.85259803 3.37154507 18.52058394 13.4075995 24 22 C23.67 22.99 23.34 23.98 23 25 C22.07316406 24.91621094 21.14632812 24.83242187 20.19140625 24.74609375 C18.99386719 24.64425781 17.79632813 24.54242188 16.5625 24.4375 C15.36753906 24.33308594 14.17257813 24.22867188 12.94140625 24.12109375 C11.97074219 24.08113281 11.00007813 24.04117188 10 24 C8.58816215 25.18454572 8.58816215 25.18454572 8.875 28.5625 C8.8994517 32.37696515 9.15987305 36.14918134 9.46166992 39.95092773 C9.95643775 46.34741052 10.17293802 51.8646456 8 58 C7.01 58 6.02 58 5 58 C4.8605381 49.78724362 5.03425063 41.58302127 5.3125 33.375 C5.33497803 32.40288574 5.35745605 31.43077148 5.38061523 30.42919922 C5.41614502 29.51154785 5.4516748 28.59389648 5.48828125 27.6484375 C5.51446533 26.82520996 5.54064941 26.00198242 5.56762695 25.15380859 C6.09436867 22.52991505 7.1089843 21.81618801 9 20 C9.81326691 14.00215654 8.79490471 10.70957719 5.37890625 5.765625 C3.73618287 3.66219449 1.99515673 1.77347265 0 0 Z " fill="#722B47" transform="translate(69,126)"/>
<path d="M0 0 C3.55780196 0.60990891 6.6828589 1.5783681 10 3 C10 3.66 10 4.32 10 5 C11.19625 4.5875 12.3925 4.175 13.625 3.75 C17.39394081 2.77088014 17.80287872 2.89439932 21.5 4.875 C22.7375 5.926875 22.7375 5.926875 24 7 C24.66 6.34 25.32 5.68 26 5 C26.53625 5.639375 27.0725 6.27875 27.625 6.9375 C31.23215973 10.07003345 34.64529505 10.06367591 39.32421875 9.84375 C40.43410156 9.7303125 41.54398438 9.616875 42.6875 9.5 C48.67639257 8.89213086 48.67639257 8.89213086 52 10 C51.67 11.32 51.34 12.64 51 14 C51 13.34 51 12.68 51 12 C49.35 12 47.7 12 46 12 C46 12.66 46 13.32 46 14 C45.34 14.33 44.68 14.66 44 15 C44 15.99 44 16.98 44 18 C39.93047254 19.05534387 36.6483995 18.91828264 32.5 18.3125 C30.84484375 18.09013672 30.84484375 18.09013672 29.15625 17.86328125 C25.52370557 16.8697264 23.87316453 15.40355369 21 13 C17.46633022 10.963976 13.79652864 9.18009461 10.15039062 7.35546875 C6.16455653 5.31163136 2.96485501 3.46030823 0 0 Z " fill="#FAC9BE" transform="translate(73,200)"/>
<path d="M0 0 C8.12132836 -0.35122179 14.68310652 -0.53857352 21.65869141 4.11181641 C21.65869141 4.77181641 21.65869141 5.43181641 21.65869141 6.11181641 C20.66869141 6.11181641 19.67869141 6.11181641 18.65869141 6.11181641 C18.65869141 6.77181641 18.65869141 7.43181641 18.65869141 8.11181641 C19.64869141 8.44181641 20.63869141 8.77181641 21.65869141 9.11181641 C18.20037656 9.14130873 14.74209487 9.15877801 11.28369141 9.17431641 C10.31818359 9.18269531 9.35267578 9.19107422 8.35791016 9.19970703 C2.06044851 9.22083945 -4.08970722 8.87288838 -10.34130859 8.11181641 C-10.34130859 7.78181641 -10.34130859 7.45181641 -10.34130859 7.11181641 C-8.69130859 6.78181641 -7.04130859 6.45181641 -5.34130859 6.11181641 C-11.28130859 5.12181641 -11.28130859 5.12181641 -17.34130859 4.11181641 C-17.34130859 3.45181641 -17.34130859 2.79181641 -17.34130859 2.11181641 C-18.66130859 1.78181641 -19.98130859 1.45181641 -21.34130859 1.11181641 C-14.22978471 0.67894104 -7.11636083 0.33986374 0 0 Z " fill="#762B52" transform="translate(109.34130859375,238.88818359375)"/>
<path d="M0 0 C1.65 0 3.3 0 5 0 C5.3403125 0.928125 5.3403125 0.928125 5.6875 1.875 C7.37929835 4.61410209 8.99244161 5.05024472 12 6 C11.85691406 7.01320313 11.85691406 7.01320313 11.7109375 8.046875 C11.54464844 9.38492188 11.54464844 9.38492188 11.375 10.75 C11.25898437 11.63171875 11.14296875 12.5134375 11.0234375 13.421875 C10.98484147 17.66743799 12.52543184 19.51326343 15.4375 22.5 C16.283125 23.325 17.12875 24.15 18 25 C19.875 27.0625 19.875 27.0625 21 29 C20.5703125 31.12109375 20.5703125 31.12109375 20 33 C19.29875 32.20335937 18.5975 31.40671875 17.875 30.5859375 C13.07444237 25.20164292 8.48597927 20.14361869 2.4609375 16.0859375 C1 15 1 15 0 13 C0.66 13 1.32 13 2 13 C1.67 12.67 1.34 12.34 1 12 C-0.65 12.66 -2.3 13.32 -4 14 C-4.75 12.3125 -4.75 12.3125 -5 10 C-3.69864875 8.30824337 -2.36244796 6.64295195 -1 5 C-0.21053391 2.31492671 -0.21053391 2.31492671 0 0 Z " fill="#F2CFBE" transform="translate(68,110)"/>
<path d="M0 0 C2.97 0 5.94 0 9 0 C9 0.99 9 1.98 9 3 C10.216875 2.773125 11.43375 2.54625 12.6875 2.3125 C15.75650059 1.93703716 16.95724163 1.98362445 19.9375 3.125 C22.42427114 5.38570104 22.57128679 6.7417796 23 10 C23.66 10.33 24.32 10.66 25 11 C25 11.66 25 12.32 25 13 C15.11152034 17.70969335 3.028518 15.13741345 -7 12 C-7 11.67 -7 11.34 -7 11 C-6.08476563 11.08378906 -5.16953125 11.16757813 -4.2265625 11.25390625 C-3.03804688 11.35574219 -1.84953125 11.45757812 -0.625 11.5625 C0.55835937 11.66691406 1.74171875 11.77132812 2.9609375 11.87890625 C5.91898631 12.24153596 5.91898631 12.24153596 8 11 C8.33 10.01 8.66 9.02 9 8 C9.66 8 10.32 8 11 8 C11 7.34 11 6.68 11 6 C12.65 6 14.3 6 16 6 C16.33 5.34 16.66 4.68 17 4 C16.27554688 4.03480469 15.55109375 4.06960937 14.8046875 4.10546875 C9.06001832 4.26631949 4.98677034 4.23466184 0 1 C0 0.67 0 0.34 0 0 Z " fill="#DF9CA0" transform="translate(108,206)"/>
<path d="M0 0 C0.99 0 1.98 0 3 0 C3 2.64 3 5.28 3 8 C2.01 8.495 2.01 8.495 1 9 C0.34786708 11.02463255 0.34786708 11.02463255 0 13 C2.86136296 12.88593998 2.86136296 12.88593998 6 12 C7.38576923 10.37667033 8.72641268 8.71275535 10 7 C10.99 7 11.98 7 13 7 C13 8.65 13 10.3 13 12 C11.02 12.66 9.04 13.32 7 14 C6.67 18.29 6.34 22.58 6 27 C4.02 26.67 2.04 26.34 0 26 C0.33 24.35 0.66 22.7 1 21 C0.38125 20.690625 -0.2375 20.38125 -0.875 20.0625 C-2.25 19.375 -3.625 18.6875 -5 18 C-5 17.34 -5 16.68 -5 16 C-3.68 16.33 -2.36 16.66 -1 17 C-1.66 14.69 -2.32 12.38 -3 10 C-2.34 9.67 -1.68 9.34 -1 9 C-1.99 9 -2.98 9 -4 9 C-2.94124926 5.59687262 -1.99097846 2.98646769 0 0 Z " fill="#48372E" transform="translate(62,82)"/>
<path d="M0 0 C8.88556898 8.39192626 8.88556898 8.39192626 9.09375 13.13671875 C8.6376862 17.93353262 7.35319236 22.38322606 6 27 C5.48444583 29.90948402 5.00820942 32.821199 4.5625 35.7421875 C4.2840625 36.85980469 4.2840625 36.85980469 4 38 C3.01 38.495 3.01 38.495 2 39 C1.77837143 36.22964291 1.57220751 33.45961005 1.375 30.6875 C1.31054688 29.90181641 1.24609375 29.11613281 1.1796875 28.30664062 C1.128125 27.54931641 1.0765625 26.79199219 1.0234375 26.01171875 C0.97106934 25.31522217 0.91870117 24.61872559 0.86474609 23.90112305 C1 22 1 22 3 19 C2.01 18.67 1.02 18.34 0 18 C0.5859375 11.84765625 0.5859375 11.84765625 1 10 C1.66 9.67 2.32 9.34 3 9 C2.690625 8.443125 2.38125 7.88625 2.0625 7.3125 C0.94238179 4.87459567 0.43962636 2.63775814 0 0 Z " fill="#7E4057" transform="translate(89,141)"/>
<path d="M0 0 C0.66 0.33 1.32 0.66 2 1 C2 1.99 2 2.98 2 4 C4.60545745 4.52204066 7.20878861 5.03754152 9.82421875 5.5078125 C12.71465901 6.13085419 15.30285006 6.78038115 18 8 C19.75 11.5625 19.75 11.5625 20 15 C19.67 15.66 19.34 16.32 19 17 C11.08 16.34 3.16 15.68 -5 15 C-5 14.67 -5 14.34 -5 14 C-4.38511719 13.93941406 -3.77023438 13.87882813 -3.13671875 13.81640625 C-1.92435547 13.69072266 -1.92435547 13.69072266 -0.6875 13.5625 C0.11300781 13.48128906 0.91351563 13.40007812 1.73828125 13.31640625 C4.16087179 13.04734307 4.16087179 13.04734307 7 12 C6.67 10.68 6.34 9.36 6 8 C3.03 7.505 3.03 7.505 0 7 C0 6.34 0 5.68 0 5 C-1.98 5 -3.96 5 -6 5 C-6 4.34 -6 3.68 -6 3 C-4.02 2.67 -2.04 2.34 0 2 C0 1.34 0 0.68 0 0 Z " fill="#ECB7B1" transform="translate(53,228)"/>
<path d="M0 0 C0.33 0 0.66 0 1 0 C2.125 7.75 2.125 7.75 1 10 C0.34 10 -0.32 10 -1 10 C-6.22054939 19.78026974 -5.69324386 31.71274145 -3.51953125 42.3515625 C-3.01680155 44.09779285 -3.01680155 44.09779285 -2 46 C1.02934491 46.65772428 1.02934491 46.65772428 4 47 C3.67 47.66 3.34 48.32 3 49 C-0.25 48.9375 -0.25 48.9375 -4 48 C-9.51372924 41.80113281 -9.42763083 33.74784169 -9.28125 25.88671875 C-8.88205595 20.37007874 -7.29772956 15.98453153 -5 11 C-4.54496094 9.97003906 -4.08992188 8.94007813 -3.62109375 7.87890625 C-2.44072669 5.23905399 -1.2341707 2.61502563 0 0 Z " fill="#7C4E61" transform="translate(59,184)"/>
<path d="M0 0 C5.19666421 1.3610311 8.2137251 3.30387451 12 7 C12 7.99 12 8.98 12 10 C11.030625 9.814375 10.06125 9.62875 9.0625 9.4375 C8.051875 9.293125 7.04125 9.14875 6 9 C5.67 9.33 5.34 9.66 5 10 C-13.75793282 10.84725957 -13.75793282 10.84725957 -22 8 C-22.33 7.01 -22.66 6.02 -23 5 C-22.08504761 5.00785522 -22.08504761 5.00785522 -21.15161133 5.01586914 C-18.37191815 5.03673335 -15.59224149 5.04969013 -12.8125 5.0625 C-11.85279297 5.07087891 -10.89308594 5.07925781 -9.90429688 5.08789062 C-8.97294922 5.09111328 -8.04160156 5.09433594 -7.08203125 5.09765625 C-6.22843018 5.10289307 -5.3748291 5.10812988 -4.49536133 5.11352539 C-1.90753253 4.99579323 0.47661953 4.57107044 3 4 C3 3.34 3 2.68 3 2 C2.01 1.67 1.02 1.34 0 1 C0 0.67 0 0.34 0 0 Z " fill="#78344F" transform="translate(130,215)"/>
<path d="M0 0 C5.49152542 0.61016949 5.49152542 0.61016949 7.875 2.4375 C9 4 9 4 9 6 C7.625 7.625 7.625 7.625 6 9 C5.34 9 4.68 9 4 9 C4 9.99 4 10.98 4 12 C2.68 12 1.36 12 0 12 C0 14.97 0 17.94 0 21 C-4.875 19.25 -4.875 19.25 -6 17 C-5.34 16.67 -4.68 16.34 -4 16 C-4.01160156 15.39671875 -4.02320312 14.7934375 -4.03515625 14.171875 C-4.04417969 13.37265625 -4.05320312 12.5734375 -4.0625 11.75 C-4.07410156 10.96109375 -4.08570312 10.1721875 -4.09765625 9.359375 C-4.00385306 7.09308998 -3.63241063 5.1711105 -3 3 C-2.34 3 -1.68 3 -1 3 C-0.67 2.01 -0.34 1.02 0 0 Z " fill="#6B6056" transform="translate(78,78)"/>
<path d="M0 0 C1 3 1 3 1.25 6.375 C2.16508225 10.79789753 3.50257323 12.21795598 7 15 C8.2065625 15.433125 8.2065625 15.433125 9.4375 15.875 C12.22750285 17.0998793 13.06555136 18.10243907 14.9375 20.4375 C17.5696955 23.71919829 20.04975019 25.40108936 24 27 C24 27.33 24 27.66 24 28 C16.33183857 29.567713 16.33183857 29.567713 13.06640625 28.17578125 C11.4375 27.0625 11.4375 27.0625 9 25 C10.32 24.34 11.64 23.68 13 23 C11.44066679 21.72528295 9.87738294 20.45539786 8.3125 19.1875 C7.44238281 18.47980469 6.57226562 17.77210938 5.67578125 17.04296875 C3.20000368 15.15270354 0.70203762 13.54332599 -2 12 C-2 12.66 -2 13.32 -2 14 C-2.66 14 -3.32 14 -4 14 C-3.79375 13.38125 -3.5875 12.7625 -3.375 12.125 C-3.25125 11.42375 -3.1275 10.7225 -3 10 C-3.66 9.34 -4.32 8.68 -5 8 C-3.35 5.36 -1.7 2.72 0 0 Z " fill="#75434B" transform="translate(90,182)"/>
<path d="M0 0 C1.46109063 0.25554054 2.91888096 0.53000372 4.375 0.8125 C5.59316406 1.03873047 5.59316406 1.03873047 6.8359375 1.26953125 C9 2 9 2 11 5 C10.625 8.1875 10.625 8.1875 10 11 C8.68 11 7.36 11 6 11 C6 11.66 6 12.32 6 13 C4.67732273 14.01405257 3.34275169 15.01268258 2 16 C1.34 16.99 0.68 17.98 0 19 C-2.14084507 4.28169014 -2.14084507 4.28169014 0 0 Z " fill="#9A4877" transform="translate(78,149)"/>
<path d="M0 0 C8.44333791 -0.42691034 14.75903687 -0.63421641 22 4 C22 4.66 22 5.32 22 6 C21.01 6 20.02 6 19 6 C19 6.66 19 7.32 19 8 C19.99 8.33 20.98 8.66 22 9 C14.74 9 7.48 9 0 9 C0 8.67 0 8.34 0 8 C1.10408203 7.92652344 1.10408203 7.92652344 2.23046875 7.8515625 C3.20628906 7.77679688 4.18210937 7.70203125 5.1875 7.625 C6.15042969 7.55539063 7.11335938 7.48578125 8.10546875 7.4140625 C11.01508938 6.99784147 13.32890774 6.20125904 16 5 C14.97519531 5.01160156 13.95039062 5.02320313 12.89453125 5.03515625 C11.533856 5.04454022 10.17317876 5.05363977 8.8125 5.0625 C8.13896484 5.07087891 7.46542969 5.07925781 6.77148438 5.08789062 C3.04565869 5.10606538 -0.3788042 4.89299392 -4 4 C-3.67 3.34 -3.34 2.68 -3 2 C-0.36 2 2.28 2 5 2 C3.35 1.67 1.7 1.34 0 1 C0 0.67 0 0.34 0 0 Z " fill="#7B3257" transform="translate(109,239)"/>
<path d="M0 0 C4.96140578 1.26919683 7.88625668 2.87886913 11 7 C11.3125 10.8125 11.3125 10.8125 11 14 C11.61875 14.309375 12.2375 14.61875 12.875 14.9375 C14.25 15.625 15.625 16.3125 17 17 C17 18.65 17 20.3 17 22 C18.98 22.33 20.96 22.66 23 23 C23 23.33 23 23.66 23 24 C20.36 24 17.72 24 15 24 C13.74335022 21.09399739 13 19.20395416 13 16 C12.01 15.67 11.02 15.34 10 15 C9.67 13.35 9.34 11.7 9 10 C4.32047386 8.19558808 4.32047386 8.19558808 -0.4375 8.875 C-0.953125 9.24625 -1.46875 9.6175 -2 10 C-3.39195915 5.82412255 -1.82323219 3.86525224 0 0 Z " fill="#64183D" transform="translate(59,192)"/>
<path d="M0 0 C6.76923077 3.44615385 6.76923077 3.44615385 7.9375 6.25 C7.958125 6.8275 7.97875 7.405 8 8 C10.31 8.66 12.62 9.32 15 10 C15 10.66 15 11.32 15 12 C17.475 12.495 17.475 12.495 20 13 C16.94736336 13.98120464 15.05263664 13.98120464 12 13 C12 13.66 12 14.32 12 15 C9.0625 14.25 9.0625 14.25 6 13 C5.125 10.875 5.125 10.875 5 9 C3.35 9 1.7 9 0 9 C0.0825 9.7425 0.165 10.485 0.25 11.25 C-0.07105184 14.78157027 -1.35265617 15.76630364 -4 18 C-4.33 16.02 -4.66 14.04 -5 12 C-4.01 11.67 -3.02 11.34 -2 11 C-1.34 7.37 -0.68 3.74 0 0 Z " fill="#DCB096" transform="translate(68,101)"/>
<path d="M0 0 C3.20932655 0.08147098 6.41683439 0.19425746 9.625 0.3125 C10.98044922 0.34633789 10.98044922 0.34633789 12.36328125 0.38085938 C17.63132126 0.59235003 21.40065018 1.15023674 26 4 C26 4.66 26 5.32 26 6 C20.85910079 6.90249856 16.30273626 6.97986395 11.0625 6.5625 C10.03672852 6.48418945 10.03672852 6.48418945 8.99023438 6.40429688 C7.32628831 6.27630102 5.6630527 6.13912281 4 6 C3.67 5.01 3.34 4.02 3 3 C1.68 3 0.36 3 -1 3 C-0.67 2.01 -0.34 1.02 0 0 Z " fill="#A24579" transform="translate(77,218)"/>
<path d="M0 0 C0.74737188 5.97897503 -1.6768102 9.32379721 -5 14 C-4.34 14.66 -3.68 15.32 -3 16 C-3.33 16.66 -3.66 17.32 -4 18 C-7.36591866 16.55746343 -9.51047079 14.66735273 -12 12 C-11.67 11.34 -11.34 10.68 -11 10 C-10.34 10 -9.68 10 -9 10 C-9.061875 9.278125 -9.12375 8.55625 -9.1875 7.8125 C-8.96072669 4.4109003 -8.03212621 2.70950161 -6 0 C-3 -1 -3 -1 0 0 Z " fill="#71203D" transform="translate(91,176)"/>
<path d="M0 0 C1.95396994 2.93095491 2.30160424 3.87939555 2.6328125 7.203125 C2.71660156 8.01910156 2.80039063 8.83507812 2.88671875 9.67578125 C2.96535156 10.52527344 3.04398437 11.37476563 3.125 12.25 C3.21136719 13.08402344 3.29773438 13.91804687 3.38671875 14.77734375 C4.09043142 21.89266074 4.65107296 28.20662553 2 35 C1.01 35 0.02 35 -1 35 C-1.19847988 23.31174052 -0.59079499 11.66977237 0 0 Z " fill="#66263D" transform="translate(75,149)"/>
<path d="M0 0 C4.31098397 1.57658842 8.22289487 3.71320582 12.1875 6 C12.81591797 6.35578125 13.44433594 6.7115625 14.09179688 7.078125 C16.66706373 8.55442771 18.89138726 9.89138726 21 12 C13.25 11.25 13.25 11.25 11 9 C10.8509288 11.0745356 10.8509288 11.0745356 12 13 C11.67 13.66 11.34 14.32 11 15 C9.68 15 8.36 15 7 15 C7 13.35 7 11.7 7 10 C6.38125 9.690625 5.7625 9.38125 5.125 9.0625 C3.75 8.375 2.375 7.6875 1 7 C0.59270772 4.67843403 0.25561323 2.3431213 0 0 Z " fill="#43061B" transform="translate(69,199)"/>
<path d="M0 0 C0.66 0.33 1.32 0.66 2 1 C2 1.66 2 2.32 2 3 C2.66 3 3.32 3 4 3 C4.33 4.32 4.66 5.64 5 7 C5.66 6.67 6.32 6.34 7 6 C7 9.63 7 13.26 7 17 C2.70574125 15.92643531 2.25259529 15.4915227 0 12 C0.66 12 1.32 12 2 12 C1.67 11.67 1.34 11.34 1 11 C-0.65 11.66 -2.3 12.32 -4 13 C-4.75 11.3125 -4.75 11.3125 -5 9 C-3.71937515 7.2925002 -2.38232443 5.62626404 -1 4 C-0.22166466 1.81785432 -0.22166466 1.81785432 0 0 Z " fill="#FEEDD5" transform="translate(68,111)"/>
<path d="M0 0 C2 1 2 1 4 4 C3.625 7.6875 3.625 7.6875 3 11 C2.01 11 1.02 11 0 11 C0.33 12.65 0.66 14.3 1 16 C-1.375 16.125 -1.375 16.125 -4 16 C-6 14 -6 14 -6.3125 11.5 C-6.209375 10.675 -6.10625 9.85 -6 9 C-5.01 8.34 -4.02 7.68 -3 7 C-1.92863949 4.69855891 -0.92010283 2.3659787 0 0 Z " fill="#FCDDD0" transform="translate(85,84)"/>
<path d="M0 0 C0 0.66 0 1.32 0 2 C6.93 2.495 6.93 2.495 14 3 C12 5 12 5 9.55859375 5.23046875 C0.35048255 5.10369876 -8.81372325 4.61608563 -18 4 C-18 3.67 -18 3.34 -18 3 C-16.02 3 -14.04 3 -12 3 C-12 2.34 -12 1.68 -12 1 C-8.0186217 -0.3271261 -4.14954773 -0.06915913 0 0 Z " fill="#45112F" transform="translate(92,241)"/>
<path d="M0 0 C3.77112931 0.13874615 7.54181445 0.28721093 11.3125 0.4375 C12.9202832 0.49647461 12.9202832 0.49647461 14.56054688 0.55664062 C16.10258789 0.61948242 16.10258789 0.61948242 17.67578125 0.68359375 C18.62364502 0.72025146 19.57150879 0.75690918 20.5480957 0.79467773 C23 1 23 1 26 2 C26 2.66 26 3.32 26 4 C22.60423938 4.05830787 19.2086085 4.09369946 15.8125 4.125 C14.85279297 4.14175781 13.89308594 4.15851563 12.90429688 4.17578125 C11.97294922 4.18222656 11.04160156 4.18867188 10.08203125 4.1953125 C9.22843018 4.20578613 8.3748291 4.21625977 7.49536133 4.22705078 C4.69273185 3.97204194 2.55270581 3.15541422 0 2 C0 1.34 0 0.68 0 0 Z " fill="#480A1C" transform="translate(107,220)"/>
<path d="M0 0 C1.32 0 2.64 0 4 0 C3.90460937 0.74765625 3.80921875 1.4953125 3.7109375 2.265625 C3.60007812 3.25046875 3.48921875 4.2353125 3.375 5.25 C3.20097656 6.71179688 3.20097656 6.71179688 3.0234375 8.203125 C2.99887463 11.13429393 3.4687283 12.54528964 5 15 C3.35 15.33 1.7 15.66 0 16 C-2.24234009 12.63648987 -2.27098215 11.37689944 -2.25 7.4375 C-2.25515625 6.46683594 -2.2603125 5.49617188 -2.265625 4.49609375 C-2 2 -2 2 0 0 Z " fill="#8E7965" transform="translate(50,78)"/>
<path d="M0 0 C4.04224085 1.39588173 6.94148485 3.30564036 10.25 6 C11.12140625 6.70125 11.9928125 7.4025 12.890625 8.125 C15 10 15 10 16 12 C9.44436926 11.88293517 6.34773287 10.21212472 1.46875 5.88671875 C0 4 0 4 0 0 Z " fill="#FCF9F8" transform="translate(88,194)"/>
<path d="M0 0 C0.33 1.32 0.66 2.64 1 4 C0.01 4.66 -0.98 5.32 -2 6 C-2.25030977 8.58380177 -2.25030977 8.58380177 -2 11 C-0.02 11.66 1.96 12.32 4 13 C3.67 11.35 3.34 9.7 3 8 C3.99 8 4.98 8 6 8 C5.67 6.68 5.34 5.36 5 4 C5.99 4 6.98 4 8 4 C7.8864371 5.64666203 7.75882619 7.29236082 7.625 8.9375 C7.55539063 9.85402344 7.48578125 10.77054688 7.4140625 11.71484375 C7.27742188 12.46894531 7.14078125 13.22304687 7 14 C6.01 14.495 6.01 14.495 5 15 C4.34 14.67 3.68 14.34 3 14 C2.67 14.66 2.34 15.32 2 16 C1.01 16 0.02 16 -1 16 C-1 15.34 -1 14.68 -1 14 C-2.32 14.33 -3.64 14.66 -5 15 C-5.33 14.01 -5.66 13.02 -6 12 C-5.34 12 -4.68 12 -4 12 C-4 9.03 -4 6.06 -4 3 C-2.68 3 -1.36 3 0 3 C0 2.01 0 1.02 0 0 Z " fill="#F6C0AE" transform="translate(82,87)"/>
<path d="M0 0 C1.65 0.33 3.3 0.66 5 1 C5.8125 3.1875 5.8125 3.1875 6 6 C3.61105318 9.09157823 1.96805899 10.72033851 -1.8125 11.8125 C-2.534375 11.874375 -3.25625 11.93625 -4 12 C-3.814375 11.236875 -3.62875 10.47375 -3.4375 9.6875 C-2.77180827 6.91032625 -2.77180827 6.91032625 -4 4 C-3.01 4 -2.02 4 -1 4 C-0.67 2.68 -0.34 1.36 0 0 Z " fill="#FCCFB4" transform="translate(73,140)"/>
<path d="M0 0 C4.02009457 -0.07455949 8.03991733 -0.12879358 12.06054688 -0.16479492 C13.42617816 -0.17981428 14.79176176 -0.20023608 16.15722656 -0.22631836 C18.12803905 -0.26300137 20.09921408 -0.27818551 22.0703125 -0.29296875 C23.25383301 -0.3086792 24.43735352 -0.32438965 25.65673828 -0.34057617 C29.38940123 0.03966808 31.74333309 1.19218801 35 3 C37.73572585 3.69907414 37.73572585 3.69907414 40 4 C39.34 4.66 38.68 5.32 38 6 C38.66 6.66 39.32 7.32 40 8 C39 9 39 9 35.4375 9.0625 C34.303125 9.041875 33.16875 9.02125 32 9 C32 8.34 32 7.68 32 7 C32.99 7 33.98 7 35 7 C35 6.34 35 5.68 35 5 C30.07136394 3.0019043 26.13990644 1.85905796 20.80078125 1.68359375 C19.59228516 1.64169922 18.38378906 1.59980469 17.13867188 1.55664062 C15.87603516 1.51732422 14.61339844 1.47800781 13.3125 1.4375 C12.03826172 1.39431641 10.76402344 1.35113281 9.45117188 1.30664062 C6.30089148 1.2004514 3.15053161 1.09840467 0 1 C0 0.67 0 0.34 0 0 Z " fill="#470A25" transform="translate(96,238)"/>
<path d="M0 0 C0.2475 0.556875 0.495 1.11375 0.75 1.6875 C1.97628912 4.14724713 1.97628912 4.14724713 4.125 6.5 C6 9 6 9 6 13 C6.66 13 7.32 13 8 13 C7.67 14.65 7.34 16.3 7 18 C3.02530439 15.16686188 0.35297417 13.25747047 -1 8.4375 C-1 5.42499447 -0.7901767 2.89731456 0 0 Z " fill="#DAA9A1" transform="translate(91,180)"/>
<path d="M0 0 C5.75 1.625 5.75 1.625 8 5 C6.35 7.97 4.7 10.94 3 14 C2.34 14 1.68 14 1 14 C0.06380187 10.84493858 -0.1057123 8.03413498 -0.0625 4.75 C-0.05347656 3.85796875 -0.04445312 2.9659375 -0.03515625 2.046875 C-0.02355469 1.37140625 -0.01195312 0.6959375 0 0 Z " fill="#9E836A" transform="translate(56,75)"/>
<path d="M0 0 C0.33 0 0.66 0 1 0 C2.125 7.75 2.125 7.75 1 10 C0.34 10 -0.32 10 -1 10 C-3.6706066 15.13578192 -6.12689787 20.23752594 -7 26 C-7.66 26 -8.32 26 -9 26 C-8.52598549 19.43903731 -6.72983743 14.42226316 -3.9375 8.5 C-3.56044922 7.67757812 -3.18339844 6.85515625 -2.79492188 6.0078125 C-1.8729514 4.00048438 -0.94127457 1.99832944 0 0 Z " fill="#8A6D78" transform="translate(59,184)"/>
<path d="M0 0 C0.69480469 0.32742187 1.38960938 0.65484375 2.10546875 0.9921875 C5.36368828 2.12662831 7.87449502 2.20056055 11.3125 2.125 C12.38113281 2.10695312 13.44976562 2.08890625 14.55078125 2.0703125 C15.76314453 2.03550781 15.76314453 2.03550781 17 2 C16.67 2.99 16.34 3.98 16 5 C15.2575 5.144375 14.515 5.28875 13.75 5.4375 C12.13600307 5.76763574 10.52686625 6.12903648 8.9375 6.5625 C7 7 7 7 3 7 C0.75 5 0.75 5 -1 3 C-0.67 2.01 -0.34 1.02 0 0 Z " fill="#FEDCD4" transform="translate(100,208)"/>
<path d="M0 0 C0.33 2.97 0.66 5.94 1 9 C-0.258125 9.04125 -1.51625 9.0825 -2.8125 9.125 C-3.52019531 9.14820313 -4.22789063 9.17140625 -4.95703125 9.1953125 C-7 9 -7 9 -10 7 C-9.67 5.68 -9.34 4.36 -9 3 C-7.33333333 3 -5.66666667 3 -4 3 C-4 2.34 -4 1.68 -4 1 C-2 0 -2 0 0 0 Z " fill="#FBC5B2" transform="translate(47,234)"/>
<path d="M0 0 C2.9375 0.8125 2.9375 0.8125 6 2 C7 5 7 5 6 8 C6.66 8 7.32 8 8 8 C7.67 8.66 7.34 9.32 7 10 C6.2575 9.62875 5.515 9.2575 4.75 8.875 C2.05716353 7.70484137 2.05716353 7.70484137 -0.3125 8.875 C-1.1478125 9.431875 -1.1478125 9.431875 -2 10 C-3.39195915 5.82412255 -1.82323219 3.86525224 0 0 Z " fill="#702844" transform="translate(59,192)"/>
<path d="M0 0 C0.8125 3.25 0.8125 3.25 1 7 C-1.4375 9.4375 -1.4375 9.4375 -4 11 C-4.99 10.34 -5.98 9.68 -7 9 C-6.67 8.67 -6.34 8.34 -6 8 C-6.99 7.67 -7.98 7.34 -9 7 C-9 6.34 -9 5.68 -9 5 C-8.34 5 -7.68 5 -7 5 C-7 4.34 -7 3.68 -7 3 C-2.61538462 0 -2.61538462 0 0 0 Z " fill="#7D3054" transform="translate(140,235)"/>
<path d="M0 0 C0.66 0.33 1.32 0.66 2 1 C2 1.99 2 2.98 2 4 C2.763125 4.144375 3.52625 4.28875 4.3125 4.4375 C7 5 7 5 10 6 C10.6875 8.0625 10.6875 8.0625 11 10 C10.01 10 9.02 10 8 10 C7.67 10.66 7.34 11.32 7 12 C6.67 10.68 6.34 9.36 6 8 C3.03 7.505 3.03 7.505 0 7 C0 6.34 0 5.68 0 5 C-1.98 5 -3.96 5 -6 5 C-6 4.34 -6 3.68 -6 3 C-4.02 2.67 -2.04 2.34 0 2 C0 1.34 0 0.68 0 0 Z " fill="#F5BFB3" transform="translate(53,228)"/>
<path d="M0 0 C-3.83766567 2.55844378 -6.38297732 3.12495165 -10.88671875 3.09765625 C-11.82451172 3.09443359 -12.76230469 3.09121094 -13.72851562 3.08789062 C-14.70498047 3.07951172 -15.68144531 3.07113281 -16.6875 3.0625 C-18.16959961 3.05573242 -18.16959961 3.05573242 -19.68164062 3.04882812 C-22.12115474 3.03704303 -24.56054689 3.02059011 -27 3 C-27 2.67 -27 2.34 -27 2 C-23.43941339 1.46548637 -19.87634262 0.94981636 -16.3125 0.4375 C-15.30509766 0.28603516 -14.29769531 0.13457031 -13.25976562 -0.02148438 C-12.28330078 -0.16005859 -11.30683594 -0.29863281 -10.30078125 -0.44140625 C-9.40528564 -0.57232666 -8.50979004 -0.70324707 -7.5871582 -0.83813477 C-4.86172995 -1.00865085 -2.64165504 -0.65156661 0 0 Z " fill="#612F49" transform="translate(126,244)"/>
<path d="M0 0 C2.31 0 4.62 0 7 0 C6.67 0.66 6.34 1.32 6 2 C11.61 2 17.22 2 23 2 C23 1.67 23 1.34 23 1 C24.65 1 26.3 1 28 1 C28.66 2.32 29.32 3.64 30 5 C18.78 4.67 7.56 4.34 -4 4 C-3.01 3.67 -2.02 3.34 -1 3 C-0.67 2.01 -0.34 1.02 0 0 Z " fill="#742A50" transform="translate(97,234)"/>
<path d="M0 0 C0.33 0.66 0.66 1.32 1 2 C-0.375 3.5 -0.375 3.5 -2 5 C-2.66 5 -3.32 5 -4 5 C-4 5.99 -4 6.98 -4 8 C-5.32 8 -6.64 8 -8 8 C-8 10.97 -8 13.94 -8 17 C-12.875 15.25 -12.875 15.25 -14 13 C-12.68 12.67 -11.36 12.34 -10 12 C-10 10.35 -10 8.7 -10 7 C-8.68 6.67 -7.36 6.34 -6 6 C-6 4.35 -6 2.7 -6 1 C-4.02 0.67 -2.04 0.34 0 0 Z " fill="#816255" transform="translate(86,82)"/>
<path d="M0 0 C3.55780196 0.60990891 6.6828589 1.5783681 10 3 C10 3.66 10 4.32 10 5 C11.98 4.67 13.96 4.34 16 4 C16.28875 4.61875 16.5775 5.2375 16.875 5.875 C17.93720042 8.13325765 17.93720042 8.13325765 20 10 C19.01 10.495 19.01 10.495 18 11 C15.62933578 10.01667938 13.40285803 8.97926435 11.125 7.8125 C10.49980469 7.50763672 9.87460938 7.20277344 9.23046875 6.88867188 C5.54766235 5.03169656 2.73063607 3.09426348 0 0 Z " fill="#ECB5A9" transform="translate(73,200)"/>
<path d="M0 0 C4.455 0.99 4.455 0.99 9 2 C7.02 2.99 7.02 2.99 5 4 C2.88942301 6.93973224 2 8.34648137 2 12 C2.66 12.66 3.32 13.32 4 14 C2.68 15.65 1.36 17.3 0 19 C-2.14084507 4.28169014 -2.14084507 4.28169014 0 0 Z " fill="#8E4070" transform="translate(78,149)"/>
<path d="M0 0 C4 0 4 0 5.8515625 1.64453125 C6.72941406 2.71767578 6.72941406 2.71767578 7.625 3.8125 C8.21539062 4.52019531 8.80578125 5.22789062 9.4140625 5.95703125 C10.67889279 7.58635697 11.85585128 9.28377692 13 11 C12.625 13.1875 12.625 13.1875 12 15 C10.18159615 13.06775868 8.37025532 11.12966092 6.5625 9.1875 C6.04623047 8.64029297 5.52996094 8.09308594 4.99804688 7.52929688 C2.68923395 5.03940058 1.08641486 3.25924458 0 0 Z " fill="#EBCDCE" transform="translate(76,128)"/>
<path d="M0 0 C0.061875 0.61875 0.12375 1.2375 0.1875 1.875 C0.828919 4.27761141 0.828919 4.27761141 3.5625 5.25 C4.366875 5.4975 5.17125 5.745 6 6 C3 8 3 8 0 8 C-0.33 7.34 -0.66 6.68 -1 6 C-2.89533342 5.53476937 -2.89533342 5.53476937 -5.0625 5.375 C-6.361875 5.25125 -7.66125 5.1275 -9 5 C-9 3.68 -9 2.36 -9 1 C-6.03 1.33 -3.06 1.66 0 2 C0 1.34 0 0.68 0 0 Z " fill="#FAC0BE" transform="translate(117,201)"/>
<path d="M0 0 C2.75 0.0625 2.75 0.0625 6 1 C7.73223664 2.94348501 9.39881603 4.94720004 11 7 C13.6526218 8.84475674 13.6526218 8.84475674 16 10 C15.67 10.99 15.34 11.98 15 13 C13.49460339 12.05016642 11.99579653 11.08988109 10.5 10.125 C9.6646875 9.59132812 8.829375 9.05765625 7.96875 8.5078125 C7.3190625 8.01023438 6.669375 7.51265625 6 7 C6 6.34 6 5.68 6 5 C5.21625 4.71125 4.4325 4.4225 3.625 4.125 C1 3 1 3 -1 1 C-0.67 0.67 -0.34 0.34 0 0 Z " fill="#FBE1D4" transform="translate(82,195)"/>
<path d="M0 0 C1.33333333 0.66666667 2.66666667 1.33333333 4 2 C5.32 2 6.64 2 8 2 C8 2.66 8 3.32 8 4 C6.824375 4.12375 6.824375 4.12375 5.625 4.25 C2.85250896 4.72806339 2.85250896 4.72806339 1.6875 7.0625 C1.460625 7.701875 1.23375 8.34125 1 9 C-1.0625 7.25 -1.0625 7.25 -3 5 C-2.875 2.8125 -2.875 2.8125 -2 1 C-1.34 0.67 -0.68 0.34 0 0 Z " fill="#FFF3E6" transform="translate(64,127)"/>
<path d="M0 0 C0.66 0.33 1.32 0.66 2 1 C1.67 3.64 1.34 6.28 1 9 C1.66 9.33 2.32 9.66 3 10 C2.01 11.98 1.02 13.96 0 16 C-2 15 -2 15 -2.6875 13.375 C-3.31545726 8.60252484 -2.47616945 4.12694908 0 0 Z " fill="#543923" transform="translate(55,76)"/>
<path d="M0 0 C3.59677833 3.39695731 6.77691432 6.55382864 9 11 C9.03032802 14.08334854 8.61664686 16.98379251 8 20 C7.67 20 7.34 20 7 20 C6.67 16.7 6.34 13.4 6 10 C5.01 9.67 4.02 9.34 3 9 C1.16825705 6.15062207 0.55260426 3.31562557 0 0 Z " fill="#7A5864" transform="translate(89,141)"/>
<path d="M0 0 C-0.33 1.32 -0.66 2.64 -1 4 C-1 3.34 -1 2.68 -1 2 C-2.65 2 -4.3 2 -6 2 C-6 2.66 -6 3.32 -6 4 C-10.50353262 5.75747614 -14.17639811 6.19294408 -19 6 C-18.67 5.34 -18.34 4.68 -18 4 C-15.6954948 3.36182933 -13.38503677 2.97962677 -11.03125 2.5625 C-10.3609375 2.376875 -9.690625 2.19125 -9 2 C-8.67 1.34 -8.34 0.68 -8 0 C-5.00463263 -1.13617383 -3.02121511 -0.97110486 0 0 Z " fill="#FECACA" transform="translate(125,210)"/>
<path d="M0 0 C2 2 2 2 2.1953125 3.9453125 C2.13020833 5.96354167 2.06510417 7.98177083 2 10 C0.35 9.67 -1.3 9.34 -3 9 C-2.67 7.35 -2.34 5.7 -2 4 C-3.32 3.34 -4.64 2.68 -6 2 C-3 0 -3 0 0 0 Z " fill="#292016" transform="translate(65,99)"/>
<path d="M0 0 C2.97 0 5.94 0 9 0 C9 0.99 9 1.98 9 3 C10.216875 2.773125 11.43375 2.54625 12.6875 2.3125 C15.89736962 1.90200158 16.91506315 1.96284013 20 3.3125 C20.66 3.869375 21.32 4.42625 22 5 C22 5.66 22 6.32 22 7 C19.525 6.505 19.525 6.505 17 6 C17 5.34 17 4.68 17 4 C16.27554688 4.03480469 15.55109375 4.06960937 14.8046875 4.10546875 C9.06001832 4.26631949 4.98677034 4.23466184 0 1 C0 0.67 0 0.34 0 0 Z " fill="#E4AFAD" transform="translate(108,206)"/>
<path d="M0 0 C0.65355469 0.59748047 0.65355469 0.59748047 1.3203125 1.20703125 C5.00994686 4.48936831 8.43077198 6.99399746 13 9 C11.375 10.125 11.375 10.125 9 11 C5.53891316 10.16933916 3.52986895 9.52986895 1 7 C1.375 4.875 1.375 4.875 2 3 C1.34 3 0.68 3 0 3 C0 2.01 0 1.02 0 0 Z " fill="#EFC4BF" transform="translate(97,190)"/>
<path d="M0 0 C0.33 0 0.66 0 1 0 C1.19148936 20.53191489 1.19148936 20.53191489 0 30 C-1.90608098 26.78817851 -2.22266247 24.46117397 -2.125 20.75 C-2.09792969 19.41195312 -2.09792969 19.41195312 -2.0703125 18.046875 C-2.04710938 17.37140625 -2.02390625 16.6959375 -2 16 C-1.34 16 -0.68 16 0 16 C0 10.72 0 5.44 0 0 Z " fill="#D8A39D" transform="translate(74,152)"/>
<path d="M0 0 C0.33 0 0.66 0 1 0 C1.33 2.64 1.66 5.28 2 8 C-6.25 7.34 -14.5 6.68 -23 6 C-23 5.67 -23 5.34 -23 5 C-15.41 4.67 -7.82 4.34 0 4 C0 2.68 0 1.36 0 0 Z " fill="#B48C89" transform="translate(71,237)"/>
<path d="M0 0 C1.93833996 0.08715017 3.8757429 0.19532964 5.8125 0.3125 C7.43091797 0.39951172 7.43091797 0.39951172 9.08203125 0.48828125 C12.17497517 1.03068507 13.13022903 1.55289624 15 4 C7.37137203 5.55963061 7.37137203 5.55963061 4.06640625 4.2109375 C2.4375 3.125 2.4375 3.125 0 1 C0 0.67 0 0.34 0 0 Z " fill="#61353B" transform="translate(99,206)"/>
<path d="M0 0 C0.33 0 0.66 0 1 0 C1.32957691 6.1521024 0.40702994 10.37528237 -2 16 C-2.33 16.99 -2.66 17.98 -3 19 C-4.32 18.34 -5.64 17.68 -7 17 C-6.34 16.67 -5.68 16.34 -5 16 C-4.7834375 15.01 -4.7834375 15.01 -4.5625 14 C-4.376875 13.34 -4.19125 12.68 -4 12 C-3.01 11.67 -2.02 11.34 -1 11 C-1.01160156 10.28972656 -1.02320312 9.57945312 -1.03515625 8.84765625 C-1.04869141 7.46900391 -1.04869141 7.46900391 -1.0625 6.0625 C-1.07410156 5.14597656 -1.08570312 4.22945312 -1.09765625 3.28515625 C-1 1 -1 1 0 0 Z " fill="#80365D" transform="translate(82,168)"/>
<path d="M0 0 C0.66 0 1.32 0 2 0 C2 0.66 2 1.32 2 2 C2.94875 1.95875 3.8975 1.9175 4.875 1.875 C8 2 8 2 10 4 C9 7 9 7 6 9 C3.66800612 9.07905064 1.33167378 9.08798769 -1 9 C-1 8.67 -1 8.34 -1 8 C0.98 7.67 2.96 7.34 5 7 C5 6.01 5 5.02 5 4 C4.01 3.67 3.02 3.34 2 3 C2 3.66 2 4.32 2 5 C1.01 4.67 0.02 4.34 -1 4 C-0.67 2.68 -0.34 1.36 0 0 Z " fill="#FAD2C0" transform="translate(51,233)"/>
<path d="M0 0 C4.98012761 1.50912958 8.24259942 4.55661849 12 8 C11.67 9.65 11.34 11.3 11 13 C7.97093197 10.1303566 5.80570398 7.73178823 4 4 C2.70529025 2.62913085 1.37849103 1.28659163 0 0 Z " fill="#693141" transform="translate(69,126)"/>
<path d="M0 0 C1.5778125 0.7425 1.5778125 0.7425 3.1875 1.5 C5.64082647 2.57117071 6.90024461 3.00237513 9.625 2.9375 C13.04344317 3.02745903 14.54630094 4.75661801 17 7 C13.24062464 8.25312512 12.57319897 7.50868401 9 6 C7.60839743 5.6494232 6.21214475 5.31694854 4.8125 5 C1 4 1 4 -1 2 C-0.67 1.34 -0.34 0.68 0 0 Z " fill="#52232E" transform="translate(79,207)"/>
<path d="M0 0 C0.66 0 1.32 0 2 0 C2 0.66 2 1.32 2 2 C3.32 2.33 4.64 2.66 6 3 C6 3.33 6 3.66 6 4 C-1.35342179 4.20177072 -7.94887561 4.21211746 -15 2 C-15 1.67 -15 1.34 -15 1 C-14.08476563 1.09539062 -13.16953125 1.19078125 -12.2265625 1.2890625 C-11.03804688 1.39992187 -9.84953125 1.51078125 -8.625 1.625 C-7.44164063 1.74101562 -6.25828125 1.85703125 -5.0390625 1.9765625 C-3.53472656 1.98816406 -3.53472656 1.98816406 -2 2 C-1.34 1.34 -0.68 0.68 0 0 Z " fill="#E0A9A3" transform="translate(116,216)"/>
<path d="M0 0 C2 1 2 1 4 4 C3.625 6.1875 3.625 6.1875 3 8 C2.67 7.67 2.34 7.34 2 7 C1.67 8.32 1.34 9.64 1 11 C0.34 11 -0.32 11 -1 11 C-2.25 3.375 -2.25 3.375 0 0 Z " fill="#A04372" transform="translate(65,203)"/>
<path d="M0 0 C0.66 0 1.32 0 2 0 C2.33 1.32 2.66 2.64 3 4 C3.66 3.67 4.32 3.34 5 3 C5 6.63 5 10.26 5 14 C3.68 13.67 2.36 13.34 1 13 C1.020625 11.96875 1.04125 10.9375 1.0625 9.875 C1.00723339 6.44847031 0.65449285 3.35427586 0 0 Z " fill="#FEE0CE" transform="translate(70,114)"/>
<path d="M0 0 C3.28212246 0.43761633 4.84832931 1.52557871 7 4 C6.34 4 5.68 4 5 4 C5.33 5.32 5.66 6.64 6 8 C3.69 7.34 1.38 6.68 -1 6 C-1.042721 4.33388095 -1.04063832 2.66617115 -1 1 C-0.67 0.67 -0.34 0.34 0 0 Z " fill="#F1C4BA" transform="translate(69,95)"/>
<path d="M0 0 C3.3 0 6.6 0 10 0 C10 0.99 10 1.98 10 3 C2.25 4.125 2.25 4.125 0 3 C0 2.01 0 1.02 0 0 Z " fill="#A6487C" transform="translate(86,220)"/>
<path d="M0 0 C0 0.66 0 1.32 0 2 C0.99 2.33 1.98 2.66 3 3 C-4.26 3 -11.52 3 -19 3 C-19 2.67 -19 2.34 -19 2 C-18.24074219 1.93941406 -17.48148437 1.87882813 -16.69921875 1.81640625 C-15.70535156 1.73261719 -14.71148437 1.64882812 -13.6875 1.5625 C-12.70136719 1.48128906 -11.71523437 1.40007812 -10.69921875 1.31640625 C-6.93675249 0.87536462 -3.85159286 -0.1040971 0 0 Z " fill="#7D5A6D" transform="translate(128,245)"/>
<path d="M0 0 C0.99 0 1.98 0 3 0 C3 1.65 3 3.3 3 5 C-0.3 6.32 -3.6 7.64 -7 9 C-7.33 8.34 -7.66 7.68 -8 7 C-7.13375 6.6596875 -7.13375 6.6596875 -6.25 6.3125 C-3.78762204 5.06102234 -3.78762204 5.06102234 -1.9375 2.375 C-1.298125 1.59125 -0.65875 0.8075 0 0 Z " fill="#352620" transform="translate(72,89)"/>
<path d="M0 0 C0.66 0.33 1.32 0.66 2 1 C-1.75 4 -1.75 4 -4 4 C-4 4.66 -4 5.32 -4 6 C-5.75 6.75 -5.75 6.75 -8 7 C-10.25 5.0625 -10.25 5.0625 -12 3 C-11.67 2.34 -11.34 1.68 -11 1 C-9.948125 1.5878125 -9.948125 1.5878125 -8.875 2.1875 C-4.97268281 3.29032877 -3.44177121 1.91209512 0 0 Z " fill="#8B3A64" transform="translate(137,234)"/>
<path d="M0 0 C2.17159876 6.51479628 1.1021386 12.69358419 -1 19 C-1.66 19 -2.32 19 -3 19 C-3.19946435 12.71687298 -2.84752843 7.04155282 -1 1 C-0.67 0.67 -0.34 0.34 0 0 Z " fill="#7A3853" transform="translate(56,197)"/>
<path d="M0 0 C4.05606165 0.46800711 7.46588679 0.87953208 11 3 C11 3.66 11 4.32 11 5 C4.375 6.25 4.375 6.25 1 4 C1.99 3.34 2.98 2.68 4 2 C2.68 1.34 1.36 0.68 0 0 Z " fill="#994074" transform="translate(92,219)"/>
<path d="M0 0 C3.63 0 7.26 0 11 0 C10.34 3.96 9.68 7.92 9 12 C8.01 12 7.02 12 6 12 C6 11.34 6 10.68 6 10 C6.66 10 7.32 10 8 10 C8.20970559 5.85906302 8.20970559 5.85906302 7 2 C4.67843403 1.59270772 2.3431213 1.25561323 0 1 C0 0.67 0 0.34 0 0 Z " fill="#86375B" transform="translate(80,150)"/>
<path d="M0 0 C0 0.66 0 1.32 0 2 C0.66 2 1.32 2 2 2 C2 1.34 2 0.68 2 0 C3.32 0.33 4.64 0.66 6 1 C6 1.66 6 2.32 6 3 C3.89611431 3.05402274 1.79183286 3.09280256 -0.3125 3.125 C-2.07013672 3.15980469 -2.07013672 3.15980469 -3.86328125 3.1953125 C-7 3 -7 3 -10 1 C-2.25 0 -2.25 0 0 0 Z " fill="#8B3E62" transform="translate(78,234)"/>
<path d="M0 0 C1.65 0 3.3 0 5 0 C6.80411967 2.75924185 7.0127245 3.88972103 6.625 7.25 C6.41875 8.1575 6.2125 9.065 6 10 C5.34 9.34 4.68 8.68 4 8 C4 6.68 4 5.36 4 4 C3.34 4 2.68 4 2 4 C1.34 2.68 0.68 1.36 0 0 Z " fill="#FED3BA" transform="translate(68,110)"/>
<path d="M0 0 C0.66 0.33 1.32 0.66 2 1 C2 1.99 2 2.98 2 4 C3.32 4.33 4.64 4.66 6 5 C2.04 5 -1.92 5 -6 5 C-6 4.34 -6 3.68 -6 3 C-4.02 2.67 -2.04 2.34 0 2 C0 1.34 0 0.68 0 0 Z " fill="#C79F9D" transform="translate(53,228)"/>
<path d="M0 0 C-0.33 0.99 -0.66 1.98 -1 3 C-4.96 3 -8.92 3 -13 3 C-12 1 -12 1 -10.4375 0.375 C-6.93601819 -0.16368951 -3.54193167 -0.05903219 0 0 Z " fill="#FFE3E5" transform="translate(117,210)"/>
<path d="M0 0 C3.96 1.98 7.92 3.96 12 6 C7.64350859 7.08912285 7.5652578 6.95514137 4 5 C3.01 5 2.02 5 1 5 C-0.6875 3.5 -0.6875 3.5 -2 2 C-1.34 2 -0.68 2 0 2 C0 1.34 0 0.68 0 0 Z " fill="#47141A" transform="translate(78,204)"/>
<path d="M0 0 C1.1446875 0.2475 1.1446875 0.2475 2.3125 0.5 C5.00856207 1.00159294 6.44020291 0.8532657 9 0 C8.34 1.32 7.68 2.64 7 4 C6.34 3.67 5.68 3.34 5 3 C4.67 4.32 4.34 5.64 4 7 C2.35 5.02 0.7 3.04 -1 1 C-0.67 0.67 -0.34 0.34 0 0 Z " fill="#E5ACA8" transform="translate(103,199)"/>
<path d="M0 0 C0.66 0 1.32 0 2 0 C2 0.99 2 1.98 2 3 C3.32 3.66 4.64 4.32 6 5 C4.35 5.33 2.7 5.66 1 6 C1 7.65 1 9.3 1 11 C0.67 11 0.34 11 0 11 C-0.19491452 9.54263913 -0.38069358 8.08405407 -0.5625 6.625 C-0.66691406 5.81289062 -0.77132812 5.00078125 -0.87890625 4.1640625 C-1 2 -1 2 0 0 Z " fill="#4D4035" transform="translate(75,83)"/>
<path d="M0 0 C0.33 0.66 0.66 1.32 1 2 C2.65 1.67 4.3 1.34 6 1 C4.63016497 4.16115776 4.0109362 4.9927092 1 7 C0.01 6.34 -0.98 5.68 -2 5 C-2 4.01 -2 3.02 -2 2 C-1.34 2 -0.68 2 0 2 C0 1.34 0 0.68 0 0 Z " fill="#683049" transform="translate(135,239)"/>
<path d="M0 0 C0.66 0.66 1.32 1.32 2 2 C1.67 2.66 1.34 3.32 1 4 C2.32 3.67 3.64 3.34 5 3 C5 4.32 5 5.64 5 7 C2.03 6.505 2.03 6.505 -1 6 C-1.625 4.125 -1.625 4.125 -2 2 C-1.34 1.34 -0.68 0.68 0 0 Z " fill="#F5CBC6" transform="translate(39,236)"/>
<path d="M0 0 C1.98 0.99 1.98 0.99 4 2 C4.66 1.34 5.32 0.68 6 0 C6.12375 0.61875 6.2475 1.2375 6.375 1.875 C6.87197356 4.19120832 6.87197356 4.19120832 9 6 C8.67 6.66 8.34 7.32 8 8 C4.63820226 6.55922954 2.40843732 4.75249979 0 2 C0 1.34 0 0.68 0 0 Z " fill="#5C1E2C" transform="translate(79,186)"/>
<path d="M0 0 C1.98 0.66 3.96 1.32 6 2 C4.7260411 4.03833424 3.38938077 6.03852126 2 8 C1.34 8 0.68 8 0 8 C0 5.36 0 2.72 0 0 Z " fill="#D3B69A" transform="translate(56,75)"/>
<path d="M0 0 C2.72574271 0.37330824 3.80822085 0.79194601 5.703125 2.84765625 C6.21359375 3.57855469 6.7240625 4.30945313 7.25 5.0625 C8.03117187 6.16271484 8.03117187 6.16271484 8.828125 7.28515625 C9.21484375 7.85105469 9.6015625 8.41695312 10 9 C8.35 9 6.7 9 5 9 C4.731875 8.443125 4.46375 7.88625 4.1875 7.3125 C2.89877353 4.80287477 1.47073522 2.40665764 0 0 Z " fill="#9D7373" transform="translate(98,198)"/>
<path d="M0 0 C3.54905382 0.60840923 6.80087037 1.31157047 10 3 C10.8125 5.125 10.8125 5.125 11 7 C6.89188572 5.55007731 3.53144334 3.54592427 0 1 C0 0.67 0 0.34 0 0 Z " fill="#E0ABA5" transform="translate(73,200)"/>
<path d="M0 0 C0.86625 0.7115625 0.86625 0.7115625 1.75 1.4375 C3.92582084 2.9484867 5.42602448 3.54036151 8 4 C7.67 4.99 7.34 5.98 7 7 C4.6875 6.8125 4.6875 6.8125 2 6 C0.1875 3.4375 0.1875 3.4375 -1 1 C-0.67 0.67 -0.34 0.34 0 0 Z " fill="#6B5A53" transform="translate(59,106)"/>
<path d="M0 0 C0.66 0.33 1.32 0.66 2 1 C2 1.99 2 2.98 2 4 C1.01 4 0.02 4 -1 4 C-0.67 5.65 -0.34 7.3 0 9 C-1.65 9 -3.3 9 -5 9 C-5.33 8.34 -5.66 7.68 -6 7 C-4.68 7 -3.36 7 -2 7 C-2 5.02 -2 3.04 -2 1 C-1.34 0.67 -0.68 0.34 0 0 Z " fill="#F4C8BB" transform="translate(86,91)"/>
<path d="M0 0 C2.31 0.33 4.62 0.66 7 1 C6.01 1.33 5.02 1.66 4 2 C4 2.99 4 3.98 4 5 C4.66 5 5.32 5 6 5 C6 5.66 6 6.32 6 7 C4.35 6.67 2.7 6.34 1 6 C0.67 4.02 0.34 2.04 0 0 Z " fill="#6A2445" transform="translate(72,236)"/>
<path d="M0 0 C4.43379675 2.21689838 6.46636932 4.77728219 9 9 C5.4213696 7.34832443 2.25179812 5.21713508 -1 3 C-0.67 2.01 -0.34 1.02 0 0 Z " fill="#75524E" transform="translate(91,192)"/>
<path d="M0 0 C2.3125 0.875 2.3125 0.875 3.3125 2.875 C2.6525 3.535 1.9925 4.195 1.3125 4.875 C0.44625 4.3490625 0.44625 4.3490625 -0.4375 3.8125 C-3.04551776 2.72582593 -4.08167629 2.94434867 -6.6875 3.875 C-3.388111 -0.15758656 -3.388111 -0.15758656 0 0 Z " fill="#C6A39C" transform="translate(66.6875,125.125)"/>
<path d="M0 0 C0.144375 0.61875 0.28875 1.2375 0.4375 1.875 C0.93152225 4.03258322 0.93152225 4.03258322 2 6 C5.02934491 6.65772428 5.02934491 6.65772428 8 7 C7.67 7.66 7.34 8.32 7 9 C4.69 8.67 2.38 8.34 0 8 C-0.66 6.02 -1.32 4.04 -2 2 C-1.34 1.34 -0.68 0.68 0 0 Z " fill="#7E4050" transform="translate(55,224)"/>
<path d="M0 0 C1.82421875 0.99609375 1.82421875 0.99609375 3.6875 2.4375 C4.31011719 2.91058594 4.93273437 3.38367188 5.57421875 3.87109375 C6.27998047 4.42990234 6.27998047 4.42990234 7 5 C6.67 5.66 6.34 6.32 6 7 C2.56404834 5.47291037 -0.11912454 3.40072955 -3 1 C-2.01 0.67 -1.02 0.34 0 0 Z " fill="#E9ACA9" transform="translate(95,210)"/>
<path d="M0 0 C2.475 0.99 2.475 0.99 5 2 C4.835 2.598125 4.67 3.19625 4.5 3.8125 C3.8885876 6.11344336 3.8885876 6.11344336 4 9 C3.01 8.34 2.02 7.68 1 7 C0.3125 3.375 0.3125 3.375 0 0 Z " fill="#490B22" transform="translate(69,199)"/>
<path d="M0 0 C0.33 0 0.66 0 1 0 C2.125 7.75 2.125 7.75 1 10 C0.34 10 -0.32 10 -1 10 C-1.33 10.66 -1.66 11.32 -2 12 C-2.17835515 7.45194365 -1.99785435 4.1205746 0 0 Z " fill="#78535F" transform="translate(59,184)"/>
<path d="M0 0 C0.99 0 1.98 0 3 0 C2.67 2.31 2.34 4.62 2 7 C0.35 7.33 -1.3 7.66 -3 8 C-2.5359375 7.13375 -2.5359375 7.13375 -2.0625 6.25 C-1.07416636 4.15705816 -0.4831387 2.25464725 0 0 Z " fill="#FCC3B2" transform="translate(78,101)"/>
<path d="M0 0 C1.98 0.495 1.98 0.495 4 1 C5.125 4.75 5.125 4.75 4 7 C3.34 7 2.68 7 2 7 C2 5.68 2 4.36 2 3 C1.01 3 0.02 3 -1 3 C-0.67 2.01 -0.34 1.02 0 0 Z " fill="#6C5953" transform="translate(64,79)"/>
<path d="M0 0 C1.32 0.66 2.64 1.32 4 2 C4 3.98 4 5.96 4 8 C3.34 8 2.68 8 2 8 C1.67 6.68 1.34 5.36 1 4 C0.34 4 -0.32 4 -1 4 C-0.67 2.68 -0.34 1.36 0 0 Z " fill="#5E1831" transform="translate(66,196)"/>
<path d="M0 0 C0.33 0 0.66 0 1 0 C1.66 4.62 2.32 9.24 3 14 C-1 10 -1 10 -1.171875 7.421875 C-1.03265625 6.54015625 -0.8934375 5.6584375 -0.75 4.75 C-0.62109375 3.85796875 -0.4921875 2.9659375 -0.359375 2.046875 C-0.18148437 1.03367188 -0.18148437 1.03367188 0 0 Z " fill="#AE7F81" transform="translate(91,180)"/>
<path d="M0 0 C1.32 0.33 2.64 0.66 4 1 C3.625 2.9375 3.625 2.9375 3 5 C2.01 5.495 2.01 5.495 1 6 C0.01 5.01 -0.98 4.02 -2 3 C-1.34 2.01 -0.68 1.02 0 0 Z " fill="#FCE0D9" transform="translate(74,185)"/>
<path d="M0 0 C2.64752004 2.57784846 4.94432065 4.91648098 7 8 C6.01 8.33 5.02 8.66 4 9 C0 4.5 0 4.5 0 0 Z " fill="#987984" transform="translate(89,141)"/>
<path d="M0 0 C2 1.625 2 1.625 4 4 C4.25 7.25 4.25 7.25 4 10 C-0.60921053 4.64736842 -0.60921053 4.64736842 -1 1 C-0.67 0.67 -0.34 0.34 0 0 Z " fill="#F8D4CC" transform="translate(75,134)"/>
<path d="M0 0 C0.66 0.33 1.32 0.66 2 1 C1.67 1.99 1.34 2.98 1 4 C1.38932856 6.14255793 1.38932856 6.14255793 2 8 C1.01 8.495 1.01 8.495 0 9 C-1.5625 7.25 -1.5625 7.25 -3 5 C-2.8125 2.8125 -2.8125 2.8125 -2 1 C-1.34 0.67 -0.68 0.34 0 0 Z " fill="#FEE8D8" transform="translate(64,127)"/>
<path d="M0 0 C0.99 0.33 1.98 0.66 3 1 C3 1.66 3 2.32 3 3 C3.99 3 4.98 3 6 3 C5.67 4.65 5.34 6.3 5 8 C4.01 8 3.02 8 2 8 C0.74335022 5.09399739 0 3.20395416 0 0 Z " fill="#605149" transform="translate(55,88)"/>
<path d="M0 0 C0.33 1.32 0.66 2.64 1 4 C0.01 4.66 -0.98 5.32 -2 6 C-2 5.34 -2 4.68 -2 4 C-3.32 3.34 -4.64 2.68 -6 2 C-3 0 -3 0 0 0 Z " fill="#302B23" transform="translate(65,99)"/>
<path d="M0 0 C0.33 0.66 0.66 1.32 1 2 C-0.375 3.5 -0.375 3.5 -2 5 C-2.66 5 -3.32 5 -4 5 C-4.33 5.99 -4.66 6.98 -5 8 C-5.33 5.69 -5.66 3.38 -6 1 C-4.02 0.67 -2.04 0.34 0 0 Z " fill="#A78B7C" transform="translate(86,82)"/>
<path d="M0 0 C2.97 0.99 5.94 1.98 9 3 C8.67 3.66 8.34 4.32 8 5 C5.03 4.01 2.06 3.02 -1 2 C-0.67 1.34 -0.34 0.68 0 0 Z " fill="#36030D" transform="translate(97,216)"/>
<path d="M0 0 C-0.33 0.99 -0.66 1.98 -1 3 C-3.64 3.33 -6.28 3.66 -9 4 C-8.67 3.01 -8.34 2.02 -8 1 C-5.23735711 0.40267181 -2.83967231 0 0 0 Z " fill="#BC8D96" transform="translate(125,197)"/>
<path d="M0 0 C1.6266848 0.28211877 3.25132896 0.57602375 4.875 0.875 C5.77992187 1.03742188 6.68484375 1.19984375 7.6171875 1.3671875 C10 2 10 2 12 4 C10.56416999 4.10836453 9.1259798 4.18576167 7.6875 4.25 C6.48673828 4.31960937 6.48673828 4.31960937 5.26171875 4.390625 C3 4 3 4 1.20703125 1.984375 C0.80871094 1.32953125 0.41039063 0.6746875 0 0 Z " fill="#CAA08A" transform="translate(76,111)"/>
<path d="M0 0 C0 1.32 0 2.64 0 4 C-2.97 3.505 -2.97 3.505 -6 3 C-6 2.34 -6 1.68 -6 1 C-4 0 -4 0 0 0 Z " fill="#F6C0BC" transform="translate(71,236)"/>
<path d="M0 0 C2.0343459 1.41519715 2.90410393 2.54982123 3.421875 4.98046875 C3.66273952 6.98176954 3.83532741 8.9909944 4 11 C1.9656541 9.58480285 1.09589607 8.45017877 0.578125 6.01953125 C0.33726048 4.01823046 0.16467259 2.0090056 0 0 Z " fill="#D2A49B" transform="translate(92,184)"/>
<path d="M0 0 C0.66 0.33 1.32 0.66 2 1 C1.67 4.63 1.34 8.26 1 12 C0.67 12 0.34 12 0 12 C-0.19573608 10.56359829 -0.38127816 9.12580496 -0.5625 7.6875 C-0.66691406 6.88699219 -0.77132812 6.08648437 -0.87890625 5.26171875 C-1 3 -1 3 0 0 Z " fill="#E5C2B8" transform="translate(60,179)"/>
<path d="M0 0 C0.99 0.99 1.98 1.98 3 3 C2.34 4.32 1.68 5.64 1 7 C-0.37562854 5.71034824 -1.70766393 4.37310707 -3 3 C-3 2.34 -3 1.68 -3 1 C-2.01 0.67 -1.02 0.34 0 0 Z " fill="#FEE6CD" transform="translate(62,176)"/>
<path d="M0 0 C0.99 0.33 1.98 0.66 3 1 C3.33 1.99 3.66 2.98 4 4 C3.01 4.66 2.02 5.32 1 6 C0.01 5.34 -0.98 4.68 -2 4 C-2 3.34 -2 2.68 -2 2 C-1.34 2 -0.68 2 0 2 C0 1.34 0 0.68 0 0 Z " fill="#E3AC8F" transform="translate(74,143)"/>
<path d="M0 0 C1.65 0.33 3.3 0.66 5 1 C5.33 2.65 5.66 4.3 6 6 C4 6 4 6 2.375 4.5 C1.92125 4.005 1.4675 3.51 1 3 C1 3.66 1 4.32 1 5 C0.34 5 -0.32 5 -1 5 C-0.67 3.35 -0.34 1.7 0 0 Z " fill="#F9C4AE" transform="translate(73,140)"/>
<path d="M0 0 C0.99 0 1.98 0 3 0 C2.67 2.64 2.34 5.28 2 8 C0.68 7.34 -0.64 6.68 -2 6 C-2 5.34 -2 4.68 -2 4 C-1.01 4 -0.02 4 1 4 C0.67 2.68 0.34 1.36 0 0 Z " fill="#C49B8F" transform="translate(87,91)"/>
<path d="M0 0 C1.98 0 3.96 0 6 0 C6.33 0.99 6.66 1.98 7 3 C4.69 3 2.38 3 0 3 C0 2.01 0 1.02 0 0 Z " fill="#514032" transform="translate(79,80)"/>
<path d="M0 0 C4.08718695 -0.24042276 7.17679443 0.57741188 11 2 C11 2.33 11 2.66 11 3 C6.83861737 3.08159574 3.0527516 2.98248524 -1 2 C-0.67 1.34 -0.34 0.68 0 0 Z " fill="#83345B" transform="translate(106,241)"/>
<path d="M0 0 C2.0625 0.4375 2.0625 0.4375 4 1 C2.625 3.5 2.625 3.5 1 6 C0.34 6 -0.32 6 -1 6 C-1.042721 4.33388095 -1.04063832 2.66617115 -1 1 C-0.67 0.67 -0.34 0.34 0 0 Z " fill="#772C54" transform="translate(85,162)"/>
<path d="M0 0 C0.99 0 1.98 0 3 0 C3 2.31 3 4.62 3 7 C2.01 7 1.02 7 0 7 C0 4.69 0 2.38 0 0 Z " fill="#8C4758" transform="translate(79,140)"/>
<path d="M0 0 C1.98 0.99 3.96 1.98 6 3 C6 3.99 6 4.98 6 6 C3.03 5.505 3.03 5.505 0 5 C0 3.35 0 1.7 0 0 Z " fill="#BF8C78" transform="translate(68,101)"/>
<path d="M0 0 C0.33 1.32 0.66 2.64 1 4 C0.01 4.66 -0.98 5.32 -2 6 C-2.72965366 8.56282742 -2.72965366 8.56282742 -3 11 C-3.33 11 -3.66 11 -4 11 C-4 8.36 -4 5.72 -4 3 C-2.68 3 -1.36 3 0 3 C0 2.01 0 1.02 0 0 Z " fill="#CFB0A4" transform="translate(82,87)"/>
<path d="M0 0 C2.16874252 0.50603992 3.99967627 0.99983813 6 2 C6 2.66 6 3.32 6 4 C5.01 4 4.02 4 3 4 C3.33 4.99 3.66 5.98 4 7 C3.34 7 2.68 7 2 7 C2 5.35 2 3.7 2 2 C1.34 2 0.68 2 0 2 C0 1.34 0 0.68 0 0 Z " fill="#67615A" transform="translate(64,87)"/>
<path d="M0 0 C2.475 0.99 2.475 0.99 5 2 C4.67 2.66 4.34 3.32 4 4 C1.69 4 -0.62 4 -3 4 C-3 3.34 -3 2.68 -3 2 C-2.01 2 -1.02 2 0 2 C0 1.34 0 0.68 0 0 Z " fill="#52293F" transform="translate(131,243)"/>
<path d="M0 0 C4.54748603 -0.36871508 4.54748603 -0.36871508 6.6875 1.375 C7.120625 1.91125 7.55375 2.4475 8 3 C8.66 3.66 9.32 4.32 10 5 C9.01 5.495 9.01 5.495 8 6 C6.0546875 5.0390625 6.0546875 5.0390625 3.875 3.625 C3.15054688 3.16351563 2.42609375 2.70203125 1.6796875 2.2265625 C1.12539063 1.82179687 0.57109375 1.41703125 0 1 C0 0.67 0 0.34 0 0 Z " fill="#F1BFC0" transform="translate(61,192)"/>
<path d="M0 0 C2.96404505 2.80804268 5.44499019 5.18315774 7 9 C5.125 8.8125 5.125 8.8125 3 8 C1.8125 5.625 1.8125 5.625 1 3 C0.67 2.01 0.34 1.02 0 0 Z " fill="#83515C" transform="translate(82,136)"/>
<path d="M0 0 C1.5625 1.75 1.5625 1.75 3 4 C2.6875 6.25 2.6875 6.25 2 8 C0 7 0 7 -2 4 C-1.34 2.68 -0.68 1.36 0 0 Z " fill="#692C3F" transform="translate(81,135)"/>
<path d="M0 0 C2.125 0.9375 2.125 0.9375 4 2 C4 2.99 4 3.98 4 5 C-0.875 3.25 -0.875 3.25 -2 1 C-1.34 0.67 -0.68 0.34 0 0 Z " fill="#5E3245" transform="translate(138,220)"/>
<path d="M0 0 C6.625 -0.125 6.625 -0.125 10 1 C10 1.66 10 2.32 10 3 C8.35 3 6.7 3 5 3 C5 2.34 5 1.68 5 1 C3.35 1 1.7 1 0 1 C0 0.67 0 0.34 0 0 Z " fill="#601628" transform="translate(123,221)"/>
<path d="M0 0 C0.99 0.33 1.98 0.66 3 1 C2.01 2.485 2.01 2.485 1 4 C-0.65 3.67 -2.3 3.34 -4 3 C-2.1875 1.4375 -2.1875 1.4375 0 0 Z " fill="#49091E" transform="translate(95,214)"/>
<path d="M0 0 C1.98 0.99 3.96 1.98 6 3 C5.67 3.66 5.34 4.32 5 5 C2.69 4.34 0.38 3.68 -2 3 C-1.34 2.01 -0.68 1.02 0 0 Z " fill="#71363D" transform="translate(90,210)"/>
<path d="M0 0 C1.22589844 0.29197266 1.22589844 0.29197266 2.4765625 0.58984375 C3.41628906 0.82380859 3.41628906 0.82380859 4.375 1.0625 C4.375 1.3925 4.375 1.7225 4.375 2.0625 C2.91707116 2.11649736 1.45857288 2.15529177 0 2.1875 C-0.81210938 2.21070313 -1.62421875 2.23390625 -2.4609375 2.2578125 C-4.625 2.0625 -4.625 2.0625 -6.625 0.0625 C-3.99249612 -1.25375194 -2.82320944 -0.68563658 0 0 Z " fill="#450021" transform="translate(86.625,213.9375)"/>
<path d="M0 0 C2.9719385 1.12451727 5.33440687 2.22293791 8 4 C7.34 5.32 6.68 6.64 6 8 C5.62875 7.13375 5.62875 7.13375 5.25 6.25 C3.83316683 3.6997003 2.12372463 1.98214299 0 0 Z " fill="#754242" transform="translate(69,126)"/>
<path d="M0 0 C2.475 0.495 2.475 0.495 5 1 C4.67 2.32 4.34 3.64 4 5 C2.68 4.34 1.36 3.68 0 3 C0 2.01 0 1.02 0 0 Z " fill="#EFC4AE" transform="translate(75,115)"/>
<path d="M0 0 C2.125 0.9375 2.125 0.9375 4 2 C4 2.66 4 3.32 4 4 C2.02 4 0.04 4 -2 4 C-2 3.01 -2 2.02 -2 1 C-1.34 0.67 -0.68 0.34 0 0 Z " fill="#D9A68E" transform="translate(70,105)"/>
<path d="M0 0 C2.475 0.99 2.475 0.99 5 2 C4.01 2.495 4.01 2.495 3 3 C3.33 4.32 3.66 5.64 4 7 C3.34 6.67 2.68 6.34 2 6 C2 5.34 2 4.68 2 4 C1.34 4 0.68 4 0 4 C0 2.68 0 1.36 0 0 Z " fill="#E5A693" transform="translate(71,96)"/>
<path d="M0 0 C0.99 0 1.98 0 3 0 C3 0.99 3 1.98 3 3 C4.65 3 6.3 3 8 3 C5 5 5 5 2.8125 4.625 C2.214375 4.41875 1.61625 4.2125 1 4 C0.67 2.68 0.34 1.36 0 0 Z " fill="#4D3F3B" transform="translate(59,92)"/>
</svg>
