<?xml version="1.0" encoding="UTF-8"?>
<svg version="1.1" xmlns="http://www.w3.org/2000/svg" width="192" height="148">
<path d="M0 0 C63.36 0 126.72 0 192 0 C192 48.84 192 97.68 192 148 C128.64 148 65.28 148 0 148 C0 99.16 0 50.32 0 0 Z " fill="#FDFDFD" transform="translate(0,0)"/>
<path d="M0 0 C0.66 0 1.32 0 2 0 C2 0.66 2 1.32 2 2 C3.32 2.66 4.64 3.32 6 4 C6 4.99 6 5.98 6 7 C7.051875 6.814375 8.10375 6.62875 9.1875 6.4375 C20.81959982 5.10165815 28.63727764 6.93717982 38 14 C41.05526924 16.03684616 42.71969447 16.44015931 46.25 17.125 C58.85464985 20.17697333 68.87585648 26.9414978 78 36 C83.19153996 41.14791357 88.64012876 44.51398563 95.13256836 47.7956543 C101.07868208 50.87291834 106.19500003 54.70258307 111.390625 58.8984375 C114.00338939 61.06718326 114.00338939 61.06718326 117 63 C117 68.61 117 74.22 117 80 C53.64 80 -9.72 80 -75 80 C-75 74.39 -75 68.78 -75 63 C-49.59 63 -24.18 63 2 63 C2 62.34 2 61.68 2 61 C2.66 61 3.32 61 4 61 C3.95875 60.113125 3.9175 59.22625 3.875 58.3125 C4 55 4 55 4.96875 52.9375 C6.49790413 48.58172763 6.46942675 44.27366985 6.625 39.6875 C6.66367188 38.75615234 6.70234375 37.82480469 6.7421875 36.86523438 C6.83606313 34.57701593 6.92174509 32.28879705 7 30 C9.31 29.67 11.62 29.34 14 29 C13.01 27.02 13.01 27.02 12 25 C16.455 22.525 16.455 22.525 21 20 C21.45950415 14.76123576 21.45950415 14.76123576 19.8125 10 C17.44004321 8.69105832 15.6664882 8.78379825 13 9 C12.34 11.31 11.68 13.62 11 16 C10.34 16 9.68 16 9 16 C8.67 18.31 8.34 20.62 8 23 C4.52100842 21.60840337 3.51947499 20.36748512 2 17 C1.41992188 17.02320312 0.83984375 17.04640625 0.2421875 17.0703125 C-4.52008249 17.18033194 -8.66099055 17.22241947 -13 15 C-14.375 12.375 -14.375 12.375 -15 10 C-13.02 9.67 -11.04 9.34 -9 9 C-8.67 8.01 -8.34 7.02 -8 6 C-5.69 6 -3.38 6 -1 6 C-0.67 4.02 -0.34 2.04 0 0 Z " fill="#C3C4CA" transform="translate(75,68)"/>
<path d="M0 0 C0.66 0 1.32 0 2 0 C2 0.66 2 1.32 2 2 C3.32 2.66 4.64 3.32 6 4 C6 4.99 6 5.98 6 7 C7.051875 6.814375 8.10375 6.62875 9.1875 6.4375 C20.81959982 5.10165815 28.63727764 6.93717982 38 14 C41.05526924 16.03684616 42.71969447 16.44015931 46.25 17.125 C58.85464985 20.17697333 68.87585648 26.9414978 78 36 C83.18926662 41.14565934 88.6345148 44.51364387 95.12597656 47.79125977 C102.05872212 51.3764152 107.99242612 56.0561618 114 61 C113.67 62.65 113.34 64.3 113 66 C108.89100419 64.87204037 104.92438786 63.66489182 101 62 C103.97 63.65 106.94 65.3 110 67 C109.505 68.98 109.505 68.98 109 71 C98.42120802 69.98280846 89.83437749 67.74969636 80.7199707 62.12817383 C72.08153362 57.00495511 62.05927741 54.43560255 52.33984375 52.1328125 C48.45711378 50.81586315 45.63125062 48.80952687 42.5 46.25 C41.93321533 45.80261475 41.36643066 45.35522949 40.7824707 44.89428711 C37.82590552 42.54474105 34.97599611 40.10740335 32.1875 37.5625 C27.95825245 33.84620575 23.0423803 32.53949668 17.6875 31.125 C14.35267354 29.72902613 13.52031416 28.20955211 12 25 C16.455 22.525 16.455 22.525 21 20 C21.45950415 14.76123576 21.45950415 14.76123576 19.8125 10 C17.44004321 8.69105832 15.6664882 8.78379825 13 9 C12.34 11.31 11.68 13.62 11 16 C10.34 16 9.68 16 9 16 C8.67 18.31 8.34 20.62 8 23 C4.52100842 21.60840337 3.51947499 20.36748512 2 17 C1.41992188 17.02320312 0.83984375 17.04640625 0.2421875 17.0703125 C-4.52008249 17.18033194 -8.66099055 17.22241947 -13 15 C-14.375 12.375 -14.375 12.375 -15 10 C-13.02 9.67 -11.04 9.34 -9 9 C-8.67 8.01 -8.34 7.02 -8 6 C-5.69 6 -3.38 6 -1 6 C-0.67 4.02 -0.34 2.04 0 0 Z " fill="#252629" transform="translate(75,68)"/>
<path d="M0 0 C10.20170935 0.82229777 17.84774482 2.26309251 24.984375 10 C33.47477136 18.42457934 42.47647201 22.22387735 54 25 C56.19572769 25.66075139 58.3839943 26.34701038 60.5625 27.0625 C61.49191406 27.36285156 62.42132813 27.66320312 63.37890625 27.97265625 C66.14504297 29.05684993 68.53033037 30.35206493 71 32 C71 32.33 71 32.66 71 33 C46.25 33 21.5 33 -4 33 C-2.875 22.875 -2.875 22.875 -2.24609375 17.87109375 C-2.11396484 16.81728516 -1.98183594 15.76347656 -1.84570312 14.67773438 C-1.71099609 13.60845703 -1.57628906 12.53917969 -1.4375 11.4375 C-1.29892578 10.33341797 -1.16035156 9.22933594 -1.01757812 8.09179688 C-0.67895137 5.39445961 -0.33974639 2.69719643 0 0 Z " fill="#FDFCFD" transform="translate(86,98)"/>
<path d="M0 0 C0.66 0 1.32 0 2 0 C2 0.66 2 1.32 2 2 C3.32 2.66 4.64 3.32 6 4 C6 4.99 6 5.98 6 7 C7.051875 6.814375 8.10375 6.62875 9.1875 6.4375 C20.81959982 5.10165815 28.63727764 6.93717982 38 14 C41.18762365 16.12508244 43.26512223 16.5020163 47 17 C46.01 17.495 46.01 17.495 45 18 C44.53248212 20.35599235 44.53248212 20.35599235 44.375 23.0625 C44.30023438 23.98160156 44.22546875 24.90070313 44.1484375 25.84765625 C44.09945312 26.55792969 44.05046875 27.26820312 44 28 C43.01 28.33 42.02 28.66 41 29 C40.731875 29.5775 40.46375 30.155 40.1875 30.75 C38.44866056 34.04464314 35.92354664 35.71200698 33 38 C32.53851563 37.67386719 32.07703125 37.34773438 31.6015625 37.01171875 C27.69684583 34.39571292 24.26006544 32.6616062 19.6875 31.5 C15.25458482 30.32197492 15.25458482 30.32197492 12.875 27.3125 C12.58625 26.549375 12.2975 25.78625 12 25 C16.455 22.525 16.455 22.525 21 20 C21.45950415 14.76123576 21.45950415 14.76123576 19.8125 10 C17.44004321 8.69105832 15.6664882 8.78379825 13 9 C12.34 11.31 11.68 13.62 11 16 C10.34 16 9.68 16 9 16 C8.67 18.31 8.34 20.62 8 23 C4.52100842 21.60840337 3.51947499 20.36748512 2 17 C1.41992188 17.02320312 0.83984375 17.04640625 0.2421875 17.0703125 C-4.52008249 17.18033194 -8.66099055 17.22241947 -13 15 C-14.375 12.375 -14.375 12.375 -15 10 C-13.02 9.67 -11.04 9.34 -9 9 C-8.67 8.01 -8.34 7.02 -8 6 C-5.69 6 -3.38 6 -1 6 C-0.67 4.02 -0.34 2.04 0 0 Z " fill="#AC8563" transform="translate(75,68)"/>
<path d="M0 0 C23.76 0 47.52 0 72 0 C72 0.33 72 0.66 72 1 C71.03586182 1.02505615 70.07172363 1.0501123 69.07836914 1.07592773 C65.51312158 1.16985306 61.94807567 1.27010939 58.38305664 1.37231445 C56.83785711 1.41571985 55.29260786 1.45739071 53.74731445 1.49731445 C51.53060904 1.55488199 49.3141552 1.61861424 47.09765625 1.68359375 C46.4028566 1.70030624 45.70805695 1.71701874 44.99220276 1.73423767 C41.71237971 1.56502856 41.71237971 1.56502856 39 3 C41.97 3.33 44.94 3.66 48 4 C48 4.99 48 5.98 48 7 C49.98 7 51.96 7 54 7 C54 7.66 54 8.32 54 9 C52.68 9.33 51.36 9.66 50 10 C50 10.66 50 11.32 50 12 C49.34 12 48.68 12 48 12 C48 13.65 48 15.3 48 17 C32.16 17 16.32 17 0 17 C0 11.39 0 5.78 0 0 Z " fill="#9D9C9A" transform="translate(0,131)"/>
<path d="M0 0 C6.08113629 0.45844486 10.33872635 1.76687462 15.625 4.75 C16.2540625 5.08515625 16.883125 5.4203125 17.53125 5.765625 C21.78888241 8.09760624 25.35685091 10.7940288 29 14 C25.67692308 18.8 25.67692308 18.8 22.25 19.8125 C21.5075 19.874375 20.765 19.93625 20 20 C20 19.01 20 18.02 20 17 C18.02 16.34 16.04 15.68 14 15 C14 14.34 14 13.68 14 13 C13.34 13 12.68 13 12 13 C11.34 11.35 10.68 9.7 10 8 C8.66098208 9.11126659 8.66098208 9.11126659 8.90234375 11.94140625 C8.91394531 13.13636719 8.92554688 14.33132812 8.9375 15.5625 C8.94652344 16.76003906 8.95554688 17.95757812 8.96484375 19.19140625 C8.97644531 20.11824219 8.98804688 21.04507813 9 22 C9.66 22 10.32 22 11 22 C11 22.66 11 23.32 11 24 C11.99 24 12.98 24 14 24 C14.04125 24.61875 14.0825 25.2375 14.125 25.875 C14.41375 26.57625 14.7025 27.2775 15 28 C17.99615946 29.3045656 17.99615946 29.3045656 21 30 C21 30.66 21 31.32 21 32 C19.56359829 32.19573608 18.12580496 32.38127816 16.6875 32.5625 C15.48673828 32.71912109 15.48673828 32.71912109 14.26171875 32.87890625 C12 33 12 33 9 32 C9 32.66 9 33.32 9 34 C4.13636781 33.53462431 1.0266955 31.1277295 -2.6875 28.1875 C-3.26822266 27.74857422 -3.84894531 27.30964844 -4.44726562 26.85742188 C-7.43506337 24.5328116 -9.69490779 22.61215845 -11 19 C-9.87895467 17.68412059 -8.75303035 16.37239647 -7.625 15.0625 C-6.68527344 13.96615234 -6.68527344 13.96615234 -5.7265625 12.84765625 C-4 11 -4 11 -2 10 C-1.31068656 7.65092125 -1.31068656 7.65092125 -0.875 4.9375 C-0.62363281 3.55884766 -0.62363281 3.55884766 -0.3671875 2.15234375 C-0.24601562 1.44207031 -0.12484375 0.73179688 0 0 Z " fill="#282722" transform="translate(120,86)"/>
<path d="M0 0 C15.51 0 31.02 0 47 0 C47.66 1.32 48.32 2.64 49 4 C50.87317226 4.87134324 50.87317226 4.87134324 53 5.1875 C55.24594523 5.62925761 56.94369348 5.97184674 59 7 C60.77021439 7.04681559 62.54206418 7.03751917 64.3125 7 C70.91729707 6.93595348 77.42551584 7.40617562 84 8 C84 8.33 84 8.66 84 9 C55.29 9 26.58 9 -3 9 C-3 7.02 -3 5.04 -3 3 C-2.34 3 -1.68 3 -1 3 C-0.67 2.01 -0.34 1.02 0 0 Z " fill="#CED0D5" transform="translate(81,139)"/>
<path d="M0 0 C0.33 0 0.66 0 1 0 C1.21192221 5.19209404 0.5912689 9.126739 -1 14 C-4.3 14.33 -7.6 14.66 -11 15 C-7.7 15.99 -4.4 16.98 -1 18 C-1 18.33 -1 18.66 -1 19 C-10.24 19 -19.48 19 -29 19 C-29 17.35 -29 15.7 -29 14 C-28.34 14 -27.68 14 -27 14 C-27 13.34 -27 12.68 -27 12 C-28.32 11.67 -29.64 11.34 -31 11 C-28.36 11 -25.72 11 -23 11 C-23 10.34 -23 9.68 -23 9 C-24.98 9 -26.96 9 -29 9 C-29 8.01 -29 7.02 -29 6 C-32.3 6 -35.6 6 -39 6 C-38.34 5.01 -37.68 4.02 -37 3 C-34.16975238 2.66228483 -31.54756033 2.51096665 -28.7109375 2.48828125 C-27.89251373 2.47033005 -27.07408997 2.45237885 -26.23086548 2.43388367 C-23.61229636 2.37962486 -20.99391106 2.34583596 -18.375 2.3125 C-16.60153683 2.27934057 -14.82809796 2.24485221 -13.0546875 2.20898438 C-8.70325736 2.12388981 -4.35188321 2.0571536 0 2 C0 1.34 0 0.68 0 0 Z " fill="#BFBFC1" transform="translate(77,129)"/>
<path d="M0 0 C3.45669582 -0.31424507 5.39901677 -0.37956836 8.375 1.5 C10.20114698 4.3094569 10.85827673 6.58843282 10.73828125 9.9609375 C9.21220111 14.17582551 4.7869791 16.01634428 1 18 C1.33 18.99 1.66 19.98 2 21 C-0.31 21.33 -2.62 21.66 -5 22 C-4.98952637 22.57967529 -4.97905273 23.15935059 -4.96826172 23.7565918 C-4.92651385 26.40018321 -4.90061462 29.04370505 -4.875 31.6875 C-4.85824219 32.59951172 -4.84148437 33.51152344 -4.82421875 34.45117188 C-4.79021045 39.12731364 -4.86714197 42.73428393 -7 47 C-7.37593066 48.9924325 -7.71979545 50.9918674 -8 53 C-8.33 53 -8.66 53 -9 53 C-9.28571429 35.57142857 -9.28571429 35.57142857 -7 31 C-7.66 31 -8.32 31 -9 31 C-9 28.36 -9 25.72 -9 23 C-9.61875 23.185625 -10.2375 23.37125 -10.875 23.5625 C-13 24 -13 24 -15 23 C-15.37890625 20.6015625 -15.37890625 20.6015625 -15.5625 17.625 C-15.76686657 14.46357425 -15.99377883 12.01866352 -17 9 C-13.535 8.505 -13.535 8.505 -10 8 C-9.54625 8.61875 -9.0925 9.2375 -8.625 9.875 C-7.02891081 12.05919833 -7.02891081 12.05919833 -5 14 C-4.34 12.02 -3.68 10.04 -3 8 C-2.34 8 -1.68 8 -1 8 C-0.67 5.36 -0.34 2.72 0 0 Z " fill="#FEE6CA" transform="translate(87,76)"/>
<path d="M0 0 C1.01707031 0.67095703 1.01707031 0.67095703 2.0546875 1.35546875 C6.56440813 4.28491331 10.97960955 7.07414713 15.875 9.3125 C22.60176265 12.52398668 28.23120809 17.3433733 34 22 C33.505 24.475 33.505 24.475 33 27 C29.48278845 26.085525 26.42952318 25.21953407 23.1875 23.5625 C20.49692946 22.24359287 18.36172585 21.54076955 15.5 20.8125 C8.38909769 18.77775386 2.27680092 14.79988151 -4 11 C-5.02867187 10.38769531 -6.05734375 9.77539062 -7.1171875 9.14453125 C-9.41757389 7.77277109 -11.71177479 6.3919158 -14 5 C-13.01 4.67 -12.02 4.34 -11 4 C-9.31791365 4.97383946 -7.65261839 5.97695052 -6 7 C-3.30745009 7.70670728 -3.30745009 7.70670728 -1 8 C-0.67 5.36 -0.34 2.72 0 0 Z " fill="#27282A" transform="translate(155,107)"/>
<path d="M0 0 C7.40152245 -0.02543379 14.80303356 -0.04290207 22.20458984 -0.05493164 C24.72054465 -0.05994866 27.23649656 -0.06676378 29.75244141 -0.07543945 C33.3766349 -0.08762041 37.00078971 -0.09325474 40.625 -0.09765625 C41.74302002 -0.10281754 42.86104004 -0.10797882 44.01293945 -0.11329651 C49.7749239 -0.11370689 55.30233722 0.12784717 61 1 C61 1.33 61 1.66 61 2 C58.36 2.33 55.72 2.66 53 3 C53 3.66 53 4.32 53 5 C46.53527123 5.9690387 40.24950714 6.13107425 33.71875 6.09765625 C32.66465942 6.0962413 31.61056885 6.09482635 30.52453613 6.09336853 C27.18299429 6.08780508 23.84152133 6.07525941 20.5 6.0625 C18.22395931 6.05748027 15.94791755 6.0529182 13.671875 6.04882812 C8.11456013 6.03784764 2.55728499 6.02114622 -3 6 C-2.34 5.67 -1.68 5.34 -1 5 C-0.34444881 2.47266765 -0.34444881 2.47266765 0 0 Z " fill="#CCCDD3" transform="translate(83,132)"/>
<path d="M0 0 C2.9719385 1.12451727 5.33440687 2.22293791 8 4 C9.9896995 4.39013716 11.99019869 4.73202649 14 5 C13.01 5.495 13.01 5.495 12 6 C11.53248212 8.35599235 11.53248212 8.35599235 11.375 11.0625 C11.30023438 11.98160156 11.22546875 12.90070313 11.1484375 13.84765625 C11.09945312 14.55792969 11.05046875 15.26820312 11 16 C10.01 16.33 9.02 16.66 8 17 C7.731875 17.5775 7.46375 18.155 7.1875 18.75 C5.44866056 22.04464314 2.92354664 23.71200698 0 26 C-2.64 24.35 -5.28 22.7 -8 21 C-5.47627343 13.93893523 -2.83161469 6.9434807 0 0 Z " fill="#B68459" transform="translate(108,80)"/>
<path d="M0 0 C6.95230941 -0.44534366 11.59696035 -0.67289916 17 4 C16.36591429 8.69079318 15.11470488 12.86736767 13.5 17.3125 C13.0565625 18.54613281 12.613125 19.77976562 12.15625 21.05078125 C11 24 11 24 10 25 C5.01882386 25.14408361 1.81219147 24.67958878 -2.0625 21.4375 C-2.701875 20.633125 -3.34125 19.82875 -4 19 C-1.11912454 16.59927045 1.56404834 14.52708963 5 13 C5.64233246 6.96533543 5.64233246 6.96533543 2.5 2 C1.675 1.34 0.85 0.68 0 0 Z " fill="#1F1B12" transform="translate(91,75)"/>
<path d="M0 0 C23.76 0 47.52 0 72 0 C72 0.33 72 0.66 72 1 C52.53 1.33 33.06 1.66 13 2 C13.99 2.33 14.98 2.66 16 3 C16 3.66 16 4.32 16 5 C13.36 5 10.72 5 8 5 C8 5.66 8 6.32 8 7 C12.62 7 17.24 7 22 7 C20.02 7.99 20.02 7.99 18 9 C20.97 9.495 20.97 9.495 24 10 C24 10.33 24 10.66 24 11 C16.08 11.99 8.16 12.98 0 14 C0 9.38 0 4.76 0 0 Z " fill="#848381" transform="translate(0,131)"/>
<path d="M0 0 C6.32163819 0.52093678 12.65853047 0.37492 18.99609375 0.29296875 C18.99609375 1.94296875 18.99609375 3.59296875 18.99609375 5.29296875 C3.15609375 5.29296875 -12.68390625 5.29296875 -29.00390625 5.29296875 C-28.67390625 3.97296875 -28.34390625 2.65296875 -28.00390625 1.29296875 C-18.43006863 -0.24750246 -9.69044928 -0.81634112 0 0 Z " fill="#9C9B9A" transform="translate(29.00390625,142.70703125)"/>
<path d="M0 0 C0.33 0.66 0.66 1.32 1 2 C-0.32 2 -1.64 2 -3 2 C-2.938125 3.299375 -2.87625 4.59875 -2.8125 5.9375 C-2.82879441 17.50653067 -5.89572776 29.10922073 -8.64160156 40.29125977 C-9.60062859 44.19934255 -10.33601334 48.01608003 -11 52 C-17.435 50.515 -17.435 50.515 -24 49 C-23.67 48.34 -23.34 47.68 -23 47 C-19.7 47 -16.4 47 -13 47 C-12.80664062 45.61425781 -12.61328125 44.22851562 -12.4140625 42.80078125 C-12.15136879 40.97130717 -11.88832982 39.14188263 -11.625 37.3125 C-11.49867187 36.40048828 -11.37234375 35.48847656 -11.2421875 34.54882812 C-10.21919461 27.51575203 -10.21919461 27.51575203 -8.9375 24.5 C-7.38738744 20.36636651 -7.52357289 16.06730504 -7.375 11.6875 C-7.33632812 10.75615234 -7.29765625 9.82480469 -7.2578125 8.86523438 C-7.16393687 6.57701593 -7.07825491 4.28879705 -7 2 C-4.69 1.34 -2.38 0.68 0 0 Z " fill="#7D6962" transform="translate(89,96)"/>
<path d="M0 0 C3.65316671 1.24976756 4.78065836 1.67098753 7 5 C10.08365871 5.2502157 10.08365871 5.2502157 13 5 C13 5.99 13 6.98 13 8 C13.99 8 14.98 8 16 8 C15.67 9.98 15.34 11.96 15 14 C12.03 13.505 12.03 13.505 9 13 C9 13.66 9 14.32 9 15 C10.65 15.33 12.3 15.66 14 16 C13.01 16.66 12.02 17.32 11 18 C8.86741811 16.42609449 6.74425407 14.84167605 4.625 13.25 C4.02171875 12.8065625 3.4184375 12.363125 2.796875 11.90625 C-0.29097778 9.57320568 -2.69556271 7.72199439 -4 4 C-2.68 2.68 -1.36 1.36 0 0 Z " fill="#353A3F" transform="translate(113,101)"/>
<path d="M0 0 C2.56293104 0.36613301 4.12574725 1.08156578 6.3125 2.5 C8.62857956 5.93122898 7.99932173 8.2042053 7.359375 12.171875 C7.24078125 12.77515625 7.1221875 13.3784375 7 14 C2.82189381 13.65893011 -0.0926672 13.13952961 -3.6875 10.9375 C-6.93587168 8.66341112 -6.93587168 8.66341112 -11 9 C-11.66 8.67 -12.32 8.34 -13 8 C-13 6.68 -13 5.36 -13 4 C-13.66 3.67 -14.32 3.34 -15 3 C-12.525 3.495 -12.525 3.495 -10 4 C-10 4.66 -10 5.32 -10 6 C-4.45171755 5.25184487 -4.45171755 5.25184487 -0.5 1.875 C-0.335 1.25625 -0.17 0.6375 0 0 Z " fill="#202123" transform="translate(147,101)"/>
<path d="M0 0 C6.3589301 2.61170343 12.61755737 5.59486647 16.5 11.4375 C10.875 16.4375 10.875 16.4375 7.5 16.4375 C7.5 15.4475 7.5 14.4575 7.5 13.4375 C5.52 12.7775 3.54 12.1175 1.5 11.4375 C1.5 10.7775 1.5 10.1175 1.5 9.4375 C0.84 9.4375 0.18 9.4375 -0.5 9.4375 C-1.16 7.1275 -1.82 4.8175 -2.5 2.4375 C-3.16 2.4375 -3.82 2.4375 -4.5 2.4375 C-4.5 1.7775 -4.5 1.1175 -4.5 0.4375 C-2.5 -0.5625 -2.5 -0.5625 0 0 Z " fill="#303234" transform="translate(132.5,89.5625)"/>
<path d="M0 0 C2.64 0 5.28 0 8 0 C7.67 0.66 7.34 1.32 7 2 C9.97 2.33 12.94 2.66 16 3 C16 3.99 16 4.98 16 6 C17.98 6 19.96 6 22 6 C22 6.66 22 7.32 22 8 C20.68 8.33 19.36 8.66 18 9 C18 9.66 18 10.32 18 11 C15.66705225 11.04241723 13.33297433 11.04092937 11 11 C10.67 10.67 10.34 10.34 10 10 C8.31816052 9.76712992 6.6287584 9.58735834 4.9375 9.4375 C4.01839844 9.35371094 3.09929688 9.26992187 2.15234375 9.18359375 C1.44207031 9.12300781 0.73179688 9.06242188 0 9 C0.66 8.34 1.32 7.68 2 7 C-1.3 6.67 -4.6 6.34 -8 6 C-8 4.66666667 -8 3.33333333 -8 2 C-5.36 2 -2.72 2 0 2 C0 1.34 0 0.68 0 0 Z " fill="#B2B2B3" transform="translate(32,132)"/>
<path d="M0 0 C3.94949704 0.62816498 7.19892028 1.8645529 10.8125 3.5625 C12.27623047 4.24505859 12.27623047 4.24505859 13.76953125 4.94140625 C14.87361328 5.46541016 14.87361328 5.46541016 16 6 C16.66 4.68 17.32 3.36 18 2 C18.66 2.33 19.32 2.66 20 3 C20 8.61 20 14.22 20 20 C14.72 20 9.44 20 4 20 C7.28463659 17.81024227 10.20696275 17.00193437 14 16 C14 14.68 14 13.36 14 12 C12.68 11.67 11.36 11.34 10 11 C10.66 11 11.32 11 12 11 C12.33 9.68 12.66 8.36 13 7 C12.154375 6.7525 11.30875 6.505 10.4375 6.25 C6.61572526 4.86026373 3.48131937 3.08879162 0 1 C0 0.67 0 0.34 0 0 Z " fill="#B7A89D" transform="translate(172,128)"/>
<path d="M0 0 C0.33 0 0.66 0 1 0 C1.21192221 5.19209404 0.5912689 9.126739 -1 14 C-6.57710648 15.06795656 -11.39436958 14.82622671 -17 14 C-16.01 13.67 -15.02 13.34 -14 13 C-14 12.01 -14 11.02 -14 10 C-14.66 9.34 -15.32 8.68 -16 8 C-14.68 7.34 -13.36 6.68 -12 6 C-12.33 5.34 -12.66 4.68 -13 4 C-10.36 3.67 -7.72 3.34 -5 3 C-5 2.67 -5 2.34 -5 2 C-3.35 2 -1.7 2 0 2 C0 1.34 0 0.68 0 0 Z " fill="#C9C9CC" transform="translate(77,129)"/>
<path d="M0 0 C6.08719222 9.13078833 3.0356272 26.03379013 2.90405273 36.71533203 C2.87395691 39.3310616 2.85613287 41.94665334 2.83984375 44.5625 C2.82638412 45.36558594 2.8129245 46.16867188 2.79905701 46.99609375 C2.7814792 50.87232857 2.79765088 52.69647632 5 56 C2.125 55.6875 2.125 55.6875 -1 55 C-3 52 -3 52 -2.69140625 49.74609375 C-2.46324219 48.83988281 -2.23507813 47.93367188 -2 47 C0.64540065 31.41723849 0.20117054 15.74546339 0 0 Z " fill="#BEA288" transform="translate(93,18)"/>
<path d="M0 0 C-0.33 1.65 -0.66 3.3 -1 5 C1.64 5 4.28 5 7 5 C7 5.66 7 6.32 7 7 C13.6 7 20.2 7 27 7 C27 7.33 27 7.66 27 8 C26.2886792 8.02505615 25.5773584 8.0501123 24.84448242 8.07592773 C21.62530483 8.19188439 18.40642015 8.31461245 15.1875 8.4375 C14.06794922 8.47681641 12.94839844 8.51613281 11.79492188 8.55664062 C10.18520508 8.61948242 10.18520508 8.61948242 8.54296875 8.68359375 C7.0583313 8.73858032 7.0583313 8.73858032 5.54370117 8.79467773 C2.8781649 8.90790331 2.8781649 8.90790331 0 10 C-0.99 11.485 -0.99 11.485 -2 13 C-5.625 13.6875 -5.625 13.6875 -9 14 C-9 10.7 -9 7.4 -9 4 C-8.34 3.67 -7.68 3.34 -7 3 C-6.67 2.01 -6.34 1.02 -6 0 C-3.50907189 -1.24546405 -2.58919267 -0.7767578 0 0 Z " fill="#DEDDDB" transform="translate(9,117)"/>
<path d="M0 0 C0.33 1.32 0.66 2.64 1 4 C-0.27057182 4.47985967 -1.54146848 4.9588593 -2.8125 5.4375 C-3.87404297 5.83775391 -3.87404297 5.83775391 -4.95703125 6.24609375 C-12.44454643 9.00917297 -20.22142588 8.38285762 -28 7 C-28 6.34 -28 5.68 -28 5 C-26.86111328 4.96132812 -26.86111328 4.96132812 -25.69921875 4.921875 C-24.20841797 4.83679688 -24.20841797 4.83679688 -22.6875 4.75 C-21.70136719 4.70359375 -20.71523437 4.6571875 -19.69921875 4.609375 C-16.34992258 3.85323867 -15.8925526 2.74259742 -14 0 C-8.97521012 -1.07085686 -5.05209667 -1.13672175 0 0 Z " fill="#B8B9BD" transform="translate(186,140)"/>
<path d="M0 0 C3.3034297 4.95514455 3.17079486 8.90189432 2.5 14.6875 C2.4071875 15.49574219 2.314375 16.30398437 2.21875 17.13671875 C2.11046875 18.05904297 2.11046875 18.05904297 2 19 C1.34 18.67 0.68 18.34 0 18 C0 16.68 0 15.36 0 14 C-0.61875 14.185625 -1.2375 14.37125 -1.875 14.5625 C-4 15 -4 15 -6 14 C-6.37890625 11.6015625 -6.37890625 11.6015625 -6.5625 8.625 C-6.76686657 5.46357425 -6.99377883 3.01866352 -8 0 C-4.97786398 -0.97140086 -2.9812093 -1.19248372 0 0 Z " fill="#FBF9F3" transform="translate(78,85)"/>
<path d="M0 0 C3.3 1.98 6.6 3.96 10 6 C9.67 7.32 9.34 8.64 9 10 C5.37471432 10.20140476 3.13498292 9.85776765 0 8 C0.69804656 11.20931076 0.69804656 11.20931076 3.58203125 12.46484375 C4.64808594 12.95082031 5.71414062 13.43679687 6.8125 13.9375 C10.97087099 15.83687774 13.94387513 17.57388423 17 21 C10.99629498 19.34680586 5.97672504 16.99820719 0.70703125 13.6953125 C-2.3662489 11.770632 -5.48895767 9.9454523 -8.625 8.125 C-9.64851562 7.52945313 -10.67203125 6.93390625 -11.7265625 6.3203125 C-12.47679687 5.88460937 -13.22703125 5.44890625 -14 5 C-13.01 4.67 -12.02 4.34 -11 4 C-9.31791365 4.97383946 -7.65261839 5.97695052 -6 7 C-3.30745009 7.70670728 -3.30745009 7.70670728 -1 8 C-0.67 5.36 -0.34 2.72 0 0 Z " fill="#2D2E31" transform="translate(155,107)"/>
<path d="M0 0 C0.33 0.66 0.66 1.32 1 2 C18.82 2 36.64 2 55 2 C55 2.33 55 2.66 55 3 C37.51 3 20.02 3 2 3 C1.67 4.65 1.34 6.3 1 8 C16.18 8.33 31.36 8.66 47 9 C47 9.33 47 9.66 47 10 C46.12343246 10.01213028 46.12343246 10.01213028 45.22915649 10.02450562 C39.16231025 10.11037564 33.09579741 10.20987075 27.02929688 10.31738281 C24.76340318 10.35573271 22.49744735 10.39057483 20.23144531 10.421875 C16.97959133 10.46739527 13.7281674 10.52541076 10.4765625 10.5859375 C9.45881744 10.59748871 8.44107239 10.60903992 7.39248657 10.62094116 C6.45166229 10.64081085 5.51083801 10.66068054 4.54150391 10.68115234 C3.71099518 10.69447601 2.88048645 10.70779968 2.02481079 10.7215271 C-0.22613614 10.82335542 -0.22613614 10.82335542 -2 13 C-1.85769192 11.58297487 -1.71099254 10.1663904 -1.5625 8.75 C-1.48128906 7.96109375 -1.40007812 7.1721875 -1.31640625 6.359375 C-1.02365007 4.17635361 -0.57935581 2.1226818 0 0 Z " fill="#ACADB2" transform="translate(81,129)"/>
<path d="M0 0 C5.445 1.485 5.445 1.485 11 3 C10.34 3.66 9.68 4.32 9 5 C9.33 5.99 9.66 6.98 10 8 C7.69 8.33 5.38 8.66 3 9 C3.01047363 9.57967529 3.02094727 10.15935059 3.03173828 10.7565918 C3.07348615 13.40018321 3.09938538 16.04370505 3.125 18.6875 C3.14175781 19.59951172 3.15851563 20.51152344 3.17578125 21.45117188 C3.20978955 26.12731364 3.13285803 29.73428393 1 34 C0.62406934 35.9924325 0.28020455 37.9918674 0 40 C-0.33 40 -0.66 40 -1 40 C-1.28571429 22.57142857 -1.28571429 22.57142857 1 18 C0.34 18 -0.32 18 -1 18 C-1 17.01 -1 16.02 -1 15 C-0.34 15 0.32 15 1 15 C1 14.30132812 1 13.60265625 1 12.8828125 C1 9.58854167 1 6.29427083 1 3 C0.67 2.01 0.34 1.02 0 0 Z " fill="#F0D8CB" transform="translate(79,89)"/>
<path d="M0 0 C2.9719385 1.12451727 5.33440687 2.22293791 8 4 C9.9896995 4.39013716 11.99019869 4.73202649 14 5 C13.01 5.495 13.01 5.495 12 6 C11.59270772 8.32156597 11.25561323 10.6568787 11 13 C9.68 13 8.36 13 7 13 C7 12.01 7 11.02 7 10 C7.66 10 8.32 10 9 10 C9 9.01 9 8.02 9 7 C6.6568787 7.25561323 4.32156597 7.59270772 2 8 C1.67 8.66 1.34 9.32 1 10 C1.66 10 2.32 10 3 10 C3 11.32 3 12.64 3 14 C2.34 14 1.68 14 1 14 C1 13.01 1 12.02 1 11 C-1.475 12.485 -1.475 12.485 -4 14 C-3.46148032 8.72250715 -2.22656164 4.74354436 0 0 Z " fill="#C59D7B" transform="translate(108,80)"/>
<path d="M0 0 C0.66 0 1.32 0 2 0 C2 1.65 2 3.3 2 5 C2.4125 4.505 2.825 4.01 3.25 3.5 C5 2 5 2 9 2 C9.33 3.98 9.66 5.96 10 8 C8.865625 8.12375 7.73125 8.2475 6.5625 8.375 C4.7990625 8.684375 4.7990625 8.684375 3 9 C2.67 9.66 2.34 10.32 2 11 C-0.3140622 11.73075648 -2.64828869 12.40138258 -5 13 C-5.36637589 6.64948454 -5.36637589 6.64948454 -3.625 3.5625 C-2 2 -2 2 0 2 C0 1.34 0 0.68 0 0 Z " fill="#EBD4C3" transform="translate(64,66)"/>
<path d="M0 0 C0.33 0.99 0.66 1.98 1 3 C1.66 3 2.32 3 3 3 C3 3.66 3 4.32 3 5 C3.99 5 4.98 5 6 5 C6.061875 5.928125 6.061875 5.928125 6.125 6.875 C6.41375 7.57625 6.7025 8.2775 7 9 C9.99615946 10.3045656 9.99615946 10.3045656 13 11 C13 11.66 13 12.32 13 13 C11.56359829 13.19573608 10.12580496 13.38127816 8.6875 13.5625 C7.88699219 13.66691406 7.08648437 13.77132812 6.26171875 13.87890625 C4 14 4 14 1 13 C1 13.66 1 14.32 1 15 C-2.24271506 14.4409112 -3.93057424 13.5867822 -6 11 C-6 10.34 -6 9.68 -6 9 C-2.535 8.505 -2.535 8.505 1 8 C1 6.68 1 5.36 1 4 C0.01 4 -0.98 4 -2 4 C-2 3.01 -2 2.02 -2 1 C-1.34 0.67 -0.68 0.34 0 0 Z " fill="#292B30" transform="translate(128,105)"/>
<path d="M0 0 C5.39026228 0.52895097 9.24229489 2.46333696 13.875 5.0625 C14.56335938 5.43955078 15.25171875 5.81660156 15.9609375 6.20507812 C17.6449213 7.12893035 19.32307467 8.06339667 21 9 C20.67 10.32 20.34 11.64 20 13 C15.28596212 12.52060632 11.33420699 12.03165952 7 10 C7 9.34 7 8.68 7 8 C7.99 7.67 8.98 7.34 10 7 C6.74820188 4.78286492 3.5786304 2.65167557 0 1 C0 0.67 0 0.34 0 0 Z M6 5 C6.66 5.66 7.32 6.32 8 7 C7.01 7.33 6.02 7.66 5 8 C5.33 7.01 5.66 6.02 6 5 Z " fill="#1E1F21" transform="translate(164,126)"/>
<path d="M0 0 C0.66 0 1.32 0 2 0 C2 4.95 2 9.9 2 15 C-1.3674681 13.31626595 -3.83584191 11.68918436 -6.75 9.375 C-7.54921875 8.74335937 -8.3484375 8.11171875 -9.171875 7.4609375 C-10.07679688 6.73777344 -10.07679688 6.73777344 -11 6 C-7.36147686 5.04207023 -3.72908331 4.50199198 0 4 C0 2.68 0 1.36 0 0 Z " fill="#F0F0F0" transform="translate(190,116)"/>
<path d="M0 0 C0.99 0.33 1.98 0.66 3 1 C3 3.31 3 5.62 3 8 C4.65 8 6.3 8 8 8 C7.67 8.99 7.34 9.98 7 11 C1.97294083 10.87952582 -1.09872551 10.75412763 -5.0625 7.4375 C-5.701875 6.633125 -6.34125 5.82875 -7 5 C-2.25 1.125 -2.25 1.125 0 0 Z " fill="#1A1718" transform="translate(94,89)"/>
<path d="M0 0 C2.50312893 1.21119142 2.74739932 2.48291734 3.9375 4.9375 C5.9710948 6.20554566 5.9710948 6.20554566 7.9375 6.9375 C6.9475 6.9375 5.9575 6.9375 4.9375 6.9375 C4.9375 7.5975 4.9375 8.2575 4.9375 8.9375 C-4.23536652 8.58739059 -4.23536652 8.58739059 -7.6875 5.875 C-8.14125 5.235625 -8.595 4.59625 -9.0625 3.9375 C-8.464375 3.834375 -7.86625 3.73125 -7.25 3.625 C-4.97009282 3.10780653 -4.97009282 3.10780653 -3.5625 1.3125 C-2.0625 -0.0625 -2.0625 -0.0625 0 0 Z " fill="#66533F" transform="translate(69.0625,76.0625)"/>
<path d="M0 0 C0.33 0 0.66 0 1 0 C1.21192221 5.19209404 0.5912689 9.126739 -1 14 C-3.31 14.33 -5.62 14.66 -8 15 C-8 13.68 -8 12.36 -8 11 C-9.32 10.34 -10.64 9.68 -12 9 C-8.62182575 8.15545644 -6.32534757 7.89155081 -3 9 C-3 7.02 -3 5.04 -3 3 C-3.66 2.67 -4.32 2.34 -5 2 C-3.35 2 -1.7 2 0 2 C0 1.34 0 0.68 0 0 Z " fill="#C9BCB5" transform="translate(77,129)"/>
<path d="M0 0 C7.90316046 0.99865644 7.90316046 0.99865644 10.5703125 3.43359375 C11.72466052 4.94731427 12.86301652 6.47319362 14 8 C15.98045559 8.66179847 15.98045559 8.66179847 18 9 C20.52679748 10.86501718 22.78038751 12.78038751 25 15 C21.52371916 14.43676983 18.90685994 13.59357362 15.875 11.8125 C15.11058594 11.37164062 14.34617188 10.93078125 13.55859375 10.4765625 C12.71425781 9.98929688 11.86992187 9.50203125 11 9 C8.98196309 7.89073068 6.96111737 6.78655602 4.9375 5.6875 C3.99777344 5.17574219 3.05804688 4.66398437 2.08984375 4.13671875 C1.40019531 3.76160156 0.71054688 3.38648437 0 3 C0 2.01 0 1.02 0 0 Z " fill="#151618" transform="translate(155,115)"/>
<path d="M0 0 C4 4.5 4 4.5 4 9 C4.99 9.33 5.98 9.66 7 10 C7 10.99 7 11.98 7 13 C1.72 13 -3.56 13 -9 13 C-5.71536341 10.81024227 -2.79303725 10.00193437 1 9 C1 7.68 1 6.36 1 5 C-0.32 4.67 -1.64 4.34 -3 4 C-2.34 4 -1.68 4 -1 4 C-0.67 2.68 -0.34 1.36 0 0 Z " fill="#8F837A" transform="translate(185,135)"/>
<path d="M0 0 C-0.99 0.66 -1.98 1.32 -3 2 C-4.2188121 5.55672179 -4.2188121 5.55672179 -5 9 C-5.66 9 -6.32 9 -7 9 C-7 8.34 -7 7.68 -7 7 C-9.31 6.67 -11.62 6.34 -14 6 C-13.67 5.34 -13.34 4.68 -13 4 C-12.67 3.01 -12.34 2.02 -12 1 C-7.63771021 -1.028972 -4.64343758 -1.10558038 0 0 Z " fill="#BF8C67" transform="translate(91,75)"/>
<path d="M0 0 C9.99562363 -0.63019694 9.99562363 -0.63019694 14.1875 2 C15.0846875 2.99 15.0846875 2.99 16 4 C13.69 4.33 11.38 4.66 9 5 C8.87625 5.598125 8.7525 6.19625 8.625 6.8125 C8 9 8 9 6 12 C5.9071875 10.4221875 5.9071875 10.4221875 5.8125 8.8125 C4.86591384 4.3708265 3.40843742 2.88406243 0 0 Z " fill="#2C2B21" transform="translate(91,75)"/>
<path d="M0 0 C2.64 0 5.28 0 8 0 C7.67 0.66 7.34 1.32 7 2 C9.97 2.33 12.94 2.66 16 3 C16 3.33 16 3.66 16 4 C14.71802734 4.09087891 14.71802734 4.09087891 13.41015625 4.18359375 C12.30542969 4.26738281 11.20070313 4.35117188 10.0625 4.4375 C8.96035156 4.51871094 7.85820313 4.59992188 6.72265625 4.68359375 C4.08890097 4.70418084 4.08890097 4.70418084 3 6 C1.14712498 6.07226502 -0.70833878 6.0838122 -2.5625 6.0625 C-3.57441406 6.05347656 -4.58632813 6.04445312 -5.62890625 6.03515625 C-6.41136719 6.02355469 -7.19382812 6.01195312 -8 6 C-8 4.66666667 -8 3.33333333 -8 2 C-5.36 2 -2.72 2 0 2 C0 1.34 0 0.68 0 0 Z " fill="#AAA9A9" transform="translate(32,132)"/>
<path d="M0 0 C2.64 0 5.28 0 8 0 C8 0.66 8 1.32 8 2 C11.3 2 14.6 2 18 2 C18.33 2.66 18.66 3.32 19 4 C12.375 5.125 12.375 5.125 9 4 C8.67 4.66 8.34 5.32 8 6 C8 5.34 8 4.68 8 4 C6.3603125 4.309375 6.3603125 4.309375 4.6875 4.625 C1 5 1 5 -2 3 C-1.34 2.34 -0.68 1.68 0 1 C0 0.67 0 0.34 0 0 Z " fill="#A4A3A2" transform="translate(24,139)"/>
<path d="M0 0 C0.33 0.66 0.66 1.32 1 2 C-0.32 2 -1.64 2 -3 2 C-2.97679688 2.64066406 -2.95359375 3.28132813 -2.9296875 3.94140625 C-2.81559137 9.40987096 -3.20208096 13.83098277 -5 19 C-7.49118953 15.2632157 -7.2065226 13.25548181 -7.125 8.8125 C-7.10695313 7.54019531 -7.08890625 6.26789063 -7.0703125 4.95703125 C-7.04710938 3.98121094 -7.02390625 3.00539063 -7 2 C-4.69 1.34 -2.38 0.68 0 0 Z " fill="#796253" transform="translate(89,96)"/>
<path d="M0 0 C1.65 0.33 3.3 0.66 5 1 C4.67 2.32 4.34 3.64 4 5 C4.66 5 5.32 5 6 5 C6.33 4.01 6.66 3.02 7 2 C8.0625 3.875 8.0625 3.875 9 6 C8.67 6.66 8.34 7.32 8 8 C6.00390625 8.484375 6.00390625 8.484375 3.5625 8.75 C2.35787109 8.89695312 2.35787109 8.89695312 1.12890625 9.046875 C-1 9 -1 9 -3 7 C-2.01 4.69 -1.02 2.38 0 0 Z " fill="#9E714E" transform="translate(103,93)"/>
<path d="M0 0 C4.53759761 0.57254056 7.95922196 2.49447161 11.8125 4.8125 C15.68987831 7.09783548 19.54645465 9.33746178 23.625 11.25 C26.75026351 12.870507 28.72592726 14.34691514 31 17 C24.99575949 15.34665841 19.97394445 13.0008525 14.70703125 9.69140625 C10.63274762 7.14571388 6.44579401 4.798419 2.2734375 2.41796875 C1.52320313 1.95003906 0.77296875 1.48210937 0 1 C0 0.67 0 0.34 0 0 Z " fill="#B5B6B8" transform="translate(141,111)"/>
<path d="M0 0 C2.83833554 1.13533421 4.80962228 2.29083424 7.125 4.25 C5.375 6.75 5.375 6.75 3.125 9.25 C1.805 9.25 0.485 9.25 -0.875 9.25 C-1.535 6.94 -2.195 4.63 -2.875 2.25 C-3.535 2.25 -4.195 2.25 -4.875 2.25 C-4.875 1.59 -4.875 0.93 -4.875 0.25 C-2.875 -0.75 -2.875 -0.75 0 0 Z " fill="#393A3D" transform="translate(132.875,89.75)"/>
<path d="M0 0 C-0.33 1.65 -0.66 3.3 -1 5 C1.64 5 4.28 5 7 5 C7 5.66 7 6.32 7 7 C1.72 7 -3.56 7 -9 7 C-9 6.01 -9 5.02 -9 4 C-8.34 3.67 -7.68 3.34 -7 3 C-6.67 2.01 -6.34 1.02 -6 0 C-3.50907189 -1.24546405 -2.58919267 -0.7767578 0 0 Z " fill="#E7E6E4" transform="translate(9,117)"/>
<path d="M0 0 C0.99 0 1.98 0 3 0 C3.125 6.75 3.125 6.75 2 9 C3.134375 9.12375 4.26875 9.2475 5.4375 9.375 C6.613125 9.58125 7.78875 9.7875 9 10 C9.33 10.66 9.66 11.32 10 12 C5.71 12 1.42 12 -3 12 C-2.690625 10.948125 -2.38125 9.89625 -2.0625 8.8125 C-1.24314906 5.87247604 -0.54516069 2.99838377 0 0 Z " fill="#E3E3E0" transform="translate(21,111)"/>
<path d="M0 0 C0.33 0 0.66 0 1 0 C1.04898438 1.04800781 1.09796875 2.09601562 1.1484375 3.17578125 C1.22348143 4.55471354 1.29902857 5.9336185 1.375 7.3125 C1.4059375 8.00279297 1.436875 8.69308594 1.46875 9.40429688 C1.68124919 13.06990789 1.91933861 14.87900792 4 18 C1.125 17.6875 1.125 17.6875 -2 17 C-4 14 -4 14 -3.8125 11.875 C-2.68024066 7.86854388 -1.3625567 3.93341841 0 0 Z " fill="#A58665" transform="translate(94,56)"/>
<path d="M0 0 C1.97119141 -0.34057617 1.97119141 -0.34057617 4.3515625 -0.29296875 C5.62773438 -0.2784668 5.62773438 -0.2784668 6.9296875 -0.26367188 C7.81914063 -0.23853516 8.70859375 -0.21339844 9.625 -0.1875 C10.97078125 -0.16719727 10.97078125 -0.16719727 12.34375 -0.14648438 C14.56309789 -0.11106925 16.78125188 -0.06168461 19 0 C19 0.66 19 1.32 19 2 C17.35 2.33 15.7 2.66 14 3 C14 3.33 14 3.66 14 4 C8.72 3.67 3.44 3.34 -2 3 C-1.34 2.01 -0.68 1.02 0 0 Z " fill="#B7B7B8" transform="translate(40,132)"/>
<path d="M0 0 C0.33 0 0.66 0 1 0 C1 2.31 1 4.62 1 7 C1.66 7 2.32 7 3 7 C3.33 9.97 3.66 12.94 4 16 C2.35 16 0.7 16 -1 16 C-1 14.68 -1 13.36 -1 12 C-1.66 11.67 -2.32 11.34 -3 11 C-2.67 10.67 -2.34 10.34 -2 10 C-2 9.01 -2 8.02 -2 7 C-1.36485174 4.65789079 -0.7013284 2.32315031 0 0 Z " fill="#14110C" transform="translate(98,81)"/>
<path d="M0 0 C0.99 0 1.98 0 3 0 C3 0.66 3 1.32 3 2 C5.31 2.33 7.62 2.66 10 3 C10.08886184 6.19902639 9.91058531 8.92677456 9 12 C5.49113968 10.59645587 4.5732852 9.35634177 3 6 C2.01 5.34 1.02 4.68 0 4 C0 2.68 0 1.36 0 0 Z " fill="#9C7860" transform="translate(74,79)"/>
<path d="M0 0 C2.94880594 1.39470551 5.59615012 2.97798879 8.25 4.875 C8.95640625 5.36742188 9.6628125 5.85984375 10.390625 6.3671875 C12 8 12 8 12 12 C10.68 11.34 9.36 10.68 8 10 C8 9.34 8 8.68 8 8 C6.6078125 7.566875 6.6078125 7.566875 5.1875 7.125 C2 6 2 6 -1 4 C-0.67 2.68 -0.34 1.36 0 0 Z " fill="#333437" transform="translate(173,118)"/>
<path d="M0 0 C1.98 0 3.96 0 6 0 C6.33 0.99 6.66 1.98 7 3 C4.56780169 5.24510613 3.28218472 5.97120564 -0.0625 6.3125 C-3 6 -3 6 -6 4 C-6 3.34 -6 2.68 -6 2 C-4.02 2 -2.04 2 0 2 C0 1.34 0 0.68 0 0 Z " fill="#FDF2E2" transform="translate(88,86)"/>
<path d="M0 0 C3.70927609 -0.20607089 5.7681117 0.23715184 9 2 C10.99220557 2.68960962 12.99105606 3.36079057 15 4 C15 4.33 15 4.66 15 5 C9.39 5 3.78 5 -2 5 C-1.34 3.35 -0.68 1.7 0 0 Z " fill="#B9B2B5" transform="translate(61,143)"/>
<path d="M0 0 C5.445 1.485 5.445 1.485 11 3 C10.34 3.66 9.68 4.32 9 5 C9.33 5.99 9.66 6.98 10 8 C5.545 8.495 5.545 8.495 1 9 C1.20625 8.2575 1.4125 7.515 1.625 6.75 C2.3075773 3.67521852 2.3075773 3.67521852 0 0 Z " fill="#FDF2E1" transform="translate(79,89)"/>
<path d="M0 0 C2.5625 2.25 2.5625 2.25 5 5 C4.8125 7.3125 4.8125 7.3125 4 9 C3.67 8.34 3.34 7.68 3 7 C2.34 7 1.68 7 1 7 C1 8.65 1 10.3 1 12 C0.67 11.01 0.34 10.02 0 9 C-0.66 8.67 -1.32 8.34 -2 8 C-4 7 -4 7 -5 4 C-4.67 3.34 -4.34 2.68 -4 2 C-2.68 2 -1.36 2 0 2 C0 1.34 0 0.68 0 0 Z " fill="#F6E5D2" transform="translate(90,12)"/>
<path d="M0 0 C0 0.33 0 0.66 0 1 C-2.97 1 -5.94 1 -9 1 C-9.33 1.66 -9.66 2.32 -10 3 C-12.97 3 -15.94 3 -19 3 C-19.33 1.68 -19.66 0.36 -20 -1 C-12.97216188 -2.35150733 -6.97671158 -1.40697017 0 0 Z " fill="#A8A8AE" transform="translate(180,138)"/>
<path d="M0 0 C-8.25 0 -16.5 0 -25 0 C-25 -0.66 -25 -1.32 -25 -2 C-21.58476356 -2.2553824 -18.16813341 -2.47470664 -14.75 -2.6875 C-13.78191406 -2.76033203 -12.81382812 -2.83316406 -11.81640625 -2.90820312 C-10.41455078 -2.99038086 -10.41455078 -2.99038086 -8.984375 -3.07421875 C-7.69611816 -3.16062622 -7.69611816 -3.16062622 -6.38183594 -3.2487793 C-4 -3 -4 -3 0 0 Z " fill="#B0B1B7" transform="translate(161,133)"/>
<path d="M0 0 C2.49729916 3.74594875 2.2965629 5.55155657 2 10 C0.99702012 14.93131773 -0.10580299 17.75483582 -4 21 C-3.60437879 15.63829154 -3.20293187 10.9565967 -1 6 C-0.62406934 4.0075675 -0.28020455 2.0081326 0 0 Z " fill="#A28A7F" transform="translate(82,112)"/>
<path d="M0 0 C1.32 0 2.64 0 4 0 C4 0.66 4 1.32 4 2 C5.32 2.33 6.64 2.66 8 3 C6.41641358 6.16717283 5.54736301 7.73268318 2.3125 9.3125 C1.549375 9.539375 0.78625 9.76625 0 10 C0 6.7 0 3.4 0 0 Z " fill="#868582" transform="translate(0,135)"/>
<path d="M0 0 C1.95766281 -0.08082094 3.91626728 -0.13910778 5.875 -0.1875 C7.51082031 -0.23970703 7.51082031 -0.23970703 9.1796875 -0.29296875 C10.11039063 -0.19628906 11.04109375 -0.09960938 12 0 C14 3 14 3 15 5 C4.44191344 4.22095672 4.44191344 4.22095672 0 2 C0 1.34 0 0.68 0 0 Z " fill="#1B1B21" transform="translate(129,118)"/>
<path d="M0 0 C2.475 0.495 2.475 0.495 5 1 C5 1.66 5 2.32 5 3 C6.65 2.67 8.3 2.34 10 2 C10.33 2.66 10.66 3.32 11 4 C12.64363134 4.72159424 14.31050386 5.39351421 16 6 C15.67 6.66 15.34 7.32 15 8 C12.97448078 7.49362019 10.95188677 6.98687821 8.9375 6.4375 C6.84332634 5.88986956 6.84332634 5.88986956 4 6 C3.34 5.67 2.68 5.34 2 5 C2 3.68 2 2.36 2 1 C1.34 0.67 0.68 0.34 0 0 Z " fill="#0A0B0D" transform="translate(132,104)"/>
<path d="M0 0 C0.66 0 1.32 0 2 0 C5.04157942 5.22771463 6.50610724 8.92671312 6 15 C4.68 14.67 3.36 14.34 2 14 C1.93941406 13.24074219 1.87882812 12.48148438 1.81640625 11.69921875 C1.73261719 10.70535156 1.64882812 9.71148437 1.5625 8.6875 C1.48128906 7.70136719 1.40007812 6.71523437 1.31640625 5.69921875 C1.08187441 2.90624401 1.08187441 2.90624401 0 0 Z " fill="#BAB1A5" transform="translate(70,85)"/>
<path d="M0 0 C3.5 1.5 3.5 1.5 6 3 C6 3.33 6 3.66 6 4 C3.89646505 4.0810206 1.79204048 4.13919907 -0.3125 4.1875 C-1.48425781 4.22230469 -2.65601563 4.25710937 -3.86328125 4.29296875 C-7 4 -7 4 -8.91796875 2.48828125 C-9.27503906 1.99714844 -9.63210937 1.50601563 -10 1 C-6.80885219 -0.5955739 -3.47259755 -0.38584417 0 0 Z " fill="#BDBEC5" transform="translate(162,133)"/>
<path d="M0 0 C3.72301503 -0.47730962 4.79191085 -0.1387261 8 2 C7.67 3.32 7.34 4.64 7 6 C6.34 6 5.68 6 5 6 C5 5.34 5 4.68 5 4 C2.07120629 4.62759865 -0.36095629 5.58622659 -3 7 C-3.33 5.68 -3.66 4.36 -4 3 C-3.34 3 -2.68 3 -2 3 C-1.34 2.01 -0.68 1.02 0 0 Z " fill="#1F2022" transform="translate(132,101)"/>
<path d="M0 0 C0.33 0.99 0.66 1.98 1 3 C1.66 3 2.32 3 3 3 C3 3.66 3 4.32 3 5 C3.99 5 4.98 5 6 5 C6 6.65 6 8.3 6 10 C3.03 9.67 0.06 9.34 -3 9 C-1.68 8.67 -0.36 8.34 1 8 C1 6.68 1 5.36 1 4 C0.01 4 -0.98 4 -2 4 C-2 3.01 -2 2.02 -2 1 C-1.34 0.67 -0.68 0.34 0 0 Z " fill="#313336" transform="translate(128,105)"/>
<path d="M0 0 C0.33 1.32 0.66 2.64 1 4 C-0.32 4.33 -1.64 4.66 -3 5 C-3 4.67 -3 4.34 -3 4 C-4.65 3.67 -6.3 3.34 -8 3 C-8 2.34 -8 1.68 -8 1 C-9.98 1 -11.96 1 -14 1 C-14 0.67 -14 0.34 -14 0 C-8.97874074 -0.77916092 -5.02296004 -1.13016601 0 0 Z " fill="#B2B3B4" transform="translate(186,140)"/>
<path d="M0 0 C0.33 0.99 0.66 1.98 1 3 C-0.60332791 3.08121924 -2.20784026 3.13929134 -3.8125 3.1875 C-4.70582031 3.22230469 -5.59914063 3.25710937 -6.51953125 3.29296875 C-9.41647515 2.95081002 -10.22555028 2.24606427 -12 0 C-7.6835078 -0.76173392 -4.25566547 -1.16063604 0 0 Z " fill="#EFEEEB" transform="translate(17,103)"/>
<path d="M0 0 C0.66 0.33 1.32 0.66 2 1 C0.90653119 2.34212062 -0.2001575 3.67347975 -1.3125 5 C-1.92738281 5.7425 -2.54226562 6.485 -3.17578125 7.25 C-5 9 -5 9 -8 9 C-9.6875 7.5 -9.6875 7.5 -11 6 C-7.535 5.505 -7.535 5.505 -4 5 C-3.67 4.01 -3.34 3.02 -3 2 C-2.01 1.34 -1.02 0.68 0 0 Z " fill="#A98C76" transform="translate(115,96)"/>
<path d="M0 0 C1.12272841 3.36818523 0.70327288 5.57154472 0 9 C0.33 9.99 0.66 10.98 1 12 C3.64 12.33 6.28 12.66 9 13 C9 13.33 9 13.66 9 14 C5.37 14 1.74 14 -2 14 C-2 10.37 -2 6.74 -2 3 C-1.34 3 -0.68 3 0 3 C0 2.01 0 1.02 0 0 Z " fill="#F1DEC4" transform="translate(91,61)"/>
<path d="M0 0 C1.32 0 2.64 0 4 0 C4 2.64 4 5.28 4 8 C2.02 8.99 2.02 8.99 0 10 C-0.625 7.625 -0.625 7.625 -1 5 C-0.34 4.34 0.32 3.68 1 3 C0.34 3 -0.32 3 -1 3 C-0.67 2.01 -0.34 1.02 0 0 Z " fill="#E8E8E8" transform="translate(40,111)"/>
<path d="M0 0 C0.928125 1.175625 0.928125 1.175625 1.875 2.375 C3.89858661 4.96837647 3.89858661 4.96837647 6 7 C5.67 7.99 5.34 8.98 5 10 C3.0625 9.625 3.0625 9.625 1 9 C0.67 8.34 0.34 7.68 0 7 C0.33 6.34 0.66 5.68 1 5 C0.01 5 -0.98 5 -2 5 C-2.33 4.01 -2.66 3.02 -3 2 C-2.01 1.34 -1.02 0.68 0 0 Z " fill="#252628" transform="translate(133,105)"/>
<path d="M0 0 C2 0 2 0 4.625 2.3125 C7 5 7 5 7 8 C8.65 8.33 10.3 8.66 12 9 C11.01 9.66 10.02 10.32 9 11 C5.7 8.36 2.4 5.72 -1 3 C-0.67 2.01 -0.34 1.02 0 0 Z " fill="#31363E" transform="translate(115,108)"/>
<path d="M0 0 C0.99 0.33 1.98 0.66 3 1 C5.33183607 1.67188497 7.66501142 2.33915417 10 3 C9.34 4.32 8.68 5.64 8 7 C4.06326356 5.68775452 1.77280706 4.08089673 -1 1 C-0.67 0.67 -0.34 0.34 0 0 Z " fill="#1E1F26" transform="translate(158,128)"/>
<path d="M0 0 C0 0.66 0 1.32 0 2 C0.66 2 1.32 2 2 2 C1.34 3.65 0.68 5.3 0 7 C-1.65 6.67 -3.3 6.34 -5 6 C-5 4.35 -5 2.7 -5 1 C-2 0 -2 0 0 0 Z " fill="#E9E9E9" transform="translate(37,112)"/>
<path d="M0 0 C1.32 0 2.64 0 4 0 C4.99 2.64 5.98 5.28 7 8 C5.02 8.99 5.02 8.99 3 10 C1.68 9.01 0.36 8.02 -1 7 C0.32 6.67 1.64 6.34 3 6 C3 4.68 3 3.36 3 2 C1.68 2.33 0.36 2.66 -1 3 C-0.67 2.01 -0.34 1.02 0 0 Z " fill="#2B2C2F" transform="translate(153,120)"/>
<path d="M0 0 C2.31 0.66 4.62 1.32 7 2 C6.01 3.485 6.01 3.485 5 5 C2.8359375 5.29296875 2.8359375 5.29296875 0.375 5.1875 C-0.44226562 5.16042969 -1.25953125 5.13335937 -2.1015625 5.10546875 C-3.04128906 5.05326172 -3.04128906 5.05326172 -4 5 C-3.01 4.67 -2.02 4.34 -1 4 C-0.26676204 1.98491642 -0.26676204 1.98491642 0 0 Z " fill="#D8CDCF" transform="translate(64,138)"/>
<path d="M0 0 C2.475 0.99 2.475 0.99 5 2 C5 2.99 5 3.98 5 5 C3.68 4.67 2.36 4.34 1 4 C1 4.66 1 5.32 1 6 C-0.65 5.67 -2.3 5.34 -4 5 C-2.68 3.35 -1.36 1.7 0 0 Z " fill="#3B3436" transform="translate(113,101)"/>
<path d="M0 0 C7.75 0.75 7.75 0.75 10 3 C5.25 6 5.25 6 3 6 C2.67 5.01 2.34 4.02 2 3 C1.34 3 0.68 3 0 3 C0 2.01 0 1.02 0 0 Z " fill="#48443E" transform="translate(120,86)"/>
<path d="M0 0 C0 0.99 0 1.98 0 3 C-0.66 3 -1.32 3 -2 3 C-2.33 3.66 -2.66 4.32 -3 5 C-3.99 5 -4.98 5 -6 5 C-6 4.34 -6 3.68 -6 3 C-6.66 3 -7.32 3 -8 3 C-7.67 2.01 -7.34 1.02 -7 0 C-4.3333581 -1.33332095 -2.83319697 -0.67102033 0 0 Z " fill="#C28C58" transform="translate(117,87)"/>
<path d="M0 0 C0.66 0 1.32 0 2 0 C2 0.66 2 1.32 2 2 C3.32 2.66 4.64 3.32 6 4 C5.67 4.99 5.34 5.98 5 7 C2.03 6.505 2.03 6.505 -1 6 C-0.67 4.02 -0.34 2.04 0 0 Z " fill="#C19B86" transform="translate(75,68)"/>
<path d="M0 0 C1.65 0 3.3 0 5 0 C5 1.98 5 3.96 5 6 C4.34 5.67 3.68 5.34 3 5 C3 4.34 3 3.68 3 3 C1.68 3.99 0.36 4.98 -1 6 C-2.32 4.35 -3.64 2.7 -5 1 C-2.525 1.495 -2.525 1.495 0 2 C0 1.34 0 0.68 0 0 Z " fill="#434751" transform="translate(114,105)"/>
<path d="M0 0 C1.485 0.99 1.485 0.99 3 2 C3.40843923 4.71203652 3.13336867 7.2437142 3 10 C2.01 10 1.02 10 0 10 C0 6.7 0 3.4 0 0 Z " fill="#D5BFAA" transform="translate(94,78)"/>
<path d="M0 0 C0.33 0 0.66 0 1 0 C1.08159574 4.16138263 0.98248524 7.9472484 0 12 C-0.66 12 -1.32 12 -2 12 C-2 8.7 -2 5.4 -2 2 C-1.34 2 -0.68 2 0 2 C0 1.34 0 0.68 0 0 Z " fill="#EAD6CD" transform="translate(77,129)"/>
<path d="M0 0 C0.33 0.66 0.66 1.32 1 2 C1.66 2.33 2.32 2.66 3 3 C2.34 4.65 1.68 6.3 1 8 C1.66 8.66 2.32 9.32 3 10 C2.01 10.33 1.02 10.66 0 11 C-0.66 11.66 -1.32 12.32 -2 13 C-1.85769192 11.58297487 -1.71099254 10.1663904 -1.5625 8.75 C-1.48128906 7.96109375 -1.40007812 7.1721875 -1.31640625 6.359375 C-1.02365007 4.17635361 -0.57935581 2.1226818 0 0 Z " fill="#C1BDB8" transform="translate(81,129)"/>
<path d="M0 0 C1.81325551 0.11351517 3.62563357 0.24112961 5.4375 0.375 C6.95150391 0.47941406 6.95150391 0.47941406 8.49609375 0.5859375 C9.73552734 0.79089844 9.73552734 0.79089844 11 1 C11.33 1.66 11.66 2.32 12 3 C7.71 3 3.42 3 -1 3 C-0.67 2.01 -0.34 1.02 0 0 Z " fill="#EBEBE9" transform="translate(19,120)"/>
<path d="M0 0 C2.05078125 0.03255208 4.1015625 0.06510417 6.15234375 0.09765625 C6.15234375 1.41765625 6.15234375 2.73765625 6.15234375 4.09765625 C2.41746598 3.59967255 0.3399674 3.22273869 -2.84765625 1.09765625 C-1.84765625 0.09765625 -1.84765625 0.09765625 0 0 Z " fill="#3C4449" transform="translate(122.84765625,108.90234375)"/>
<path d="M0 0 C-1 3 -1 3 -4.0625 4.6875 C-5.031875 5.120625 -6.00125 5.55375 -7 6 C-7.33 4.35 -7.66 2.7 -8 1 C-5.23735711 0.40267181 -2.83967231 0 0 0 Z " fill="#1B201D" transform="translate(108,79)"/>
<path d="M0 0 C0.99 0.99 1.98 1.98 3 3 C2 5 2 5 0.0625 5.6875 C-2 6 -2 6 -4 5 C-4.33 5.66 -4.66 6.32 -5 7 C-5.66 5.68 -6.32 4.36 -7 3 C-5.5459375 2.814375 -5.5459375 2.814375 -4.0625 2.625 C-2.5465625 2.315625 -2.5465625 2.315625 -1 2 C-0.67 1.34 -0.34 0.68 0 0 Z " fill="#837158" transform="translate(67,76)"/>
<path d="M0 0 C1.32 0.66 2.64 1.32 4 2 C1.3401439 5.44216672 -1.90288286 5.99504674 -6 7 C-6 6.01 -6 5.02 -6 4 C-5.01 4 -4.02 4 -3 4 C-3 3.34 -3 2.68 -3 2 C-2.01 2 -1.02 2 0 2 C0 1.34 0 0.68 0 0 Z " fill="#D9BC9E" transform="translate(65,72)"/>
<path d="M0 0 C0.99 0.33 1.98 0.66 3 1 C3 1.66 3 2.32 3 3 C3.99 3 4.98 3 6 3 C6 4.32 6 5.64 6 7 C5.34 7 4.68 7 4 7 C4 6.01 4 5.02 4 4 C1.525 5.485 1.525 5.485 -1 7 C-0.67 4.69 -0.34 2.38 0 0 Z " fill="#C49876" transform="translate(105,87)"/>
<path d="M0 0 C1.22589844 0.01353516 1.22589844 0.01353516 2.4765625 0.02734375 C3.41628906 0.04474609 3.41628906 0.04474609 4.375 0.0625 C1.97736815 2.46013185 1.04226502 2.40530586 -2.25 2.6875 C-3.06726563 2.76226562 -3.88453125 2.83703125 -4.7265625 2.9140625 C-5.35304687 2.96304688 -5.97953125 3.01203125 -6.625 3.0625 C-6.625 2.4025 -6.625 1.7425 -6.625 1.0625 C-4.21954362 -0.14022819 -2.67503047 -0.03821472 0 0 Z " fill="#A5A8AA" transform="translate(176.625,144.9375)"/>
<path d="M0 0 C4.51478398 0.53115106 7.34666857 2.36620292 11 5 C10.01 5.495 10.01 5.495 9 6 C6.8359375 5.22265625 6.8359375 5.22265625 4.375 4.0625 C3.55773437 3.68222656 2.74046875 3.30195312 1.8984375 2.91015625 C1.27195313 2.60980469 0.64546875 2.30945313 0 2 C0 1.34 0 0.68 0 0 Z " fill="#D3D4D6" transform="translate(161,122)"/>
<path d="M0 0 C2.31 0.33 4.62 0.66 7 1 C6.34 1.66 5.68 2.32 5 3 C5.33 3.99 5.66 4.98 6 6 C3.69 6.33 1.38 6.66 -1 7 C-0.34 6.01 0.32 5.02 1 4 C1.66 4 2.32 4 3 4 C3 3.34 3 2.68 3 2 C2.01 1.67 1.02 1.34 0 1 C0 0.67 0 0.34 0 0 Z " fill="#CAB4A5" transform="translate(83,91)"/>
<path d="M0 0 C1.5625 1.75 1.5625 1.75 3 4 C2.6875 6.25 2.6875 6.25 2 8 C0.35 8 -1.3 8 -3 8 C-2.67 6.68 -2.34 5.36 -2 4 C-1.34 4 -0.68 4 0 4 C0 2.68 0 1.36 0 0 Z " fill="#F5CFB5" transform="translate(86,80)"/>
<path d="M0 0 C0.99 0.66 1.98 1.32 3 2 C2.67 3.65 2.34 5.3 2 7 C-0.31 6.34 -2.62 5.68 -5 5 C-5 4.67 -5 4.34 -5 4 C-3.35 4 -1.7 4 0 4 C0 2.68 0 1.36 0 0 Z " fill="#43403E" transform="translate(186,127)"/>
<path d="M0 0 C3.40312738 1.05875074 6.01353231 2.00902154 9 4 C9.33 3.01 9.66 2.02 10 1 C10 2.32 10 3.64 10 5 C8.02 5 6.04 5 4 5 C4 4.34 4 3.68 4 3 C2.68 2.67 1.36 2.34 0 2 C0 1.34 0 0.68 0 0 Z " fill="#212427" transform="translate(176,126)"/>
<path d="M0 0 C2.475 0.99 2.475 0.99 5 2 C4.67 2.66 4.34 3.32 4 4 C4.33 4.99 4.66 5.98 5 7 C2.13275314 6.42655063 1.1385485 6.1385485 -1 4 C-0.625 1.875 -0.625 1.875 0 0 Z " fill="#202124" transform="translate(164,114)"/>
<path d="M0 0 C0.33 0 0.66 0 1 0 C1.309375 1.11375 1.61875 2.2275 1.9375 3.375 C2.82326483 6.7945155 2.82326483 6.7945155 4 9 C1.125 8.8125 1.125 8.8125 -2 8 C-3.375 5.4375 -3.375 5.4375 -4 3 C-2.02 3.99 -2.02 3.99 0 5 C0 3.35 0 1.7 0 0 Z " fill="#C1A188" transform="translate(94,65)"/>
<path d="M0 0 C0.99 0 1.98 0 3 0 C3 2.31 3 4.62 3 7 C1.68 6.67 0.36 6.34 -1 6 C-0.67 4.02 -0.34 2.04 0 0 Z " fill="#E6C8B0" transform="translate(189,138)"/>
<path d="M0 0 C0.99 0 1.98 0 3 0 C2.67 1.98 2.34 3.96 2 6 C0.68 6 -0.64 6 -2 6 C-2 5.01 -2 4.02 -2 3 C-1.34 3 -0.68 3 0 3 C0 2.01 0 1.02 0 0 Z " fill="#C9A281" transform="translate(117,87)"/>
<path d="M0 0 C2.475 0.495 2.475 0.495 5 1 C5 2.32 5 3.64 5 5 C3.68 4.67 2.36 4.34 1 4 C0.67 2.68 0.34 1.36 0 0 Z " fill="#FEF8F3" transform="translate(89,76)"/>
<path d="M0 0 C0 0.99 0 1.98 0 3 C-2.31 3 -4.62 3 -7 3 C-7.33 2.34 -7.66 1.68 -8 1 C-5.07175348 0.02391783 -3.04386724 -0.08226668 0 0 Z " fill="#7C706A" transform="translate(192,145)"/>
<path d="M0 0 C-0.99 1.485 -0.99 1.485 -2 3 C-4.1640625 3.29296875 -4.1640625 3.29296875 -6.625 3.1875 C-7.44226563 3.16042969 -8.25953125 3.13335937 -9.1015625 3.10546875 C-9.72804687 3.07066406 -10.35453125 3.03585938 -11 3 C-6.86621405 0.2441427 -4.94796454 -0.10756445 0 0 Z " fill="#8E9293" transform="translate(187,145)"/>
<path d="M0 0 C0.99 0.33 1.98 0.66 3 1 C3 1.66 3 2.32 3 3 C1.68 3.33 0.36 3.66 -1 4 C-1 4.66 -1 5.32 -1 6 C-1.66 6 -2.32 6 -3 6 C-3.33 5.01 -3.66 4.02 -4 3 C-2.1875 1.4375 -2.1875 1.4375 0 0 Z " fill="#4B413D" transform="translate(94,89)"/>
<path d="M0 0 C0.94875 0.350625 1.8975 0.70125 2.875 1.0625 C2.875 2.0525 2.875 3.0425 2.875 4.0625 C1.555 3.7325 0.235 3.4025 -1.125 3.0625 C-0.795 2.7325 -0.465 2.4025 -0.125 2.0625 C-1.775 2.0625 -3.425 2.0625 -5.125 2.0625 C-5.125 1.4025 -5.125 0.7425 -5.125 0.0625 C-3.125 -0.9375 -3.125 -0.9375 0 0 Z " fill="#323335" transform="translate(133.125,89.9375)"/>
<path d="M0 0 C0.33 0 0.66 0 1 0 C1.625 2.875 1.625 2.875 2 6 C1.34 6.66 0.68 7.32 0 8 C-0.99 7.67 -1.98 7.34 -3 7 C-2.67 5.35 -2.34 3.7 -2 2 C-1.34 2 -0.68 2 0 2 C0 1.34 0 0.68 0 0 Z " fill="#3B2C1E" transform="translate(122,87)"/>
<path d="M0 0 C3.63 0 7.26 0 11 0 C9.02 0.99 9.02 0.99 7 2 C6.01 2.66 5.02 3.32 4 4 C2.68 2.68 1.36 1.36 0 0 Z " fill="#6C5E4E" transform="translate(91,75)"/>
<path d="M0 0 C1.65 1.32 3.3 2.64 5 4 C4.360625 4.12375 3.72125 4.2475 3.0625 4.375 C2.0415625 4.684375 2.0415625 4.684375 1 5 C0.67 5.66 0.34 6.32 0 7 C-0.93423645 3.98968256 -1.04449911 3.13349732 0 0 Z " fill="#363739" transform="translate(155,107)"/>
<path d="M0 0 C0.66 0 1.32 0 2 0 C1.75 2.375 1.75 2.375 1 5 C-1.0625 6.3125 -1.0625 6.3125 -3 7 C-3.33 5.68 -3.66 4.36 -4 3 C-3.34 3 -2.68 3 -2 3 C-1.34 2.01 -0.68 1.02 0 0 Z " fill="#18191B" transform="translate(132,101)"/>
<path d="M0 0 C1.32 0 2.64 0 4 0 C4 0.66 4 1.32 4 2 C4.66 2 5.32 2 6 2 C6.33 3.32 6.66 4.64 7 6 C5.1875 5.8125 5.1875 5.8125 3 5 C1.25 2.4375 1.25 2.4375 0 0 Z " fill="#2D2726" transform="translate(87,93)"/>
<path d="M0 0 C1.65 0 3.3 0 5 0 C4.67 1.32 4.34 2.64 4 4 C2.35 4 0.7 4 -1 4 C-0.67 2.68 -0.34 1.36 0 0 Z " fill="#A2815E" transform="translate(114,93)"/>
<path d="M0 0 C0.75 1.6875 0.75 1.6875 1 4 C-0.9375 6.75 -0.9375 6.75 -3 9 C-3.625 7.1875 -3.625 7.1875 -4 5 C-3.34 4.01 -2.68 3.02 -2 2 C-1.34 2 -0.68 2 0 2 C0 1.34 0 0.68 0 0 Z " fill="#291F11" transform="translate(121,92)"/>
<path d="M0 0 C1.98 0 3.96 0 6 0 C6 0.66 6 1.32 6 2 C3.5 3.625 3.5 3.625 1 5 C0.67 3.35 0.34 1.7 0 0 Z " fill="#8D6947" transform="translate(71,77)"/>
<path d="M0 0 C0.99 0.33 1.98 0.66 3 1 C2.33333333 3 1.66666667 5 1 7 C0.01 6.67 -0.98 6.34 -2 6 C-1.34 4.02 -0.68 2.04 0 0 Z " fill="#B39883" transform="translate(189,130)"/>
<path d="M0 0 C0.66666667 1.33333333 1.33333333 2.66666667 2 4 C-0.875 4.125 -0.875 4.125 -4 4 C-4.66 3.34 -5.32 2.68 -6 2 C-3 0 -3 0 0 0 Z " fill="#101117" transform="translate(142,119)"/>
<path d="M0 0 C0.66 0.33 1.32 0.66 2 1 C2 1.66 2 2.32 2 3 C2.99 3 3.98 3 5 3 C5 3.66 5 4.32 5 5 C2.69 4.67 0.38 4.34 -2 4 C-1.34 2.68 -0.68 1.36 0 0 Z " fill="#736050" transform="translate(102,97)"/>
<path d="M0 0 C0 1.32 0 2.64 0 4 C-1.65 4.33 -3.3 4.66 -5 5 C-4.625 3.0625 -4.625 3.0625 -4 1 C-2 0 -2 0 0 0 Z " fill="#191A1D" transform="translate(156,122)"/>
<path d="M0 0 C-0.66 0 -1.32 0 -2 0 C-2 0.99 -2 1.98 -2 3 C-4.46800047 1.84826645 -6.04783565 0.95216435 -8 -1 C-4.59745511 -2.2151946 -3.06748874 -1.86240388 0 0 Z " fill="#38393B" transform="translate(173,118)"/>
<path d="M0 0 C0.9075 0.226875 1.815 0.45375 2.75 0.6875 C-0.6519487 2.78100689 -3.30272412 2.86692163 -7.25 2.6875 C-4.61280971 0.1517401 -3.74095095 -0.35970682 0 0 Z " fill="#B9977A" transform="translate(88.25,74.3125)"/>
</svg>
